<?xml version="1.0" encoding="utf-8"?>
<!-- Generator: Adobe Illustrator 25.2.3, SVG Export Plug-In . SVG Version: 6.00 Build 0)  -->
<svg version="1.1" id="Layer_1" xmlns="http://www.w3.org/2000/svg" xmlns:xlink="http://www.w3.org/1999/xlink" x="0px" y="0px"
	 viewBox="0 0 314 60" style="enable-background:new 0 0 314 60;" xml:space="preserve">
<style type="text/css">
	.st0{fill:#231F20;}
	.st1{fill:#96262C;}
</style>
<g>
	<g>
		<g>
			<path class="st0" d="M25.95,19.86l-0.03,11.4h-1.01c0,0-0.26-6.24-5.5-8.91c-5.26-2.69-11.2-1.23-12.91,2.13
				c-1.09,2.13-1.2,5.38,1.94,8.24c1.24,1.13,3.03,1.94,5.4,3.01c4.3,1.94,7.84,2.99,10,4.91c2.04,1.81,3.88,4.48,3.66,8.26
				c-0.44,7.73-7.86,10.82-13.96,10.82c-1.34,0-2.55-0.16-2.98-0.22l0.19-0.99c0,0,1.7,0.27,2.9,0.21c2.04-0.1,6.98-1,8.29-5.2
				c1.31-4.19-2.35-7.09-3.05-7.59c-1.13-0.78-3.02-1.61-8.09-3.73S1.49,37.3,1.11,31.99c0,0-0.22-3.52,1.94-6.7
				c2.8-4.12,6.25-5.43,10.52-5.43c5.96,0,6.82,2.29,9.37,1.99c1.25-0.15,2.18-1.03,2.59-1.99H25.95z"/>
			<circle class="st1" cx="4.73" cy="52.05" r="4.67"/>
		</g>
		<path class="st0" d="M58,22c-0.98-0.51-2.52-1.07-4.42-0.94c-5.26,0.38-8.54,6.34-9.75,11.21c-1.17,4.69-1.47,9.64-0.08,14.79
			c1.75,6.52,5.61,11.58,10.05,11.52c3.96-0.05,7.09-1.77,9.16-3.48l0.63,0.79c-3.36,3.05-8.15,3.86-9.73,3.86
			c-1.48,0-6.97,0.39-12.5-4.8c-5.29-4.96-6.2-11.92-6.2-14.93c0-2.74,0.28-7.72,4.32-13.17s9.94-6.86,12.44-6.93
			c2.51-0.07,5.58-0.01,9.45,2.29c3.05,1.81,4.87,4.16,5.42,4.95c0.5,0.72,0.8,1.7,0.8,2.7c0,2.26-1.86,4.59-4.76,4.59
			c-2.32,0-4.58-1.97-4.58-4.6c0-1.76,0.9-2.9,1.19-3.2c0.47-0.47,1.07-1.32,0.75-2.51C59.84,22.8,58.43,22.22,58,22z"/>
		<path class="st0" d="M118.23,59.32c1.82,0,3.71-1.39,3.71-3.8c0-4.37,0-30.2,0-31.49c0-1.81-1.43-3.71-3.71-3.71v-0.42l11.26,0
			v6.25c0,0,2.42-4.74,9.39-5.99c6.69-1.21,11.66,1.49,14,3.88c2.29,2.34,2.86,4.64,2.86,6.29c0,6.41,0,24.11,0,25.36
			c0,1.51,1.28,3.63,3.71,3.63v0.42h-14.98v-0.42c1.98,0,3.71-1.59,3.71-3.66c0-4.08,0-23.83,0-25.33c0-1.04-0.44-4.17-3.81-6.58
			c-3.37-2.41-7.76-2.11-10.92-0.07c-3.04,1.96-3.93,5.43-3.93,6.29c0,1.13,0,24.1,0,25.73c0,1.66,1.41,3.62,3.71,3.62v0.42h-14.98
			V59.32z"/>
		<path class="st0" d="M200.36,55.7c0-1.69,0-55.7,0-55.7h-11.25v0.42c2.24,0,3.7,1.83,3.7,3.72c0,0.68,0,19.42,0,19.42
			s-3.45-3.03-8.46-3.58c-4.83-0.54-8.82,1.38-10.73,2.57c-6.49,4.04-11.06,13.63-8.12,23.44c2.52,8.4,9.44,13.74,16.91,13.74
			c6.33,0,10.4-3.65,10.4-3.65v3.65h11.26v-0.42C201.84,59.32,200.36,57.42,200.36,55.7z M192.73,51.18c0,0-0.82,2.25-3.04,4.69
			c-4.02,4.4-10.85,3.94-14.64-4.34c-4.77-10.4-1.35-22,1.72-25.98c2.68-3.49,5.97-5.11,9.59-3.83c3.9,1.38,6.38,6.98,6.38,6.98
			V51.18z"/>
		<path class="st0" d="M257.1,55.67c0-1.18,0-50.37,0-51.54c0-1.82-1.46-3.71-3.71-3.71V0h11.2c0,0,0,55.01,0,55.72
			c0,1.75,1.49,3.61,3.7,3.61v0.42h-14.89v-0.42C255.46,59.33,257.1,57.64,257.1,55.67z"/>
		<path class="st0" d="M310.85,39.52c0,0,0.12-6.52-3.94-12.15c-3.65-5.05-8.93-7.47-13.59-7.47c-5.49,0-9.59,2.06-13.43,6.37
			c-3.88,4.36-4.77,10.52-4.75,12.5c0.02,1.97-0.4,9.99,6.42,16.38c6.35,5.95,13.64,5.16,18.29,3.1l-0.44-0.91
			c0,0-6.63,3.58-10.91-0.92c-4.28-4.5-5.36-12.57-5.3-16.9H310.85z M285.1,28.82c1.58-4.34,4.91-7.9,8.16-7.81
			c3.08,0.09,5.64,2.38,7.62,6.57c2.38,5.06,2.38,10.93,2.38,10.93h-20.02C283.28,36.46,283.52,33.16,285.1,28.82z"/>
		<path class="st0" d="M110.73,59.32c-1.2,0-3.7-0.82-3.7-3.99c0-3.26,0.19-22.18,0.19-23.52s0.48-5.52-4.59-8.99
			c-5.06-3.47-11.1-3.27-15.41-2.21c-5.28,1.3-9.37,5.84-9.37,9.18c0,2.55,2.07,4.67,4.67,4.67c2.52,0,4.61-2.02,4.67-4.57
			c0,0,0.13-1.83-1.27-3.3c-1.5-1.56-0.86-2.65-0.2-3.24c0.66-0.59,2.54-2.47,6.05-2.36c3.5,0.11,5.63,2.65,6.38,3.84
			c0.75,1.19,1.44,2.86,1.44,4.9c0,2.03,0,11.39,0,11.39s-3.72-3.73-10.07-3.73c-7.42,0-10.9,3.22-12.74,6.1
			c-2.08,3.26-2.29,8.18,1.77,12.23c2.97,2.97,7.84,4.52,12.74,3.89c5.6-0.72,8.37-3.72,8.37-3.72l-0.06,3.85h11.14V59.32z
			 M99.65,52.6c-0.52,1.35-2.04,3.11-3.8,4.14c-2.29,1.33-6.95,2.05-10.34-1.25c-3.62-3.52-3.43-8.03-2.25-10.72
			c1.4-3.18,5.76-6.82,10.98-5.02c4.06,1.39,5.41,4.76,5.41,4.76V52.6z"/>
		<path class="st0" d="M246.55,59.32c-1.2,0-3.7-0.82-3.7-3.99c0-3.26,0.19-22.18,0.19-23.52s0.48-5.52-4.59-8.99
			c-5.06-3.47-11.1-3.27-15.41-2.21c-5.28,1.3-9.37,5.84-9.37,9.18c0,2.55,2.07,4.67,4.67,4.67c2.52,0,4.61-2.02,4.67-4.57
			c0,0,0.13-1.83-1.27-3.3c-1.5-1.56-0.86-2.65-0.2-3.24c0.66-0.59,2.54-2.47,6.05-2.36c3.5,0.11,5.63,2.65,6.38,3.84
			c0.75,1.19,1.44,2.86,1.44,4.9c0,2.03,0,11.39,0,11.39s-3.72-3.73-10.07-3.73c-7.42,0-10.9,3.22-12.74,6.1
			c-2.08,3.26-2.29,8.18,1.77,12.23c2.97,2.97,7.84,4.52,12.74,3.89c5.6-0.72,8.37-3.72,8.37-3.72l-0.06,3.85h11.14V59.32z
			 M235.47,52.6c-0.52,1.35-2.04,3.11-3.8,4.14c-2.29,1.33-6.95,2.05-10.34-1.25c-3.62-3.52-3.43-8.03-2.25-10.72
			c1.4-3.18,5.76-6.82,10.98-5.02c4.06,1.39,5.41,4.76,5.41,4.76V52.6z"/>
	</g>
	<g>
		<path class="st0" d="M305.87,60h-0.76v-4.77h-1.74v-0.67h4.24v0.67h-1.74V60z"/>
		<path class="st0" d="M311.14,58.74h0.02l1.6-4.17h1.18V60h-0.76v-4.54h-0.02l-1.8,4.54h-0.48l-1.8-4.54h-0.02V60h-0.74v-5.43h1.18
			L311.14,58.74z"/>
	</g>
</g>
</svg>
