<?xml version="1.0" encoding="utf-8"?>
<!-- Generator: Adobe Illustrator 25.2.3, SVG Export Plug-In . SVG Version: 6.00 Build 0)  -->
<svg version="1.1" id="Layer_1" xmlns="http://www.w3.org/2000/svg" xmlns:xlink="http://www.w3.org/1999/xlink" x="0px" y="0px"
	 viewBox="0 0 32 32" style="enable-background:new 0 0 32 32;" xml:space="preserve">
<style type="text/css">
	.st0{fill:#E8E5E2;}
	.st1{fill:#231F20;}
	.st2{fill:#96262C;}
</style>
<rect y="-0.02" class="st0" width="32" height="32"/>
<g>
	<path class="st1" d="M23.02,3.99L23,10.85H22.4c0,0-0.16-3.75-3.31-5.36c-3.17-1.62-6.73-0.74-7.77,1.28
		c-0.65,1.28-0.72,3.24,1.17,4.96c0.75,0.68,1.82,1.17,3.25,1.81c2.59,1.17,4.71,1.8,6.02,2.95c1.23,1.09,2.33,2.7,2.2,4.97
		c-0.26,4.65-4.73,6.51-8.39,6.51c-0.8,0-1.54-0.1-1.79-0.13l0.12-0.59c0,0,1.02,0.17,1.74,0.13c1.23-0.06,4.2-0.6,4.99-3.13
		c0.79-2.52-1.41-4.26-1.83-4.56c-0.68-0.47-1.81-0.97-4.87-2.25c-3.05-1.28-5.61-2.95-5.84-6.15c0,0-0.13-2.12,1.17-4.03
		C10.92,4.78,13,4,15.57,4c3.59,0,4.1,1.38,5.64,1.2c0.75-0.09,1.31-0.62,1.56-1.2H23.02z"/>
	<circle class="st2" cx="10.25" cy="23.36" r="2.81"/>
</g>
<g>
	<path class="st1" d="M22.4,27.92h-0.16V26.9h-0.37v-0.14h0.91v0.14H22.4V27.92z"/>
	<path class="st1" d="M23.53,27.65L23.53,27.65l0.35-0.9h0.25v1.17h-0.16v-0.98h0l-0.39,0.98h-0.1l-0.39-0.98h0v0.98h-0.16v-1.17
		h0.25L23.53,27.65z"/>
</g>
</svg>
