<?xml version="1.0" encoding="utf-8"?>
<!-- Generator: Adobe Illustrator 25.2.3, SVG Export Plug-In . SVG Version: 6.00 Build 0)  -->
<svg version="1.1" id="Layer_1" xmlns="http://www.w3.org/2000/svg" xmlns:xlink="http://www.w3.org/1999/xlink" x="0px" y="0px"
	 viewBox="0 0 581 76" style="enable-background:new 0 0 581 76;" xml:space="preserve">
<style type="text/css">
	.st0{fill:#231F20;}
	.st1{fill:#96262C;}
</style>
<g>
	<g>
		<path class="st0" d="M28.07,22.86L28.04,34.8h-1.06c0,0-0.27-6.53-5.76-9.34C15.71,22.65,9.5,24.18,7.7,27.7
			c-1.14,2.23-1.26,5.64,2.03,8.63c1.3,1.18,3.18,2.04,5.66,3.16c4.51,2.04,8.21,3.13,10.48,5.14c2.14,1.89,4.06,4.69,3.84,8.65
			c-0.46,8.1-8.23,11.33-14.62,11.33c-1.4,0-2.67-0.17-3.12-0.23l0.2-1.03c0,0,1.78,0.29,3.03,0.23c2.14-0.11,7.31-1.05,8.68-5.44
			c1.37-4.39-2.46-7.42-3.19-7.95c-1.19-0.82-3.16-1.69-8.47-3.91C6.9,44.05,2.45,41.13,2.05,35.57c0,0-0.23-3.69,2.03-7.01
			c2.93-4.32,6.55-5.69,11.01-5.69c6.25,0,7.15,2.4,9.82,2.09c1.31-0.15,2.28-1.08,2.71-2.09H28.07z"/>
		<circle class="st1" cx="5.84" cy="56.57" r="4.89"/>
	</g>
	<path class="st0" d="M61.63,25.1C60.61,24.57,59,23.98,57,24.12c-5.51,0.39-8.94,6.64-10.21,11.73c-1.22,4.91-1.54,10.1-0.09,15.49
		c1.84,6.82,5.87,12.12,10.53,12.06c4.15-0.05,7.42-1.85,9.6-3.64l0.66,0.82c-3.52,3.2-8.54,4.05-10.19,4.05
		c-1.55,0-7.3,0.4-13.09-5.02c-5.55-5.2-6.5-12.48-6.5-15.63c0-2.86,0.29-8.09,4.53-13.79S52.66,23,55.27,22.93
		c2.63-0.07,5.85-0.01,9.9,2.4c3.19,1.9,5.1,4.36,5.67,5.19c0.52,0.75,0.84,1.78,0.84,2.83c0,2.37-1.95,4.81-4.98,4.81
		c-2.43,0-4.8-2.06-4.8-4.81c0-1.84,0.94-3.04,1.25-3.35c0.5-0.5,1.12-1.38,0.79-2.63C63.56,25.94,62.09,25.34,61.63,25.1z"/>
	<path class="st0" d="M124.71,64.19c1.9,0,3.89-1.45,3.89-3.98c0-4.58,0-31.62,0-32.97c0-1.9-1.5-3.88-3.89-3.88v-0.44l11.79,0v6.54
		c0,0,2.54-4.96,9.83-6.28c7.01-1.26,12.21,1.56,14.66,4.06c2.4,2.45,2.99,4.85,2.99,6.59c0,6.72,0,25.25,0,26.55
		c0,1.58,1.34,3.81,3.89,3.81v0.44h-15.69v-0.44c2.08,0,3.88-1.67,3.88-3.83c0-4.27,0-24.96,0-26.53c0-1.09-0.46-4.37-3.99-6.89
		c-3.53-2.53-8.13-2.21-11.43-0.08c-3.18,2.06-4.12,5.68-4.12,6.59c0,1.19,0,25.24,0,26.94c0,1.74,1.47,3.79,3.88,3.79v0.44h-15.69
		V64.19z"/>
	<path class="st0" d="M210.72,60.4c0-1.77,0-58.33,0-58.33h-11.78v0.44c2.35,0,3.88,1.91,3.88,3.9c0,0.71,0,20.34,0,20.34
		s-3.62-3.17-8.86-3.75c-5.06-0.56-9.23,1.44-11.24,2.69c-6.8,4.23-11.59,14.27-8.5,24.55c2.64,8.79,9.89,14.39,17.71,14.39
		c6.63,0,10.89-3.82,10.89-3.82v3.82h11.79v-0.44C212.27,64.19,210.72,62.2,210.72,60.4z M202.74,55.66c0,0-0.85,2.36-3.18,4.91
		c-4.21,4.61-11.36,4.12-15.33-4.54c-4.99-10.89-1.41-23.04,1.8-27.21c2.81-3.66,6.26-5.35,10.04-4.01
		c4.08,1.44,6.68,7.31,6.68,7.31V55.66z"/>
	<path class="st0" d="M270.14,60.37c0-1.24,0-52.76,0-53.98c0-1.9-1.53-3.88-3.89-3.88V2.06h11.73c0,0,0,57.61,0,58.36
		c0,1.83,1.56,3.78,3.87,3.78v0.44h-15.6V64.2C268.43,64.2,270.14,62.43,270.14,60.37z"/>
	<path class="st0" d="M326.44,43.45c0,0,0.13-6.83-4.13-12.72c-3.82-5.29-9.36-7.82-14.23-7.82c-5.75,0-10.05,2.16-14.07,6.68
		c-4.07,4.57-5,11.02-4.98,13.09c0.02,2.07-0.42,10.46,6.73,17.15c6.65,6.23,14.28,5.41,19.16,3.24l-0.46-0.95
		c0,0-6.94,3.75-11.43-0.97c-4.49-4.71-5.62-13.17-5.55-17.69H326.44z M299.47,32.24c1.66-4.54,5.14-8.28,8.55-8.18
		c3.22,0.1,5.91,2.49,7.98,6.88c2.5,5.3,2.5,11.44,2.5,11.44h-20.97C297.56,40.25,297.82,36.78,299.47,32.24z"/>
	<path class="st0" d="M116.86,64.18c-1.26,0-3.88-0.86-3.88-4.18c0-3.41,0.2-23.23,0.2-24.63c0-1.4,0.5-5.78-4.8-9.41
		c-5.3-3.64-11.62-3.43-16.13-2.32c-5.53,1.36-9.81,6.12-9.81,9.61c0,2.67,2.17,4.89,4.89,4.89c2.64,0,4.83-2.12,4.89-4.79
		c0,0,0.14-1.92-1.33-3.46c-1.57-1.63-0.9-2.78-0.21-3.4c0.69-0.62,2.66-2.58,6.33-2.47c3.67,0.11,5.9,2.78,6.68,4.02
		c0.78,1.24,1.5,3,1.5,5.13c0,2.13,0,11.93,0,11.93s-3.9-3.9-10.54-3.9c-7.77,0-11.42,3.37-13.34,6.39
		c-2.18,3.41-2.4,8.57,1.85,12.81c3.11,3.11,8.21,4.74,13.34,4.08c5.86-0.75,8.76-3.89,8.76-3.89l-0.07,4.03h11.67V64.18z
		 M105.25,57.14c-0.55,1.41-2.13,3.26-3.98,4.33c-2.39,1.4-7.28,2.14-10.83-1.31c-3.79-3.69-3.6-8.41-2.36-11.23
		c1.46-3.33,6.03-7.14,11.5-5.26c4.25,1.46,5.67,4.99,5.67,4.99V57.14z"/>
	<path class="st0" d="M259.1,64.18c-1.26,0-3.88-0.86-3.88-4.18c0-3.41,0.2-23.23,0.2-24.63c0-1.4,0.5-5.78-4.8-9.41
		c-5.3-3.64-11.62-3.43-16.13-2.32c-5.53,1.36-9.81,6.12-9.81,9.61c0,2.67,2.17,4.89,4.89,4.89c2.64,0,4.83-2.12,4.89-4.79
		c0,0,0.14-1.92-1.33-3.46c-1.57-1.63-0.9-2.78-0.21-3.4s2.66-2.58,6.33-2.47c3.67,0.11,5.9,2.78,6.68,4.02
		c0.78,1.24,1.5,3,1.5,5.13c0,2.13,0,11.93,0,11.93s-3.9-3.9-10.54-3.9c-7.77,0-11.42,3.37-13.34,6.39
		c-2.18,3.41-2.4,8.57,1.85,12.81c3.11,3.11,8.21,4.74,13.34,4.08c5.86-0.75,8.76-3.89,8.76-3.89l-0.07,4.03h11.67V64.18z
		 M247.5,57.14c-0.55,1.41-2.13,3.26-3.98,4.33c-2.39,1.4-7.28,2.14-10.83-1.31c-3.79-3.69-3.6-8.41-2.36-11.23
		c1.46-3.33,6.03-7.14,11.5-5.26c4.25,1.46,5.67,4.99,5.67,4.99V57.14z"/>
	<g>
		<path class="st0" d="M321.22,64.9h-0.8v-4.99h-1.82v-0.7h4.44v0.7h-1.82V64.9z"/>
		<path class="st0" d="M326.74,63.58h0.02l1.68-4.37h1.24v5.69h-0.8v-4.76h-0.02l-1.89,4.76h-0.51l-1.88-4.76h-0.02v4.76h-0.77
			v-5.69h1.24L326.74,63.58z"/>
	</g>
	<g>
		<path class="st0" d="M374.65,53.48c0,0.2,0,0.41,0,0.63c0,0.22-0.01,0.46-0.04,0.71h-16.26c0.03,0.98,0.22,1.9,0.59,2.77
			c0.36,0.87,0.87,1.62,1.51,2.26c0.64,0.64,1.4,1.15,2.26,1.53c0.87,0.38,1.8,0.57,2.81,0.57c1.48,0,2.76-0.34,3.84-1.03
			c1.08-0.68,1.89-1.47,2.45-2.37l2.14,1.68c-1.17,1.48-2.47,2.54-3.88,3.19c-1.41,0.64-2.93,0.96-4.55,0.96
			c-1.45,0-2.8-0.26-4.05-0.78c-1.24-0.52-2.31-1.24-3.21-2.16c-0.89-0.92-1.6-2.01-2.12-3.27s-0.78-2.63-0.78-4.11
			c0-1.48,0.25-2.85,0.75-4.11c0.5-1.26,1.2-2.35,2.1-3.27c0.89-0.92,1.94-1.64,3.14-2.16c1.2-0.52,2.5-0.78,3.9-0.78
			c1.54,0,2.89,0.26,4.07,0.78c1.17,0.52,2.15,1.22,2.93,2.1c0.78,0.88,1.38,1.91,1.78,3.08C374.45,50.88,374.65,52.14,374.65,53.48
			z M371.76,52.56c-0.08-1.84-0.68-3.37-1.78-4.59c-1.1-1.22-2.68-1.82-4.72-1.82c-0.95,0-1.83,0.17-2.64,0.52
			c-0.81,0.35-1.52,0.82-2.14,1.43c-0.62,0.6-1.1,1.29-1.47,2.05c-0.36,0.77-0.57,1.57-0.63,2.41H371.76z M366.02,40.24h-2.47
			l4.19-6.04h3.81L366.02,40.24z"/>
		<path class="st0" d="M394.9,48.75c-0.48-0.75-1.17-1.38-2.08-1.87c-0.91-0.49-1.89-0.73-2.95-0.73c-1.15,0-2.18,0.2-3.1,0.61
			c-0.92,0.41-1.71,0.96-2.37,1.68c-0.66,0.71-1.16,1.55-1.51,2.52c-0.35,0.96-0.52,2.01-0.52,3.12c0,1.12,0.17,2.15,0.52,3.1
			c0.35,0.95,0.84,1.78,1.49,2.49c0.64,0.71,1.43,1.27,2.35,1.68c0.92,0.41,1.96,0.61,3.1,0.61c1.26,0,2.32-0.24,3.19-0.71
			c0.87-0.47,1.58-1.09,2.14-1.84l2.14,1.59c-0.84,1.03-1.87,1.86-3.08,2.47c-1.22,0.61-2.68,0.92-4.38,0.92
			c-1.59,0-3.03-0.26-4.32-0.78c-1.29-0.52-2.38-1.24-3.29-2.16c-0.91-0.92-1.61-2.01-2.12-3.27c-0.5-1.26-0.75-2.63-0.75-4.11
			c0-1.48,0.25-2.85,0.75-4.11c0.5-1.26,1.21-2.35,2.12-3.27c0.91-0.92,2-1.64,3.29-2.16c1.29-0.52,2.72-0.78,4.32-0.78
			c1.31,0,2.65,0.29,4,0.86c1.35,0.57,2.45,1.42,3.29,2.54L394.9,48.75z"/>
		<path class="st0" d="M421.22,54.07c0,1.48-0.26,2.85-0.78,4.11c-0.52,1.26-1.24,2.35-2.16,3.27c-0.92,0.92-2.03,1.64-3.31,2.16
			c-1.29,0.52-2.7,0.78-4.23,0.78c-1.51,0-2.91-0.26-4.19-0.78c-1.29-0.52-2.39-1.24-3.31-2.16c-0.92-0.92-1.64-2.01-2.16-3.27
			s-0.78-2.63-0.78-4.11c0-1.48,0.26-2.85,0.78-4.11c0.52-1.26,1.24-2.35,2.16-3.27c0.92-0.92,2.03-1.64,3.31-2.16
			c1.28-0.52,2.68-0.78,4.19-0.78c1.54,0,2.95,0.26,4.23,0.78c1.28,0.52,2.39,1.24,3.31,2.16c0.92,0.92,1.64,2.01,2.16,3.27
			C420.96,51.22,421.22,52.59,421.22,54.07z M418.2,54.07c0-1.09-0.17-2.12-0.52-3.08c-0.35-0.96-0.85-1.8-1.49-2.52
			s-1.43-1.28-2.35-1.7c-0.92-0.42-1.96-0.63-3.1-0.63c-1.15,0-2.17,0.21-3.08,0.63c-0.91,0.42-1.68,0.99-2.33,1.7
			c-0.64,0.71-1.14,1.55-1.49,2.52c-0.35,0.96-0.52,1.99-0.52,3.08c0,1.09,0.17,2.12,0.52,3.08c0.35,0.96,0.84,1.8,1.49,2.52
			c0.64,0.71,1.42,1.27,2.33,1.68c0.91,0.41,1.93,0.61,3.08,0.61c1.15,0,2.18-0.2,3.1-0.61c0.92-0.4,1.7-0.96,2.35-1.68
			s1.14-1.55,1.49-2.52C418.03,56.19,418.2,55.16,418.2,54.07z"/>
		<path class="st0" d="M434.97,54.91h-9.39v-2.39h9.39V54.91z"/>
		<path class="st0" d="M443.69,63.88h-2.85V32.19h2.85V63.88z"/>
		<path class="st0" d="M454.8,36.72c0,0.59-0.21,1.07-0.63,1.45c-0.42,0.38-0.88,0.57-1.38,0.57c-0.5,0-0.96-0.19-1.38-0.57
			c-0.42-0.38-0.63-0.86-0.63-1.45s0.21-1.07,0.63-1.45c0.42-0.38,0.88-0.57,1.38-0.57c0.5,0,0.96,0.19,1.38,0.57
			C454.59,35.65,454.8,36.13,454.8,36.72z M454.21,63.88h-2.85V44.26h2.85V63.88z"/>
		<path class="st0" d="M464.35,44.26c0.06,0.53,0.1,1.12,0.13,1.76c0.03,0.64,0.04,1.17,0.04,1.59h0.08
			c0.56-1.15,1.47-2.07,2.72-2.79s2.58-1.07,3.98-1.07c2.49,0,4.35,0.74,5.6,2.22c1.24,1.48,1.87,3.44,1.87,5.87v12.03h-2.85V53.02
			c0-1.03-0.08-1.97-0.25-2.81c-0.17-0.84-0.45-1.56-0.86-2.16c-0.41-0.6-0.95-1.07-1.63-1.4c-0.69-0.34-1.54-0.5-2.58-0.5
			c-0.75,0-1.49,0.15-2.2,0.46c-0.71,0.31-1.35,0.78-1.91,1.4c-0.56,0.63-1.01,1.43-1.34,2.39c-0.34,0.96-0.5,2.1-0.5,3.42v10.06
			h-2.85v-15.3c0-0.53-0.01-1.22-0.04-2.05c-0.03-0.84-0.07-1.59-0.13-2.26H464.35z"/>
		<path class="st0" d="M487.2,67.82c0.78,1.01,1.85,1.86,3.21,2.56c1.35,0.7,2.79,1.05,4.3,1.05c1.4,0,2.58-0.2,3.56-0.61
			c0.98-0.41,1.77-0.96,2.37-1.66c0.6-0.7,1.04-1.52,1.32-2.45c0.28-0.94,0.42-1.94,0.42-3v-3.69h-0.08
			c-0.75,1.23-1.82,2.18-3.21,2.85c-1.38,0.67-2.79,1.01-4.21,1.01c-1.54,0-2.93-0.25-4.17-0.75c-1.24-0.5-2.31-1.19-3.19-2.07
			c-0.88-0.88-1.57-1.93-2.05-3.16c-0.49-1.23-0.73-2.56-0.73-3.98c0-1.4,0.24-2.71,0.73-3.94c0.49-1.23,1.17-2.31,2.05-3.23
			c0.88-0.92,1.94-1.65,3.19-2.18c1.24-0.53,2.63-0.8,4.17-0.8c1.43,0,2.82,0.34,4.19,1.01c1.37,0.67,2.45,1.63,3.23,2.89h0.08v-3.4
			h2.85v19.45c0,1.06-0.15,2.19-0.44,3.4c-0.29,1.2-0.84,2.31-1.64,3.31c-0.8,1.01-1.88,1.84-3.25,2.52
			c-1.37,0.67-3.14,1.01-5.32,1.01c-1.82,0-3.55-0.35-5.2-1.05c-1.65-0.7-3.06-1.66-4.23-2.89L487.2,67.82z M487.75,53.82
			c0,1.03,0.17,2.01,0.5,2.93c0.34,0.92,0.82,1.73,1.45,2.43c0.63,0.7,1.4,1.25,2.33,1.66c0.92,0.41,1.97,0.61,3.14,0.61
			c1.09,0,2.1-0.18,3.02-0.55c0.92-0.36,1.72-0.88,2.39-1.55c0.67-0.67,1.19-1.47,1.57-2.41c0.38-0.94,0.57-1.98,0.57-3.12
			c0-1.03-0.19-2.01-0.57-2.93c-0.38-0.92-0.9-1.73-1.57-2.43c-0.67-0.7-1.47-1.26-2.39-1.68c-0.92-0.42-1.93-0.63-3.02-0.63
			c-1.17,0-2.22,0.21-3.14,0.63c-0.92,0.42-1.7,0.98-2.33,1.68c-0.63,0.7-1.11,1.51-1.45,2.43
			C487.91,51.81,487.75,52.78,487.75,53.82z"/>
		<path class="st0" d="M530.5,53.48c0,0.2,0,0.41,0,0.63c0,0.22-0.01,0.46-0.04,0.71H514.2c0.03,0.98,0.22,1.9,0.59,2.77
			c0.36,0.87,0.87,1.62,1.51,2.26c0.64,0.64,1.4,1.15,2.26,1.53c0.87,0.38,1.8,0.57,2.81,0.57c1.48,0,2.76-0.34,3.84-1.03
			c1.08-0.68,1.89-1.47,2.45-2.37l2.14,1.68c-1.17,1.48-2.47,2.54-3.88,3.19c-1.41,0.64-2.93,0.96-4.55,0.96
			c-1.45,0-2.8-0.26-4.05-0.78c-1.24-0.52-2.31-1.24-3.21-2.16c-0.89-0.92-1.6-2.01-2.12-3.27c-0.52-1.26-0.78-2.63-0.78-4.11
			c0-1.48,0.25-2.85,0.75-4.11c0.5-1.26,1.2-2.35,2.1-3.27c0.89-0.92,1.94-1.64,3.14-2.16c1.2-0.52,2.5-0.78,3.9-0.78
			c1.54,0,2.89,0.26,4.07,0.78c1.17,0.52,2.15,1.22,2.93,2.1c0.78,0.88,1.38,1.91,1.78,3.08C530.3,50.88,530.5,52.14,530.5,53.48z
			 M527.61,52.56c-0.08-1.84-0.68-3.37-1.78-4.59c-1.1-1.22-2.68-1.82-4.72-1.82c-0.95,0-1.83,0.17-2.64,0.52
			c-0.81,0.35-1.52,0.82-2.14,1.43c-0.61,0.6-1.1,1.29-1.47,2.05c-0.36,0.77-0.57,1.57-0.63,2.41H527.61z"/>
		<path class="st0" d="M536.58,46.52c-0.03-0.84-0.07-1.59-0.13-2.26h2.72c0.06,0.53,0.1,1.12,0.13,1.76
			c0.03,0.64,0.04,1.17,0.04,1.59h0.08c0.56-1.15,1.4-2.07,2.52-2.79c1.12-0.71,2.37-1.07,3.77-1.07c0.36,0,0.69,0.01,0.99,0.04
			c0.29,0.03,0.59,0.08,0.9,0.17l-0.38,2.68c-0.17-0.06-0.45-0.11-0.84-0.17c-0.39-0.06-0.78-0.08-1.17-0.08
			c-0.75,0-1.48,0.14-2.18,0.42c-0.7,0.28-1.31,0.72-1.82,1.32c-0.52,0.6-0.94,1.37-1.26,2.31c-0.32,0.94-0.48,2.06-0.48,3.37v10.06
			h-2.85v-15.3C536.62,48.05,536.61,47.36,536.58,46.52z"/>
		<path class="st0" d="M555.19,36.72c0,0.59-0.21,1.07-0.63,1.45c-0.42,0.38-0.88,0.57-1.38,0.57c-0.5,0-0.96-0.19-1.38-0.57
			c-0.42-0.38-0.63-0.86-0.63-1.45s0.21-1.07,0.63-1.45c0.42-0.38,0.88-0.57,1.38-0.57c0.5,0,0.96,0.19,1.38,0.57
			C554.98,35.65,555.19,36.13,555.19,36.72z M554.6,63.88h-2.85V44.26h2.85V63.88z"/>
		<path class="st0" d="M580.05,53.48c0,0.2,0,0.41,0,0.63c0,0.22-0.01,0.46-0.04,0.71h-16.26c0.03,0.98,0.22,1.9,0.59,2.77
			c0.36,0.87,0.87,1.62,1.51,2.26c0.64,0.64,1.4,1.15,2.26,1.53c0.87,0.38,1.8,0.57,2.81,0.57c1.48,0,2.76-0.34,3.84-1.03
			c1.08-0.68,1.89-1.47,2.45-2.37l2.14,1.68c-1.17,1.48-2.47,2.54-3.88,3.19c-1.41,0.64-2.93,0.96-4.55,0.96
			c-1.45,0-2.8-0.26-4.05-0.78c-1.24-0.52-2.31-1.24-3.21-2.16c-0.89-0.92-1.6-2.01-2.12-3.27c-0.52-1.26-0.78-2.63-0.78-4.11
			c0-1.48,0.25-2.85,0.75-4.11c0.5-1.26,1.2-2.35,2.1-3.27c0.89-0.92,1.94-1.64,3.14-2.16c1.2-0.52,2.5-0.78,3.9-0.78
			c1.54,0,2.89,0.26,4.07,0.78c1.17,0.52,2.15,1.22,2.93,2.1c0.78,0.88,1.38,1.91,1.78,3.08C579.85,50.88,580.05,52.14,580.05,53.48
			z M577.16,52.56c-0.08-1.84-0.68-3.37-1.78-4.59c-1.1-1.22-2.68-1.82-4.72-1.82c-0.95,0-1.83,0.17-2.64,0.52
			c-0.81,0.35-1.52,0.82-2.14,1.43c-0.61,0.6-1.1,1.29-1.47,2.05c-0.36,0.77-0.57,1.57-0.63,2.41H577.16z"/>
	</g>
</g>
</svg>
