<?xml version="1.0" encoding="utf-8"?>
<!-- Generator: Adobe Illustrator 25.3.1, SVG Export Plug-In . SVG Version: 6.00 Build 0)  -->
<svg version="1.1" id="Layer_1" xmlns="http://www.w3.org/2000/svg" xmlns:xlink="http://www.w3.org/1999/xlink" x="0px" y="0px"
	 viewBox="0 0 32 32" style="enable-background:new 0 0 32 32;" xml:space="preserve">
<style type="text/css">
	.st0{clip-path:url(#SVGID_3_);}
	.st1{fill:#231F20;}
	.st2{fill:#AB0A3D;}
</style>
<g>
	<g>
		<defs>
			<circle id="SVGID_1_" cx="16" cy="16" r="15.8"/>
		</defs>
		<defs>
			<path id="SVGID_2_" d="M16,32C7.2,32,0,24.8,0,16S7.2,0,16,0s16,7.2,16,16S24.8,32,16,32z M16,0.3C7.3,0.3,0.3,7.3,0.3,16
				s7,15.7,15.7,15.7s15.7-7,15.7-15.7S24.7,0.3,16,0.3z"/>
		</defs>
		<use xlink:href="#SVGID_1_"  style="overflow:visible;fill:#E8E5E2;"/>
		<use xlink:href="#SVGID_2_"  style="overflow:visible;"/>
		<clipPath id="SVGID_3_">
			<use xlink:href="#SVGID_1_"  style="overflow:visible;"/>
		</clipPath>
		<clipPath id="SVGID_4_" class="st0">
			<use xlink:href="#SVGID_2_"  style="overflow:visible;"/>
		</clipPath>
	</g>
	<g>
		<path class="st1" d="M23,4l0,6.9h-0.6c0,0-0.2-3.8-3.3-5.4c-3.2-1.6-6.7-0.7-7.8,1.3c-0.7,1.3-0.7,3.2,1.2,5
			c0.7,0.7,1.8,1.2,3.2,1.8c2.6,1.2,4.7,1.8,6,3c1.2,1.1,2.3,2.7,2.2,5c-0.3,4.7-4.7,6.5-8.4,6.5c-0.8,0-1.5-0.1-1.8-0.1l0.1-0.6
			c0,0,1,0.2,1.7,0.1c1.2-0.1,4.2-0.6,5-3.1c0.8-2.5-1.4-4.3-1.8-4.6c-0.7-0.5-1.8-1-4.9-2.2c-3.1-1.3-5.6-3-5.8-6.1
			c0,0-0.1-2.1,1.2-4C10.9,4.8,13,4,15.6,4c3.6,0,4.1,1.4,5.6,1.2C22,5.1,22.5,4.6,22.8,4H23z"/>
		<circle class="st2" cx="10.3" cy="23.4" r="2.8"/>
	</g>
	<g>
		<path class="st1" d="M22.4,27.9h-0.2v-1h-0.4v-0.1h0.9v0.1h-0.4V27.9z"/>
		<path class="st1" d="M23.5,27.7L23.5,27.7l0.3-0.9h0.3v1.2H24v-1h0l-0.4,1h-0.1l-0.4-1h0v1h-0.2v-1.2h0.3L23.5,27.7z"/>
	</g>
</g>
</svg>
