<?xml version="1.0" encoding="UTF-8"?>
<svg width="32px" height="32px" viewBox="0 0 32 32" version="1.1" xmlns="http://www.w3.org/2000/svg" xmlns:xlink="http://www.w3.org/1999/xlink">
    <!-- Generator: Sketch 52.6 (67491) - http://www.bohemiancoding.com/sketch -->
    <title>Group 13</title>
    <desc>Created with Sketch.</desc>
    <g id="type_C" stroke="none" stroke-width="1" fill="none" fill-rule="evenodd">
        <g id="top_e-copy" transform="translate(-24.000000, -5340.000000)">
            <g id="Group-13" transform="translate(24.000000, 5340.000000)">
                <rect id="Rectangle" stroke="#000000" stroke-width="1.3" x="0.65" y="0.65" width="30.7" height="30.7" rx="15.35"></rect>
                <path d="M13.916,20 L12.902,17.556 L9.21,17.556 L8.17,20 L7.104,20 L11.095,10.913 L14.982,20 L13.916,20 Z M9.587,16.646 L12.525,16.646 L11.069,13.175 L9.587,16.646 Z M16.854,11.329 L17.816,11.329 L17.816,19.09 L20.208,19.09 L20.208,20 L16.854,20 L16.854,11.329 Z M22.158,11.329 L23.12,11.329 L23.12,19.09 L25.512,19.09 L25.512,20 L22.158,20 L22.158,11.329 Z" id="ALL" fill="#000000"></path>
            </g>
        </g>
    </g>
</svg>