<?xml version="1.0" encoding="UTF-8"?>
<svg width="32px" height="30px" viewBox="0 0 32 30" version="1.1" xmlns="http://www.w3.org/2000/svg" xmlns:xlink="http://www.w3.org/1999/xlink">
    <!-- Generator: Sketch 52.6 (67491) - http://www.bohemiancoding.com/sketch -->
    <title>Shape</title>
    <desc>Created with Sketch.</desc>
    <g id="type_C" stroke="none" stroke-width="1" fill="none" fill-rule="evenodd">
        <g id="top_e-copy" transform="translate(-25.000000, -5823.000000)" fill="#000000" fill-rule="nonzero">
            <path d="M56.36,5837.68085 L55.72,5837.68085 L55.72,5828.10638 C55.72,5826.31915 54.312,5824.91489 52.52,5824.91489 C50.728,5824.91489 49.32,5826.31915 49.32,5828.10638 C48.936,5828.10638 48.68,5828.3617 48.68,5828.74468 C48.68,5829.12766 48.936,5829.38298 49.32,5829.38298 L50.6,5829.38298 C50.984,5829.38298 51.24,5829.12766 51.24,5828.74468 C51.24,5828.3617 50.984,5828.10638 50.6,5828.10638 C50.6,5827.02128 51.432,5826.19149 52.52,5826.19149 C53.608,5826.19149 54.44,5827.02128 54.44,5828.10638 L54.44,5837.68085 L50.6,5837.68085 L50.6,5836.40426 C50.6,5836.02128 50.344,5835.76596 49.96,5835.76596 L42.28,5835.76596 C41.896,5835.76596 41.64,5836.02128 41.64,5836.40426 L41.64,5837.68085 L25.64,5837.68085 C25.256,5837.68085 25,5837.93617 25,5838.31915 C25,5838.70213 25.256,5838.95745 25.64,5838.95745 L26.28,5838.95745 C26.408,5843.23404 28.072,5848.7234 30.76,5851.02128 C31.272,5851.46809 31.976,5851.7234 32.68,5851.7234 L32.68,5852.3617 C32.68,5852.74468 32.936,5853 33.32,5853 C33.704,5853 33.96,5852.74468 33.96,5852.3617 L33.96,5851.7234 L48.04,5851.7234 L48.04,5852.3617 C48.04,5852.74468 48.296,5853 48.68,5853 C49.064,5853 49.32,5852.74468 49.32,5852.3617 L49.32,5851.7234 C50.024,5851.7234 50.728,5851.46809 51.24,5851.02128 C53.928,5848.78723 55.528,5843.29787 55.72,5838.95745 L56.36,5838.95745 C56.744,5838.95745 57,5838.70213 57,5838.31915 C57,5837.93617 56.744,5837.68085 56.36,5837.68085 Z M42.92,5837.04255 L49.32,5837.04255 L49.32,5842.78723 L42.92,5842.78723 L42.92,5837.04255 Z M42.92,5844.06383 L49.32,5844.06383 L49.32,5845.34043 L42.92,5845.34043 L42.92,5844.06383 Z M50.408,5850 C50.088,5850.25532 49.64,5850.44681 49.192,5850.44681 L32.808,5850.44681 C32.36,5850.44681 31.912,5850.31915 31.592,5850 C29.224,5848.02128 27.752,5842.85106 27.56,5838.95745 L41.64,5838.95745 L41.64,5845.97872 C41.64,5846.3617 41.896,5846.61702 42.28,5846.61702 L49.96,5846.61702 C50.344,5846.61702 50.6,5846.3617 50.6,5845.97872 L50.6,5838.95745 L54.44,5838.95745 C54.248,5842.91489 52.776,5848.02128 50.408,5850 Z M31.4,5831.29787 C32.488,5831.29787 33.32,5830.46809 33.32,5829.38298 C33.32,5828.29787 32.488,5827.46809 31.4,5827.46809 C30.312,5827.46809 29.48,5828.29787 29.48,5829.38298 C29.48,5830.46809 30.312,5831.29787 31.4,5831.29787 Z M31.4,5828.74468 C31.784,5828.74468 32.04,5829 32.04,5829.38298 C32.04,5829.76596 31.784,5830.02128 31.4,5830.02128 C31.016,5830.02128 30.76,5829.76596 30.76,5829.38298 C30.76,5829 31.016,5828.74468 31.4,5828.74468 Z M38.44,5828.10638 C39.848,5828.10638 41,5826.95745 41,5825.55319 C41,5824.14894 39.848,5823 38.44,5823 C37.032,5823 35.88,5824.14894 35.88,5825.55319 C35.88,5826.95745 37.032,5828.10638 38.44,5828.10638 Z M38.44,5824.2766 C39.144,5824.2766 39.72,5824.85106 39.72,5825.55319 C39.72,5826.25532 39.144,5826.82979 38.44,5826.82979 C37.736,5826.82979 37.16,5826.25532 37.16,5825.55319 C37.16,5824.85106 37.736,5824.2766 38.44,5824.2766 Z M35.24,5836.40426 C36.328,5836.40426 37.16,5835.57447 37.16,5834.48936 C37.16,5833.40426 36.328,5832.57447 35.24,5832.57447 C34.152,5832.57447 33.32,5833.40426 33.32,5834.48936 C33.32,5835.57447 34.152,5836.40426 35.24,5836.40426 Z M35.24,5833.85106 C35.624,5833.85106 35.88,5834.10638 35.88,5834.48936 C35.88,5834.87234 35.624,5835.12766 35.24,5835.12766 C34.856,5835.12766 34.6,5834.87234 34.6,5834.48936 C34.6,5834.10638 34.856,5833.85106 35.24,5833.85106 Z" id="Shape"></path>
        </g>
    </g>
</svg>