<?xml version="1.0" encoding="utf-8"?>
<!-- Generator: Adobe Illustrator 25.4.1, SVG Export Plug-In . SVG Version: 6.00 Build 0)  -->
<svg version="1.1" id="Layer_1" xmlns="http://www.w3.org/2000/svg" xmlns:xlink="http://www.w3.org/1999/xlink" x="0px" y="0px"
	 viewBox="0 0 100 100" style="enable-background:new 0 0 100 100;" xml:space="preserve">
<style type="text/css">
	.st0{fill:#1D1E1C;}
	.st1{fill:#010000;}
</style>
<path class="st0" d="M92.4,90.6L72.6,70.9c5.1-5.5,8.2-12.9,8.2-20.9c0-8.1-3.1-15.5-8.3-21L92.1,9.4c0.5-0.5,0.5-1.2,0-1.6
	c-0.5-0.5-1.2-0.5-1.6,0L70.8,27.4c-5.5-5.1-12.9-8.3-21-8.3c-8.1,0-15.6,3.2-21.1,8.3L9.2,8.1C8.8,7.6,8,7.6,7.6,8.1
	c-0.4,0.5-0.4,1.2,0,1.6l19.5,19.4c-5.1,5.5-8.2,12.9-8.2,20.9c0,8.1,3.1,15.5,8.3,21L7.6,90.6c-0.5,0.5-0.5,1.2,0,1.6
	c0.2,0.2,0.5,0.3,0.8,0.3c0.3,0,0.6-0.1,0.8-0.3l19.6-19.6c5.5,5.1,12.9,8.3,21,8.3c8.1,0,15.6-3.2,21.1-8.3l19.8,19.7
	c0.2,0.2,0.5,0.3,0.8,0.3c0.3,0,0.6-0.1,0.8-0.3C92.8,91.8,92.8,91.1,92.4,90.6z M78.4,50c0,7.4-2.9,14.2-7.5,19.3L51.5,50
	l19.4-19.4C75.6,35.7,78.4,42.5,78.4,50z M49.8,21.4c7.5,0,14.3,2.9,19.4,7.6L49.8,48.4L30.4,29.1C35.5,24.3,42.3,21.4,49.8,21.4z
	 M21.3,50c0-7.4,2.9-14.2,7.5-19.3L48.2,50L28.8,69.4C24.1,64.3,21.3,57.5,21.3,50z M49.8,78.6c-7.5,0-14.3-2.9-19.4-7.6l19.4-19.4
	l19.4,19.3C64.2,75.7,57.4,78.6,49.8,78.6z"/>
</svg>
