<?xml version="1.0" encoding="UTF-8"?>
<svg width="23px" height="30px" viewBox="0 0 23 30" version="1.1" xmlns="http://www.w3.org/2000/svg" xmlns:xlink="http://www.w3.org/1999/xlink">
    <!-- Generator: Sketch 52.6 (67491) - http://www.bohemiancoding.com/sketch -->
    <title>Group</title>
    <desc>Created with Sketch.</desc>
    <g id="type_C" stroke="none" stroke-width="1" fill="none" fill-rule="evenodd">
        <g id="top_e-copy" transform="translate(-31.000000, -6133.000000)" fill="#000000" fill-rule="nonzero">
            <g id="Group" transform="translate(31.000000, 6133.000000)">
                <path d="M14.5263158,16.2 C14.5263158,15.7122 14.3834737,14.8656 14.1092895,13.9866 C14.996,14.2578 15.8500263,14.4 16.3421053,14.4 C18.0108158,14.4 19.3684211,13.0542 19.3684211,11.4 C19.3684211,9.7458 18.0108158,8.4 16.3421053,8.4 C15.8500263,8.4 14.996,8.5422 14.1092895,8.8134 C14.3834737,7.9344 14.5263158,7.0878 14.5263158,6.6 C14.5263158,4.9458 13.1687105,3.6 11.5,3.6 C9.83128947,3.6 8.47368421,4.9458 8.47368421,6.6 C8.47368421,7.0878 8.61713158,7.9344 8.89071053,8.8134 C8.004,8.5422 7.14997368,8.4 6.65789474,8.4 C4.98918421,8.4 3.63157895,9.7458 3.63157895,11.4 C3.63157895,13.0542 4.98918421,14.4 6.65789474,14.4 C7.14997368,14.4 8.004,14.2578 8.89071053,13.9866 C8.61713158,14.8656 8.47368421,15.7122 8.47368421,16.2 C8.47368421,17.8542 9.83128947,19.2 11.5,19.2 C13.1687105,19.2 14.5263158,17.8542 14.5263158,16.2 Z M16.3421053,9.6 C17.3432105,9.6 18.1578947,10.4076 18.1578947,11.4 C18.1578947,12.3924 17.3432105,13.2 16.3421053,13.2 C15.5770526,13.2 14.4125263,12.8832 13.4967632,12.4806 C13.2776579,12.063 13.0240526,11.6898 12.7377632,11.4 C13.0240526,11.1102 13.2776579,10.737 13.4967632,10.3194 C14.4125263,9.9168 15.5770526,9.6 16.3421053,9.6 Z M9.68421053,6.6 C9.68421053,5.6076 10.4988947,4.8 11.5,4.8 C12.5011053,4.8 13.3157895,5.6076 13.3157895,6.6 C13.3157895,7.3578 12.9962105,8.5128 12.5900789,9.4206 C12.1694211,9.6378 11.7923421,9.8892 11.5,10.173 C11.2076579,9.8892 10.8311842,9.6384 10.4099211,9.4206 C10.0043947,8.5128 9.68421053,7.3584 9.68421053,6.6 Z M6.65789474,13.2 C5.65678947,13.2 4.84210526,12.3924 4.84210526,11.4 C4.84210526,10.4076 5.65678947,9.6 6.65789474,9.6 C7.42294737,9.6 8.58747368,9.9174 9.50384211,10.3194 C9.72355263,10.7364 9.97655263,11.1102 10.2622368,11.4 C9.97594737,11.6892 9.72294737,12.063 9.50323684,12.4806 C8.58747368,12.8832 7.42234211,13.2 6.65789474,13.2 Z M11.5,18 C10.4988947,18 9.68421053,17.1924 9.68421053,16.2 C9.68421053,15.4422 10.0037895,14.2872 10.4099211,13.3794 C10.8311842,13.1622 11.2076579,12.9108 11.5,12.627 C11.7923421,12.9108 12.1688158,13.1622 12.5900789,13.3794 C12.9962105,14.2872 13.3157895,15.4422 13.3157895,16.2 C13.3157895,17.1924 12.5011053,18 11.5,18 Z" id="Shape"></path>
                <path d="M19.9736842,26.4 L16.3421053,26.4 C16.3172895,26.4 16.2961053,26.4114 16.2718947,26.4138 L15.6351579,25.467 C15.5225789,25.3002 15.3337368,25.2 15.1315789,25.2 L14.5263158,25.2 L14.5263158,22.3866 C19.4017105,21.0642 23,16.6464 23,11.4 C23,5.1138 17.8413421,0 11.5,0 C5.15865789,0 0,5.1138 0,11.4 C0,16.647 3.59828947,21.0648 8.47368421,22.3866 L8.47368421,25.2 L7.86842105,25.2 C7.66626316,25.2 7.47742105,25.3002 7.36484211,25.467 L4.94378947,29.067 C4.81971053,29.2512 4.80821053,29.4876 4.91352632,29.6826 C5.01884211,29.8782 5.22402632,30 5.44736842,30 L17.5526316,30 C17.7759737,30 17.9811579,29.8782 18.0864737,29.6832 C18.1917895,29.4882 18.1796842,29.2512 18.0562105,29.0676 L17.0696316,27.6 L19.9736842,27.6 C20.9747895,27.6 21.7894737,28.4076 21.7894737,29.4 C21.7894737,29.7318 22.0600263,30 22.3947368,30 C22.7294474,30 23,29.7318 23,29.4 C23,27.7458 21.6423947,26.4 19.9736842,26.4 Z M1.21113158,11.4 C1.21113158,5.7756 5.82686842,1.2 11.5006053,1.2 C17.1743421,1.2 21.7900789,5.7756 21.7900789,11.4 C21.7900789,17.025 17.1743421,21.6 11.5006053,21.6 C5.82686842,21.6 1.21113158,17.0244 1.21113158,11.4 Z M6.57860526,28.8 L8.19284211,26.4 L9.07894737,26.4 C9.41305263,26.4 9.68421053,26.1318 9.68421053,25.8 L9.68421053,22.6434 C10.2773684,22.7376 10.8814211,22.8 11.5,22.8 C12.1185789,22.8 12.7226316,22.7376 13.3157895,22.6434 L13.3157895,25.8 C13.3157895,26.1318 13.5863421,26.4 13.9210526,26.4 L14.8077632,26.4 L16.422,28.8 L6.57860526,28.8 Z" id="Shape"></path>
            </g>
        </g>
    </g>
</svg>