<?xml version="1.0" encoding="UTF-8"?>
<svg width="32px" height="27px" viewBox="0 0 32 27" version="1.1" xmlns="http://www.w3.org/2000/svg" xmlns:xlink="http://www.w3.org/1999/xlink">
    <!-- Generator: Sketch 52.6 (67491) - http://www.bohemiancoding.com/sketch -->
    <title>Shape</title>
    <desc>Created with Sketch.</desc>
    <g id="type_C" stroke="none" stroke-width="1" fill="none" fill-rule="evenodd">
        <g id="top_e-copy" transform="translate(-21.000000, -5701.000000)" fill="#000000" fill-rule="nonzero" stroke="#000000" stroke-width="0.5">
            <path d="M51.4410572,5707.53454 C51.6336493,5707.29679 51.7842887,5707.02728 51.8863661,5706.73781 C52.0816192,5706.38439 52.0209007,5705.94284 51.7376934,5705.65667 C51.4544861,5705.37049 51.0177204,5705.30934 50.6682485,5705.50693 C50.3820362,5705.60996 50.1155584,5705.76216 49.8805473,5705.95682 C46.8542853,5705.53633 43.7990068,5705.36752 40.7454446,5705.45209 C40.4749772,5704.94879 40.1982796,5704.44153 39.9019173,5703.9181 C39.9895388,5703.62379 40.0265291,5703.31645 40.0112761,5703.00947 C40.0574521,5702.60768 39.8342932,5702.2237 39.4646553,5702.06893 C39.0950174,5701.91415 38.6686758,5702.02617 38.4203446,5702.34332 C38.1946888,5702.54946 38.0057489,5702.79327 37.8617731,5703.06411 C32.9606585,5704.34748 28.2605971,5706.31586 23.8974866,5708.91233 C23.6067038,5708.82275 23.3026546,5708.78534 22.9991076,5708.80177 C22.6016869,5708.75461 22.2216142,5708.97997 22.0683194,5709.35366 C21.9150246,5709.72736 22.0257821,5710.15852 22.3395615,5710.40957 C22.5433709,5710.63794 22.7846747,5710.829 23.0528259,5710.9743 C24.3219794,5715.9296 26.268671,5720.68167 28.8366191,5725.09313 C28.7493191,5725.3874 28.7123351,5725.69457 28.7272603,5726.00141 C28.7061545,5726.39765 28.9215366,5726.76822 29.2741868,5726.94241 C29.3668129,5726.98077 29.4659986,5727.00034 29.5660951,5727 C29.8487076,5726.9865 30.1164809,5726.86815 30.3181985,5726.66757 C30.543718,5726.46159 30.7324541,5726.21787 30.8761271,5725.9471 C32.5533857,5725.48597 34.0710601,5725.00697 35.5244912,5724.48825 C40.2929131,5725.09885 45.1203796,5725.06724 49.8805804,5724.39426 C50.1156639,5724.5889 50.3821177,5724.74119 50.6682817,5724.84448 C50.8179247,5724.89758 50.9750772,5724.92587 51.133653,5724.92824 C51.3580836,5724.93644 51.5761339,5724.85185 51.7375321,5724.69397 C51.997602,5724.39691 52.0562608,5723.97121 51.8863992,5723.6136 C51.7844016,5723.32401 51.6337589,5723.05438 51.4410969,5722.81657 C52.1439945,5717.74734 52.1439812,5712.60376 51.4410572,5707.53454 Z M30.5641232,5725.33852 C30.4732224,5725.36357 30.397043,5725.42633 30.3544128,5725.51127 C30.240224,5725.7562 30.0807167,5725.97677 29.8845015,5726.16107 C29.7168644,5726.307 29.5854748,5726.34561 29.527866,5726.32336 C29.4696142,5726.29915 29.4042442,5726.17547 29.3886821,5725.95363 C29.3786995,5725.68298 29.4200011,5725.41288 29.5103619,5725.15791 C29.5402315,5725.06742 29.5303397,5724.96832 29.4831879,5724.88569 C26.8855856,5720.4455 24.9232835,5715.65563 23.6547764,5710.65887 C23.6301786,5710.56651 23.567784,5710.48915 23.4832554,5710.4462 C23.2410933,5710.33058 23.0229584,5710.16934 22.8405374,5709.97111 C22.6968466,5709.80292 22.6567218,5709.66879 22.6806681,5709.61022 C22.7046144,5709.55199 22.8269437,5709.48589 23.0457143,5709.46986 C23.0774284,5709.4679 23.1097919,5709.46659 23.1427984,5709.46659 C23.3781494,5709.47192 23.6112051,5709.51466 23.8334156,5709.59324 C23.9229446,5709.62324 24.0208752,5709.61324 24.1026701,5709.56576 C28.4944074,5706.93939 33.2320936,5704.95543 38.1744464,5703.67306 C38.2654119,5703.64775 38.3415723,5703.58477 38.3841568,5703.49965 C38.4981501,5703.2546 38.6576831,5703.034 38.8540681,5702.84985 C39.020426,5702.7036 39.1563291,5702.66466 39.2107036,5702.68789 C39.2689554,5702.7121 39.3343254,5702.83578 39.3498875,5703.05729 C39.3598735,5703.32806 39.3185724,5703.59826 39.2282077,5703.85335 C39.198338,5703.94384 39.2082299,5704.04293 39.2553817,5704.12557 C41.8531646,5708.56544 43.8154795,5713.35512 45.0837932,5718.35174 C45.1082001,5718.44383 45.170381,5718.52099 45.2546646,5718.56376 C45.4968887,5718.67988 45.7151842,5718.84131 45.8980256,5719.03952 C46.0417164,5719.20771 46.0824906,5719.34184 46.0578949,5719.40073 C46.0339486,5719.45897 45.9116192,5719.52507 45.6928487,5719.54078 C45.4248088,5719.55302 45.1570396,5719.5112 44.9051474,5719.41776 C44.8156115,5719.38782 44.717707,5719.39781 44.6358928,5719.44523 C40.2440795,5722.07159 35.5064264,5724.05573 30.5641232,5725.33852 Z M50.7653326,5722.87478 C50.7529845,5722.96956 50.781508,5723.06513 50.8436468,5723.13719 C51.0236516,5723.3379 51.1640311,5723.57157 51.2572217,5723.82559 C51.3271252,5724.0363 51.3135581,5724.17568 51.2688734,5724.22018 C51.2255077,5724.26599 51.0857008,5724.27908 50.877939,5724.2084 C50.6267851,5724.11437 50.3958446,5723.97242 50.1976811,5723.79027 C50.1263654,5723.72753 50.0318729,5723.69871 49.9381363,5723.71109 C45.6275599,5724.33011 41.2584179,5724.41554 36.9273919,5723.96548 C39.66075,5722.8867 42.3066783,5721.59393 44.841083,5720.09893 C45.1321323,5720.18722 45.4359601,5720.22462 45.739462,5720.20949 C46.1371303,5720.25641 46.517267,5720.03068 46.67041,5719.65669 C46.8235529,5719.28269 46.7124654,5718.85136 46.3983585,5718.60037 C46.1945164,5718.37266 45.953464,5718.18207 45.685737,5718.03695 C44.6253003,5713.8935 43.0840976,5709.89131 41.0942129,5706.1137 C44.051303,5706.05323 47.0084937,5706.22921 49.9381495,5706.63998 C50.0317843,5706.65116 50.1258,5706.62248 50.1976943,5706.5608 C50.3961037,5706.3789 50.6269715,5706.23688 50.8779523,5706.14233 C51.0857207,5706.07197 51.2248781,5706.08573 51.2688867,5706.13088 C51.3135448,5706.1757 51.3271385,5706.31509 51.257235,5706.5258 C51.1641375,5706.77977 51.0237455,5707.01335 50.84366,5707.21388 C50.7815635,5707.28596 50.7530458,5707.38151 50.7653459,5707.47629 C51.4850815,5712.58333 51.485077,5717.76775 50.7653326,5722.8748 L50.7653326,5722.87478 Z" id="Shape"></path>
        </g>
    </g>
</svg>