<?xml version="1.0" encoding="UTF-8"?>
<svg width="31px" height="22px" viewBox="0 0 31 22" version="1.1" xmlns="http://www.w3.org/2000/svg" xmlns:xlink="http://www.w3.org/1999/xlink">
    <!-- Generator: Sketch 52.6 (67491) - http://www.bohemiancoding.com/sketch -->
    <title>Combined Shape</title>
    <desc>Created with Sketch.</desc>
    <g id="type_C" stroke="none" stroke-width="1" fill="none" fill-rule="evenodd">
        <g id="top_e-copy" transform="translate(-28.000000, -6077.000000)" fill="#000000" stroke="#000000" stroke-width="0.3">
            <path d="M54.4439925,6091.23775 L54.4439925,6095.47285 C54.4439925,6096.16832 54.1606515,6096.80026 53.7042441,6097.25805 C53.2478129,6097.71581 52.6177436,6098 51.9243369,6098 L29.4876792,6098 C29.2183517,6098 29,6097.781 29,6097.51087 L29,6078.48913 C29,6078.219 29.2183517,6078 29.4876792,6078 L51.9243369,6078 C52.6177436,6078 53.2478129,6078.28418 53.7042441,6078.74195 C54.1606491,6079.19974 54.4439925,6079.83168 54.4439925,6080.52715 L54.4439925,6084.76221 L56.1679385,6084.76221 C56.6722976,6084.76221 57.1304588,6084.96881 57.4622087,6085.3016 C57.794008,6085.63434 58,6086.09386 58,6086.59972 L58,6089.40021 C58,6089.90604 57.7940323,6090.36554 57.4622087,6090.69835 C57.130457,6091.03114 56.6722964,6091.23775 56.1679385,6091.23775 L54.4439925,6091.23775 Z M53.9604364,6085.74047 C53.9590634,6085.74048 53.957689,6085.74049 53.9563133,6085.74049 C53.9549376,6085.74049 53.9535632,6085.74048 53.9521902,6085.74047 L49.2046718,6085.74047 C48.9696159,6085.74047 48.7555126,6085.83731 48.6000166,6085.99327 C48.4445207,6086.1492 48.3479688,6086.36394 48.3479688,6086.59972 L48.3479688,6089.40021 C48.3479688,6089.63599 48.4445207,6089.85073 48.6000166,6090.00669 C48.7554882,6090.16265 48.9695921,6090.25948 49.2046718,6090.25948 L56.1679385,6090.25948 C56.4030182,6090.25948 56.6171216,6090.16265 56.7725937,6090.00669 C56.9280896,6089.85073 57.0246416,6089.63599 57.0246416,6089.40021 L57.0246416,6086.59972 C57.0246416,6086.36394 56.9280896,6086.1492 56.7725937,6085.99327 C56.6171222,6085.83731 56.4030182,6085.74047 56.1679385,6085.74047 L53.9604364,6085.74047 Z M53.4686341,6084.76221 L53.4686341,6080.52715 C53.4686341,6080.10172 53.2947301,6079.71458 53.0146267,6079.43362 C52.7345037,6079.15268 52.3485099,6078.97826 51.9243344,6078.97826 L29.975356,6078.97826 L29.975356,6097.02174 L51.9243344,6097.02174 C52.3485056,6097.02174 52.7344989,6096.84731 53.0146267,6096.56638 C53.2947301,6096.28542 53.4686341,6095.89828 53.4686341,6095.47284 L53.4686341,6091.23775 L49.2046718,6091.23775 C48.7003365,6091.23775 48.2421515,6091.03114 47.9104017,6090.69835 C47.578578,6090.36554 47.3726104,6089.90604 47.3726104,6089.40021 L47.3726104,6086.59972 C47.3726104,6086.09386 47.5786018,6085.63434 47.9104017,6085.3016 C48.2422253,6084.96879 48.7003627,6084.76221 49.2046718,6084.76221 L53.4686341,6084.76221 Z M51.1411241,6086.59804 C51.5621314,6086.59804 51.9433442,6086.76926 52.2192731,6087.04601 C52.4952008,6087.32275 52.6659123,6087.7051 52.6659123,6088.12736 C52.6659123,6088.54962 52.4952008,6088.93197 52.2192731,6089.20872 C51.9433454,6089.48547 51.5621314,6089.65669 51.1411241,6089.65669 C50.7201167,6089.65669 50.3389039,6089.48547 50.062975,6089.20872 C49.7870474,6088.93197 49.6163359,6088.54962 49.6163359,6088.12736 C49.6163359,6087.7051 49.7870474,6087.32276 50.062975,6087.04601 C50.3389027,6086.76926 50.7201167,6086.59804 51.1411241,6086.59804 Z M51.5296593,6087.73767 C51.4302758,6087.638 51.2928758,6087.5763 51.1411241,6087.5763 C50.9893723,6087.5763 50.8519724,6087.638 50.7525888,6087.73767 C50.6532053,6087.83735 50.5916931,6087.97516 50.5916931,6088.12737 C50.5916931,6088.27957 50.6532053,6088.41738 50.7525888,6088.51706 C50.8519724,6088.61674 50.9893723,6088.67843 51.1411241,6088.67843 C51.2928758,6088.67843 51.4302758,6088.61674 51.5296593,6088.51706 C51.6290429,6088.41738 51.6905551,6088.27957 51.6905551,6088.12737 C51.6905551,6087.97516 51.6290429,6087.83735 51.5296593,6087.73767 Z M43.2036596,6080.0591 L49.9770362,6080.0591 C50.6704429,6080.0591 51.3005123,6080.34328 51.7569434,6080.80105 C52.2133484,6081.25884 52.4966918,6081.89078 52.4966918,6082.58625 C52.4966918,6082.85638 52.2783402,6083.07538 52.0090126,6083.07538 C51.7396851,6083.07538 51.5213334,6082.85638 51.5213334,6082.58625 C51.5213334,6082.16082 51.3474294,6081.77368 51.067326,6081.49271 C50.7872031,6081.21178 50.4012092,6081.03736 49.9770338,6081.03736 L43.2036572,6081.03736 C42.9343296,6081.03736 42.7159779,6080.81835 42.7159779,6080.54822 C42.7159779,6080.2781 42.9343296,6080.05909 43.2036572,6080.05909 Z" id="Combined-Shape"></path>
        </g>
    </g>
</svg>