<?xml version="1.0" encoding="UTF-8"?>
<svg width="23px" height="23px" viewBox="0 0 23 23" version="1.1" xmlns="http://www.w3.org/2000/svg" xmlns:xlink="http://www.w3.org/1999/xlink">
    <!-- Generator: Sketch 52.6 (67491) - http://www.bohemiancoding.com/sketch -->
    <title>Shape</title>
    <desc>Created with Sketch.</desc>
    <g id="type_C" stroke="none" stroke-width="1" fill="none" fill-rule="evenodd">
        <g id="top_e-copy" transform="translate(-32.000000, -6200.000000)" fill="#000000" fill-rule="nonzero">
            <path d="M54.425,6205.73965 L49.38685,6205.73965 C50.3517,6205.21985 50.975,6204.3999 50.975,6203.45 C50.975,6201.8883 49.17985,6200 46.95,6200 C45.39865,6200 44.1739,6201.8032 43.5,6203.46725 C42.8261,6201.8032 41.60135,6200 40.05,6200 C37.82015,6200 36.025,6201.8883 36.025,6203.45 C36.025,6204.3999 36.6483,6205.21985 37.61315,6205.73965 L32.575,6205.73965 C32.2576,6205.73965 32,6205.99725 32,6206.31465 L32,6209.76465 C32,6210.08205 32.2576,6210.33965 32.575,6210.33965 L34.3,6210.33965 L34.3,6222.425 C34.3,6222.7424 34.5576,6223 34.875,6223 L52.125,6223 C52.4424,6223 52.7,6222.7424 52.7,6222.425 L52.7,6210.33965 L54.425,6210.33965 C54.7424,6210.33965 55,6210.08205 55,6209.76465 L55,6206.31465 C55,6205.99725 54.7424,6205.73965 54.425,6205.73965 Z M41.2,6209.18965 L41.2,6206.88965 L45.8,6206.88965 L45.8,6209.18965 L41.2,6209.18965 Z M45.8,6210.33965 L45.8,6221.85 L41.2,6221.85 L41.2,6210.33965 L45.8,6210.33965 Z M46.95,6201.15 C48.5899,6201.15 49.825,6202.54495 49.825,6203.45 C49.825,6204.38495 48.50825,6205.175 46.95,6205.175 C46.11625,6205.175 45.3722,6205.38775 44.77535,6205.5568 C44.50625,6205.6327 44.24865,6205.70745 44.075,6205.73045 C44.08995,6204.52985 45.5447,6201.15 46.95,6201.15 Z M40.05,6201.15 C41.41735,6201.15 42.83185,6204.35045 42.91235,6205.72815 C42.7387,6205.70285 42.48685,6205.63155 42.22465,6205.5568 C41.6278,6205.38775 40.88375,6205.175 40.05,6205.175 C38.49175,6205.175 37.175,6204.38495 37.175,6203.45 C37.175,6202.54495 38.4101,6201.15 40.05,6201.15 Z M33.15,6206.88965 L40.05,6206.88965 L40.05,6209.18965 L33.15,6209.18965 L33.15,6206.88965 Z M35.45,6210.33965 L40.05,6210.33965 L40.05,6221.85 L35.45,6221.85 L35.45,6210.33965 Z M51.55,6221.85 L46.95,6221.85 L46.95,6210.33965 L51.55,6210.33965 L51.55,6221.85 Z M53.85,6209.18965 L46.95,6209.18965 L46.95,6206.88965 L53.85,6206.88965 L53.85,6209.18965 Z" id="Shape"></path>
        </g>
    </g>
</svg>