<?xml version="1.0" encoding="utf-8"?>
<!-- Generator: Adobe Illustrator 25.4.1, SVG Export Plug-In . SVG Version: 6.00 Build 0)  -->
<svg version="1.1" id="Layer_1" xmlns="http://www.w3.org/2000/svg" xmlns:xlink="http://www.w3.org/1999/xlink" x="0px" y="0px"
	 viewBox="0 0 100 100" style="enable-background:new 0 0 100 100;" xml:space="preserve">
<style type="text/css">
	.st0{fill:#1D1E1C;}
	.st1{fill:#010000;}
</style>
<path class="st0" d="M83.2,7.4H16.8c-0.6,0-1.2,0.5-1.2,1.2V87c0,3.1,2.5,5.6,5.6,5.6h57.6c3.1,0,5.6-2.5,5.6-5.6V8.6
	C84.4,7.9,83.9,7.4,83.2,7.4z M17.9,16.6h64.2v3.3H17.9V16.6z M82.1,9.7v4.6H17.9V9.7H82.1z M17.9,87V22.2h64.2v50.4l-6.8-6.3
	l3.5-3.8c0.4-0.5,0.4-1.2-0.1-1.6c-0.5-0.4-1.2-0.4-1.6,0.1l-3.5,3.8L66.4,58l6.5-7c0.4-0.5,0.4-1.2-0.1-1.6
	c-0.5-0.4-1.2-0.4-1.6,0.1l-6.5,7l-5.6-5.2c-0.5-0.4-1.2-0.4-1.6,0.1c-0.4,0.5-0.4,1.2,0.1,1.6l5.6,5.2l-6.7,7.2l-9.6-8.9
	c-0.5-0.4-1.2-0.4-1.6,0.1c-0.4,0.5-0.4,1.2,0.1,1.6l9.6,8.9l-6,6.4l-7.2-6.7c-0.5-0.4-1.2-0.4-1.6,0.1c-0.4,0.5-0.4,1.2,0.1,1.6
	l7.2,6.7L43.8,79c-0.4,0.5-0.4,1.2,0.1,1.6c0.2,0.2,0.5,0.3,0.8,0.3c0.3,0,0.6-0.1,0.8-0.4l3.6-3.8l7.2,6.7L50,90.3H21.2
	C19.4,90.3,17.9,88.8,17.9,87z M81.6,88.7L67.1,75.2l6.7-7.2l8.3,7.7c0,0,0,0,0,0V87C82.1,87.6,81.9,88.2,81.6,88.7z M58.2,66.9
	l6.7-7.2l7.2,6.7l-6.7,7.2L58.2,66.9z M63.8,75.3l-6,6.4L50.7,75l6-6.4L63.8,75.3z M58,85l5.7,5.3H53.1L58,85z M66.6,90.3
	c0-0.3-0.1-0.6-0.4-0.8l-6.6-6.2l6-6.4l14.3,13.2c-0.3,0.1-0.6,0.2-1,0.2H66.6z"/>
</svg>
