<?xml version="1.0" encoding="utf-8"?>
<!-- Generator: Adobe Illustrator 25.4.1, SVG Export Plug-In . SVG Version: 6.00 Build 0)  -->
<svg version="1.1" id="Layer_1" xmlns="http://www.w3.org/2000/svg" xmlns:xlink="http://www.w3.org/1999/xlink" x="0px" y="0px"
	 viewBox="0 0 100 100" style="enable-background:new 0 0 100 100;" xml:space="preserve">
<style type="text/css">
	.st0{fill:#1D1E1C;}
	.st1{fill:#010000;}
</style>
<path class="st0" d="M91.9,40.5c-0.6-0.2-1.3,0.2-1.4,0.8L88,50.1c-2.4-2.1-7.8-5.3-15.5-2.6v-6c0-6.2-1.3-9.3-2.3-11.5
	c-0.6-1.3-1-2.3-1-3.4V9.2c0-0.6-0.5-1.2-1.2-1.2s-1.2,0.5-1.2,1.2v17.5c0,1.6,0.5,2.9,1.2,4.3c0.9,2.2,2.1,4.9,2.1,10.6v24.9
	c0,1.1-0.3,2-0.8,2.6c-0.4,0.5-1,0.7-1.7,0.7c-1.4,0-2.8-1.3-2.8-3.7v-8.4c0-0.6-0.5-1.2-1.2-1.2s-1.2,0.5-1.2,1.2v20.4
	c0,1.1-0.3,2-0.8,2.6c-0.4,0.5-1,0.7-1.7,0.7c-1.4,0-2.8-1.3-2.8-3.7V57.8c0-0.6-0.5-1.2-1.2-1.2s-1.2,0.5-1.2,1.2v24.3
	c0,2.7-1.6,4.1-3.1,4.1c-0.8,0-1.6-0.4-2.2-1.1c-0.7-0.9-1.1-2.3-1.1-3.9c0.2-0.5,0.3-1.1,0.3-1.7V57.6c0-0.6-0.5-1.2-1.2-1.2
	s-1.2,0.5-1.2,1.2v21.8c0,1.7-1.5,2.4-2.9,2.4c-1.3,0-2.8-0.6-2.8-2.4V49c0-0.5-0.3-0.9-0.8-1.1c-0.5-0.2-1,0-1.3,0.3
	c0,0.1-4.9,5.9-9,10.1c-1.6,1.7-3.2,0.6-3.6,0.2c-1.2-1-1.7-2.8-0.5-4.3l0.1-0.1C44.1,30.7,44.1,28.7,44.1,28V9.2
	C44.1,8.6,43.6,8,43,8s-1.2,0.5-1.2,1.2v18.7c-0.1,0.5-1.3,3.4-14,19.7C19.9,45,14.5,48.1,12,50.2l-2.5-8.9c-0.2-0.6-0.8-1-1.4-0.8
	c-0.6,0.2-1,0.8-0.8,1.4l13.8,49c0.1,0.5,0.6,0.8,1.1,0.8L77.8,92c0,0,0,0,0,0c0.5,0,1-0.3,1.1-0.8l13.8-49.2
	C92.9,41.3,92.5,40.7,91.9,40.5z M77,89.6l-53.9-0.2L12.7,52.6c1.3-1.3,5.9-5.3,13.6-3.1c-0.8,1-1.6,2-2.5,3.1l-0.1,0.1
	c-2.1,2.6-1.1,5.8,0.8,7.5c1.8,1.5,4.5,2,6.8-0.4c2.5-2.6,5.2-5.7,7.1-7.8v27.3c0,3.1,2.6,4.7,5.2,4.7c1,0,2-0.2,2.9-0.7
	c0.3,1.2,0.7,2.2,1.4,3.1c1,1.3,2.4,2,4,2c3.2,0,5-2.8,5.3-5.6c0.8,0.6,1.7,1,2.9,1c1.3,0,2.5-0.5,3.4-1.5c0.9-1,1.4-2.5,1.4-4.2v-7
	c0.8,0.6,1.7,0.9,2.8,0.9c1.3,0,2.5-0.5,3.4-1.5c0.9-1,1.4-2.5,1.4-4.2V50c8.4-3.3,13.4,1.1,14.8,2.6L77,89.6z"/>
</svg>
