<?xml version="1.0" encoding="utf-8"?>
<!-- Generator: Adobe Illustrator 24.0.0, SVG Export Plug-In . SVG Version: 6.00 Build 0)  -->
<svg version="1.1" id="Layer_1" xmlns="http://www.w3.org/2000/svg" xmlns:xlink="http://www.w3.org/1999/xlink" x="0px" y="0px"
	 viewBox="0 0 33.6 28.4" style="enable-background:new 0 0 33.6 28.4;" xml:space="preserve">
<style type="text/css">
	.st0{fill:#ef1111;}
</style>
<path class="st0" d="M2.6,14.6l13.6,13.6c0.3,0.3,0.9,0.3,1.2,0L31,14.5c0,0,0,0,0.1-0.1l0,0c3.2-3.3,3.2-8.6,0-11.9l0,0
	c-1.6-1.6-3.7-2.5-6-2.5s-4.4,0.9-6,2.4l0,0c0,0,0,0-0.1,0.1l-0.7,0.8c-0.4,0.4-1,0.7-1.6,0.7s-1.2-0.2-1.6-0.6l-0.8-0.8
	c0,0,0,0-0.1-0.1c-1.6-1.6-3.7-2.4-6-2.4S4,1,2.5,2.6C-0.8,5.9-0.8,11.2,2.6,14.6C2.5,14.5,2.5,14.5,2.6,14.6
	C2.5,14.5,2.6,14.5,2.6,14.6z"/>
</svg>
