<?xml version="1.0" encoding="UTF-8"?>
<svg width="19px" height="17px" viewBox="0 0 19 17" version="1.1" xmlns="http://www.w3.org/2000/svg" xmlns:xlink="http://www.w3.org/1999/xlink">
    <!-- Generator: Sketch 52.6 (67491) - http://www.bohemiancoding.com/sketch -->
    <title>Fill 1 Copy 7</title>
    <desc>Created with Sketch.</desc>
    <g id="SP" stroke="none" stroke-width="1" fill="none" fill-rule="evenodd">
        <g id="header_float" transform="translate(-122.000000, -20.000000)" fill="#000000" fill-rule="nonzero">
            <g id="Fill-1-Copy-7" transform="translate(122.000000, 20.000000)">
                <path d="M15.2972378,9.17837448 C16.616316,7.85929632 17.25,6.61406532 17.25,5.43973266 C17.25,4.23966349 16.9203425,3.34673222 16.271247,2.71297041 C15.6181778,2.07532702 14.6972926,1.75 13.4654009,1.75 C13.1558771,1.75 12.8356791,1.80442108 12.5025184,1.91547348 C12.1559762,2.03098877 11.8353578,2.18595419 11.5390612,2.38081729 C11.2064196,2.59958112 10.9230158,2.80286019 10.6895034,2.98966931 C10.4580957,3.17479512 10.2384098,3.37135613 10.0303326,3.57943532 L9.5,4.10977282 L8.96966744,3.57943532 C8.7615968,3.37136274 8.54190881,3.17480027 8.31049717,2.98966979 C8.07698418,2.80286019 7.79358044,2.59958112 7.46093617,2.38081555 C7.16464222,2.18595419 6.84402384,2.03098877 6.49748603,1.91547496 C6.16432091,1.80442108 5.8441229,1.75 5.53459912,1.75 C4.30270768,1.75 3.38182313,2.07532687 2.72875284,2.71297119 C2.07965779,3.34673244 1.75,4.23966377 1.75,5.43973266 C1.75,5.78103208 1.81082251,6.13820238 1.9349477,6.51321796 C2.06714201,6.91261446 2.21425382,7.24533494 2.37358806,7.5108914 C2.5458515,7.79799649 2.74164949,8.07873646 2.96120836,8.35318553 C3.18736797,8.63588353 3.35050406,8.82841347 3.4398124,8.92027226 C3.5305819,9.0136357 3.59751722,9.07692026 3.68367586,9.14997286 L9.50000519,14.761404 L15.2972378,9.17837448 Z M9.5,16.3214286 C9.1378225,16.3214286 8.80759669,16.1863367 8.56185864,15.9404294 L2.69441909,10.2753796 C2.60188345,10.2013496 2.49489679,10.1001981 2.36432201,9.9658919 C2.23228009,9.83007914 2.04442669,9.60837833 1.78990597,9.29022912 C1.52881101,8.96385986 1.29455369,8.62797595 1.08734944,8.28263631 C0.86721771,7.91575093 0.675977163,7.48322518 0.510923116,6.98455009 C0.337799528,6.46149717 0.25,5.94590875 0.25,5.43973266 C0.25,3.85704959 0.723534005,2.5744063 1.68084471,1.63971047 C2.63418144,0.708892226 3.93314196,0.25 5.53459912,0.25 C6.00929916,0.25 6.48912953,0.331552311 6.97182767,0.492450012 C7.44114752,0.648891588 7.87945012,0.86073768 8.28515494,1.12755443 C8.6545138,1.37046559 8.97508892,1.60040684 9.24754033,1.81836705 C9.33301225,1.88674501 9.4171663,1.95646437 9.49999954,2.02752313 C9.58283437,1.95646302 9.66698969,1.88674289 9.75246267,1.81836465 C10.0249111,1.60040684 10.3454862,1.37046559 10.7148424,1.12755617 C11.1205499,0.86073768 11.5588525,0.648891588 12.0281768,0.492448529 C12.5108705,0.331552311 12.9907008,0.25 13.4654009,0.25 C15.0668583,0.25 16.3658196,0.708892345 17.3191553,1.63970983 C18.2764664,2.57440627 18.75,3.85704944 18.75,5.43973266 C18.75,7.06080005 17.9354106,8.66152201 16.3478325,10.2489126 L10.4418082,15.9368983 C10.1872984,16.1884162 9.85937915,16.3214286 9.5,16.3214286 Z" id="Fill-1-Copy-6"></path>
            </g>
        </g>
    </g>
</svg>