<?xml version="1.0" standalone="no"?>
<!DOCTYPE svg PUBLIC "-//W3C//DTD SVG 1.1//EN" "http://www.w3.org/Graphics/SVG/1.1/DTD/svg11.dtd" >
<svg xmlns="http://www.w3.org/2000/svg">
<metadata>Generated by IcoMoon</metadata>
<defs>
<font id="icomoon" horiz-adv-x="1024">
<font-face units-per-em="1024" ascent="960" descent="-64" />
<missing-glyph horiz-adv-x="1024" />
<glyph unicode="&#x20;" horiz-adv-x="512" d="" />
<glyph unicode="&#xe900;" glyph-name="icon-wishlist_a" d="M705.843 857.6c-87.347 0-152.269-48.742-187.904-141.005-2.97-7.68-5.53-15.258-7.885-22.835-11.264 37.786-29.901 78.131-60.928 109.466-35.635 36.045-81.715 54.374-136.909 54.374-129.434 0-206.746-141.824-206.746-278.938 0-112.333 66.56-237.158 197.939-370.893 96.563-98.304 191.488-163.43 195.482-166.195 3.072-2.048 6.554-3.174 10.138-3.174 3.482 0 6.963 1.024 10.035 3.072 4.096 2.765 100.454 67.891 198.554 166.195 133.325 133.734 201.011 258.458 201.011 370.893 0 137.114-79.667 279.040-212.787 279.040z" />
<glyph unicode="&#xe901;" glyph-name="icon-account" d="M782.438 101.376l-83.661 386.458c-5.325 24.678-29.184 42.496-56.832 42.496h-258.15c-27.443 0-51.405-17.818-56.832-42.291l-85.299-386.458c-3.174-14.541 0.41-29.696 10.035-41.677 10.854-13.517 28.365-21.606 46.797-21.606h427.11c18.637 0 35.635 7.885 46.694 21.504 9.523 11.981 13.21 27.136 10.138 41.574zM744.141 82.534c-4.096-5.018-11.059-8.090-18.637-8.090h-427.11c-7.578 0-14.541 3.072-18.637 8.090-1.946 2.355-3.994 6.349-2.867 11.264l85.299 386.458c1.741 7.987 11.059 14.029 21.606 14.029h258.15c10.547 0 19.866-6.042 21.606-14.131l83.661-386.458c1.024-4.813-1.126-8.704-3.072-11.162zM516.096 561.869c81.51 0 147.866 66.355 147.866 147.866s-66.355 147.866-147.866 147.866c-81.51 0-147.866-66.355-147.866-147.866s66.355-147.866 147.866-147.866zM516.096 821.555c61.645 0 111.718-50.176 111.718-111.718s-50.176-111.718-111.718-111.718c-61.645 0-111.718 50.176-111.718 111.718s50.074 111.718 111.718 111.718z" />
<glyph unicode="&#xe902;" glyph-name="icon-account_a" d="M782.438 101.376l-83.661 386.458c-5.325 24.678-29.184 42.496-56.832 42.496h-258.15c-27.443 0-51.405-17.818-56.832-42.291l-85.299-386.458c-3.174-14.541 0.41-29.696 10.035-41.677 10.854-13.517 28.365-21.606 46.797-21.606h427.11c18.637 0 35.635 7.885 46.694 21.504 9.523 11.981 13.21 27.136 10.138 41.574zM568.625 846.369c75.449-31.253 111.278-117.752 80.025-193.201s-117.752-111.278-193.201-80.025c-75.449 31.253-111.278 117.752-80.025 193.201s117.752 111.278 193.201 80.025z" />
<glyph unicode="&#xe903;" glyph-name="icon-arrow_down" d="M851.763 628.941l-0.819 0.819c-12.902 12.902-33.69 12.902-46.592 0l-292.352-292.25-292.352 292.352c-12.902 12.902-33.69 12.902-46.592 0l-0.819-0.819c-12.902-12.902-12.902-33.69 0-46.592l316.211-316.211c6.451-6.451 14.95-9.728 23.45-9.626 8.499-0.102 16.998 3.174 23.45 9.626l316.211 316.211c13.005 12.8 13.005 33.69 0.205 46.49z" />
<glyph unicode="&#xe904;" glyph-name="icon-arrow_left" d="M646.451 787.763l-316.314-316.314c-6.451-6.451-9.728-14.95-9.626-23.45-0.102-8.499 3.174-16.998 9.626-23.45l316.211-316.211c12.902-12.902 33.69-12.902 46.592 0l0.819 0.819c12.902 12.902 12.902 33.69 0 46.592l-292.25 292.25 292.352 292.352c12.902 12.902 12.902 33.69 0 46.592l-0.819 0.819c-12.902 12.8-33.792 12.8-46.592 0z" />
<glyph unicode="&#xe905;" glyph-name="icon-arrow_right" d="M331.059 787.763l-0.819-0.819c-12.902-12.902-12.902-33.69 0-46.592l292.25-292.352-292.352-292.352c-12.902-12.902-12.902-33.69 0-46.592l0.819-0.819c12.902-12.902 33.69-12.902 46.592 0l316.211 316.211c6.451 6.451 9.728 14.95 9.626 23.45 0.102 8.499-3.174 16.998-9.626 23.45l-316.211 316.416c-12.8 12.8-33.69 12.8-46.49 0z" />
<glyph unicode="&#xe906;" glyph-name="bleach" d="M972.153 18.79l-163.178 161.97h56.267c4.493 0 8.614 2.415 10.82 6.285s2.206 8.657-0.082 12.526l-223.898 381.458 316.701 316.703c4.87 4.869 4.87 12.776 0 17.646-4.868 4.869-12.775 4.869-17.644 0l-312.125-312.125-114.903 195.765c-2.249 3.829-6.535 6.326-10.822 6.159-4.452 0-8.53-2.414-10.779-6.243l-115.069-199.844-315.329 312.958c-4.911 4.869-12.818 4.828-17.646-0.083-4.869-4.911-4.828-12.818 0.083-17.645l320.032-317.618-217.156-377.213c-2.206-3.871-2.206-8.616 0-12.485 2.206-3.871 6.367-6.244 10.82-6.244h48.275l-162.013-162.013c-4.869-4.868-4.869-12.775 0-17.646 2.455-2.456 5.618-3.662 8.823-3.662s6.409 1.206 8.823 3.662l179.659 179.659h521.665l181.033-179.7c2.413-2.415 5.618-3.621 8.78-3.621 3.205 0 6.41 1.249 8.864 3.705 4.911 4.911 4.87 12.775 0 17.646zM843.434 205.732h-59.638l-254.444 252.529 104.499 104.499 209.582-357.028zM513.456 767.847l107.33-182.822-109.16-109.16-105.832 104.999 107.663 186.983zM189.845 205.732l203.088 352.741 101.046-100.295-252.49-252.49-51.645 0.043zM276.781 205.732l234.885 234.883 236.673-234.883h-471.558z" />
<glyph unicode="&#xe907;" glyph-name="icon-arrow_up" d="M851.763 313.549l-316.314 316.314c-6.451 6.451-14.95 9.728-23.45 9.626-8.499 0.102-16.998-3.174-23.45-9.626l-316.314-316.314c-12.902-12.902-12.902-33.69 0-46.592l0.819-0.819c12.902-12.902 33.69-12.902 46.592 0l292.352 292.352 292.352-292.352c12.902-12.902 33.69-12.902 46.592 0l0.819 0.819c12.8 12.902 12.8 33.792 0 46.592z" />
<glyph unicode="&#xe908;" glyph-name="icon-burger" d="M116.531 637.542l791.859-1.638c0 0 0 0 0 0 4.915 0 9.523 1.946 12.902 5.53 3.379 3.482 5.222 8.294 5.018 13.21l-2.867 74.65c-0.41 9.626-8.294 17.306-18.022 17.306 0 0 0 0-0.102 0l-789.914-2.253c-4.813 0-9.421-1.946-12.8-5.325s-5.222-8.090-5.12-12.902l0.922-70.758c0.307-9.933 8.294-17.818 18.125-17.818zM905.523 503.296c0 0 0 0 0 0l-789.914-2.253c-4.813 0-9.421-1.946-12.8-5.325s-5.222-8.090-5.12-12.902l0.922-70.758c0.102-9.83 8.090-17.715 17.92-17.715l791.757-1.638c0 0 0 0 0 0 4.915 0 9.523 1.946 12.902 5.53 3.379 3.482 5.222 8.294 5.018 13.21l-2.867 74.65c-0.205 9.523-8.090 17.203-17.818 17.203zM905.523 260.096c0 0 0 0 0 0l-789.914-2.253c-4.813 0-9.421-1.946-12.8-5.325s-5.222-8.090-5.12-12.902l0.922-70.758c0.102-9.83 8.090-17.715 17.92-17.715l791.859-1.638c0 0 0 0 0 0 4.915 0 9.523 1.946 12.902 5.53 3.379 3.482 5.222 8.294 5.018 13.21l-2.867 74.65c-0.307 9.626-8.192 17.203-17.92 17.203z" />
<glyph unicode="&#xe909;" glyph-name="icon-cart" d="M397.107 622.592c9.933 0.819 17.306 9.523 16.486 19.456-0.102 1.024-7.885 102.502 38.195 152.576 16.691 18.125 38.195 26.931 65.741 26.931 27.238 0 48.026-8.602 63.59-26.317 43.52-49.459 30.822-151.245 30.72-152.269-1.331-9.83 5.632-18.944 15.565-20.275 0.819-0.102 1.638-0.205 2.355-0.205 8.909 0 16.691 6.554 17.818 15.667 0.614 4.813 14.95 118.886-39.219 180.736-22.63 25.702-53.146 38.707-90.829 38.707s-68.71-13.005-92.262-38.605c-56.73-61.645-48.026-175.206-47.616-180.019 0.819-9.83 9.523-17.203 19.456-16.384zM848.077 107.93l-105.37 443.699c-6.349 26.829-34.509 46.387-66.97 46.387h-325.325c-32.768 0-60.314-18.944-66.867-46.182l-107.52-443.699c-3.686-15.36-0.205-31.027 10.035-44.032 12.595-16.077 33.792-25.702 56.73-25.702h538.317c22.938 0 44.134 9.523 56.832 25.6 10.24 12.902 13.824 28.467 10.138 43.93z" />
<glyph unicode="&#xe90a;" glyph-name="chemical" d="M411.731 220.686c-21.152 0-38.372-17.22-38.372-38.372s17.22-38.371 38.372-38.371c21.151 0 38.371 17.22 38.371 38.371 0 21.152-17.22 38.372-38.371 38.372zM411.731 177.166c-2.824 0-5.149 2.324-5.149 5.148s2.326 5.149 5.149 5.149 5.149-2.324 5.149-5.149c0-2.824-2.326-5.148-5.149-5.148zM617.929 337.74c0 55.425-45.126 100.552-100.552 100.552s-100.552-45.126-100.552-100.552c0-55.425 45.126-100.552 100.552-100.552 55.48 0 100.552 45.126 100.552 100.552zM517.432 270.409c-37.098 0-67.331 30.232-67.331 67.331s30.177 67.331 67.331 67.331c37.098 0 67.331-30.232 67.331-67.331s-30.232-67.331-67.331-67.331zM619.982 226.888c-33.167 0-60.132-26.964-60.132-60.132s26.964-60.132 60.132-60.132c33.166 0 60.132 26.964 60.132 60.132s-26.966 60.132-60.132 60.132zM619.982 139.846c-14.839 0-26.909 12.070-26.909 26.909s12.070 26.909 26.909 26.909c14.839 0 26.909-12.070 26.909-26.909s-12.070-26.909-26.909-26.909zM808.957 174.176c-17.718 35.437-165.667 290.693-186.597 326.849v270.595l60.132 71.483c4.154 4.928 5.094 11.849 2.326 17.719-2.714 5.869-8.582 9.579-15.060 9.579h-306.529c-6.478 0-12.348-3.765-15.060-9.579-2.714-5.869-1.828-12.791 2.324-17.719l60.133-71.483v-270.538c-20.986-36.157-168.879-291.469-186.598-326.851-11.13-22.259-7.64-52.989 9.192-80.177 24.364-39.423 69.49-62.015 123.808-62.015h318.932c54.318 0 99.444 22.592 123.808 62.015 16.777 27.187 20.32 57.862 9.19 80.122zM771.528 111.497c-8.582-13.898-35.105-46.29-95.569-46.29h-318.932c-60.41 0-86.931 32.337-95.569 46.29-12.072 19.546-12.57 38.094-7.697 47.839 18.217 36.434 186.209 326.020 187.871 328.955 1.495 2.547 2.271 5.426 2.271 8.361v281.059c0 3.932-1.385 7.697-3.876 10.687l-41.085 48.781h235.158l-41.085-48.781c-2.491-2.99-3.876-6.755-3.876-10.687v-281.059c0-2.935 0.776-5.814 2.271-8.361 1.716-2.935 169.654-292.521 187.871-328.955 4.818-9.745 4.319-28.293-7.752-47.839z" />
<glyph unicode="&#xe90b;" glyph-name="icon-cart_a" d="M848.077 107.93l-105.37 443.699c-6.349 26.829-34.509 46.387-66.97 46.387h-325.325c-32.768 0-60.314-18.944-66.867-46.182l-107.52-443.699c-3.686-15.36-0.205-31.027 10.035-44.032 12.595-16.077 33.792-25.702 56.73-25.702h538.317c22.938 0 44.134 9.523 56.832 25.6 10.24 12.902 13.824 28.467 10.138 43.93zM809.677 86.323c-5.837-7.373-16.691-11.878-28.467-11.878h-538.419c-11.776 0-22.733 4.608-28.467 11.878-3.277 4.198-4.403 8.704-3.379 13.21l107.52 443.699c2.56 10.547 16.282 18.534 31.846 18.534h325.427c15.667 0 29.286-7.987 31.846-18.637l105.472-443.597c1.024-4.506-0.102-9.011-3.379-13.21zM395.776 622.592c9.933 0.819 17.306 9.523 16.486 19.456-0.102 1.024-7.885 102.502 38.195 152.576 16.691 18.125 38.195 26.931 65.741 26.931 27.238 0 48.026-8.602 63.59-26.317 43.52-49.459 30.822-151.245 30.72-152.269-1.331-9.83 5.632-18.944 15.565-20.275 0.819-0.102 1.638-0.205 2.355-0.205 8.909 0 16.691 6.554 17.818 15.667 0.614 4.813 14.95 118.886-39.219 180.736-22.528 25.702-53.043 38.707-90.726 38.707s-68.71-13.005-92.262-38.605c-56.73-61.645-48.026-175.206-47.616-180.019 0.717-9.83 9.421-17.203 19.354-16.384z" />
<glyph unicode="&#xe90c;" glyph-name="co2" d="M768.511 600.818c-53.044 87.485-148.668 141.582-251.159 141.582-102.268 0-197.727-53.875-250.938-141.304-2.159 0.055-4.374 0.11-6.533 0.11-122.147 0-221.481-99.333-221.481-221.48s99.334-221.481 221.481-221.481h495.562c122.147 0 221.481 99.334 221.481 221.481 0 116.941-92.69 214.282-208.413 221.092zM755.443 191.468h-495.562c-103.82 0-188.259 84.439-188.259 188.259 0 103.818 84.439 188.257 188.259 188.257 4.817 0 9.69-0.165 14.563-0.553l10.63-0.831 6.534 11.849c46.344 80.62 132.888 130.729 225.743 130.729 92.745 0 179.178-49.999 225.578-130.396l7.475-10.632 8.416-0.166c101.937-1.772 184.881-86.211 184.881-188.202 0-103.875-84.439-188.314-188.259-188.314zM372.008 315.331c-9.19-4.707-19.767-7.087-31.726-7.087-11.517 0-21.871 1.993-31.118 5.979-9.192 3.987-17.11 9.58-23.699 16.778-6.588 7.252-11.683 15.891-15.227 25.912-3.543 10.077-5.315 21.152-5.315 33.277 0 11.517 1.827 22.204 5.481 32.060s8.915 18.438 15.725 25.747c6.811 7.309 14.895 13.066 24.364 17.275 9.413 4.209 19.877 6.257 31.395 6.257 9.025 0 18.217-1.827 27.63-5.481s17.053-9.468 22.924-17.443l30.176 23.866c-4.374 5.869-9.745 10.907-16.001 15.060-6.258 4.207-13.012 7.697-20.1 10.52-7.142 2.824-14.563 4.928-22.314 6.257-7.752 1.384-15.172 2.048-22.314 2.048-17.165 0-33.111-2.712-47.729-8.138-14.674-5.427-27.409-13.179-38.15-23.256-10.797-10.077-19.269-22.259-25.471-36.599s-9.247-30.399-9.247-48.228c0-17.386 2.935-33.222 8.804-47.564 5.87-14.34 14.010-26.688 24.474-37.042 10.465-10.354 22.979-18.438 37.541-24.197s30.509-8.637 47.895-8.637c19.048 0 35.715 3.433 49.944 10.188 14.23 6.811 26.301 16.39 36.101 28.737l-31.727 22.314c-5.647-7.697-13.123-13.898-22.314-18.604zM641.213 475.018c-10.687 10.076-23.366 17.773-37.984 23.255-14.674 5.426-30.675 8.14-48.061 8.14-17.165 0-33.056-2.714-47.564-8.14-14.563-5.426-27.131-13.179-37.706-23.255-10.577-10.077-18.826-22.259-24.806-36.6s-8.97-30.399-8.97-48.228c0-17.386 2.99-33.221 8.97-47.562s14.23-26.689 24.806-37.043c10.575-10.354 23.144-18.438 37.706-24.196s30.399-8.639 47.564-8.639c17.386 0 33.388 2.88 48.061 8.639 14.673 5.757 27.352 13.842 37.984 24.196 10.685 10.354 18.991 22.702 24.972 37.043s8.97 30.232 8.97 47.562c0 17.774-2.99 33.887-8.97 48.228s-14.341 26.578-24.972 36.6zM626.596 357.412c-3.656-9.967-8.915-18.605-15.726-25.914-6.81-7.309-14.894-13.012-24.362-17.11-9.413-4.097-19.767-6.145-31.118-6.145s-21.65 2.048-30.952 6.145c-9.303 4.097-17.386 9.801-24.197 17.11s-12.070 15.946-15.725 25.914c-3.654 9.966-5.482 20.874-5.482 32.835 0 11.516 1.828 22.203 5.482 32.059s8.859 18.438 15.558 25.747c6.7 7.309 14.729 13.068 24.031 17.275 9.302 4.209 19.712 6.258 31.229 6.258 11.516 0 21.981-2.104 31.395-6.258 9.413-4.207 17.496-9.966 24.196-17.275s11.905-15.891 15.56-25.747 5.481-20.543 5.481-32.059c0.111-11.96-1.715-22.924-5.37-32.835zM772.33 313.836c3.212 2.934 6.147 5.924 8.859 9.080 2.714 3.1 5.094 6.423 7.199 9.856 2.048 3.433 3.709 7.142 4.873 11.073 1.217 3.932 1.772 8.14 1.772 12.68 0 6.756-1.274 12.736-3.876 17.83-2.602 5.093-6.092 9.412-10.465 12.956s-9.413 6.147-15.060 7.863-11.517 2.602-17.663 2.602c-6.534 0-12.515-1.052-18.051-3.101s-10.355-4.872-14.452-8.471-7.53-7.863-10.188-12.736c-2.659-4.928-4.319-10.299-4.984-16.168l23.311-3.599c0.941 6.922 3.433 12.68 7.585 17.221 4.099 4.595 9.58 6.866 16.335 6.866 6.367 0 11.738-1.939 16.056-5.87s6.479-9.192 6.479-15.836c0-5.592-1.274-10.52-3.877-14.839s-6.090-8.582-10.464-12.846l-54.429-53.431v-21.928h93.908v21.928h-63.566l40.698 38.87z" />
<glyph unicode="&#xe90d;" glyph-name="compostable" d="M406.331 228.383c24.252-17.996 53.155-27.021 82.058-27.021 35.27 0 70.597 13.455 97.452 40.31 17.386 17.386 29.844 39.146 35.881 62.513l4.872 17.386c14.008 53.654 37.098 148.724 38.317 153.819 2.879 12.070-0.223 24.031-8.196 32.059-8.029 7.973-19.987 11.075-32.059 8.195-3.377-0.831-16.445-4.097-33.832-8.471-37.818-9.524-94.959-23.921-119.212-29.513l-22.424-6.423c-21.871-6.478-41.971-18.438-58.195-34.661-49.722-49.723-53.376-128.348-11.018-182.39-3.543-8.804-6.257-17.718-7.697-26.633-4.485-27.076 1.772-51.716 18.438-73.254 3.267-4.209 8.195-6.423 13.123-6.423 3.544 0 7.144 1.162 10.189 3.488 7.254 5.647 8.581 16.058 2.934 23.311-10.963 14.12-14.839 29.678-11.959 47.507 0.332 1.993 0.774 4.097 1.329 6.202zM397.582 287.296c-8.97 15.615-13.787 33.334-13.787 51.827 0 27.907 10.852 54.207 30.619 73.919 12.293 12.292 27.575 21.428 44.019 26.301l20.986 6.035c24.806 5.759 81.67 20.099 119.378 29.568 17.165 4.319 30.011 7.585 33.334 8.361 0.11 0 0.221 0.055 0.388 0.055 0-0.111-0.056-0.221-0.056-0.333-1.217-5.093-24.197-99.721-38.039-152.822l-4.873-17.441c-4.65-17.939-14.063-34.44-27.296-47.674-19.768-19.767-46.013-30.62-73.92-30.62-25.471 0-49.501 9.137-68.549 25.747 11.85 20.376 30.122 42.414 54.486 65.226 31.782 29.789 62.456 50.276 62.789 50.497 7.642 5.094 9.745 15.393 4.65 23.035-5.093 7.64-15.392 9.745-23.034 4.707-4.097-2.769-79.622-53.322-121.094-116.389zM760.479 631.090c-9.080 1.052-17.386-5.481-18.438-14.563l-61.073-523.304h-345.51l-61.073 523.304c-1.052 9.137-9.358 15.615-18.438 14.563-9.137-1.052-15.615-9.302-14.563-18.438l62.789-537.976c0.997-8.361 8.084-14.673 16.5-14.673h375.077c8.416 0 15.503 6.312 16.5 14.673l62.79 537.976c1.107 9.137-5.426 17.386-14.563 18.438zM743.151 709.051h-127.352l0.111 45.957c0.055 35.327-27.187 73.256-67.94 73.366-15.67 0.055-25.802 0.055-36.433 0.111-11.13 0.055-22.813 0.055-42.081 0.11-0.056 0-0.111 0-0.111 0-22.369 0-41.695-12.237-54.484-34.551-10.355-18.106-14.065-38.593-14.065-50.664-0.055-12.625-0.055-25.692-0.11-34.33h-127.296c-39.036 0-84.44-44.241-84.44-101.327 0-9.192 7.42-16.611 16.612-16.611 9.19 0 16.611 7.419 16.611 16.611 0 29.734 24.861 68.105 51.218 68.105h469.761c26.356 0 51.217-38.371 51.217-68.105 0-9.192 7.42-16.611 16.612-16.611s16.611 7.419 16.611 16.611c0 57.032-45.403 101.327-84.439 101.327zM582.577 709.051h-148.668c0.055 8.637 0.055 21.65 0.11 34.275 0 8.361 3.045 22.646 9.69 34.218 10.244 17.829 22.093 17.719 25.692 17.829 19.214-0.055 30.952-0.11 42.026-0.11 10.687-0.055 20.764-0.055 36.489-0.111 22.424-0.055 34.828-23.698 34.772-40.032l-0.111-46.068z" />
<glyph unicode="&#xe90e;" glyph-name="contact" d="M293.583 620.464c-52.138 0-94.513-42.41-94.513-94.511s42.412-94.511 94.513-94.511c52.099 0 94.511 42.41 94.511 94.511s-42.412 94.511-94.511 94.511zM293.583 468.003c-31.955 0-57.95 25.995-57.95 57.95s25.995 57.95 57.95 57.95c31.953 0 57.948-25.995 57.948-57.95s-25.995-57.95-57.948-57.95zM510.573 620.464c-52.138 0-94.513-42.41-94.513-94.511s42.412-94.511 94.513-94.511c52.099 0 94.511 42.41 94.511 94.511s-42.375 94.511-94.511 94.511zM510.573 468.003c-31.955 0-57.95 25.995-57.95 57.95s25.995 57.95 57.95 57.95c31.955 0 57.95-25.995 57.95-57.95s-25.96-57.95-57.95-57.95zM727.601 620.464c-52.136 0-94.511-42.41-94.511-94.511s42.412-94.511 94.511-94.511c52.101 0 94.513 42.41 94.513 94.511s-42.412 94.511-94.513 94.511zM727.601 468.003c-31.955 0-57.95 25.995-57.95 57.95s25.995 57.95 57.95 57.95c31.955 0 57.95-25.995 57.95-57.95s-25.995-57.95-57.95-57.95zM513.792 857.6c-226.828 0-411.392-148.404-411.392-330.846 0-82.045 37.366-160.432 105.298-221.198-1.61-17.549-30.347-74.037-47.896-108.478-41.168-80.873-58.462-118.606-50.967-140.761 2.303-6.838 6.983-12.249 13.235-15.247 3.693-1.755 7.751-2.669 12.321-2.669 25.483 0 67.456 27.824 152.755 88.295 43.655 30.933 109.392 77.584 126.21 79.12 32.686-6.58 66.47-9.908 100.436-9.908 226.828 0 411.392 148.404 411.392 330.846s-184.564 330.846-411.392 330.846zM513.792 232.505c-31.846 0-63.472 3.144-94.001 9.359-23.654 4.827-63.031-20.912-153.778-85.297-38.791-27.531-94.475-67.019-120.58-78.424 6.801 23.509 31.297 71.586 46.982 102.371 45.702 89.723 64.97 130.195 42.741 149.61-62.045 54.11-96.194 123.943-96.194 196.628 0 162.261 168.146 294.284 374.83 294.284 206.682 0 374.829-132.024 374.829-294.284s-168.147-294.248-374.829-294.248z" />
<glyph unicode="&#xe90f;" glyph-name="corn" d="M748.983 357.285c-22.757 67.053 13.842 168.159 14.175 169.156 2.381 6.533 0.443 13.897-4.873 18.438s-12.901 5.204-18.936 1.772c-2.935-1.661-34.939-20.155-71.981-49.668-26.468 69.656-125.414 311.402-242.355 363.174-29.18 12.901-57.751 13.676-84.938 2.215-27.242-11.462-46.566-32.391-57.418-62.181-43.078-118.161 62.291-352.984 95.68-422.364-33.499-3.764-69.546-12.18-106.81-27.795-6.368-2.714-10.465-9.080-10.132-16.003 0.276-6.921 4.817-12.956 11.406-15.116 0.996-0.333 98.89-33.001 139.754-104.041 54.595-94.793 110.962-138.369 189.975-144.849l11.24-24.639c4.485-9.856 12.846-18.438 22.867-23.478 6.478-3.267 13.234-4.872 19.933-4.872 5.87 0 11.684 1.274 17.221 3.764l38.703 17.553c26.412 12.015 31.007 39.756 21.926 59.744l-11.018 24.197c19.213 19.158 32.502 41.196 40.143 66.388 13.732 45.238 9.135 98.78-14.563 168.603zM313.884 788.84c7.642 21.041 20.431 35.049 39.091 42.912s37.819 7.198 58.582-1.993c111.073-49.169 212.123-310.572 228.845-355.643-35.382-31.949-70.209-72.202-85.491-116.223-25.692 9.192-76.687 23.588-140.751 22.314-21.539 43.799-141.359 295.844-100.275 408.632zM441.402 231.428c-29.18 50.72-81.117 83.665-117.551 101.77 103.21 29.402 192.744 3.156 223.585-8.083-10.354-83.167 35.768-177.96 60.963-222.257-69.324 4.707-117.385 42.469-166.996 128.57zM698.762 68.585l-38.703-17.553c-0.942-0.443-3.876-1.772-8.472 0.554-3.212 1.605-6.202 4.595-7.53 7.53l-5.149 11.295c1.661 0.166 3.378 0.499 4.983 1.164 20.155 8.471 37.818 17.996 53.1 28.681l7.255-15.946c0.498-1.052 4.705-11.075-5.482-15.725zM643.946 108.008c-21.041 35.272-78.793 142.025-61.738 224.25 13.787 66.61 90.253 129.068 137.041 161.737-9.413-39.757-17.994-99.279-1.66-147.396 41.915-123.863 20.708-194.017-73.642-238.591zM410.341 622.729c3.378 8.195 3.323 17.22-0.11 25.414s-9.856 14.508-18.051 17.885c-8.195 3.322-17.276 3.322-25.416-0.111-8.195-3.433-14.508-9.856-17.884-18.051-3.378-8.195-3.323-17.275 0.11-25.414 3.433-8.196 9.856-14.508 18.051-17.885 4.042-1.66 8.306-2.491 12.57-2.491 4.375 0 8.749 0.886 12.901 2.602 8.084 3.433 14.451 9.8 17.829 18.051zM446.662 540.283c3.323 8.195 3.323 17.22-0.11 25.414-3.433 8.196-9.856 14.508-18.051 17.885s-17.275 3.322-25.414-0.111c-8.195-3.433-14.508-9.856-17.884-18.051-3.323-8.195-3.323-17.22 0.11-25.414s9.856-14.508 18.051-17.885c4.042-1.66 8.305-2.491 12.568-2.491 4.375 0 8.749 0.886 12.846 2.602 8.14 3.378 14.508 9.801 17.884 18.051zM440.239 437.627c4.042-1.661 8.306-2.492 12.57-2.492 4.375 0 8.749 0.886 12.902 2.602 8.195 3.433 14.508 9.856 17.885 18.052 3.377 8.195 3.322 17.22-0.111 25.414s-9.856 14.506-18.051 17.884c-8.196 3.323-17.276 3.323-25.416-0.11-16.888-7.087-24.863-26.633-17.775-43.521 3.378-8.084 9.801-14.451 17.996-17.829zM467.98 603.848c-3.377-8.195-3.322-17.275 0.111-25.414 3.433-8.195 9.856-14.508 18.051-17.884 4.042-1.661 8.306-2.492 12.57-2.492 4.374 0 8.748 0.886 12.901 2.602 8.195 3.433 14.506 9.856 17.884 18.051s3.322 17.221-0.111 25.416c-3.433 8.195-9.855 14.506-18.049 17.884-8.251 3.378-17.276 3.323-25.416-0.11-8.25-3.433-14.618-9.856-17.94-18.052zM462.442 640.503c4.262 0 8.637 0.831 12.846 2.602 16.887 7.087 24.86 26.633 17.773 43.521-3.433 8.195-9.856 14.506-18.051 17.884s-17.275 3.323-25.414-0.11c-8.195-3.433-14.506-9.856-17.884-18.052-3.378-8.195-3.323-17.275 0.11-25.414 5.316-12.79 17.663-20.431 30.62-20.431z" />
<glyph unicode="&#xe910;" glyph-name="cotton" d="M751.199 440.599c-2.99 1.716-66.999 38.039-144.241 23.976 3.212 34.938-4.872 94.627-82.058 139.588-5.038 2.935-11.24 3.045-16.334 0.221-2.769-1.495-68.271-37.929-81.56-97.009-3.711-16.445-3.045-32.835 1.883-49.059-40.586 10.134-105.536 19.436-157.64-5.26-8.195-3.876-11.739-13.565-8.028-21.816 1.716-3.764 42.358-92.745 115.945-119.156 25.636-9.192 51.992-9.745 78.57-1.716v-249.664c0-3.543 1.162-7.032 3.267-9.911 1.828-2.492 18.605-24.141 44.905-25.138 0.666 0 1.274-0.055 1.938-0.055 16.445 0 31.839 8.14 45.792 24.196 2.602 2.99 4.042 6.866 4.042 10.853l0.276 248.003c29.623-9.635 58.748-9.523 86.876 0.278 72.535 25.303 111.405 106.753 113.011 110.241 3.709 7.807 0.776 17.11-6.644 21.428zM633.814 340.269c-26.911-9.358-55.482-6.644-84.995 8.028-5.149 2.547-11.24 2.271-16.111-0.776-4.873-3.045-7.863-8.361-7.863-14.118l-0.333-266.164c-5.98-5.759-11.849-8.639-17.165-8.417-6.423 0.221-12.568 4.596-16.389 8.196v267.715c0 5.759-2.99 11.073-7.863 14.12-4.873 3.045-10.963 3.322-16.113 0.774-26.633-13.178-51.661-15.282-76.466-6.368-43.688 15.615-74.806 61.572-88.759 85.935 66.223 19.822 152.6-13.344 153.542-13.732 6.866-2.714 14.729-0.554 19.214 5.316 4.54 5.814 4.65 13.953 0.275 19.932-14.728 20.211-19.767 39.59-15.392 59.246 7.585 34.053 41.527 59.967 57.142 70.321 79.844-51.826 54.596-119.268 53.489-122.092-2.437-5.98-1.164-12.901 3.267-17.608 4.429-4.707 11.24-6.478 17.386-4.374 53.82 17.939 104.87 2.491 129.123-7.475-13.454-22.203-43.244-63.62-85.989-78.459zM735.695 741.37c-12.625 0-25.139-1.329-37.486-3.876-28.183 74.749-100.718 125.691-181.669 125.691-81.45 0-154.040-51.273-182.002-126.576-13.677 3.156-27.685 4.762-41.805 4.762-102.712 0-186.321-83.553-186.321-186.321 0-75.026 44.684-142.412 113.786-171.647 2.104-0.886 4.319-1.329 6.478-1.329 6.479 0 12.625 3.82 15.283 10.132 3.598 8.471-0.388 18.217-8.805 21.76-56.809 24.031-93.519 79.401-93.519 141.083 0 84.384 68.659 153.1 153.098 153.1 16.168 0 32.17-2.547 47.508-7.587 4.319-1.439 9.025-0.996 13.011 1.164s6.921 5.814 8.14 10.188c19.158 69.49 82.944 117.994 155.091 117.994 71.539 0 135.159-48.006 154.76-116.776 0-0.055 0-0.055 0.056-0.111 0-0.055 0-0.055 0-0.11 0.165-0.499 0.387-0.942 0.553-1.385 0.221-0.553 0.388-1.107 0.666-1.605 0.221-0.443 0.553-0.831 0.829-1.274 0.333-0.498 0.609-0.997 0.997-1.44 0.276-0.388 0.664-0.664 0.996-0.996 0.443-0.444 0.832-0.887 1.275-1.274 0.276-0.278 0.663-0.443 0.941-0.666 0.553-0.387 1.107-0.829 1.716-1.107 0.276-0.165 0.554-0.221 0.776-0.332 0.719-0.333 1.384-0.664 2.159-0.886 0.221-0.056 0.388-0.056 0.609-0.111 0.829-0.221 1.66-0.443 2.546-0.553 0.221 0 0.388 0 0.609 0 0.886-0.056 1.716-0.111 2.602-0.056 0.333 0.056 0.721 0.166 1.107 0.166 0.721 0.111 1.385 0.166 2.104 0.388 0.056 0 0.056 0 0.111 0.055 0.055 0 0.055 0 0.11 0 14.23 4.209 28.904 6.368 43.688 6.368 84.384 0 153.098-68.659 153.098-153.098 0-64.728-40.974-122.756-101.937-144.351-8.637-3.045-13.178-12.568-10.132-21.207 2.436-6.81 8.804-11.073 15.67-11.073 1.827 0 3.709 0.332 5.536 0.941 74.196 26.301 124.086 96.899 124.086 175.634 0 102.712-83.555 186.321-186.321 186.321z" />
<glyph unicode="&#xe911;" glyph-name="icon-close" d="M215.142 89.19c-14.643-14.643-38.502-14.643-53.248 0l-8.602 8.602c-14.643 14.643-14.643 38.502 0 53.248l295.526 298.086-295.834 295.834c-14.643 14.643-14.643 38.502 0 53.248l8.602 8.602c14.643 14.643 38.502 14.643 53.248 0l297.165-297.165 297.165 297.165c14.643 14.643 38.502 14.643 53.248 0l8.602-8.602c14.643-14.643 14.643-38.502 0-53.248l-297.165-297.165 296.755-296.755c14.643-14.643 14.643-38.502 0-53.248l-8.602-8.602c-14.643-14.643-38.502-14.643-53.248 0l-296.755 296.858-296.858-296.858z" />
<glyph unicode="&#xe912;" glyph-name="icon-delete" d="M771.686 700.211c-10.854 13.517-28.262 21.504-46.694 21.504h-65.638v74.24c0 32.358-19.558 57.754-44.544 57.754h-205.824c-24.986 0-44.544-25.395-44.544-57.754v-74.24h-65.434c-18.637 0-35.635-7.782-46.592-21.402-9.421-11.674-13.107-26.419-10.24-40.755l83.354-573.85c0.102-0.41 0.102-0.819 0.205-1.229 5.325-24.576 29.184-42.394 56.73-42.394h257.434c27.443 0 51.2 17.715 56.627 42.189 0.102 0.41 0.205 0.819 0.205 1.229l84.992 573.85c2.97 14.336-0.717 29.184-10.035 40.858zM400.282 796.058c0 14.541 6.963 21.811 8.602 21.811h205.824c1.638 0 8.602-7.27 8.602-21.811v-74.24h-223.027v74.24zM746.496 666.522c-0.102-0.41-0.205-0.819-0.205-1.229l-84.992-573.645c-2.048-7.782-11.059-13.517-21.402-13.517h-257.536c-10.342 0-19.456 5.837-21.402 13.619l-83.251 573.645c-0.102 0.41-0.102 0.819-0.205 1.229-1.024 4.915 1.024 8.806 2.97 11.162 4.096 5.018 11.059 8.090 18.534 8.090h425.984c7.578 0 14.541-3.072 18.637-8.090 1.843-2.458 3.994-6.349 2.867-11.264zM400.179 611.738c-1.331 9.83-10.342 16.794-20.173 15.462s-16.794-10.342-15.462-20.173l64.307-481.997c1.229-9.011 8.909-15.565 17.818-15.565 0.819 0 1.638 0.102 2.355 0.205 9.83 1.331 16.794 10.342 15.462 20.173l-64.307 481.894zM512 627.405c-9.933 0-18.022-8.090-18.022-18.022v-481.997c0-9.933 8.090-18.022 18.022-18.022s18.022 8.090 18.022 18.022v481.997c0 9.933-8.090 18.022-18.022 18.022zM643.789 615.936c-9.83 1.331-18.944-5.53-20.275-15.36l-64.307-470.733c-1.331-9.83 5.53-18.944 15.36-20.275 0.819-0.102 1.638-0.205 2.458-0.205 8.909 0 16.589 6.554 17.818 15.565l64.307 470.733c1.331 9.933-5.53 18.944-15.36 20.275z" />
<glyph unicode="&#xe913;" glyph-name="dry_clean" d="M974.862 18.788l-214.659 213.078c54.936 59.595 88.562 139.125 88.562 226.394 0 87.728-34.001 167.59-89.434 227.31l212.204 212.204c4.868 4.869 4.868 12.776 0 17.645-4.87 4.869-12.777 4.869-17.646 0l-212.204-212.204c-59.72 55.434-139.583 89.435-227.31 89.435-88.146 0-168.423-34.375-228.227-90.307l-211.287 209.705c-4.911 4.869-12.818 4.827-17.646-0.083-4.869-4.911-4.828-12.818 0.083-17.645l211.288-209.706c-54.934-59.595-88.56-139.125-88.56-226.394 0-87.728 34.002-167.59 89.435-227.31l-212.204-212.204c-4.869-4.87-4.869-12.777 0-17.646 2.455-2.456 5.618-3.662 8.823-3.662s6.409 1.206 8.823 3.662l212.204 212.204c59.72-55.433 139.581-89.434 227.31-89.434 88.144 0 168.38 34.333 228.184 90.307l214.7-213.076c2.413-2.415 5.618-3.621 8.782-3.621 3.203 0 6.408 1.249 8.864 3.703 4.827 4.911 4.827 12.777-0.084 17.646zM823.794 458.26c0-80.402-30.837-153.731-81.318-208.79l-210.414 208.83 209.623 209.623c50.938-55.224 82.108-128.844 82.108-209.664zM514.376 767.639c80.818 0 154.481-31.172 209.664-82.11l-209.664-209.664-210.498 208.873c55.267 51.397 129.262 82.9 210.498 82.9zM204.956 458.26c0 80.404 30.837 153.733 81.277 208.792l210.414-208.833-209.623-209.623c-50.856 55.183-82.067 128.846-82.067 209.664zM514.376 148.84c-80.82 0-154.483 31.171-209.666 82.11l209.666 209.664 210.455-208.873c-55.226-51.397-129.221-82.901-210.455-82.901z" />
<glyph unicode="&#xe914;" glyph-name="fabric" d="M653.71 278.991c-48.116 0-87.263-39.146-87.263-87.264 0-48.116 39.146-87.263 87.263-87.263s87.264 39.146 87.264 87.263c0 48.118-39.148 87.264-87.264 87.264zM653.71 137.742c-29.789 0-54.042 24.252-54.042 54.042s24.252 54.040 54.042 54.040c29.789 0 54.042-24.251 54.042-54.040s-24.252-54.042-54.042-54.042zM797.674 695.652c0 79.401-64.562 143.962-143.962 143.962-64.396 0-119.101-42.525-137.43-100.995h-289.751v-690.798h427.124c78.127 0 141.915 62.568 143.853 140.252 0 0.333 0.11 0.609 0.11 0.942v503.868c0 0.941-0.11 1.883-0.276 2.769h0.332zM510.138 705.396c-0.221-3.212-0.388-6.478-0.388-9.745v-70.652l-64.174 80.397h64.562zM259.808 705.396h143.299l106.367-133.331c0.055-0.11 0.165-0.166 0.276-0.276v-240.251l-249.942 313.284v60.575zM259.808 81.043v228.124l182.058-228.124h-182.058zM484.335 81.043l-223.863 280.616c-0.221 0.276-0.443 0.443-0.664 0.664v229.233l249.72-312.952c0.055-0.11 0.166-0.166 0.276-0.276v-86.543c0-44.463 20.265-84.329 52.104-110.74h-77.573zM653.713 81.043c-61.074 0-110.74 49.667-110.74 110.74s49.667 110.739 110.74 110.739c61.073 0 110.74-49.667 110.74-110.739 0-61.074-49.668-110.74-110.74-110.74zM764.453 692.883v-409.242c-26.413 31.784-66.278 52.104-110.74 52.104s-84.329-20.265-110.74-52.104v412.010c0 61.073 49.667 110.74 110.74 110.74s110.74-49.668 110.74-110.74h0.276c-0.166-0.886-0.276-1.828-0.276-2.769z" />
<glyph unicode="&#xe915;" glyph-name="factory" d="M806.531 460.728l-214.057 92.12c-5.405 2.324-11.624 1.743-16.507-1.51-4.882-3.255-7.845-8.777-7.788-14.647l0.465-63.758-173.198 86.367v255.264c0 9.649-7.788 17.436-17.436 17.436h-126.586c-9.357 0-17.029-7.382-17.436-16.739l-29.176-733.128c-0.174-4.765 1.569-9.358 4.824-12.787 3.313-3.429 7.846-5.347 12.554-5.347h577.423c9.649 0 17.436 7.788 17.436 17.436v363.309c0.059 6.975-4.068 13.252-10.519 15.983zM265.896 738.717h94.62v-23.539h-95.549l0.929 23.539zM360.516 797.128v-23.538h-93.225l0.931 23.538h92.294zM263.571 680.306h96.945v-581.434h-120.134l23.19 581.434zM395.388 98.872v421.545l173.489-86.482 2.383-335.005-175.872-0.058zM782.236 98.872h-176.105l-2.906 411.433 179.011-77.010v-334.423z" />
<glyph unicode="&#xe916;" glyph-name="grid" d="M400.761 857.6h-239.753c-32.329 0-58.608-26.279-58.608-58.608v-239.79c0-32.33 26.279-58.608 58.608-58.608h239.79c32.33 0 58.608 26.278 58.608 58.608v239.79c-0.037 32.329-26.315 58.608-58.644 58.608zM422.922 559.202c0-12.21-9.951-22.161-22.161-22.161h-239.753c-12.21 0-22.16 9.951-22.16 22.161v239.79c0 12.21 9.95 22.16 22.16 22.16h239.79c12.21 0 22.161-9.95 22.161-22.16v-239.79h-0.037zM400.761 395.37h-239.753c-32.329 0-58.608-26.28-58.608-58.608v-239.79c0-32.33 26.279-58.608 58.608-58.608h239.79c32.33 0 58.608 26.278 58.608 58.608v239.79c-0.037 32.328-26.315 58.608-58.644 58.608zM422.922 97.010c0-12.21-9.951-22.161-22.161-22.161h-239.753c-12.21 0-22.16 9.951-22.16 22.161v239.753c0 12.21 9.95 22.159 22.16 22.159h239.79c12.21 0 22.161-9.949 22.161-22.159v-239.753h-0.037zM856.832 857.6h-239.788c-32.33 0-58.61-26.279-58.61-58.608v-239.79c0-32.33 26.28-58.608 58.61-58.608h239.788c32.33 0 58.61 26.278 58.61 58.608v239.79c-0.037 32.329-26.317 58.608-58.61 58.608zM878.957 559.202c0-12.21-9.951-22.161-22.159-22.161h-239.753c-12.21 0-22.161 9.951-22.161 22.161v239.79c0 12.21 9.951 22.16 22.161 22.16h239.788c12.21 0 22.161-9.95 22.161-22.16v-239.79h-0.037zM856.832 395.37h-239.788c-32.33 0-58.61-26.28-58.61-58.608v-239.79c0-32.33 26.28-58.608 58.61-58.608h239.788c32.33 0 58.61 26.278 58.61 58.608v239.79c-0.037 32.328-26.317 58.608-58.61 58.608zM878.957 97.010c0-12.21-9.951-22.161-22.159-22.161h-239.753c-12.21 0-22.161 9.951-22.161 22.161v239.753c0 12.21 9.951 22.159 22.161 22.159h239.788c12.21 0 22.161-9.949 22.161-22.159v-239.753h-0.037z" />
<glyph unicode="&#xe917;" glyph-name="grid_a" d="M400.798 857.6h-239.79c-32.329 0-58.608-26.279-58.608-58.608v-239.79c0-32.33 26.279-58.608 58.608-58.608h239.79c32.33 0 58.608 26.278 58.608 58.608v239.79c0 32.329-26.315 58.608-58.608 58.608zM400.798 395.37h-239.79c-32.329 0-58.608-26.28-58.608-58.608v-239.79c0-32.33 26.279-58.608 58.608-58.608h239.79c32.33 0 58.608 26.278 58.608 58.608v239.79c0 32.328-26.315 58.608-58.608 58.608zM856.828 857.6h-239.79c-32.33 0-58.608-26.279-58.608-58.608v-239.79c0-32.33 26.278-58.608 58.608-58.608h239.79c32.33 0 58.608 26.278 58.608 58.608v239.79c0 32.329-26.278 58.608-58.608 58.608zM856.828 395.37h-239.79c-32.33 0-58.608-26.28-58.608-58.608v-239.79c0-32.33 26.278-58.608 58.608-58.608h239.79c32.33 0 58.608 26.278 58.608 58.608v239.79c0 32.328-26.278 58.608-58.608 58.608z" />
<glyph unicode="&#xe918;" glyph-name="h2o" d="M431.32 401.083h-84.827v73.309h-32.28v-181.393h32.28v80.453h84.827v-80.453h32.282v181.393h-32.282v-73.309zM746.54 423.507c-4.872 11.683-11.628 21.65-20.376 29.844-8.692 8.195-19.046 14.506-31.007 18.936s-25.028 6.644-39.203 6.644c-14.008 0-26.964-2.214-38.813-6.644-11.85-4.43-22.093-10.742-30.732-18.936-8.637-8.195-15.392-18.162-20.21-29.844-4.872-11.684-7.309-24.806-7.309-39.313 0-14.175 2.437-27.132 7.309-38.815 4.873-11.684 11.629-21.761 20.21-30.232 8.639-8.471 18.881-15.005 30.732-19.712 11.849-4.707 24.805-7.032 38.813-7.032 14.175 0 27.242 2.326 39.203 7.032s22.259 11.296 31.007 19.712c8.694 8.471 15.505 18.548 20.376 30.232 4.873 11.683 7.309 24.64 7.309 38.815-0.055 14.506-2.436 27.629-7.309 39.313zM714.259 357.45c-2.99-8.084-7.254-15.172-12.791-21.151-5.536-5.98-12.18-10.632-19.877-13.953-7.697-3.323-16.113-4.984-25.359-4.984s-17.664 1.661-25.249 4.984c-7.585 3.322-14.175 7.973-19.712 13.953s-9.8 13.011-12.79 21.151c-2.99 8.084-4.485 17.053-4.485 26.744 0 9.412 1.495 18.106 4.485 26.134s7.197 15.005 12.68 20.986c5.481 5.98 12.015 10.687 19.601 14.065 7.585 3.433 16.113 5.149 25.471 5.149 9.413 0 17.939-1.716 25.636-5.149s14.23-8.14 19.712-14.065c5.481-5.98 9.69-12.956 12.68-20.986 2.99-8.028 4.485-16.722 4.485-26.134 0-9.746-1.495-18.66-4.485-26.744zM774.615 479.985l-20.931 37.21c-68.050 116.166-188.259 313.45-194.737 323.915-11.462 18.604-29.125 29.291-48.338 29.291s-36.877-10.686-48.339-29.291c-4.429-7.143-20.541-34.164-42.911-71.539-47.73-79.844-119.766-200.495-151.327-250.993l-26.301-47.507c-24.141-44.462-36.932-94.904-36.932-145.846 0-168.657 137.262-305.92 305.92-305.92s305.92 137.263 305.92 305.92c0 54.596-14.563 108.193-42.025 154.76zM510.72 52.472c-150.385 0-272.698 122.312-272.698 272.698 0 45.404 11.351 90.364 32.835 129.843l25.526 46.234c31.837 50.996 103.818 171.427 151.437 251.215 21.428 35.88 38.372 64.174 42.636 71.15 5.315 8.582 12.625 13.51 20.099 13.51 7.475 0 14.784-4.928 20.1-13.51 6.423-10.409 126.41-207.306 194.184-322.975l20.984-37.208c24.585-41.693 37.597-89.533 37.597-138.204 0-150.44-122.313-272.753-272.699-272.753zM683.973 206.956c-7.364 5.481-17.774 4.041-23.255-3.323-59.855-79.844-158.58-75.026-160.020-74.916-9.19 0.554-17.053-6.368-17.608-15.503-0.608-9.137 6.313-17.055 15.505-17.663 0.664-0.056 3.212-0.166 7.309-0.166 26.798 0 119.876 6.257 181.448 88.315 5.426 7.309 3.931 17.719-3.378 23.256zM530.653 267.252l-54.429-53.432v-21.926h93.907v21.926h-63.565l40.643 38.87c3.212 2.935 6.145 5.925 8.859 9.082 2.714 3.1 5.094 6.423 7.197 9.856 2.049 3.433 3.711 7.142 4.873 11.073 1.219 3.932 1.772 8.14 1.772 12.68 0 6.756-1.274 12.736-3.876 17.829-2.602 5.094-6.090 9.413-10.464 12.957s-9.413 6.145-15.062 7.862c-5.647 1.716-11.516 2.602-17.663 2.602-6.533 0-12.513-1.051-18.051-3.1s-10.354-4.873-14.451-8.471c-4.097-3.599-7.53-7.863-10.189-12.736-2.657-4.928-4.319-10.299-4.983-16.168l23.311-3.599c0.941 6.921 3.433 12.68 7.585 17.22 4.097 4.596 9.58 6.866 16.334 6.866 6.368 0 11.739-1.938 16.058-5.869s6.478-9.192 6.478-15.836c0-5.592-1.274-10.52-3.876-14.839-2.547-4.319-6.035-8.582-10.409-12.846z" />
<glyph unicode="&#xe919;" glyph-name="icon-delivery" d="M911.974 197.53l-78.541 601.907c0 0.819-0.102 1.638-0.205 2.458-0.102 0.922-0.102 1.843-0.205 2.765-0.102 1.024-0.307 2.048-0.41 2.97s-0.307 1.843-0.512 2.662c-0.205 1.024-0.512 1.946-0.717 2.97-0.205 0.819-0.41 1.741-0.717 2.56-0.307 0.922-0.717 1.843-1.024 2.867-0.307 0.819-0.614 1.638-0.922 2.458-0.41 0.922-0.819 1.843-1.331 2.765-0.41 0.717-0.717 1.536-1.126 2.253-0.512 0.922-1.024 1.741-1.536 2.56-0.41 0.717-0.819 1.434-1.331 2.15-0.614 0.819-1.229 1.638-1.843 2.458-0.512 0.614-1.024 1.331-1.536 1.946-0.614 0.819-1.331 1.536-2.048 2.253-0.512 0.614-1.126 1.229-1.638 1.741-0.717 0.717-1.536 1.434-2.253 2.048-0.614 0.512-1.229 1.126-1.843 1.638-0.819 0.614-1.638 1.229-2.458 1.843-0.614 0.512-1.229 1.024-1.946 1.434-0.819 0.614-1.741 1.126-2.662 1.638-0.717 0.41-1.331 0.819-2.048 1.229-0.922 0.512-1.946 0.922-2.867 1.434-0.717 0.307-1.434 0.717-2.15 1.024-1.024 0.41-2.048 0.717-3.072 1.126-0.717 0.307-1.434 0.512-2.15 0.819-1.126 0.307-2.253 0.614-3.379 0.819-0.717 0.205-1.434 0.41-2.15 0.512-1.229 0.307-2.56 0.41-3.891 0.614-0.614 0.102-1.229 0.205-1.843 0.307-1.946 0.205-3.891 0.307-5.837 0.307h-356.557c-31.642 0-57.446-25.6-57.856-57.139l-1.741-26.010c-0.512-1.638-0.819-3.277-0.819-5.018 0-0.922 0.102-1.843 0.307-2.765l-45.056-666.010c0-0.41 0-0.819 0-1.229 0-31.846 25.907-57.856 57.856-57.856h389.632c13.21 0 25.293 4.506 35.021 11.981 0.205 0.102 0.307 0.205 0.512 0.307l67.277 51.507c0.922 0.512 1.946 1.024 2.867 1.536 24.678 13.414 45.056 29.491 45.056 89.805-0.102 0.819-0.205 1.536-0.307 2.355zM397.517 798.208c0 11.981 9.728 21.709 21.709 21.709h356.454c0.717 0 1.536 0 2.253-0.102 0.205 0 0.41-0.102 0.717-0.102 0.512-0.102 1.024-0.102 1.434-0.205 0.205 0 0.41-0.102 0.614-0.205 0.512-0.102 1.024-0.205 1.434-0.41 0.205-0.102 0.41-0.205 0.614-0.205 0.41-0.205 0.922-0.307 1.331-0.512 0.205-0.102 0.41-0.205 0.717-0.307 0.41-0.205 0.819-0.41 1.229-0.614 0.205-0.102 0.41-0.205 0.614-0.307 0.41-0.205 0.819-0.512 1.229-0.717 0.205-0.102 0.41-0.307 0.614-0.41 0.41-0.307 0.717-0.512 1.126-0.819 0.205-0.205 0.41-0.307 0.614-0.512 0.307-0.307 0.614-0.614 0.922-0.922 0.205-0.205 0.41-0.41 0.512-0.614 0.307-0.307 0.614-0.614 0.819-0.922 0.205-0.205 0.307-0.512 0.512-0.717 0.205-0.307 0.512-0.614 0.717-0.922 0.205-0.205 0.307-0.512 0.512-0.819s0.41-0.717 0.614-1.024c0.102-0.307 0.307-0.614 0.41-0.819 0.205-0.307 0.307-0.717 0.512-1.024 0.102-0.307 0.205-0.614 0.307-0.922 0.102-0.41 0.307-0.717 0.41-1.126 0.102-0.307 0.205-0.614 0.205-0.922 0.102-0.41 0.205-0.717 0.307-1.126 0.102-0.307 0.102-0.717 0.205-1.024 0.102-0.41 0.102-0.717 0.205-1.126 0-0.307 0-0.717 0.102-1.024 0-0.41 0.102-0.819 0.102-1.229l-0.205-12.39h-400.691l0.717 11.059c0 0.512 0.102 0.922 0.102 1.331zM371.814 76.083c-11.776 0-21.504 9.523-21.709 21.197l44.134 652.493h402.227l-13.21-651.571c0-0.102 0-0.205 0-0.41 0-6.656-3.072-12.698-7.782-16.691l-0.307-0.307c0 0 0 0-0.102 0-3.686-2.97-8.397-4.71-13.517-4.71h-389.734zM849.92 137.011c-1.434-0.819-2.867-1.536-4.403-2.355-0.717-0.41-1.434-0.922-2.15-1.434l-23.757-18.125 9.011 442.778 47.514-363.827c-0.205-42.803-10.035-48.128-26.214-57.037zM296.346 638.464h-166.502c-9.933 0-18.022-8.090-18.022-18.022s8.090-18.022 18.022-18.022h166.502c9.933 0 18.022 8.090 18.022 18.022s-8.090 18.022-18.022 18.022zM281.293 470.323h-151.45c-9.933 0-18.022-8.090-18.022-18.022s8.090-18.022 18.022-18.022h151.347c9.933 0 18.022 8.090 18.022 18.022 0.102 9.933-7.987 18.022-17.92 18.022zM267.264 302.182h-137.421c-9.933 0-18.022-8.090-18.022-18.022s8.090-18.022 18.022-18.022h137.421c9.933 0 18.022 8.090 18.022 18.022s-8.090 18.022-18.022 18.022z" />
<glyph unicode="&#xe91a;" glyph-name="icon-important" d="M512 853.914c-223.744 0-405.811-182.067-405.811-405.914s181.965-405.914 405.811-405.914 405.914 182.17 405.914 405.914-182.17 405.914-405.914 405.914zM512 78.131c-203.981 0-369.869 165.888-369.869 369.869s165.888 369.869 369.869 369.869c203.981 0 369.869-165.888 369.869-369.869s-165.888-369.869-369.869-369.869zM513.229 741.581c-22.016 0-39.731-17.818-39.731-39.731v-310.374c0-22.016 17.818-39.731 39.731-39.731 22.016 0 39.731 17.818 39.731 39.731v310.374c0.102 21.914-17.715 39.731-39.731 39.731zM513.229 253.952c-22.016 0-39.731-17.818-39.731-39.731v-17.715c0-22.016 17.818-39.731 39.731-39.731 22.016 0 39.731 17.818 39.731 39.731v17.715c0.102 21.914-17.715 39.731-39.731 39.731z" />
<glyph unicode="&#xe91b;" glyph-name="list" d="M881.725 857.6h-720.717c-32.329 0-58.608-26.279-58.608-58.608v-239.79c0-32.33 26.279-58.608 58.608-58.608h720.717c32.33 0 58.608 26.278 58.608 58.608v239.79c0 32.329-26.278 58.608-58.608 58.608zM903.887 559.202c0-12.21-9.951-22.161-22.161-22.161h-720.717c-12.21 0-22.16 9.951-22.16 22.161v239.79c0 12.21 9.95 22.16 22.16 22.16h720.717c12.21 0 22.161-9.95 22.161-22.16v-239.79zM881.725 395.37h-720.717c-32.329 0-58.608-26.28-58.608-58.608v-239.79c0-32.33 26.279-58.608 58.608-58.608h720.717c32.33 0 58.608 26.278 58.608 58.608v239.79c0 32.328-26.278 58.608-58.608 58.608zM903.887 97.010c0-12.21-9.951-22.161-22.161-22.161h-720.717c-12.21 0-22.16 9.951-22.16 22.161v239.753c0 12.21 9.95 22.159 22.16 22.159h720.717c12.21 0 22.161-9.949 22.161-22.159v-239.753z" />
<glyph unicode="&#xe91c;" glyph-name="list_a" d="M881.727 857.6h-720.719c-32.329 0-58.608-26.279-58.608-58.608v-239.79c0-32.33 26.279-58.608 58.608-58.608h720.756c32.328 0 58.608 26.278 58.608 58.608v239.79c-0.037 32.329-26.315 58.608-58.644 58.608zM881.727 395.37h-720.719c-32.329 0-58.608-26.28-58.608-58.608v-239.79c0-32.33 26.279-58.608 58.608-58.608h720.756c32.328 0 58.608 26.278 58.608 58.608v239.79c-0.037 32.328-26.315 58.608-58.644 58.608z" />
<glyph unicode="&#xe91d;" glyph-name="icon-info" d="M512 853.914c-223.744 0-405.914-182.067-405.914-405.914s182.17-405.914 405.914-405.914 405.914 182.17 405.914 405.914-182.067 405.914-405.914 405.914zM512 78.131c-203.981 0-369.869 165.888-369.869 369.869s165.888 369.869 369.869 369.869c203.981 0 369.869-165.888 369.869-369.869s-165.888-369.869-369.869-369.869zM513.229 546.611c-22.016 0-39.731-17.818-39.731-39.731v-310.374c0-22.016 17.818-39.731 39.731-39.731 22.016 0 39.731 17.818 39.731 39.731v310.374c0.102 21.914-17.715 39.731-39.731 39.731zM513.229 738.918c-22.016 0-39.731-17.818-39.731-39.731v-17.715c0-22.016 17.818-39.731 39.731-39.731 22.016 0 39.731 17.818 39.731 39.731v17.715c0.102 21.914-17.715 39.731-39.731 39.731z" />
<glyph unicode="&#xe91e;" glyph-name="menu_search" d="M58.99 746.129c-4.803 0-9.424-1.95-12.819-5.38s-5.272-8.088-5.2-12.89l0.903-71.027c0.145-9.857 8.161-17.801 18.018-17.838l139.236-0.289c11.807 38.601 28.996 74.854 50.625 107.93l-190.763-0.506zM58.989 502.104c-4.802 0-9.424-1.95-12.819-5.38s-5.236-8.088-5.2-12.89l0.903-71.027c0.144-9.857 8.161-17.801 18.018-17.836l137.863-0.289c-10.074 34.339-15.96 70.447-17.007 107.747l-121.759-0.326zM266.322 258.626l-207.373-0.578c-4.803 0-9.424-1.95-12.819-5.38s-5.236-8.090-5.2-12.892l0.903-71.025c0.144-9.859 8.16-17.803 18.018-17.838l326.459-0.651c-46.543 28.201-87.31 65.069-119.988 108.364zM963.502 130.298l-122.733 170.758c57.594 59.109 93.125 139.813 93.125 228.641 0 180.795-147.108 327.903-327.94 327.903s-327.903-147.108-327.903-327.903c0-180.797 147.106-327.905 327.903-327.905 45.027 0 87.962 9.136 127.031 25.602l124.539-173.251c7.51-10.435 19.714-15.706 33.401-15.706 12.673 0 26.612 4.514 39.285 13.613l12.098 8.702c11.446 8.233 20.22 19.173 24.662 30.8 5.452 13.974 4.153 28.129-3.467 38.746zM314.159 529.697c0 160.901 130.894 291.795 291.795 291.795s291.795-130.893 291.795-291.795c0-160.901-130.894-291.795-291.795-291.795-160.901-0.037-291.795 130.857-291.795 291.795z" />
<glyph unicode="&#xe91f;" glyph-name="icon-location_pin" d="M512 701.85c-97.792 0-177.357-79.565-177.357-177.357s79.565-177.357 177.357-177.357 177.357 79.565 177.357 177.357-79.565 177.357-177.357 177.357zM512 383.181c-77.926 0-141.312 63.386-141.312 141.312s63.386 141.312 141.312 141.312 141.312-63.386 141.312-141.312-63.386-141.312-141.312-141.312zM512 851.763c-180.531 0-327.475-146.842-327.475-327.475 0-79.462 47.616-193.741 127.386-305.562 57.344-80.486 144.179-174.49 200.090-174.49 7.066 0 25.907 0 81.51 53.146 33.894 32.461 71.475 75.366 105.984 120.934 121.754 160.973 139.981 260.813 139.981 305.971 0 180.531-146.944 327.475-327.475 327.475zM673.587 243.917c-77.21-102.912-146.227-160.973-161.894-163.533-5.837 0.102-27.034 3.789-70.451 43.418-32.051 29.184-67.482 70.349-99.942 115.917-75.571 105.984-120.627 212.378-120.627 284.57 0 160.666 130.662 291.328 291.328 291.328s291.328-130.662 291.328-291.328c0-68.198-47.309-170.394-129.741-280.371z" />
<glyph unicode="&#xe920;" glyph-name="icon-minus" d="M478.208 415.437h-312.115c-15.462 0-28.058 12.595-28.058 28.058v9.114c0 15.462 12.595 28.058 28.058 28.058h691.712c15.462 0 28.058-12.595 28.058-28.058v-9.114c0-15.462-12.595-28.058-28.058-28.058h-379.597z" />
<glyph unicode="&#xe921;" glyph-name="icon-msg_correct" d="M726.118 668.877l-6.349 4.096c-10.752 6.963-25.088 3.891-31.949-6.861l-244.019-376.525-111.718 111.718c-9.011 9.011-23.654 9.011-32.666 0l-5.325-5.325c-9.011-9.011-9.011-23.654 0-32.666l137.114-137.114c9.011-9.011 23.654-9.011 32.666 0l34.918 49.664 234.086 361.165c7.066 10.547 3.994 24.883-6.758 31.846zM512 853.606c-223.642 0-405.606-181.965-405.606-405.606s181.965-405.606 405.606-405.606 405.606 181.965 405.606 405.606-181.965 405.606-405.606 405.606zM512 78.336c-203.878 0-369.664 165.786-369.664 369.664s165.786 369.664 369.664 369.664c203.878 0 369.664-165.786 369.664-369.664s-165.786-369.664-369.664-369.664z" />
<glyph unicode="&#xe922;" glyph-name="payment" d="M865.559 770.040h-723.007c-32.43 0-58.791-26.36-58.791-58.792v-507.986c0-32.43 26.361-58.792 58.791-58.792h722.97c32.43 0 58.79 26.362 58.79 58.792v508.023c0.037 32.395-26.36 58.755-58.753 58.755zM142.551 733.479h722.97c12.247 0 22.229-9.982 22.229-22.231v-97.692h-767.429v97.729c0 12.249 9.981 22.194 22.23 22.194zM865.559 181.033h-723.007c-12.248 0-22.23 9.98-22.23 22.229v373.733h767.429v-373.733c0.037-12.249-9.945-22.229-22.192-22.229zM379.693 296.204h-211.582c-10.091 0-18.281-8.19-18.281-18.28s8.19-18.28 18.281-18.28h211.582c10.090 0 18.28 8.19 18.28 18.28s-8.153 18.28-18.28 18.28zM519.508 296.204h-60.436c-10.093 0-18.282-8.19-18.282-18.28s8.19-18.28 18.282-18.28h60.436c10.090 0 18.28 8.19 18.28 18.28s-8.19 18.28-18.28 18.28z" />
<glyph unicode="&#xe923;" glyph-name="people" d="M354.93 565.702c73.396 0 133.148 59.752 133.148 133.149s-59.752 133.148-133.148 133.148c-73.398 0-133.148-59.752-133.148-133.148 0-73.398 59.75-133.149 133.148-133.149zM354.93 797.102c54.177 0 98.308-44.074 98.308-98.309 0-54.176-44.073-98.308-98.308-98.308-54.177 0-98.308 44.073-98.308 98.308 0.058 54.235 44.131 98.309 98.308 98.309zM668.727 564.078c73.398 0 133.148 59.752 133.148 133.148 0 73.398-59.75 133.148-133.148 133.148s-133.149-59.75-133.149-133.148c0-73.396 59.694-133.148 133.149-133.148zM668.727 795.534c54.177 0 98.308-44.073 98.308-98.308 0-54.177-44.073-98.308-98.308-98.308-54.177 0-98.308 44.073-98.308 98.308 0 54.177 44.073 98.308 98.308 98.308zM665.472 547.352c-59.519 0-113.754-22.879-154.459-60.274-40.705 37.395-94.94 60.274-154.46 60.274-126.006 0-228.553-102.547-228.553-228.553v-186.339c0-9.64 7.781-17.42 17.421-17.42 9.638 0 17.42 7.78 17.42 17.42v186.339c0 106.787 86.868 193.713 193.713 193.713 50.287 0 96.218-19.278 130.652-50.808-31.473-39.137-50.286-88.844-50.286-142.847v-186.339c0-0.58 0-1.103 0.058-1.683 2.207-23.112 20.556-66.835 73.978-66.835s71.772 43.724 73.979 66.835c0.058 0.522 0.058 1.103 0.058 1.683v186.281c0 54.003-18.813 103.708-50.286 142.845 34.492 31.532 80.365 50.81 130.651 50.81 106.787 0 193.714-86.868 193.714-193.713v-186.339c0-9.64 7.781-17.421 17.42-17.421s17.421 7.781 17.421 17.421v186.396c0.116 126.065-102.431 228.553-228.438 228.553zM550.267 318.799v-185.293c-0.988-7.316-6.852-34.725-39.254-34.725-32.518 0-38.324 27.64-39.254 34.666v185.352c0 43.782 14.633 84.256 39.254 116.773 24.621-32.46 39.254-72.932 39.254-116.773z" />
<glyph unicode="&#xe924;" glyph-name="icon-msg_error" d="M512 853.606c-223.642 0-405.606-181.965-405.606-405.606s181.965-405.606 405.606-405.606 405.606 181.965 405.606 405.606-181.965 405.606-405.606 405.606zM512 78.336c-203.878 0-369.664 165.786-369.664 369.664s165.786 369.664 369.664 369.664c203.878 0 369.664-165.786 369.664-369.664s-165.786-369.664-369.664-369.664zM733.901 668.262l-5.325 5.325c-9.114 9.114-23.757 9.114-32.87 0l-183.706-183.706-183.706 183.706c-9.114 9.114-23.757 9.114-32.87 0l-5.325-5.325c-9.114-9.114-9.114-23.757 0-32.87l182.886-182.886-182.682-184.218c-9.114-9.114-9.114-23.757 0-32.87l5.325-5.325c9.114-9.114 23.757-9.114 32.87 0l183.501 183.398 183.501-183.501c9.114-9.114 23.757-9.114 32.87 0l5.325 5.325c9.114 9.114 9.114 23.757 0 32.87l-183.501 183.501 183.706 183.706c9.011 9.011 9.011 23.757 0 32.87z" />
<glyph unicode="&#xe925;" glyph-name="process" d="M512.033 610.166c55.843 0 103.107 37.174 118.429 88.052 78.935-32.372 140.389-95.985 170.712-174.056l-37.93-0.27c-15.054-0.108-22.931-17.914-12.95-29.135l52.605-59.026c6.744-7.553 18.452-7.823 25.521-0.648l58.972 59.944c10.953 11.114 2.967 29.891-12.626 29.782l-39.278-0.323c-32.643 93.827-105.427 170.226-199.901 206.537 0 0.972 0.055 1.942 0.055 2.86 0.108 68.198-55.411 123.717-123.61 123.717s-123.717-55.519-123.717-123.717c0-68.198 55.519-123.717 123.717-123.717zM512.033 825.228c50.339 0 91.345-40.951 91.345-91.345 0-50.34-40.951-91.345-91.345-91.345-50.34 0-91.345 40.951-91.345 91.345s41.005 91.345 91.345 91.345zM238.81 369.69c-10.522 0-20.718-1.349-30.484-3.831-2.319 15.378-3.561 31.078-3.561 46.725 0 74.943 27.571 147.404 76.561 203.407l24.874-31.995c9.226-11.869 28.164-7.337 31.023 7.446l14.945 77.695c1.888 9.928-4.964 19.423-14.999 20.664l-83.414 10.467c-15.485 1.943-25.574-15.808-16.024-28.11l23.47-30.214c-56.707-62.479-88.755-144.435-88.755-229.306 0-19.855 1.78-39.764 5.18-59.242-37.283-21.312-62.426-61.454-62.426-107.423 0-68.198 55.519-123.717 123.717-123.717s123.717 55.519 123.717 123.717c0 68.198-55.572 123.717-123.825 123.717zM238.81 154.628c-50.34 0-91.345 40.951-91.345 91.345s40.951 91.345 91.345 91.345c50.394 0 91.345-40.951 91.345-91.345s-40.951-91.345-91.345-91.345zM785.042 370.661c-68.198 0-123.717-55.519-123.717-123.717 0-32.535 12.625-62.156 33.235-84.276-52.874-38.47-115.246-58.757-181.178-58.757-19.855 0-39.387 1.889-58.541 5.558l19.802 35.071c7.391 13.11-4.101 28.812-18.83 25.736l-77.425-16.241c-9.928-2.049-15.971-12.086-13.274-21.851l22.607-80.986c4.209-14.999 24.442-17.481 32.102-3.885l18.399 32.589c24.495-5.504 49.638-8.417 75.213-8.417 75.644 0 147.080 24.225 206.915 70.033 18.83-11.601 41.005-18.29 64.691-18.29 68.198 0 123.717 55.519 123.717 123.717s-55.519 123.717-123.717 123.717zM785.042 155.599c-50.34 0-91.345 40.951-91.345 91.345s40.951 91.345 91.345 91.345c50.34 0 91.345-40.951 91.345-91.345s-41.005-91.345-91.345-91.345z" />
<glyph unicode="&#xe926;" glyph-name="recycled" d="M257.162 72.646c-119.433 84.605-190.695 222.365-190.695 368.488 0 106.698 38.427 210.13 106.643 291.081l30.619-30.509c10.964-10.908 29.623-3.821 30.62 11.572l5.149 81.006c0.664 10.355-7.585 19.103-17.94 19.103l-86.267-0.165c-16.002-0.056-23.975-19.38-12.624-30.675l26.855-26.744c-74.362-87.208-116.167-199.167-116.167-314.669 0-156.864 76.521-304.758 204.703-395.62 2.935-2.048 6.258-3.045 9.58-3.045 5.204 0 10.354 2.436 13.565 7.032 5.206 7.475 3.433 17.829-4.042 23.145zM885.723 116.609c74.307 87.208 116.111 199.112 116.111 314.557 0 156.864-76.522 304.758-204.704 395.62-7.474 5.316-17.829 3.544-23.144-3.931s-3.544-17.829 3.931-23.145c119.433-84.605 190.694-222.367 190.694-368.488 0-106.698-38.372-210.020-106.587-290.971l-30.675 30.564c-10.963 10.908-29.623 3.821-30.62-11.571l-5.149-81.007c-0.664-10.354 7.585-19.103 17.996-19.103l86.267 0.166c16.001 0.055 23.976 19.379 12.625 30.675l-26.744 26.633zM666.57 689.912c-3.156 24.64-19.602 44.739-41.473 53.599l0.111 44.241c0.055 16.887-6.257 34.44-17.276 48.172-12.956 16.168-30.952 25.138-50.664 25.138l-34.828 0.111c-11.628 0.055-23.532 0.055-43.686 0.111-0.056 0-0.111 0-0.166 0-27.796 0-44.186-13.4-53.044-24.695-9.801-12.458-15.393-28.793-15.448-44.85l-0.111-48.559c-22.536-9.358-39.201-30.73-41.361-56.256l-60.631-509.405c-2.159-18.162 3.544-36.378 15.67-50.054 10.908-12.292 26.080-19.822 42.303-21.207l-0.055-17.663c-0.055-27.907 39.867-49.004 92.856-49.114l116.498-0.276c0.166 0 0.388 0 0.554 0 27.574 0 49.888 4.042 66.278 12.070 17.053 8.361 26.854 20.986 26.909 34.606l0.055 19.988c16.998 0.942 33.056 8.527 44.407 21.373 12.127 13.732 17.829 32.004 15.615 50.221l-62.513 512.451zM443.261 791.738c0 6.7 2.216 16.556 8.361 24.364 6.257 7.973 15.338 12.015 26.966 12.015 0.055 0 0.055 0 0.11 0 20.155-0.056 32.060-0.111 43.633-0.111l34.883-0.11c12.070 0 20.155-6.922 24.806-12.736 6.2-7.697 10.021-18.161 9.966-27.297l-0.055-39.423h-148.724l0.055 43.299zM401.568 683.378c0 0.221 0.055 0.444 0.055 0.666 1.33 16.556 14.729 29.678 31.118 30.952l173.364-0.443c14.23-2.602 25.581-14.12 27.464-28.792l16.001-130.84-249.386 116.831 1.384 11.628zM396.087 637.034l258.246-121.039 18.161-148.891-292.243 136.931 15.836 133zM635.839 87.153c-2.436-3.709-17.608-14.618-59.965-14.618-0.166 0-0.332 0-0.498 0l-116.499 0.276c-37.818 0.056-56.644 12.127-59.689 16.943l0.055 14.563 236.708-0.554-0.111-16.611zM665.628 139.090c0 0-0.055 0 0 0l-294.126 0.221c-8.915 0-17.055 3.709-22.979 10.354-5.925 6.644-8.582 15.227-7.53 24.086l13.62 114.673 317.216-148.669c-1.993-0.443-4.097-0.664-6.202-0.664zM696.027 165.059l-337.26 158.026 17.386 146.177 300.216-140.695c0.333-0.166 0.609-0.221 0.942-0.333l18.881-154.76c0.332-2.769 0.221-5.647-0.166-8.416z" />
<glyph unicode="&#xe927;" glyph-name="recycled_polyester" d="M304.39 439.529c9.137 0 16.611 7.42 16.611 16.556 0.388 179.732 82.89 247.45 100.442 259.798l176.188-0.443c9.413-7.144 27.464-23.035 45.404-50.886 23.809-37.097 52.214-103.487 51.992-209.354 0-7.64 6.147-13.842 13.843-13.842 7.64 0 13.842 6.202 13.842 13.842 0.388 183.054-78.625 259.853-107.584 281.889l0.11 51.549c0.056 35.327-27.186 73.255-67.939 73.366-15.67 0.055-25.802 0.055-36.434 0.111-11.13 0.055-22.812 0.055-42.081 0.111-0.055 0-0.11 0-0.166 0-27.795 0-44.186-13.4-53.044-24.695-9.801-12.458-15.392-28.793-15.448-44.85l-0.11-51.273c-27.52-19.932-111.738-96.399-112.125-285.266-0.166-9.137 7.254-16.557 16.5-16.612-0.055 0-0.055 0 0 0zM433.236 792.625c0 6.7 2.216 16.556 8.361 24.364 6.258 7.973 15.338 12.015 26.966 12.015 0.055 0 0.055 0 0.111 0 19.268-0.056 30.952-0.111 42.025-0.111 10.687-0.055 20.764-0.055 36.489-0.111 22.426-0.055 34.829-23.698 34.772-40.032l-0.11-39.977-148.669 0.388 0.055 43.465zM823.158 253.098c0 9.192-7.419 16.611-16.611 16.611-40.365 0-43.576 18.328-48.947 48.782-4.928 27.85-12.292 69.988-70.266 69.988h-368.82c-9.192 0-16.611-7.42-16.611-16.612s7.419-16.611 16.611-16.611h368.82c28.904 0 32.227-12.292 37.541-42.524 5.316-30.344 13.4-76.244 81.672-76.244 9.192 0 16.611 7.474 16.611 16.611zM675.316 286.154h-356.749c-9.192 0-16.612-7.42-16.612-16.611s7.42-16.612 16.612-16.612h356.749c9.192 0 16.612 7.42 16.612 16.612 0 9.19-7.42 16.611-16.612 16.611zM675.316 185.38h-356.749c-9.192 0-16.612-7.419-16.612-16.611s7.42-16.612 16.612-16.612h356.749c9.192 0 16.612 7.42 16.612 16.612s-7.42 16.611-16.612 16.611zM644.918 84.662h-265.667c-9.19 0-16.611-7.42-16.611-16.611s7.42-16.612 16.611-16.612h265.667c9.192 0 16.611 7.42 16.611 16.612 0 9.19-7.419 16.611-16.611 16.611zM247.695 72.646c-119.434 84.605-190.696 222.367-190.696 368.488 0 106.7 38.426 210.13 106.643 291.081l30.619-30.509c10.964-10.907 29.624-3.82 30.62 11.572l5.151 81.007c0.664 10.354-7.587 19.103-17.942 19.103l-86.266-0.166c-16.002-0.055-23.975-19.379-12.625-30.675l26.855-26.744c-74.362-87.208-116.168-199.165-116.168-314.669 0-156.863 76.522-304.756 204.705-395.619 2.934-2.049 6.257-3.046 9.578-3.046 5.206 0 10.354 2.437 13.565 7.032 5.206 7.475 3.433 17.829-4.041 23.145zM876.257 116.611c74.307 87.208 116.11 199.11 116.11 314.557 0 156.864-76.521 304.758-204.703 395.62-7.474 5.316-17.829 3.544-23.145-3.931s-3.543-17.829 3.932-23.145c119.433-84.605 190.694-222.367 190.694-368.488 0-106.643-38.372-210.020-106.587-290.971l-30.675 30.564c-10.964 10.908-29.623 3.821-30.62-11.571l-5.149-81.007c-0.664-10.354 7.585-19.103 17.94-19.103l86.267 0.166c16.001 0.055 23.974 19.379 12.623 30.675l-26.688 26.633z" />
<glyph unicode="&#xe928;" glyph-name="recycled_spandex" d="M254.986 85.446c-119.433 84.605-190.695 222.367-190.695 368.489 0 106.698 38.427 210.13 106.643 291.081l30.619-30.509c10.963-10.908 29.623-3.821 30.62 11.572l5.149 81.006c0.664 10.354-7.587 19.103-17.996 19.103l-86.267-0.166c-16.002-0.055-23.975-19.379-12.624-30.675l26.854-26.743c-74.362-87.209-116.166-199.167-116.166-314.669 0-156.919 76.521-304.758 204.703-395.62 2.934-2.049 6.257-3.045 9.578-3.045 5.204 0 10.355 2.436 13.567 7.031 5.26 7.475 3.488 17.829-3.987 23.145zM883.551 129.411c74.307 87.208 116.111 199.11 116.111 314.557 0 156.864-76.522 304.758-204.704 395.62-7.474 5.316-17.828 3.544-23.144-3.931s-3.544-17.829 3.931-23.144c119.433-84.605 190.696-222.367 190.696-368.489 0-106.698-38.372-210.019-106.588-290.97l-30.675 30.564c-10.963 10.908-29.623 3.821-30.62-11.572l-5.148-81.006c-0.666-10.354 7.585-19.103 17.939-19.103l86.267 0.166c16.001 0.055 23.976 19.379 12.625 30.674l-26.689 26.634zM663.398 848.060c-21.539 0.443-31.672-8.859-36.212-16.611-5.759-9.745-12.513-25.083-20.265-42.856-18.936-43.19-54.263-123.587-85.048-123.587-0.388 0-0.776-0.111-1.164-0.111-0.387 0.056-0.776 0.111-1.162 0.111-30.787 0-66.057 80.397-85.050 123.587-7.807 17.773-14.506 33.056-20.265 42.856-4.485 7.586-14.285 16.611-35.325 16.611-0.278 0-0.609 0-0.887 0-36.599-0.443-94.185-27.906-113.619-62.679-9.192-16.39-9.357-33.61-0.443-48.449 20.265-33.942 114.783-210.683 114.783-263.284 0-20.045-13.953-83.997-107.308-287.205-1.661-3.654-2.935-6.368-3.654-8.029-12.957-28.737 9.413-62.401 58.415-87.927 20.265-10.577 43.133-18.55 61.627-18.55 13.344 0 24.419 4.154 30.565 14.563 6.257 10.52 12.125 27.187 18.88 46.455 16.058 45.792 40.255 114.949 79.291 114.949 1.495 0 2.934 0.276 4.319 0.609 1.384-0.388 2.824-0.609 4.319-0.609 38.981 0 63.233-69.157 79.291-114.949 6.755-19.268 12.568-35.935 18.88-46.455 6.147-10.409 17.221-14.563 30.565-14.563 18.493 0 41.306 7.973 61.627 18.55 49.002 25.526 71.373 59.19 58.415 87.927-0.719 1.661-1.993 4.375-3.654 8.029-93.354 203.208-107.308 267.16-107.308 287.205 0 52.545 94.516 229.343 114.783 263.284 8.859 14.839 8.694 32.059-0.443 48.449-19.767 34.772-77.352 62.236-113.952 62.679zM749.001 753.985c-1.219-1.993-119.489-208.634-119.489-280.338 0-40.421 37.098-141.693 110.353-301.048 1.606-3.543 2.824-6.202 3.599-7.807 2.99-6.589-5.759-16.667-9.635-20.709-24.197-25.138-70.431-41.527-83.165-38.758-4.375 8.25-9.58 23.034-15.005 38.648-20.266 57.917-48.061 137.152-110.63 137.152-1.495 0-2.934-0.278-4.319-0.609-1.384 0.388-2.824 0.609-4.319 0.609-62.568 0-90.364-79.291-110.629-137.152-5.482-15.615-10.632-30.399-15.007-38.648-12.735-2.769-58.968 13.62-83.165 38.758-3.876 4.042-12.568 14.12-9.633 20.653 0.719 1.606 1.937 4.264 3.598 7.808 73.199 159.355 110.353 260.627 110.353 301.047 0 28.904-18.327 81.007-55.978 159.19-28.018 58.194-57.641 111.293-63.51 121.149-4.264 7.142-0.721 16.224 10.519 27.076 27.852 26.854 73.865 37.763 83.112 32.835 4.707-8.14 10.908-22.314 18.106-38.648 26.578-60.575 62.956-143.464 115.447-143.464 0.388 0 0.776 0.11 1.164 0.11 0.387-0.055 0.774-0.11 1.162-0.11 52.49 0 88.869 82.944 115.447 143.464 7.142 16.334 13.399 30.454 18.106 38.648 9.247 4.873 55.26-6.035 83.11-32.835 11.13-10.797 14.674-19.933 10.41-27.021zM377.463 743.743l11.406 6.035c7.309 3.876 6.644 14.618-1.107 17.553l-40.808 15.448c-5.204 1.993-11.020-0.887-12.68-6.202l-13.565-44.352c-2.547-8.25 6.145-15.393 13.787-11.351l13.676 7.254 38.482-71.594c2.99-5.592 8.749-8.748 14.619-8.748 2.657 0 5.371 0.664 7.862 1.993 8.084 4.374 11.075 14.396 6.756 22.481l-38.427 71.483zM407.532 278.523c-8.306 3.931-18.217 0.332-22.093-7.973l-34.495-73.366-11.628 5.537c-7.475 3.543-15.726-3.378-13.455-11.351l11.904-41.971c1.495-5.371 7.254-8.361 12.515-6.478l43.686 15.503c8.084 2.88 8.692 14.12 0.941 17.829l-13.952 6.644 34.55 73.532c3.932 8.305 0.332 18.217-7.973 22.093zM704.812 776.632c-1.66 5.316-7.419 8.195-12.68 6.202l-40.808-15.448c-7.752-2.935-8.416-13.677-1.107-17.553l11.406-6.035-38.426-71.428c-4.375-8.083-1.33-18.161 6.755-22.479 2.491-1.33 5.204-1.994 7.863-1.994 5.924 0 11.626 3.156 14.616 8.749l38.483 71.594 13.676-7.254c7.587-4.042 16.279 3.1 13.787 11.351l-13.565 44.296zM623.581 256.43l34.551-73.532-13.953-6.644c-7.752-3.709-7.197-14.949 0.942-17.829l43.686-15.503c5.261-1.883 11.018 1.107 12.513 6.478l11.905 41.971c2.269 7.973-5.925 14.894-13.455 11.351l-11.628-5.537-34.495 73.366c-3.876 8.305-13.788 11.904-22.093 7.973-8.306-3.876-11.85-13.788-7.974-22.093z" />
<glyph unicode="&#xe929;" glyph-name="icon-plus" d="M565.248 102.093c0-15.462-12.595-28.058-28.058-28.058h-9.114c-15.462 0-28.058 12.595-28.058 28.058l-1.331 313.139h-312.115c-15.462 0-28.058 12.595-28.058 28.058v9.114c0 15.462 12.595 28.058 28.058 28.058h313.446v313.446c0 15.462 12.595 28.058 28.058 28.058h9.114c15.462 0 28.058-12.595 28.058-28.058v-313.446h313.037c15.462 0 28.058-12.595 28.058-28.058v-9.114c0-15.462-12.595-28.058-28.058-28.058h-313.037v-313.139z" />
<glyph unicode="&#xe92a;" glyph-name="icon-refresh" d="M501.862 827.29c-104.346 0-201.728-41.37-273.51-114.79v91.443c0 17.203-14.029 31.232-31.232 31.232s-31.232-14.029-31.232-31.232v-176.026c0-8.602 3.482-16.486 9.216-22.118 5.632-5.734 13.517-9.216 22.118-9.216h176.026c17.203 0 31.232 14.029 31.232 31.232s-14.029 31.232-31.232 31.232h-120.832c62.669 72.909 152.576 114.278 249.446 114.278 181.555 0 329.216-147.661 329.216-329.216s-147.661-329.216-329.216-329.216c-139.264 0-263.987 88.166-310.477 219.341-5.018 14.029-20.378 21.402-34.406 16.486-14.029-5.018-21.402-20.378-16.486-34.406 54.067-152.781 199.27-255.386 361.37-255.386 211.251 0 383.181 171.93 383.181 383.181s-171.93 383.181-383.181 383.181z" />
<glyph unicode="&#xe92b;" glyph-name="rule" d="M903.592 673.28c-9.941 0-18.008-8.067-18.008-18.008v-416.532h-166.613v173.095c0 9.941-8.069 18.008-18.010 18.008-9.939 0-18.008-8.067-18.008-18.008v-173.095h-152.926v291.049c0 9.941-8.067 18.008-18.008 18.008s-18.008-8.067-18.008-18.008v-291.049h-158.257v173.095c0 9.941-8.069 18.008-18.010 18.008-9.939 0-18.008-8.067-18.008-18.008v-173.095h-161.318v416.532c0 9.941-8.068 18.008-18.008 18.008s-18.008-8.067-18.008-18.008v-434.543c0-9.939 8.068-18.008 18.008-18.008h783.184c9.941 0 18.008 8.069 18.008 18.008v434.543c0 9.941-8.067 18.008-18.008 18.008z" />
<glyph unicode="&#xe92c;" glyph-name="icon-return" d="M521.011 640.102h-232.346l74.035 74.035c5.939 5.939 9.114 13.722 9.114 22.118 0 8.294-3.277 16.179-9.114 22.118-5.939 5.939-13.722 9.114-22.016 9.114s-16.179-3.277-22.118-9.114l-124.416-124.416c-5.939-5.939-9.114-13.722-9.114-22.118 0-1.024 0.102-2.15 0.205-3.174 0.614-6.963 3.686-13.722 9.011-19.149l124.416-124.416c5.939-5.939 13.722-9.114 22.118-9.114 8.294 0 16.179 3.277 22.016 9.114 5.939 5.939 9.114 13.722 9.114 22.118 0 8.294-3.277 16.179-9.114 22.118l-76.8 76.8h235.11c145.613 0 264.090-90.522 264.090-201.83s-118.477-201.83-264.090-201.83h-289.792c-14.848 0-26.931-12.083-26.931-26.931s12.083-26.931 26.931-26.931h289.587c175.309 0 317.952 114.79 317.952 255.795 0.102 141.005-142.541 255.693-317.85 255.693z" />
<glyph unicode="&#xe92d;" glyph-name="shipping" d="M932.908 415.334c-3.222 4.428-8.454 7.073-13.919 7.073h-97.135l-159.995 202.093c-3.278 4.141-8.282 6.556-13.516 6.556h-138.314v183.69c0 9.546-7.706 17.253-17.253 17.253h-108.81c-9.546 0-17.253-7.707-17.253-17.253v-183.69h-123.475c-4.602 0-8.973-1.839-12.193-5.061-3.22-3.22-5.061-7.648-5.061-12.25l0.461-191.396h-132.39c-9.547 0-17.253-7.707-17.253-17.253 0-104.268 86.267-272.314 99.839-298.021-8.109-5.234-18.577-8.57-36.806-8.57-9.548 0-17.254-7.706-17.254-17.253s7.706-17.253 17.254-17.253c43.478 0 60.558 16.448 74.304 29.618 11.156 10.755 19.265 18.519 44.513 18.519 27.203 0 37.727-9.087 51.069-20.646 14.148-12.25 31.803-27.491 67.69-27.491 36.52 0 55.785 15.643 71.256 28.18 13.745 11.156 24.614 19.956 47.503 19.956 23.235 0 33.932-8.972 47.505-20.36 14.838-12.365 33.242-27.777 67.633-27.777 35.139 0 58.834 16.046 77.87 28.986 15.757 10.697 28.237 19.151 44.571 19.151 17.482 0 31.113-9.834 46.813-21.165 17.484-12.652 37.382-26.972 64.643-26.972 9.546 0 17.253 7.707 17.253 17.253 0 9.548-7.707 17.253-17.253 17.253-15.528 0-28.296 8.8-42.732 19.209 74.65 101.967 130.55 274.5 133.023 282.090 1.61 5.349 0.691 11.043-2.587 15.529zM475.523 797.494v-26.858h-74.304v26.858h74.304zM401.219 736.129h74.304v-105.073h-74.304v105.073zM260.547 596.55h379.457l137.853-174.143h-516.908l-0.403 174.143zM773.43 136.579c-11.502 5.924-24.443 10.122-39.74 10.122-26.916 0-46.584-13.343-63.953-25.133-17.484-11.846-33.932-23.062-58.488-23.062-21.855 0-32.264 8.742-45.491 19.784-15.126 12.653-33.932 28.353-69.646 28.353-35.139 0-54.060-15.355-69.243-27.663-14.148-11.444-25.304-20.474-49.574-20.474-23.062 0-32.321 7.995-45.146 19.094-14.953 12.941-33.587 29.043-73.614 29.043-27.26 0-43.364-7.534-55.095-16.39-18.865 36.922-83.334 168.564-91.385 257.591h782.723c-17.772-50.61-64.873-174.89-121.348-251.265zM271.653 345.402c-43.076 0-78.1-35.025-78.1-78.1s35.025-78.099 78.1-78.099c43.076 0 78.099 35.023 78.099 78.099s-35.023 78.1-78.099 78.1zM271.653 223.708c-24.040 0-43.593 19.553-43.593 43.593s19.553 43.593 43.593 43.593c24.040 0 43.593-19.553 43.593-43.593s-19.553-43.593-43.593-43.593zM482.94 345.402c-43.076 0-78.099-35.025-78.099-78.1s35.023-78.099 78.099-78.099c43.076 0 78.099 35.023 78.099 78.099s-35.023 78.1-78.099 78.1zM482.94 223.708c-24.040 0-43.593 19.553-43.593 43.593s19.553 43.593 43.593 43.593c24.040 0 43.593-19.553 43.593-43.593 0.058-24.040-19.553-43.593-43.593-43.593zM713.275 345.402c-43.076 0-78.1-35.025-78.1-78.1s35.025-78.099 78.1-78.099c43.076 0 78.1 35.023 78.1 78.099s-35.025 78.1-78.1 78.1zM713.275 223.708c-24.040 0-43.593 19.553-43.593 43.593s19.553 43.593 43.593 43.593c24.040 0 43.593-19.553 43.593-43.593s-19.553-43.593-43.593-43.593z" />
<glyph unicode="&#xe92e;" glyph-name="icon-search" d="M845.414 111.002l-121.037 168.448c65.126 59.904 106.086 145.818 106.086 241.152 0 180.634-146.944 327.578-327.578 327.578s-327.68-146.944-327.68-327.578 146.944-327.578 327.578-327.578c51.507 0 100.25 11.981 143.667 33.178l122.368-170.189c8.397-11.674 29.594-10.752 47.411 2.048l12.083 8.704c17.818 12.698 25.498 32.563 17.101 44.237zM211.251 520.602c0 160.768 130.765 291.533 291.533 291.533s291.533-130.765 291.533-291.533-130.765-291.533-291.533-291.533c-160.768 0-291.533 130.765-291.533 291.533z" />
<glyph unicode="&#xe92f;" glyph-name="icon-star" d="M290.202 44.851c-12.8 0-25.498 3.994-36.25 11.878-19.046 13.824-28.467 36.864-24.678 60.211l33.485 201.523c1.331 8.294-1.331 16.794-7.373 22.63l-145.613 143.36c-16.794 16.589-22.733 40.755-15.462 63.181s26.317 38.502 49.562 42.086l202.035 30.413c8.294 1.229 15.462 6.451 19.251 14.029l91.341 182.784c10.547 21.094 31.744 34.202 55.296 34.202s44.749-13.107 55.296-34.202l91.341-182.784c3.789-7.475 10.957-12.8 19.251-14.029l202.035-30.413c23.347-3.482 42.291-19.661 49.562-42.086s1.331-46.592-15.462-63.181l-145.613-143.36c-6.042-5.939-8.704-14.336-7.373-22.63l33.485-201.523c3.891-23.245-5.632-46.285-24.678-60.211-19.046-13.824-43.93-15.667-64.819-4.813l-181.35 94.106c-7.475 3.891-16.384 3.891-23.859 0l-181.35-94.106c-8.602-4.71-18.33-7.066-28.058-7.066zM512 815.104c-10.035 0-18.637-5.325-23.142-14.336l-91.341-182.784c-9.011-18.022-26.214-30.515-46.080-33.485l-202.035-30.413c-9.933-1.536-17.613-8.090-20.787-17.613-3.072-9.523-0.717-19.354 6.451-26.419l145.613-143.36c14.336-14.131 20.89-34.406 17.613-54.17l-33.485-201.523c-1.638-9.83 2.253-19.251 10.342-25.19 8.090-5.837 18.227-6.656 27.136-2.048l181.35 94.106c17.818 9.216 39.117 9.216 56.934 0l181.35-94.106c8.909-4.608 19.046-3.891 27.136 2.048 8.090 5.837 11.981 15.258 10.342 25.19l-33.485 201.523c-3.277 19.866 3.277 40.141 17.613 54.17l145.613 143.36c7.168 7.066 9.523 16.896 6.451 26.419s-10.854 16.077-20.787 17.613l-202.035 30.413c-19.866 2.97-37.069 15.565-46.080 33.485l-91.341 182.784c-4.71 9.011-13.312 14.336-23.347 14.336z" />
<glyph unicode="&#xe930;" glyph-name="icon-star_a" d="M914.227 484.557c16.794 16.589 22.733 40.755 15.462 63.181s-26.317 38.502-49.562 42.086l-202.035 30.413c-8.294 1.229-15.565 6.451-19.251 14.029l-91.546 182.682c-10.547 21.094-31.744 34.202-55.296 34.202s-44.749-13.107-55.296-34.202l-91.341-182.784c-3.789-7.475-10.957-12.8-19.251-14.029l-202.035-30.413c-23.347-3.482-42.291-19.661-49.562-42.086s-1.331-46.592 15.462-63.181l145.613-143.36c5.939-5.939 8.704-14.336 7.373-22.63l-33.485-201.523c-3.891-23.245 5.632-46.285 24.678-60.211 19.046-13.824 43.93-15.77 64.819-4.813l181.35 94.106c7.475 3.891 16.384 3.891 23.859 0l181.35-94.106c9.011-4.71 18.842-6.963 28.57-6.963 12.8 0 25.498 3.994 36.25 11.878 19.046 13.824 28.467 36.864 24.678 60.211l-33.485 201.523c-1.331 8.294 1.331 16.794 7.373 22.63l145.306 143.36z" />
<glyph unicode="&#xe931;" glyph-name="icon-tick" d="M490.701 167.731l380.723 587.469c11.264 17.408 6.349 40.755-11.162 52.019l-10.24 6.656c-17.408 11.264-40.755 6.349-52.019-11.162l-396.902-612.454-181.658 181.658c-14.643 14.643-38.502 14.643-53.248 0l-8.602-8.602c-14.643-14.643-14.643-38.502 0-53.248l223.027-223.027c14.643-14.643 38.502-14.643 53.248 0l56.832 80.691z" />
<glyph unicode="&#xe932;" glyph-name="tumble_dry" d="M961.563 18.79l-71.455 70.914v738.653c0 0.416-0.084 0.791-0.125 1.165l68.209 68.209c4.87 4.869 4.87 12.776 0 17.646-4.868 4.869-12.775 4.869-17.646 0l-74.535-74.535h-732.703l-71.747 71.206c-4.911 4.869-12.818 4.828-17.646-0.083-4.869-4.911-4.827-12.818 0.083-17.645l71.705-71.165v-732.661l-71.747-71.748c-4.869-4.868-4.869-12.775 0-17.646 2.455-2.456 5.618-3.662 8.823-3.662s6.409 1.206 8.823 3.662l65.38 65.38c0.375-0.041 0.749-0.125 1.165-0.125h749.473c0.168 0 0.334 0.041 0.5 0.041l65.837-65.378c2.415-2.415 5.62-3.621 8.782-3.621 3.205 0 6.408 1.247 8.864 3.703 4.911 4.954 4.87 12.859-0.041 17.689zM865.178 114.467l-189.938 188.522c36.747 41.325 59.138 95.676 59.138 155.189 0 59.845-22.641 114.528-59.804 155.937l190.562 190.563v-690.211h0.041zM483.387 458.22l-138.666-138.666c-32.836 36.913-52.853 85.438-52.853 138.625 0 52.937 19.808 101.253 52.394 138.084l139.125-138.043zM361.908 613.99c36.915 32.92 85.522 52.978 138.75 52.978 53.187 0 101.712-20.017 138.625-52.853l-138.209-138.209-139.166 138.084zM501.117 440.615l138.832-137.791c-36.954-33.169-85.813-53.436-139.291-53.436-52.978 0-101.378 19.851-138.209 52.521l138.668 138.707zM518.762 458.26l138.125 138.125c32.627-36.829 52.519-85.23 52.519-138.207 0-52.646-19.642-100.796-51.937-137.585l-138.707 137.667zM841.042 815.873l-184.113-184.112c-41.449 37.372-96.26 60.135-156.312 60.135-60.135 0-115.071-22.847-156.52-60.301l-185.652 184.278h682.597zM140.633 798.352l185.859-184.487c-37.038-41.368-59.595-95.926-59.595-155.73 0-60.051 22.766-114.862 60.137-156.312l-186.402-186.401v682.929zM151.869 91.369l192.893 192.893c41.409-37.163 96.051-59.804 155.937-59.804 60.387 0 115.53 23.013 157.061 60.76l195.348-193.849h-701.239z" />
<glyph unicode="&#xe933;" glyph-name="wash" d="M956.822 735.427c-6.66 1.874-13.527-2.038-15.399-8.655l-27.884-99.672c-32.252 20.142-112.198 64.797-186.817 64.797-47.776 0-80.196-18.436-111.532-36.248-32.42-18.436-63.009-35.832-111.782-35.832-47.819 0-76.743 16.896-107.414 34.791-31.42 18.352-63.881 37.288-115.902 37.288-79.196 0-155.479-43.864-186.817-64.381l-27.8 99.256c-1.873 6.658-8.74 10.488-15.398 8.655-6.659-1.872-10.529-8.739-8.656-15.397l148.863-530.153c1.498-5.37 6.409-9.073 11.986-9.116l602.359-2.206c5.618 0 10.529 3.746 12.028 9.116l148.82 532.359c1.874 6.658-2.038 13.566-8.655 15.397zM795.181 203.567l-583.381 2.122-111.366 396.524c23.264 15.815 101.586 64.756 179.7 64.756 45.279 0 73.454-16.48 103.293-33.876 32.17-18.768 65.464-38.203 119.982-38.203 55.39 0 90.35 19.892 124.142 39.119 29.839 16.98 58.014 33.001 99.172 33.001 72.745 0 155.146-49.191 179.784-65.004l-111.325-398.438zM427.041 395.67v0.707c13.693 3.289 24.596 10.197 32.711 20.685s12.194 22.473 12.194 35.914c0 11.321-2.122 21.225-6.367 29.714-4.246 8.491-10.072 15.608-17.521 21.391-7.449 5.786-16.022 10.154-25.844 13.109-9.779 2.955-20.101 4.411-30.964 4.411-9.904 0-19.352-1.415-28.299-4.246-8.948-2.828-17.021-6.783-24.22-11.86-7.201-5.077-13.318-11.069-18.395-18.020-5.077-6.949-8.657-14.69-10.779-23.179l39.952-10.238c2.58 9.654 7.324 17.437 14.15 23.347 6.824 5.908 15.44 8.823 25.844 8.823 5.202 0 10.195-0.834 15.024-2.456 4.827-1.665 9.073-3.996 12.734-7.076s6.533-6.824 8.655-11.319c2.124-4.495 3.205-9.529 3.205-15.19 0-7.782-1.581-14.109-4.786-18.936-3.203-4.827-7.365-8.657-12.569-11.485-5.202-2.83-10.904-4.786-17.146-5.827-6.242-1.083-12.567-1.581-18.936-1.581h-11.319v-33.96h10.613c6.617 0 13.484-0.709 20.683-2.122 7.201-1.415 13.734-3.705 19.644-6.91 5.908-3.203 10.779-7.533 14.69-13.109 3.912-5.534 5.827-12.319 5.827-20.349 0-7.533-1.374-13.902-4.080-19.104-2.703-5.202-6.242-9.445-10.611-12.734-4.37-3.287-9.322-5.702-14.858-7.24-5.536-1.54-11.028-2.29-16.439-2.29-13.441 0-24.345 3.412-32.711 10.279-8.364 6.826-14.107 15.19-17.146 25.094l-39.619-12.36c3.287-10.363 7.948-19.352 13.984-26.884 5.992-7.533 12.984-13.691 20.851-18.395 7.905-4.702 16.562-8.198 26.010-10.445s19.476-3.371 30.089-3.371c10.611 0 21.098 1.581 31.461 4.786 10.363 3.203 19.767 7.948 28.133 14.316 8.364 6.367 15.106 14.399 20.142 24.054 5.077 9.656 7.617 20.976 7.617 33.96 0 15.565-4.786 28.715-14.318 39.453-9.529 10.654-21.973 17.562-37.288 20.642zM678.736 486.228c-7.408 11.319-16.646 20.058-27.591 26.175-10.947 6.117-23.513 9.198-37.663 9.198s-26.761-3.080-37.831-9.198c-11.069-6.117-20.392-14.856-27.924-26.175-7.533-11.321-13.275-25.137-17.146-41.368-3.912-16.271-5.827-34.542-5.827-54.852 0-20.267 1.956-38.537 5.827-54.809s9.613-30.046 17.146-41.409c7.533-11.319 16.855-20.058 27.924-26.178 11.069-6.117 23.681-9.196 37.831-9.196s26.716 3.078 37.663 9.196c10.945 6.119 20.183 14.858 27.591 26.178 7.451 11.319 13.109 25.137 16.98 41.409s5.827 34.542 5.827 54.809c0 20.267-1.956 38.58-5.827 54.852-3.912 16.23-9.572 30.046-16.98 41.368zM656.429 360.294c-1.040-11.069-3.203-21.473-6.367-31.128-3.203-9.656-7.739-17.854-13.607-24.596-5.911-6.742-13.568-10.070-23.015-10.070-9.654 0-17.437 3.371-23.347 10.070-5.908 6.742-10.445 14.899-13.607 24.596-3.205 9.654-5.37 20.058-6.535 31.128s-1.79 20.976-1.79 29.714c0 8.741 0.584 18.645 1.79 29.714 1.165 11.071 3.371 21.6 6.535 31.463 3.203 9.904 7.739 18.227 13.607 24.928 5.911 6.699 13.693 10.070 23.347 10.070 9.447 0 17.105-3.371 23.015-10.070 5.908-6.742 10.445-15.024 13.607-24.928 3.164-9.906 5.286-20.392 6.367-31.463 1.040-11.069 1.583-20.974 1.583-29.714s-0.5-18.643-1.583-29.714z" />
<glyph unicode="&#xe934;" glyph-name="icon-timer" d="M512 853.914c-223.744 0-405.914-182.067-405.914-405.914s182.17-405.914 405.914-405.914 405.914 182.17 405.914 405.914-182.17 405.914-405.914 405.914zM512 78.131c-203.981 0-369.869 165.888-369.869 369.869s165.888 369.869 369.869 369.869 369.869-165.888 369.869-369.869-165.888-369.869-369.869-369.869zM738.611 452.403h-214.63v278.118c0 10.957-8.909 19.866-19.866 19.866h-5.018c-10.957 0-19.866-8.909-19.866-19.866v-302.797c0-5.53 2.253-10.547 5.939-14.131 3.584-3.686 8.602-5.939 14.131-5.939h239.309c10.957 0 19.866 8.909 19.866 19.866v5.018c0 10.957-8.909 19.866-19.866 19.866z" />
<glyph unicode="&#xe935;" glyph-name="icon-wishlist" d="M509.030 38.4c-3.584 0-7.066 1.024-10.138 3.174-3.994 2.765-98.918 67.891-195.482 166.195-131.379 133.734-198.042 258.458-198.042 370.893 0 137.114 77.414 278.938 206.848 278.938 55.194 0 101.274-18.33 136.909-54.374 31.027-31.334 49.664-71.68 60.928-109.466 2.355 7.578 5.018 15.155 7.885 22.835 35.533 92.262 100.557 141.005 187.904 141.005 133.222 0 212.787-141.926 212.787-279.040 0-112.333-67.686-237.158-201.011-370.893-97.997-98.304-194.458-163.43-198.554-166.195-3.072-2.048-6.554-3.072-10.035-3.072zM312.218 821.658c-62.976 0-102.81-41.882-125.133-77.107-28.57-45.056-45.67-107.008-45.67-165.888 0-223.642 307.712-456.909 367.718-500.224 27.341 19.354 105.882 77.21 183.398 155.034 86.733 87.040 190.157 217.6 190.157 345.088 0 100.966-54.886 243.098-176.845 243.098-71.885 0-123.699-39.424-154.010-117.248-23.552-60.518-24.781-122.47-24.883-124.109 0 0 0 0 0 0-0.102-9.83-8.192-17.818-18.022-17.818-0.102 0-0.102 0-0.205 0-9.933 0.102-17.818 8.192-17.818 18.125 0 0 0 0 0 0.102 0 1.946 0.307 128.717-67.584 197.325-28.57 28.877-65.946 43.622-111.104 43.622z" />
</font>
</defs>
</svg>
