<?xml version="1.0" encoding="utf-8"?>
<!-- Generator: Adobe Illustrator 16.0.0, SVG Export Plug-In . SVG Version: 6.00 Build 0)  -->
<!DOCTYPE svg PUBLIC "-//W3C//DTD SVG 1.1//EN" "http://www.w3.org/Graphics/SVG/1.1/DTD/svg11.dtd">
<svg version="1.1" id="Layer_1" xmlns="http://www.w3.org/2000/svg" xmlns:xlink="http://www.w3.org/1999/xlink" x="0px" y="0px"
	 width="184px" height="160px" viewBox="0 0 184 160" enable-background="new 0 0 184 160" xml:space="preserve">
<path fill-rule="evenodd" clip-rule="evenodd" fill="none" stroke="#453D92" stroke-width="5.8991" stroke-miterlimit="10" d="
	M83.947,106.692c0,0,3.791,3.513,3.791,15.591c0,12.079,0,22.473,0,22.473"/>
<path fill-rule="evenodd" clip-rule="evenodd" fill="none" stroke="#453D92" stroke-width="5.8991" stroke-miterlimit="10" d="
	M55.855,138.997c0,0-27.67-29.074-35.816-35.815c-8.146-6.742-7.444-15.45-7.444-15.45v-12.36V33.656c0,0-0.983-8.988,8.989-8.988
	c9.971,0,9.973,9.972,9.973,9.972v40.17c0,0,11.236-9.271,20.506,0"/>
<path fill-rule="evenodd" clip-rule="evenodd" fill="#453D92" d="M69.621,88.022c1.152,1.116,1.18,2.956,0.064,4.107l0,0
	c-1.116,1.152-2.956,1.18-4.107,0.063l-15.65-15.435c-1.15-1.115-1.178-2.954-0.063-4.106l0,0c1.117-1.15,2.955-1.18,4.106-0.064
	L69.621,88.022z"/>
<path fill-rule="evenodd" clip-rule="evenodd" fill="#453D92" d="M69.621,113.444c1.152,1.117,1.18,2.956,0.064,4.107l0,0
	c-1.116,1.152-2.956,1.181-4.107,0.064l-15.65-15.435c-1.15-1.115-1.178-2.955-0.063-4.106l0,0c1.117-1.151,2.955-1.18,4.106-0.064
	L69.621,113.444z"/>
<path fill-rule="evenodd" clip-rule="evenodd" fill="#453D92" d="M69.621,148.277c1.152,1.116,1.18,2.956,0.064,4.107l0,0
	c-1.116,1.152-2.956,1.18-4.107,0.063l-15.65-15.435c-1.15-1.115-1.178-2.954-0.063-4.106l0,0c1.117-1.15,2.955-1.18,4.106-0.064
	L69.621,148.277z"/>
<path fill-rule="evenodd" clip-rule="evenodd" fill="#453D92" d="M78.554,103.457c-0.87-1.348-0.477-3.151,0.879-4.03l0,0
	c1.358-0.88,3.167-0.499,4.039,0.848l4.4,6.945c0.869,1.345,0.476,3.148-0.88,4.027l0,0c-1.359,0.88-3.166,0.499-4.037-0.847
	L78.554,103.457z"/>
<line fill-rule="evenodd" clip-rule="evenodd" fill="none" stroke="#453D92" stroke-width="5.8991" stroke-miterlimit="10" x1="30.713" y1="78.883" x2="63.721" y2="111.89"/>
<path fill-rule="evenodd" clip-rule="evenodd" fill="none" stroke="#453D92" stroke-width="5.8991" stroke-miterlimit="10" d="
	M101.229,106.692c0,0-3.791,3.513-3.791,15.591c0,12.079,0,22.473,0,22.473"/>
<path fill-rule="evenodd" clip-rule="evenodd" fill="none" stroke="#453D92" stroke-width="5.8991" stroke-miterlimit="10" d="
	M129.32,138.997c0,0,27.67-29.074,35.816-35.815c8.146-6.742,7.444-15.45,7.444-15.45v-12.36V33.656c0,0,0.983-8.988-8.988-8.988
	s-9.974,9.972-9.974,9.972v40.17c0,0-11.236-9.271-20.506,0"/>
<path fill-rule="evenodd" clip-rule="evenodd" fill="#453D92" d="M115.555,88.022c-1.152,1.116-1.18,2.956-0.064,4.107l0,0
	c1.116,1.152,2.957,1.18,4.107,0.063l15.65-15.435c1.15-1.115,1.178-2.954,0.063-4.106l0,0c-1.117-1.15-2.955-1.18-4.106-0.064
	L115.555,88.022z"/>
<path fill-rule="evenodd" clip-rule="evenodd" fill="#453D92" d="M115.555,113.726c-1.152,1.116-1.18,2.956-0.064,4.107l0,0
	c1.116,1.152,2.957,1.18,4.107,0.063l15.65-15.435c1.15-1.115,1.178-2.954,0.063-4.106l0,0c-1.117-1.15-2.955-1.18-4.106-0.064
	L115.555,113.726z"/>
<path fill-rule="evenodd" clip-rule="evenodd" fill="#453D92" d="M115.555,148.277c-1.152,1.116-1.18,2.956-0.064,4.107l0,0
	c1.116,1.152,2.957,1.18,4.107,0.063l15.65-15.435c1.15-1.115,1.178-2.954,0.063-4.106l0,0c-1.117-1.15-2.955-1.18-4.106-0.064
	L115.555,148.277z"/>
<path fill-rule="evenodd" clip-rule="evenodd" fill="#453D92" d="M106.622,103.457c0.87-1.348,0.477-3.151-0.879-4.03l0,0
	c-1.358-0.88-3.167-0.499-4.039,0.848l-4.4,6.945c-0.869,1.345-0.476,3.148,0.88,4.027l0,0c1.359,0.88,3.166,0.499,4.037-0.847
	L106.622,103.457z"/>
<line fill-rule="evenodd" clip-rule="evenodd" fill="none" stroke="#453D92" stroke-width="5.8991" stroke-miterlimit="10" x1="154.463" y1="78.883" x2="121.455" y2="111.89"/>
<g>
	
		<path fill="none" stroke="#F7A2A3" stroke-width="4.1242" stroke-linecap="round" stroke-linejoin="round" stroke-miterlimit="10" d="
		M82.64,56.301c3.093,1.709,6.649,2.682,10.435,2.682c3.784,0,7.342-0.973,10.436-2.682"/>
</g>
<g>
	<g>
		<circle fill="#453D92" cx="80.145" cy="43.534" r="2.856"/>
		<circle fill="#453D92" cx="106.004" cy="43.534" r="2.855"/>
	</g>
</g>
<line fill="none" stroke="#453D92" stroke-width="4.1242" stroke-linecap="round" stroke-linejoin="round" stroke-miterlimit="10" x1="93.074" y1="27.795" x2="93.074" y2="49.305"/>
<g>
	
		<path fill="none" stroke="#453D92" stroke-width="4.1242" stroke-linecap="round" stroke-linejoin="round" stroke-miterlimit="10" d="
		M112.017,34.051c-5.614-2.48-12.072-3.892-18.941-3.892c-6.87,0-13.326,1.411-18.943,3.892"/>
</g>
<path fill-rule="evenodd" clip-rule="evenodd" fill="#F7A2A3" d="M93.473,14.475c1.518-1.033,2.908-2.121,4.426-2.987
	c4.394-2.511,9.147-3.598,14.204-3.27c7.287,0.471,13.232,3.579,17.818,9.23c3.037,3.742,4.832,8.058,5.298,12.861
	c0.688,7.068-1.313,13.459-5.157,19.323c-2.962,4.518-6.642,8.428-10.549,12.123c-7.794,7.373-16.383,13.715-25.396,19.506
	c-0.409,0.263-0.692,0.255-1.098-0.006c-9.324-5.987-18.187-12.575-26.166-20.289c-4.179-4.041-8.091-8.333-11-13.419
	c-2.79-4.878-4.368-10.129-4.046-15.771c0.449-7.945,3.955-14.351,10.393-19.053c4.611-3.371,9.863-4.808,15.541-4.546
	c5.738,0.265,10.881,2.186,15.285,5.945C93.181,14.257,93.348,14.377,93.473,14.475z M93.561,23.871
	c-0.252-0.299-0.438-0.526-0.632-0.75c-1.051-1.206-2.003-2.517-3.168-3.598c-4.728-4.386-10.289-6.098-16.669-4.886
	c-8.524,1.619-14.882,9.022-15.114,17.701c-0.137,5.13,1.59,9.733,4.411,13.944c2.659,3.968,5.889,7.451,9.337,10.737
	c6.584,6.277,13.786,11.772,21.307,16.87c0.404,0.275,0.682,0.289,1.077-0.002c3.882-2.854,7.839-5.611,11.654-8.55
	c5.987-4.609,11.598-9.64,16.403-15.506c2.74-3.344,5.043-6.92,6.168-11.183c0.836-3.172,1.141-6.324,0.449-9.55
	c-1.691-7.887-8.273-13.978-16.402-14.678c-6.122-0.527-11.387,1.389-15.681,5.814C95.609,21.362,94.644,22.61,93.561,23.871z"/>
<path fill-rule="evenodd" clip-rule="evenodd" fill="#F7A2A3" d="M123.003,33.514c-0.199-6.996-4.607-11.992-10.882-12.958
	c-0.653-0.101-1.321-0.1-1.974-0.205c-0.771-0.123-1.242-0.725-1.238-1.484c0.004-0.767,0.482-1.466,1.258-1.441
	c1.424,0.045,2.894,0.092,4.256,0.465c4.838,1.327,8.35,4.33,10.361,8.933c1.533,3.509,1.734,7.154,0.578,10.837
	c-0.293,0.932-1.029,1.374-1.883,1.169c-0.841-0.203-1.271-1.01-1.085-1.995C122.644,35.515,122.878,34.194,123.003,33.514z"/>
</svg>
