<?xml version="1.0" encoding="utf-8"?>
<!-- Generator: Adobe Illustrator 16.0.0, SVG Export Plug-In . SVG Version: 6.00 Build 0)  -->
<!DOCTYPE svg PUBLIC "-//W3C//DTD SVG 1.1//EN" "http://www.w3.org/Graphics/SVG/1.1/DTD/svg11.dtd">
<svg version="1.1" id="Layer_1" xmlns="http://www.w3.org/2000/svg" xmlns:xlink="http://www.w3.org/1999/xlink" x="0px" y="0px"
	 width="184px" height="160px" viewBox="0 0 184 160" enable-background="new 0 0 184 160" xml:space="preserve">
<g>
	
		<path fill="none" stroke="#F7A2A3" stroke-width="4.1242" stroke-linecap="round" stroke-linejoin="round" stroke-miterlimit="10" d="
		M82.307,96.301c3.093,1.709,6.649,2.682,10.435,2.682c3.784,0,7.342-0.973,10.436-2.682"/>
</g>
<g>
	<g>
		<circle fill="#453D92" cx="79.812" cy="83.534" r="2.856"/>
		<circle fill="#453D92" cx="105.671" cy="83.534" r="2.855"/>
	</g>
</g>
<line fill="none" stroke="#453D92" stroke-width="4.1242" stroke-linecap="round" stroke-linejoin="round" stroke-miterlimit="10" x1="92.741" y1="67.795" x2="92.741" y2="89.305"/>
<g>
	
		<path fill="none" stroke="#453D92" stroke-width="4.1242" stroke-linecap="round" stroke-linejoin="round" stroke-miterlimit="10" d="
		M111.684,74.051c-5.614-2.48-12.072-3.892-18.941-3.892c-6.87,0-13.326,1.411-18.943,3.892"/>
</g>
<path fill-rule="evenodd" clip-rule="evenodd" fill="#F7A2A3" d="M93.14,54.475c1.518-1.033,2.908-2.121,4.426-2.987
	c4.394-2.511,9.147-3.598,14.204-3.27c7.287,0.471,13.232,3.579,17.818,9.23c3.037,3.742,4.832,8.058,5.298,12.861
	c0.688,7.068-1.313,13.459-5.157,19.323c-2.962,4.518-6.642,8.428-10.549,12.123c-7.794,7.373-16.383,13.715-25.396,19.506
	c-0.409,0.263-0.692,0.255-1.098-0.006c-9.324-5.987-18.187-12.575-26.166-20.289c-4.179-4.041-8.091-8.333-11-13.419
	c-2.79-4.878-4.368-10.129-4.046-15.771c0.449-7.945,3.955-14.351,10.393-19.053c4.611-3.371,9.863-4.808,15.541-4.546
	c5.738,0.265,10.881,2.186,15.285,5.945C92.848,54.257,93.015,54.377,93.14,54.475z M93.228,63.871
	c-0.252-0.299-0.438-0.526-0.632-0.75c-1.051-1.206-2.003-2.517-3.168-3.598c-4.728-4.386-10.289-6.098-16.669-4.886
	c-8.524,1.619-14.882,9.022-15.114,17.701c-0.137,5.13,1.59,9.733,4.411,13.944c2.659,3.968,5.889,7.451,9.337,10.737
	c6.584,6.277,13.786,11.772,21.307,16.87c0.404,0.275,0.682,0.289,1.077-0.002c3.882-2.854,7.839-5.611,11.654-8.55
	c5.987-4.609,11.598-9.64,16.403-15.506c2.74-3.344,5.043-6.92,6.168-11.183c0.836-3.172,1.141-6.324,0.449-9.55
	c-1.691-7.887-8.273-13.978-16.402-14.678c-6.122-0.527-11.387,1.389-15.681,5.814C95.276,61.362,94.311,62.61,93.228,63.871z"/>
<path fill-rule="evenodd" clip-rule="evenodd" fill="#F7A2A3" d="M122.004,74.18c-0.199-6.996-4.607-11.992-10.882-12.958
	c-0.653-0.101-1.321-0.1-1.974-0.205c-0.771-0.123-1.242-0.725-1.238-1.484c0.004-0.767,0.482-1.466,1.258-1.441
	c1.424,0.045,2.894,0.092,4.256,0.465c4.838,1.327,8.35,4.33,10.361,8.933c1.533,3.509,1.734,7.154,0.578,10.837
	c-0.293,0.932-1.029,1.374-1.883,1.169c-0.841-0.203-1.271-1.01-1.085-1.995C121.645,76.181,121.879,74.86,122.004,74.18z"/>
<path fill="none" stroke="#453D92" stroke-width="7" stroke-miterlimit="10" d="M170.344,79.997c0,7.886-10.55,14.009-12.861,21.129
	c-2.395,7.375,2.459,18.515-2.012,24.654c-4.513,6.201-16.638,5.007-22.838,9.517c-6.141,4.469-8.721,16.396-16.099,18.787
	c-7.116,2.314-16.188-5.739-24.074-5.739c-7.886,0-16.956,8.054-24.069,5.739c-7.379-2.394-9.963-14.318-16.103-18.787
	c-6.201-4.515-18.325-3.318-22.839-9.517c-4.469-6.14,0.386-17.279-2.011-24.654c-2.31-7.12-12.859-13.243-12.859-21.129
	c0-7.891,10.55-14.014,12.862-21.13c2.394-7.377-2.459-18.518,2.011-24.655c4.511-6.201,16.635-5.005,22.836-9.519
	c6.14-4.468,8.726-16.393,16.103-18.787c7.115-2.311,16.184,5.743,24.069,5.743c7.89,0,16.958-8.054,24.077-5.743
	c7.375,2.395,9.958,14.319,16.098,18.789c6.198,4.512,18.326,3.315,22.839,9.517c4.468,6.141-0.386,17.281,2.009,24.655
	C159.794,65.986,170.344,72.11,170.344,79.997z"/>
<path fill-rule="evenodd" clip-rule="evenodd" fill="none" stroke="#453D92" stroke-width="5.2658" stroke-miterlimit="10" d="
	M145.374,60.763c2.448,6.272,3.793,13.098,3.793,20.237c0,30.744-24.923,55.667-55.667,55.667S37.833,111.744,37.833,81
	S62.756,25.333,93.5,25.333c10.43,0,20.189,2.868,28.533,7.858"/>
<path fill-rule="evenodd" clip-rule="evenodd" fill="#453D92" d="M126.46,39.041c1.175,0.773,2.763,0.44,3.544-0.74l0,0
	c0.781-1.186,0.462-2.775-0.715-3.551l-6.059-3.914c-1.174-0.774-2.76-0.441-3.54,0.741l0,0c-0.783,1.185-0.462,2.773,0.713,3.548
	L126.46,39.041z"/>
<path fill-rule="evenodd" clip-rule="evenodd" fill="#453D92" d="M143.731,63.649c0.509,1.321,2.002,1.979,3.331,1.472l0,0
	c1.335-0.512,2.003-1.999,1.496-3.321l-2.66-6.75c-0.504-1.319-1.998-1.977-3.328-1.467l0,0c-1.335,0.509-2.002,1.997-1.496,3.317
	L143.731,63.649z"/>
</svg>
