<?xml version="1.0" encoding="utf-8"?>
<!-- Generator: Adobe Illustrator 16.0.0, SVG Export Plug-In . SVG Version: 6.00 Build 0)  -->
<!DOCTYPE svg PUBLIC "-//W3C//DTD SVG 1.1//EN" "http://www.w3.org/Graphics/SVG/1.1/DTD/svg11.dtd">
<svg version="1.1" id="Layer_1" xmlns="http://www.w3.org/2000/svg" xmlns:xlink="http://www.w3.org/1999/xlink" x="0px" y="0px"
	 width="226px" height="160px" viewBox="0 0 226 160" enable-background="new 0 0 226 160" xml:space="preserve">
<g>
	
		<path fill="none" stroke="#F7A2A3" stroke-width="4.1242" stroke-linecap="round" stroke-linejoin="round" stroke-miterlimit="10" d="
		M102.774,93.301c3.093,1.709,6.649,2.682,10.435,2.682c3.784,0,7.342-0.973,10.436-2.682"/>
</g>
<g>
	<g>
		<circle fill="#453D92" cx="100.279" cy="80.534" r="2.856"/>
		<circle fill="#453D92" cx="126.138" cy="80.534" r="2.855"/>
	</g>
</g>
<line fill="none" stroke="#453D92" stroke-width="4.1242" stroke-linecap="round" stroke-linejoin="round" stroke-miterlimit="10" x1="113.208" y1="64.795" x2="113.208" y2="86.305"/>
<g>
	
		<path fill="none" stroke="#453D92" stroke-width="4.1242" stroke-linecap="round" stroke-linejoin="round" stroke-miterlimit="10" d="
		M132.151,71.051c-5.614-2.48-12.072-3.892-18.941-3.892c-6.87,0-13.326,1.411-18.943,3.892"/>
</g>
<path fill-rule="evenodd" clip-rule="evenodd" fill="#F7A2A3" d="M113.607,51.475c1.518-1.033,2.908-2.121,4.426-2.987
	c4.394-2.511,9.147-3.598,14.204-3.27c7.287,0.471,13.232,3.579,17.818,9.23c3.037,3.742,4.832,8.058,5.298,12.861
	c0.688,7.068-1.313,13.459-5.157,19.323c-2.962,4.518-6.642,8.428-10.549,12.123c-7.794,7.373-16.383,13.715-25.396,19.506
	c-0.409,0.263-0.692,0.255-1.098-0.006c-9.324-5.987-18.187-12.575-26.166-20.289c-4.179-4.041-8.091-8.333-11-13.419
	c-2.79-4.878-4.368-10.129-4.046-15.771c0.449-7.945,3.955-14.351,10.393-19.053c4.611-3.371,9.863-4.808,15.541-4.546
	c5.738,0.265,10.881,2.186,15.285,5.945C113.315,51.257,113.482,51.377,113.607,51.475z M113.695,60.871
	c-0.252-0.299-0.438-0.526-0.632-0.75c-1.051-1.206-2.003-2.517-3.168-3.598c-4.728-4.386-10.289-6.098-16.669-4.886
	c-8.524,1.619-14.882,9.022-15.114,17.701c-0.137,5.13,1.59,9.733,4.411,13.944c2.659,3.968,5.889,7.451,9.337,10.737
	c6.584,6.277,13.786,11.772,21.307,16.87c0.404,0.275,0.682,0.289,1.077-0.002c3.882-2.854,7.839-5.611,11.654-8.55
	c5.987-4.609,11.598-9.64,16.403-15.506c2.74-3.344,5.043-6.92,6.168-11.183c0.836-3.172,1.141-6.324,0.449-9.55
	c-1.691-7.887-8.273-13.978-16.402-14.678c-6.122-0.527-11.387,1.389-15.681,5.814C115.744,58.362,114.778,59.61,113.695,60.871z"/>
<path fill-rule="evenodd" clip-rule="evenodd" fill="#F7A2A3" d="M143.137,70.514c-0.199-6.996-4.607-11.992-10.882-12.958
	c-0.653-0.101-1.321-0.1-1.974-0.205c-0.771-0.123-1.242-0.725-1.238-1.484c0.004-0.767,0.482-1.466,1.258-1.441
	c1.424,0.045,2.894,0.092,4.256,0.465c4.838,1.327,8.35,4.33,10.361,8.933c1.533,3.509,1.734,7.154,0.578,10.837
	c-0.293,0.932-1.029,1.374-1.883,1.169c-0.841-0.203-1.271-1.01-1.085-1.995C142.778,72.515,143.012,71.194,143.137,70.514z"/>
<path fill-rule="evenodd" clip-rule="evenodd" fill="none" stroke="#453D92" stroke-width="7" stroke-miterlimit="10" d="
	M149.548,136.334H41.717c-6.857,0-12.417-5.56-12.417-12.417V35.084c0-6.857,5.56-12.417,12.417-12.417h143.166
	c6.857,0,12.417,5.56,12.417,12.417v88.833c0,6.857-5.56,12.417-12.417,12.417h-5.666"/>
<path fill-rule="evenodd" clip-rule="evenodd" fill="none" stroke="#453D92" stroke-width="7" stroke-miterlimit="10" d="
	M177.882,136.001h31.585c5.063,0,9.166,4.104,9.166,9.167l0,0c0,5.063-4.104,9.166-9.166,9.166H17.133
	c-5.063,0-9.167-4.104-9.167-9.166l0,0c0-5.063,4.104-9.167,9.167-9.167h132.086"/>
<circle fill="#453D92" cx="195.05" cy="26.665" r="23.25"/>
<text transform="matrix(1 0 0 1 179.5806 32.1914)" fill="#F7A2A3" font-family="'Baloo-Regular'" font-size="19.4274">24h</text>
<path fill-rule="evenodd" clip-rule="evenodd" fill="#453D92" d="M151.172,139.78c1.989,0.017,3.617-1.597,3.638-3.598l0,0
	c0.018-2.008-1.582-3.649-3.573-3.667l-10.196,0.006c-1.987-0.018-3.614,1.595-3.633,3.598l0,0
	c-0.021,2.007,1.581,3.646,3.569,3.665L151.172,139.78z"/>
<path fill-rule="evenodd" clip-rule="evenodd" fill="#453D92" d="M184.297,139.78c1.989,0.017,3.617-1.597,3.638-3.598l0,0
	c0.018-2.008-1.582-3.649-3.573-3.667l-10.196,0.006c-1.987-0.018-3.614,1.595-3.633,3.598l0,0
	c-0.021,2.007,1.581,3.646,3.569,3.665L184.297,139.78z"/>
</svg>
