<?xml version="1.0" encoding="UTF-8"?>
<svg width="17px" height="39px" viewBox="0 0 17 39" version="1.1" xmlns="http://www.w3.org/2000/svg" xmlns:xlink="http://www.w3.org/1999/xlink">
    <!-- Generator: Sketch 52.6 (67491) - http://www.bohemiancoding.com/sketch -->
    <title>Combined Shape</title>
    <desc>Created with Sketch.</desc>
    <g id="type_C" stroke="none" stroke-width="1" fill="none" fill-rule="evenodd">
        <g id="top_e-copy" transform="translate(-33.000000, -6006.000000)" fill="#000000" fill-rule="nonzero" stroke="#FFFFFF" stroke-width="0.4">
            <path d="M44.051372,6012.90328 C44.051372,6014.36124 42.8202468,6015.54696 41.3068277,6015.54696 C39.7934087,6015.54696 38.5622834,6014.36124 38.5622834,6012.90328 C38.5622834,6011.44531 39.7934087,6010.2596 41.3068277,6010.2596 C42.8202468,6010.2596 44.051372,6011.44568 44.051372,6012.90328 Z M40.189624,6012.90328 C40.189624,6013.49651 40.6908789,6013.9789 41.3068277,6013.9789 C41.9227765,6013.9789 42.4240314,6013.49651 42.4240314,6012.90328 C42.4240314,6012.31005 41.9227765,6011.82766 41.3068277,6011.82766 C40.6908789,6011.82766 40.189624,6012.31005 40.189624,6012.90328 Z M48.9998159,6036.73583 C49.0137182,6038.6602 48.2398239,6040.47224 46.8210177,6041.83871 C46.5978086,6042.05369 46.3591526,6042.24821 46.1139316,6042.43231 L46.5201875,6042.43231 L46.5201875,6044 L36.4796427,6044 L36.4796427,6042.43231 L36.8947806,6042.43231 C36.6495596,6042.24821 36.4112898,6042.05369 36.1876946,6041.83871 C34.7731363,6040.4767 33.9961526,6038.67061 34.0000143,6036.75405 C34.0034899,6034.84159 34.7824045,6033.03884 36.193101,6031.67386 C36.3020023,6031.54219 36.4136068,6031.41462 36.5252113,6031.28631 C37.1793915,6030.53687 37.6960933,6029.94475 37.6960933,6028.67089 C37.6960933,6028.52956 37.6872113,6028.3979 37.6752399,6028.27069 C37.5825579,6027.32525 37.1693509,6026.78483 36.5962675,6026.12429 C36.3707414,6025.86431 36.3560668,6025.48977 36.5611256,6025.21454 C36.7657982,6024.93857 37.1380707,6024.83034 37.4670917,6024.95345 C37.6532279,6025.02263 37.8443845,6025.09999 38.0347686,6025.17698 C38.4147646,6025.33059 38.9295356,6025.53924 39.1670331,6025.55486 C39.3091455,6025.43993 39.5485738,6024.99808 39.6949341,6024.72806 C39.9092611,6024.33195 40.156413,6023.88712 40.4927712,6023.56615 L40.4927712,6023.00119 C39.7420474,6023.58251 38.8067321,6023.91576 37.8188969,6023.91576 C36.3888916,6023.91576 35.0573609,6023.22955 34.2587514,6022.08029 C34.0749322,6021.81622 34.0749322,6021.47144 34.2587514,6021.20774 C35.0577471,6020.05847 36.3888916,6019.37226 37.8188969,6019.37226 C38.8067321,6019.37226 39.7424336,6019.70588 40.4927712,6020.28684 L40.4927712,6018.16646 C39.6887553,6018.5886 38.8893735,6018.8073 38.1313123,6018.8073 L38.1309262,6018.8073 C36.9295364,6018.8073 35.932433,6018.23155 35.4643892,6017.26714 C34.8716108,6016.0472 35.2079691,6014.44828 36.3572253,6012.90365 C35.2083553,6011.3594 34.8723832,6009.76047 35.4643892,6008.54054 C35.9328192,6007.57575 36.9299225,6007 38.1313123,6007 C39.144635,6007 40.2324894,6007.39053 41.3068277,6008.13588 C42.3815522,6007.3909 43.4694066,6007 44.4827293,6007 C45.6845052,6007 46.6812224,6007.57538 47.1492663,6008.53979 C47.7416584,6009.75935 47.4053002,6011.35865 46.2560439,6012.90291 C47.404914,6014.44716 47.7412722,6016.04609 47.1488801,6017.26602 C46.6808362,6018.23081 45.6837329,6018.80656 44.4823431,6018.80656 C43.724282,6018.80656 42.9249001,6018.58786 42.120498,6018.16572 L42.120498,6023.28013 C42.6715695,6023.56169 43.0148789,6024.19397 43.30451,6024.72843 C43.4493255,6024.99548 43.6848921,6025.43026 43.8343418,6025.55412 C44.0814937,6025.5344 44.5889273,6025.3291 44.9646754,6025.17698 C45.1550596,6025.09999 45.3466023,6025.02263 45.5323524,6024.95345 C45.8613733,6024.83108 46.234032,6024.93894 46.4383185,6025.21454 C46.6433773,6025.48977 46.6287026,6025.86431 46.4031765,6026.12429 C45.8300931,6026.78483 45.4168861,6027.32599 45.3242042,6028.27144 C45.3122327,6028.39752 45.3079848,6028.52919 45.3079848,6028.67052 C45.3079848,6029.94884 45.8243005,6030.5417 46.4780945,6031.29263 C46.5881543,6031.41871 46.6982141,6031.54517 46.8051845,6031.6746 C48.206999,6033.03959 48.9859136,6034.83564 48.9998159,6036.73583 Z M37.8192831,6022.34733 C38.5059019,6022.34733 39.1562203,6022.09144 39.6451175,6021.64364 C39.1562203,6021.19584 38.5062881,6020.93995 37.8192831,6020.93995 C37.1322781,6020.93995 36.4819598,6021.19584 35.9930625,6021.64364 C36.4819598,6022.09144 37.1326643,6022.34733 37.8192831,6022.34733 Z M38.1309262,6017.23887 C38.9117716,6017.23887 39.8540381,6016.82603 40.7847194,6016.07622 C41.0863219,6015.83297 41.526175,6015.83335 41.8285499,6016.07622 C42.7596173,6016.82603 43.7018838,6017.2385 44.4823431,6017.2385 C45.0519509,6017.2385 45.4751985,6017.01274 45.6744647,6016.60213 C45.9695022,6015.99439 45.8428369,6014.83583 44.6020573,6013.40576 C44.349499,6013.11491 44.349499,6012.69128 44.6020573,6012.40043 C45.8428369,6010.97036 45.9698884,6009.81142 45.6744647,6009.20406 C45.4751985,6008.79345 45.0519509,6008.56769 44.4823431,6008.56769 C43.70227,6008.56769 42.7596173,6008.98053 41.8285499,6009.72997 C41.526175,6009.97321 41.0870943,6009.97321 40.7847194,6009.72997 C39.8536519,6008.98053 38.9117716,6008.56806 38.1313123,6008.56806 C37.5617045,6008.56806 37.1384569,6008.79382 36.9391907,6009.20443 C36.643767,6009.81217 36.7708185,6010.97073 38.011212,6012.4008 C38.2637703,6012.69165 38.2637703,6013.11528 38.011212,6013.40613 C36.7704323,6014.8362 36.643767,6015.99513 36.9388046,6016.60287 C37.1380707,6017.01311 37.5613183,6017.23887 38.1309262,6017.23887 Z M35.5447135,6036.75666 C35.5416241,6038.27488 36.1579591,6039.70606 37.2794107,6040.78652 C38.4074273,6041.8733 39.9081026,6042.47174 41.5037769,6042.47174 C43.0994511,6042.47174 44.5997402,6041.8733 45.728143,6040.78652 C46.8522978,6039.70383 47.4651572,6038.2693 47.4543444,6036.74624 C47.4431453,6035.22505 46.8136804,6033.78679 45.6806435,6032.69555 C45.6597901,6032.67509 45.639709,6032.65389 45.6211726,6032.63121 C45.5142022,6032.5014 45.4041423,6032.37495 45.2940825,6032.24849 C44.5757974,6031.42429 43.7625133,6030.49038 43.7625133,6028.67052 C43.7625133,6028.46633 43.7698506,6028.29561 43.7856838,6028.13308 C43.8262321,6027.71912 43.9131214,6027.35463 44.0301324,6027.02956 C43.7520865,6027.06118 43.487943,6027.03403 43.2647339,6026.94514 C42.6260008,6026.69073 42.2745818,6026.04283 41.9351341,6025.41613 C41.8173508,6025.19892 41.6373933,6024.86716 41.4995289,6024.69533 C41.3616645,6024.86716 41.1817071,6025.19929 41.0639238,6025.41613 C40.7240899,6026.04246 40.373057,6026.69036 39.7339378,6026.94551 C39.5721305,6027.00985 39.3902422,6027.04295 39.1940654,6027.04295 C39.120306,6027.04295 39.0450019,6027.03812 38.9689255,6027.02956 C39.0855503,6027.35426 39.1728258,6027.71875 39.2133741,6028.13159 C39.2322967,6028.32723 39.2407925,6028.49832 39.2407925,6028.67052 C39.2407925,6030.48628 38.4259637,6031.41946 37.7076786,6032.24291 C37.5956879,6032.37123 37.4836972,6032.49954 37.3755683,6032.63121 C37.3562595,6032.65464 37.3361784,6032.67658 37.3141665,6032.69741 C36.1761093,6033.78605 35.5474167,6035.22765 35.5447135,6036.75666 Z" id="Combined-Shape"></path>
        </g>
    </g>
</svg>