<?xml version="1.0" encoding="UTF-8"?>
<svg width="35px" height="29px" viewBox="0 0 35 29" version="1.1" xmlns="http://www.w3.org/2000/svg" xmlns:xlink="http://www.w3.org/1999/xlink">
    <!-- Generator: Sketch 52.6 (67491) - http://www.bohemiancoding.com/sketch -->
    <title>Shape</title>
    <desc>Created with Sketch.</desc>
    <g id="type_C" stroke="none" stroke-width="1" fill="none" fill-rule="evenodd">
        <g id="top_e-copy" transform="translate(-24.000000, -5947.000000)" fill="#000000" fill-rule="nonzero" stroke="#000000" stroke-width="0.3">
            <path d="M57.8321529,5960.66373 C57.555043,5960.09758 56.9650498,5959.73213 56.3291386,5959.73213 C56.0765895,5959.73213 55.8325833,5959.78758 55.6035271,5959.8969 L55.2441919,5960.06907 C54.8426762,5960.2613 54.5410055,5960.59613 54.3941746,5961.01281 C54.3039404,5961.26895 54.2873885,5961.53618 54.3268994,5961.79654 L53.0246429,5961.79654 L53.0246429,5959.90429 C53.0246429,5956.25395 48.6971365,5953.23417 43.0978076,5952.74249 C43.7443974,5952.26032 44.1694061,5951.50142 44.1694061,5950.64059 C44.1694061,5949.18457 42.9718,5948 41.4997537,5948 C40.0277074,5948 38.8301014,5949.18457 38.8301014,5950.64059 C38.8301014,5951.50195 39.25511,5952.26085 39.9022337,5952.74302 C34.3034388,5953.23417 29.9759323,5956.25395 29.9759323,5959.90482 L29.9759323,5961.79707 L28.673142,5961.79707 C28.7126529,5961.53618 28.6955671,5961.26895 28.6058668,5961.01281 C28.4595698,5960.59666 28.1573652,5960.26183 27.7563834,5960.06959 L27.3959803,5959.8969 C27.1674581,5959.78758 26.9229179,5959.73213 26.6703688,5959.73213 C26.0344576,5959.73213 25.4444644,5960.09758 25.1673545,5960.66425 C24.9735378,5961.06087 24.9468412,5961.50871 25.0936721,5961.9254 C25.2399691,5962.34156 25.5416398,5962.67691 25.9420876,5962.86809 L26.3035586,5963.04184 C26.5320808,5963.15063 26.776087,5963.20661 27.0286361,5963.20661 C27.536404,5963.20661 28.0116021,5962.97107 28.3250193,5962.58924 L29.9759323,5962.58924 L29.9759323,5970.90709 C29.9759323,5973.16374 31.8324086,5975 34.1138935,5975 L48.8861479,5975 C51.1676328,5975 53.024109,5973.16374 53.024109,5970.90709 L53.024109,5962.58924 L54.675556,5962.58924 C54.9889732,5962.97107 55.4641713,5963.20661 55.9714052,5963.20661 C56.2239543,5963.20661 56.4679606,5963.15116 56.6975507,5963.04131 L57.0568859,5962.86862 C57.4584016,5962.67691 57.7595384,5962.34156 57.9063692,5961.9254 C58.0532001,5961.50924 58.0265036,5961.06087 57.8321529,5960.66373 Z M27.8108443,5961.9291 C27.6079507,5962.34472 27.076156,5962.53168 26.6527491,5962.32888 L26.2912782,5962.15566 C26.0830453,5962.05584 25.9260697,5961.88156 25.8502516,5961.66504 C25.7738995,5961.44851 25.7877817,5961.21561 25.8886946,5961.00964 C26.0328558,5960.71495 26.3398658,5960.52483 26.6709027,5960.52483 C26.8017157,5960.52483 26.9282572,5960.55388 27.0478576,5960.61091 L27.4082607,5960.78361 C27.6170275,5960.88342 27.7740031,5961.0577 27.8498212,5961.27423 C27.9256393,5961.4897 27.9117571,5961.72207 27.8108443,5961.9291 Z M41.4997537,5948.79218 C42.5302395,5948.79218 43.3685104,5949.62132 43.3685104,5950.64059 C43.3685104,5951.65985 42.5302395,5952.489 41.4997537,5952.489 C40.4692679,5952.489 39.6309971,5951.65985 39.6309971,5950.64059 C39.6309971,5949.62132 40.4692679,5948.79218 41.4997537,5948.79218 Z M41.4997537,5953.45704 C47.1903847,5953.45704 51.8467923,5956.13776 52.1895757,5959.50821 L30.8099317,5959.50821 C31.153249,5956.13776 35.8091227,5953.45704 41.4997537,5953.45704 Z M52.2232133,5970.90709 C52.2232133,5972.72698 50.7260723,5974.20782 48.8861479,5974.20782 L34.1138935,5974.20782 C32.2739691,5974.20782 30.7768281,5972.72698 30.7768281,5970.90709 L30.7768281,5960.30038 L52.2232133,5960.30038 L52.2232133,5970.90709 Z M57.1497898,5961.66504 C57.0734377,5961.88156 56.9169961,5962.05532 56.7076953,5962.15513 L56.3483601,5962.32782 C55.9222836,5962.53221 55.3920907,5962.34472 55.1886631,5961.92804 C55.0882842,5961.72207 55.074402,5961.48917 55.1507541,5961.27317 C55.2271061,5961.05665 55.3840817,5960.88237 55.5928485,5960.78255 L55.9521837,5960.61039 C56.0717841,5960.55335 56.1983257,5960.5243 56.3291386,5960.5243 C56.6601755,5960.5243 56.9671855,5960.71443 57.1118807,5961.00859 C57.2122596,5961.21561 57.2256079,5961.44851 57.1497898,5961.66504 Z" id="Shape"></path>
        </g>
    </g>
</svg>