<?xml version="1.0" encoding="UTF-8"?>
<svg width="22px" height="31px" viewBox="0 0 22 31" version="1.1" xmlns="http://www.w3.org/2000/svg" xmlns:xlink="http://www.w3.org/1999/xlink">
    <!-- Generator: Sketch 52.6 (67491) - http://www.bohemiancoding.com/sketch -->
    <title>Shape</title>
    <desc>Created with Sketch.</desc>
    <g id="type_C" stroke="none" stroke-width="1" fill="none" fill-rule="evenodd">
        <g id="top_e-copy" transform="translate(-29.000000, -5761.000000)" fill="#000000" fill-rule="nonzero">
            <path d="M48.3804674,5785.62874 C48.3804674,5786.55595 47.6476809,5787.31507 46.7402631,5787.31507 C45.8328138,5787.31507 45.0997532,5786.55591 45.0997532,5785.62874 C45.0997532,5784.93046 45.517915,5784.31654 46.1280662,5784.06434 L46.1280662,5781.10797 L41.9948322,5781.10797 L41.9947012,5785.59792 C42.0154561,5786.32847 42.3011799,5787.17251 42.8610937,5787.17251 C45.0346613,5787.17251 46.4199003,5788.3589 46.9076859,5790.62164 L47.0638686,5791.35 L32.9354014,5791.35 L33.0266826,5790.92629 L33.0923945,5790.62127 C33.5801152,5788.35883 34.9650994,5787.17251 37.1386007,5787.17251 C37.7020238,5787.17251 37.9817749,5786.34238 38.0054632,5785.59997 L38.0051797,5781.10797 L29.5451362,5781.10797 L34.7029563,5761.65 L45.2970437,5761.65 L50.4548638,5781.10797 L47.3521544,5781.10797 L47.3521544,5784.06441 C47.9619535,5784.31663 48.3801359,5784.93036 48.3804674,5785.62874 Z M46.5513281,5784.66281 C46.1195276,5784.75524 45.7997532,5785.15712 45.7997532,5785.62874 C45.7997532,5786.17469 46.224998,5786.61507 46.7402631,5786.61507 C47.2554435,5786.61507 47.6804674,5786.17477 47.6804674,5785.62891 C47.6802435,5785.15713 47.3603528,5784.75527 46.9288195,5784.6628 L46.7402087,5784.62238 L46.5513281,5784.66281 Z M44.758421,5762.35 L35.241579,5762.35 L30.4548638,5780.40797 L38.7051355,5780.40797 L38.7051576,5780.75795 L38.7052878,5785.61103 C38.6968387,5785.87781 38.6416203,5786.28198 38.5074104,5786.68024 C38.2638372,5787.40301 37.8234547,5787.87251 37.1386007,5787.87251 C35.3413161,5787.87251 34.2423903,5788.78219 33.8034227,5790.65 L46.1965761,5790.65 C45.7576,5788.78226 44.6584464,5787.87251 42.8610937,5787.87251 C42.1782183,5787.87251 41.7386286,5787.4034 41.4942324,5786.68144 C41.3598276,5786.2844 41.3021232,5785.86911 41.2948424,5785.60786 L41.2948424,5780.40797 L49.5451362,5780.40797 L44.758421,5762.35 Z M42.8610937,5788.37331 C41.540528,5788.37331 40.8556707,5787.06744 40.8112582,5785.62623 L40.8110922,5785.61547 L40.8108086,5781.10765 L39.1888961,5781.10765 L39.1887447,5785.61823 C39.1445237,5787.0663 38.4603825,5788.37331 37.1386007,5788.37331 C35.781152,5788.37331 34.9188174,5788.93963 34.4603755,5790.14888 L45.5390751,5790.14888 C45.0808218,5788.93969 44.2185946,5788.37331 42.8610937,5788.37331 Z M42.8610937,5787.67331 C44.6937861,5787.67331 45.8660908,5788.59214 46.3566453,5790.40758 L46.4758907,5790.84888 L33.5234398,5790.84888 L33.6427548,5790.40753 C34.1335697,5788.59203 35.3060088,5787.67331 37.1386007,5787.67331 C37.9528701,5787.67331 38.4549524,5786.71411 38.4889078,5785.60754 L38.4889078,5780.40765 L41.5107646,5780.40765 L41.5110918,5785.60993 C41.5467363,5786.7182 42.0489209,5787.67331 42.8610937,5787.67331 Z M48.9104234,5779.90685 L44.3892677,5762.85081 L35.6107335,5762.85081 L31.0895745,5779.90716 L38.0051576,5779.90716 L48.9104234,5779.90685 Z M30.1798496,5780.60716 L35.0721091,5762.15081 L44.9278896,5762.15081 L49.8201525,5780.60685 L38.7051576,5780.60685 L30.1798496,5780.60716 Z M46.7402631,5786.11363 C46.9887688,5786.11363 47.196538,5785.89842 47.1967172,5785.62842 C47.1967172,5785.35894 46.9887055,5785.14353 46.7402631,5785.14353 C46.4916419,5785.14353 46.283809,5785.35881 46.283809,5785.62842 C46.283809,5785.89833 46.4916158,5786.11363 46.7402631,5786.11363 Z M46.7402631,5786.81363 C46.0993572,5786.81363 45.583809,5786.27948 45.583809,5785.62842 C45.583809,5784.97761 46.0994258,5784.44353 46.7402631,5784.44353 C47.3808791,5784.44353 47.8967172,5784.9777 47.8967171,5785.62865 C47.8962851,5786.2798 47.3809102,5786.81363 46.7402631,5786.81363 Z" id="Shape"></path>
        </g>
    </g>
</svg>