<svg width="291" height="36" viewBox="0 0 291 36" fill="none" xmlns="http://www.w3.org/2000/svg">
<g clip-path="url(#clip0)">
<path d="M13.582 10.418L13.5693 16.4002H13.0402C13.0402 16.4002 12.9029 13.1293 10.156 11.7253C7.39632 10.3137 4.28313 11.0793 3.38275 12.8444C2.81302 13.961 2.75197 15.6677 4.40013 17.1657C5.05125 17.7584 5.99233 18.1857 7.23354 18.7478C9.48958 19.7677 11.3438 20.3145 12.4807 21.3217C13.5515 22.2704 14.5154 23.6719 14.401 25.6532C14.1695 29.71 10.278 31.3277 7.08093 31.3277C6.37894 31.3277 5.74307 31.2437 5.51925 31.2107L5.62099 30.6944C5.62099 30.6944 6.51374 30.8393 7.14197 30.8063C8.21276 30.7529 10.802 30.2798 11.4887 28.0822C12.1755 25.8821 10.2552 24.3637 9.89144 24.1017C9.29627 23.6922 8.30941 23.2548 5.64642 22.1433C2.98343 21.0318 0.750279 19.5668 0.55189 16.7817C0.55189 16.7817 0.439978 14.9351 1.56927 13.2692C3.03684 11.1072 4.85032 10.418 7.08601 10.418C10.2145 10.418 10.6646 11.6185 12.0025 11.4633C12.6587 11.387 13.1445 10.9216 13.3607 10.418H13.582Z" fill="black"/>
<path d="M2.44934 29.7503C3.80208 29.7503 4.89869 28.6536 4.89869 27.3009C4.89869 25.9482 3.80208 24.8516 2.44934 24.8516C1.09661 24.8516 0 25.9482 0 27.3009C0 28.6536 1.09661 29.7503 2.44934 29.7503Z" fill="#96262C"/>
<path d="M30.3912 11.5395C29.8774 11.2749 29.0711 10.9748 28.0715 11.046C25.3119 11.2419 23.5925 14.3703 22.9567 16.9239C22.3437 19.3835 22.186 21.9803 22.9134 24.6815C23.8316 28.0999 25.8562 30.7527 28.186 30.7247C30.264 30.6993 31.902 29.7963 32.9931 28.8985L33.3263 29.3105C31.5612 30.9104 29.0482 31.3377 28.2216 31.3377C27.4484 31.3377 24.5667 31.5412 21.6671 28.8222C18.8922 26.2177 18.4141 22.5704 18.4141 20.9935C18.4141 19.559 18.559 16.9417 20.6803 14.0855C22.8015 11.2292 25.8944 10.489 27.2042 10.4534C28.5217 10.4178 30.1317 10.4483 32.1614 11.6565C33.7612 12.6077 34.7125 13.8387 35.0024 14.2533C35.2644 14.6298 35.4221 15.1461 35.4221 15.67C35.4221 16.8578 34.448 18.0761 32.927 18.0761C31.7112 18.0761 30.5234 17.046 30.5234 15.6649C30.5234 14.7442 30.994 14.1414 31.1491 13.9888C31.3984 13.7395 31.7087 13.297 31.5434 12.6738C31.3577 11.9617 30.6201 11.6565 30.3912 11.5395Z" fill="black"/>
<path d="M61.9863 31.1166C62.9401 31.1166 63.9346 30.3892 63.9346 29.1251C63.9346 26.8334 63.9346 13.287 63.9346 12.6104C63.9346 11.6617 63.1818 10.6672 61.9863 10.6672V10.446H67.8922V13.7219C67.8922 13.7219 69.1639 11.237 72.8163 10.5782C76.3263 9.94489 78.9308 11.3591 80.1567 12.6104C81.3598 13.8364 81.6574 15.042 81.6574 15.9093C81.6574 19.2717 81.6574 28.5553 81.6574 29.209C81.6574 30 82.3263 31.114 83.6057 31.114V31.3353H75.7464V31.114C76.7867 31.114 77.6921 30.2772 77.6921 29.1963C77.6921 27.0547 77.6896 16.6952 77.6896 15.9093C77.6896 15.3624 77.4607 13.7219 75.693 12.4578C73.9227 11.1937 71.6235 11.3489 69.9677 12.4197C68.3729 13.4498 67.9049 15.2658 67.9049 15.7211C67.9049 16.3162 67.9049 28.362 67.9049 29.2166C67.9049 30.089 68.6425 31.1166 69.8481 31.1166V31.3379H61.9889V31.1166H61.9863Z" fill="black"/>
<path d="M105.064 29.2141C105.064 28.329 105.064 0 105.064 0H99.1658V0.22128C100.341 0.22128 101.106 1.17762 101.106 2.17211C101.106 2.52819 101.106 12.3612 101.106 12.3612C101.106 12.3612 99.2955 10.7741 96.6707 10.4816C94.1374 10.1992 92.0467 11.2039 91.0421 11.8296C87.6364 13.9483 85.2379 18.9792 86.7843 24.1272C88.1069 28.5324 91.7364 31.3353 95.6533 31.3353C98.9725 31.3353 101.106 29.4201 101.106 29.4201V31.3353H107.01V31.114C105.84 31.114 105.064 30.1145 105.064 29.2141ZM101.063 26.8436C101.063 26.8436 100.636 28.0263 99.4685 29.3031C97.3625 31.61 93.7788 31.3684 91.7898 27.0267C89.2896 21.571 91.0827 15.4896 92.6902 13.3989C94.0993 11.5676 95.8237 10.7181 97.7212 11.3896C99.7661 12.1145 101.066 15.0496 101.066 15.0496V26.8436H101.063Z" fill="black"/>
<path d="M134.823 29.2014C134.823 28.5808 134.823 2.77745 134.823 2.16448C134.823 1.21068 134.06 0.22128 132.877 0.22128V0H138.75C138.75 0 138.75 28.8554 138.75 29.2268C138.75 30.145 139.531 31.1191 140.69 31.1191V31.3404H132.879V31.1191C133.966 31.1217 134.823 30.234 134.823 29.2014Z" fill="black"/>
<path d="M163.018 20.7283C163.018 20.7283 163.081 17.3074 160.95 14.3544C159.037 11.7067 156.265 10.4375 153.823 10.4375C150.944 10.4375 148.792 11.5185 146.778 13.7821C144.741 16.0687 144.275 19.3014 144.285 20.3366C144.295 21.3718 144.077 25.5761 147.655 28.9284C150.985 32.0467 154.81 31.6372 157.249 30.5511L157.02 30.0729C157.02 30.0729 153.543 31.95 151.298 29.5897C149.052 27.2294 148.485 22.9945 148.515 20.7283H163.018ZM149.515 15.1149C150.344 12.8411 152.091 10.9691 153.795 11.02C155.41 11.0683 156.753 12.2688 157.788 14.4663C159.04 17.1217 159.04 20.1967 159.04 20.1967H148.538C148.558 19.1234 148.683 17.3913 149.515 15.1149Z" fill="black"/>
<path d="M58.0516 31.113C57.4234 31.113 56.111 30.6806 56.111 29.0223C56.111 27.3156 56.2127 17.3886 56.2127 16.6866C56.2127 15.9846 56.462 13.7921 53.8066 11.971C51.1512 10.1499 47.9846 10.2542 45.7261 10.8112C42.9562 11.4928 40.8121 13.876 40.8121 15.6234C40.8121 16.9587 41.8982 18.0727 43.2615 18.0727C44.5815 18.0727 45.6803 17.0121 45.7108 15.6743C45.7108 15.6743 45.782 14.7128 45.0444 13.9422C44.261 13.1232 44.5917 12.5509 44.9376 12.2406C45.2835 11.9303 46.2729 10.946 48.1093 11.0019C49.9456 11.0579 51.0648 12.3932 51.4565 13.0164C51.8481 13.6395 52.2093 14.517 52.2093 15.5852C52.2093 16.6535 52.2093 21.5624 52.2093 21.5624C52.2093 21.5624 50.2559 19.6064 46.9291 19.6064C43.0376 19.6064 41.2114 21.2953 40.2449 22.8061C39.1512 24.5153 39.0444 27.0969 41.1707 29.2232C42.7273 30.7798 45.2835 31.5963 47.8524 31.2656C50.7901 30.8866 52.2398 29.3173 52.2398 29.3173L52.2068 31.3343H58.0516V31.113ZM52.2398 27.5878C51.9651 28.2974 51.1716 29.2181 50.2458 29.7599C49.0478 30.4593 46.5985 30.8332 44.8231 29.1062C42.9257 27.2597 43.0224 24.8943 43.643 23.4801C44.3755 21.8116 46.6646 19.904 49.4039 20.8451C51.5302 21.5751 52.2424 23.3428 52.2424 23.3428V27.5878H52.2398Z" fill="black"/>
<path d="M129.294 31.113C128.666 31.113 127.353 30.6806 127.353 29.0223C127.353 27.3156 127.455 17.3886 127.455 16.6866C127.455 15.9846 127.704 13.7921 125.049 11.971C122.393 10.1499 119.227 10.2542 116.968 10.8112C114.198 11.4928 112.054 13.876 112.054 15.6234C112.054 16.9587 113.14 18.0727 114.504 18.0727C115.824 18.0727 116.922 17.0121 116.953 15.6743C116.953 15.6743 117.024 14.7128 116.287 13.9422C115.503 13.1232 115.834 12.5509 116.18 12.2406C116.526 11.9303 117.515 10.946 119.351 11.0019C121.188 11.0579 122.307 12.3932 122.699 13.0164C123.09 13.6395 123.452 14.517 123.452 15.5852C123.452 16.6535 123.452 21.5624 123.452 21.5624C123.452 21.5624 121.498 19.6064 118.171 19.6064C114.28 19.6064 112.454 21.2953 111.487 22.8061C110.393 24.5153 110.287 27.0969 112.413 29.2232C113.97 30.7798 116.526 31.5963 119.095 31.2656C122.032 30.8866 123.482 29.3173 123.482 29.3173L123.449 31.3343H129.294V31.113ZM123.482 27.5878C123.207 28.2974 122.414 29.2181 121.488 29.7599C120.29 30.4593 117.841 30.8332 116.065 29.1062C114.168 27.2597 114.265 24.8943 114.885 23.4801C115.618 21.8116 117.907 19.904 120.646 20.8451C122.772 21.5751 123.485 23.3428 123.485 23.3428V27.5878H123.482Z" fill="black"/>
<path d="M160.408 31.4723H160.009V28.9721H159.096V28.6211H161.321V28.9721H160.408V31.4723Z" fill="black"/>
<path d="M163.172 30.811H163.18L164.021 28.6211H164.642V31.4698H164.243V29.0865H164.235L163.289 31.4698H163.035L162.093 29.0865H162.086V31.4698H161.699V28.6211H162.32L163.172 30.811Z" fill="black"/>
<path d="M187.168 25.7538C187.168 25.853 187.168 25.9573 187.168 26.0692C187.168 26.1811 187.16 26.3006 187.147 26.4252H179.001C179.014 26.9161 179.113 27.3765 179.296 27.8114C179.476 28.2464 179.731 28.6228 180.051 28.9458C180.374 29.2688 180.751 29.5232 181.186 29.7114C181.621 29.8996 182.089 29.9937 182.592 29.9937C183.335 29.9937 183.973 29.8233 184.512 29.4799C185.052 29.1366 185.461 28.7423 185.741 28.2947L186.812 29.134C186.224 29.8767 185.576 30.4083 184.869 30.7288C184.161 31.0518 183.404 31.212 182.59 31.212C181.862 31.212 181.186 31.0823 180.562 30.8229C179.939 30.5634 179.405 30.2023 178.958 29.7419C178.51 29.279 178.156 28.7347 177.897 28.1039C177.638 27.4731 177.508 26.789 177.508 26.0463C177.508 25.3036 177.635 24.6194 177.887 23.9886C178.139 23.3578 178.49 22.8135 178.937 22.3506C179.385 21.8877 179.909 21.5291 180.512 21.2697C181.114 21.0102 181.763 20.8805 182.465 20.8805C183.236 20.8805 183.912 21.0102 184.502 21.2697C185.09 21.5291 185.581 21.8776 185.972 22.3201C186.364 22.7601 186.662 23.2765 186.865 23.864C187.066 24.4515 187.168 25.0823 187.168 25.7538ZM185.718 25.2909C185.677 24.3676 185.38 23.602 184.825 22.9916C184.273 22.3837 183.485 22.0785 182.462 22.0785C181.987 22.0785 181.544 22.165 181.14 22.3405C180.733 22.516 180.377 22.7525 180.069 23.0552C179.761 23.3553 179.517 23.6987 179.334 24.0827C179.151 24.4668 179.047 24.8712 179.019 25.2909H185.718ZM182.841 19.1179H181.603L183.701 16.0938H185.611L182.841 19.1179Z" fill="black"/>
<path d="M197.307 23.3818C197.068 23.0029 196.722 22.6926 196.267 22.4484C195.811 22.2042 195.318 22.0821 194.786 22.0821C194.211 22.0821 193.695 22.1839 193.232 22.3874C192.769 22.5908 192.375 22.8706 192.047 23.2267C191.719 23.5828 191.467 24.0024 191.292 24.4857C191.116 24.969 191.03 25.4904 191.03 26.0499C191.03 26.6095 191.116 27.1283 191.292 27.604C191.467 28.0796 191.714 28.4967 192.037 28.8528C192.36 29.2089 192.751 29.4887 193.212 29.6921C193.675 29.8956 194.191 29.9974 194.766 29.9974C195.397 29.9974 195.928 29.8778 196.361 29.6413C196.796 29.4022 197.152 29.0944 197.431 28.718L198.502 29.5167C198.083 30.0355 197.569 30.4476 196.958 30.7553C196.35 31.0631 195.618 31.2182 194.763 31.2182C193.965 31.2182 193.245 31.0885 192.601 30.8291C191.958 30.5696 191.409 30.2085 190.953 29.7481C190.498 29.2852 190.144 28.7409 189.893 28.1101C189.641 27.4793 189.514 26.7952 189.514 26.0525C189.514 25.3098 189.641 24.6256 189.893 23.9948C190.144 23.364 190.498 22.8197 190.953 22.3568C191.409 21.8939 191.958 21.5353 192.601 21.2759C193.245 21.0164 193.967 20.8867 194.763 20.8867C195.422 20.8867 196.088 21.0292 196.768 21.3166C197.447 21.604 197.996 22.0262 198.416 22.5857L197.307 23.3818Z" fill="black"/>
<path d="M210.49 26.0486C210.49 26.7912 210.36 27.4754 210.101 28.1062C209.842 28.737 209.48 29.2813 209.02 29.7442C208.557 30.2071 208.005 30.5657 207.362 30.8252C206.718 31.0846 206.011 31.2143 205.24 31.2143C204.485 31.2143 203.786 31.0846 203.142 30.8252C202.499 30.5657 201.944 30.2046 201.484 29.7442C201.021 29.2813 200.662 28.737 200.403 28.1062C200.143 27.4754 200.014 26.7912 200.014 26.0486C200.014 25.3059 200.143 24.6217 200.403 23.9909C200.662 23.3601 201.023 22.8158 201.484 22.3529C201.947 21.89 202.499 21.5314 203.142 21.272C203.786 21.0125 204.485 20.8828 205.24 20.8828C206.011 20.8828 206.718 21.0125 207.362 21.272C208.005 21.5314 208.557 21.8926 209.02 22.3529C209.483 22.8158 209.842 23.3601 210.101 23.9909C210.36 24.6217 210.49 25.3084 210.49 26.0486ZM208.979 26.0486C208.979 25.5017 208.893 24.9879 208.717 24.5047C208.542 24.0214 208.295 23.6018 207.972 23.2457C207.649 22.8896 207.257 22.6047 206.797 22.3962C206.334 22.1851 205.818 22.0808 205.243 22.0808C204.668 22.0808 204.154 22.1851 203.699 22.3962C203.244 22.6073 202.855 22.8896 202.534 23.2457C202.211 23.6018 201.964 24.0214 201.789 24.5047C201.613 24.9879 201.527 25.5017 201.527 26.0486C201.527 26.5954 201.613 27.1092 201.789 27.5924C201.964 28.0757 202.211 28.4954 202.534 28.8514C202.857 29.2075 203.244 29.4873 203.699 29.6908C204.154 29.8943 204.668 29.996 205.243 29.996C205.818 29.996 206.334 29.8943 206.797 29.6908C207.26 29.4873 207.652 29.2075 207.972 28.8514C208.295 28.4954 208.542 28.0757 208.717 27.5924C208.89 27.1092 208.979 26.5954 208.979 26.0486Z" fill="black"/>
<path d="M217.379 26.465H212.676V25.2695H217.379V26.465Z" fill="black"/>
<path d="M221.743 30.961H220.316V15.0898H221.743V30.961Z" fill="black"/>
<path d="M227.307 17.3588C227.307 17.6538 227.203 17.8954 226.992 18.0837C226.781 18.2719 226.552 18.366 226.3 18.366C226.048 18.366 225.817 18.2719 225.608 18.0837C225.397 17.8954 225.293 17.6538 225.293 17.3588C225.293 17.0637 225.397 16.8246 225.608 16.6339C225.819 16.4457 226.048 16.3516 226.3 16.3516C226.552 16.3516 226.783 16.4457 226.992 16.6339C227.203 16.8246 227.307 17.0637 227.307 17.3588ZM227.012 30.9637H225.585V21.1383H227.012V30.9637Z" fill="black"/>
<path d="M232.096 21.136C232.124 21.403 232.145 21.6955 232.16 22.0186C232.173 22.3416 232.18 22.6061 232.18 22.8172H232.221C232.501 22.2424 232.956 21.7769 233.587 21.4208C234.218 21.0648 234.881 20.8867 235.581 20.8867C236.827 20.8867 237.761 21.2581 238.384 21.9982C239.007 22.7409 239.317 23.7201 239.317 24.9384V30.9639H237.89V25.526C237.89 25.0071 237.85 24.5391 237.763 24.1194C237.679 23.6998 237.534 23.3386 237.333 23.0385C237.13 22.7384 236.858 22.5044 236.514 22.3339C236.171 22.1661 235.741 22.0821 235.222 22.0821C234.843 22.0821 234.477 22.1584 234.121 22.3136C233.765 22.4687 233.447 22.7027 233.165 23.0181C232.885 23.3335 232.661 23.7328 232.493 24.2136C232.325 24.6968 232.241 25.2665 232.241 25.9253V30.9639H230.814V23.2979C230.814 23.0334 230.807 22.69 230.794 22.2704C230.781 21.8507 230.758 21.4717 230.73 21.136H232.096Z" fill="black"/>
<path d="M243.539 32.9362C243.931 33.4398 244.465 33.8671 245.144 34.2181C245.823 34.5666 246.54 34.7421 247.296 34.7421C247.995 34.7421 248.59 34.6403 249.081 34.4369C249.572 34.2334 249.966 33.9562 250.266 33.6077C250.566 33.2567 250.788 32.8472 250.928 32.3792C251.067 31.9112 251.139 31.4102 251.139 30.8786V29.032H251.095C250.716 29.6475 250.182 30.1232 249.491 30.4589C248.799 30.7946 248.094 30.9625 247.379 30.9625C246.609 30.9625 245.912 30.8353 245.291 30.5835C244.668 30.3317 244.137 29.9858 243.697 29.5433C243.257 29.1032 242.913 28.5742 242.669 27.9587C242.425 27.3432 242.303 26.6768 242.303 25.9646C242.303 25.2652 242.425 24.6064 242.669 23.9909C242.913 23.3754 243.257 22.8362 243.697 22.3733C244.137 21.9104 244.668 21.5467 245.291 21.2821C245.914 21.0176 246.611 20.8828 247.379 20.8828C248.094 20.8828 248.794 21.0507 249.478 21.3864C250.165 21.7222 250.704 22.2054 251.095 22.8362H251.139V21.1372H252.566V30.8786C252.566 31.4102 252.492 31.9773 252.344 32.5801C252.197 33.1829 251.925 33.7349 251.525 34.2385C251.126 34.7421 250.584 35.1617 249.897 35.4975C249.211 35.8332 248.323 36.0011 247.232 36.0011C246.321 36.0011 245.454 35.8256 244.627 35.4771C243.801 35.1261 243.094 34.6454 242.506 34.0274L243.539 32.9362ZM243.811 25.9239C243.811 26.4428 243.895 26.9311 244.063 27.394C244.231 27.857 244.472 28.2614 244.788 28.6124C245.103 28.9634 245.492 29.2381 245.953 29.4415C246.415 29.645 246.939 29.7467 247.527 29.7467C248.074 29.7467 248.577 29.6552 249.038 29.4746C249.501 29.294 249.897 29.0346 250.236 28.6988C250.571 28.3631 250.833 27.9612 251.024 27.4907C251.212 27.0227 251.307 26.5013 251.307 25.9265C251.307 25.4076 251.212 24.9193 251.024 24.4564C250.836 23.9935 250.571 23.589 250.236 23.238C249.9 22.8896 249.501 22.6073 249.038 22.3987C248.575 22.1876 248.071 22.0833 247.527 22.0833C246.939 22.0833 246.413 22.1876 245.953 22.3987C245.49 22.6098 245.103 22.8896 244.788 23.238C244.472 23.589 244.231 23.9935 244.063 24.4564C243.895 24.9167 243.811 25.4051 243.811 25.9239Z" fill="black"/>
<path d="M265.223 25.7561C265.223 25.8553 265.223 25.9595 265.223 26.0715C265.223 26.1834 265.215 26.3029 265.202 26.4275H257.056C257.068 26.9184 257.167 27.3788 257.351 27.8137C257.531 28.2486 257.785 28.6251 258.106 28.9481C258.429 29.2711 258.805 29.5255 259.24 29.7137C259.675 29.9019 260.143 29.996 260.647 29.996C261.39 29.996 262.028 29.8256 262.567 29.4822C263.106 29.1389 263.516 28.7446 263.796 28.297L264.866 29.1363C264.279 29.879 263.63 30.4106 262.923 30.7311C262.216 31.0541 261.458 31.2143 260.644 31.2143C259.917 31.2143 259.24 31.0846 258.617 30.8252C257.994 30.5657 257.46 30.2046 257.012 29.7442C256.565 29.2813 256.211 28.737 255.952 28.1062C255.692 27.4754 255.562 26.7912 255.562 26.0486C255.562 25.3059 255.69 24.6217 255.941 23.9909C256.193 23.3601 256.544 22.8158 256.992 22.3529C257.44 21.89 257.964 21.5314 258.566 21.272C259.169 21.0125 259.818 20.8828 260.52 20.8828C261.29 20.8828 261.967 21.0125 262.557 21.272C263.145 21.5314 263.635 21.8798 264.027 22.3224C264.419 22.7624 264.716 23.2787 264.92 23.8663C265.121 24.4538 265.223 25.0846 265.223 25.7561ZM263.775 25.2932C263.735 24.3699 263.437 23.6043 262.883 22.9939C262.331 22.386 261.542 22.0808 260.52 22.0808C260.044 22.0808 259.602 22.1673 259.197 22.3428C258.79 22.5183 258.434 22.7548 258.126 23.0575C257.819 23.3576 257.574 23.701 257.391 24.085C257.208 24.4691 257.104 24.8735 257.076 25.2932H263.775Z" fill="black"/>
<path d="M268.269 22.2704C268.256 21.8507 268.233 21.4717 268.205 21.136H269.571C269.599 21.403 269.619 21.6955 269.634 22.0186C269.647 22.3416 269.655 22.6061 269.655 22.8172H269.696C269.975 22.2424 270.395 21.7769 270.955 21.4208C271.514 21.0648 272.145 20.8867 272.844 20.8867C273.025 20.8867 273.19 20.8943 273.338 20.9071C273.485 20.9223 273.635 20.9503 273.788 20.991L273.6 22.3339C273.516 22.306 273.376 22.278 273.18 22.25C272.984 22.222 272.788 22.2093 272.593 22.2093C272.214 22.2093 271.85 22.2805 271.501 22.4204C271.15 22.5603 270.848 22.7816 270.588 23.0817C270.329 23.3818 270.12 23.7684 269.958 24.2364C269.797 24.7044 269.716 25.2691 269.716 25.9253V30.9639H268.289V23.2979C268.289 23.0334 268.281 22.69 268.269 22.2704Z" fill="black"/>
<path d="M277.591 17.3588C277.591 17.6538 277.486 17.8954 277.275 18.0837C277.064 18.2719 276.835 18.366 276.583 18.366C276.332 18.366 276.1 18.2719 275.892 18.0837C275.68 17.8954 275.576 17.6538 275.576 17.3588C275.576 17.0637 275.68 16.8246 275.892 16.6339C276.103 16.4457 276.332 16.3516 276.583 16.3516C276.835 16.3516 277.067 16.4457 277.275 16.6339C277.486 16.8246 277.591 17.0637 277.591 17.3588ZM277.296 30.9637H275.869V21.1383H277.296V30.9637Z" fill="black"/>
<path d="M290.041 25.7561C290.041 25.8553 290.041 25.9595 290.041 26.0715C290.041 26.1834 290.033 26.3029 290.021 26.4275H281.874C281.887 26.9184 281.986 27.3788 282.169 27.8137C282.349 28.2486 282.604 28.6251 282.924 28.9481C283.247 29.2711 283.624 29.5255 284.059 29.7137C284.494 29.9019 284.962 29.996 285.465 29.996C286.208 29.996 286.846 29.8256 287.386 29.4822C287.925 29.1389 288.334 28.7446 288.614 28.297L289.685 29.1363C289.097 29.879 288.449 30.4106 287.742 30.7311C287.035 31.0541 286.277 31.2143 285.463 31.2143C284.735 31.2143 284.059 31.0846 283.436 30.8252C282.812 30.5657 282.278 30.2046 281.831 29.7442C281.383 29.2813 281.029 28.737 280.77 28.1062C280.511 27.4754 280.381 26.7912 280.381 26.0486C280.381 25.3059 280.508 24.6217 280.76 23.9909C281.012 23.3601 281.363 22.8158 281.81 22.3529C282.258 21.89 282.782 21.5314 283.385 21.272C283.987 21.0125 284.636 20.8828 285.338 20.8828C286.109 20.8828 286.785 21.0125 287.375 21.272C287.963 21.5314 288.454 21.8798 288.845 22.3224C289.237 22.7624 289.535 23.2787 289.738 23.8663C289.939 24.4538 290.041 25.0846 290.041 25.7561ZM288.591 25.2932C288.55 24.3699 288.253 23.6043 287.698 22.9939C287.146 22.386 286.358 22.0808 285.335 22.0808C284.86 22.0808 284.417 22.1673 284.013 22.3428C283.606 22.5183 283.25 22.7548 282.942 23.0575C282.634 23.3576 282.39 23.701 282.207 24.085C282.024 24.4691 281.92 24.8735 281.892 25.2932H288.591Z" fill="black"/>
</g>
<defs>
<clipPath id="clip0">
<rect width="290.04" height="36" fill="white"/>
</clipPath>
</defs>
</svg>
