<?xml version="1.0" encoding="UTF-8" standalone="no"?>
<!DOCTYPE svg PUBLIC "-//W3C//DTD SVG 1.1//EN" "http://www.w3.org/Graphics/SVG/1.1/DTD/svg11.dtd">
<svg version="1.1" xmlns="http://www.w3.org/2000/svg" xmlns:xlink="http://www.w3.org/1999/xlink" preserveAspectRatio="xMidYMid meet" viewBox="0 0 640 640" width="640" height="640"><defs><path d="M45.13 9.1C45.3 9.38 46.53 10.98 48.26 14.14C48.35 14.29 48.44 14.46 48.52 14.62C48.83 15.21 49.16 15.83 49.5 16.51C49.6 16.71 49.69 16.9 49.79 17.1C49.99 17.51 50.2 17.92 50.4 18.36C50.55 18.69 50.71 19.02 50.86 19.37C51.12 19.94 51.39 20.55 51.65 21.18C51.81 21.56 51.97 21.95 52.13 22.34C52.24 22.6 52.35 22.87 52.46 23.14C52.89 24.24 53.33 25.39 53.78 26.63C53.88 26.94 54 27.25 54.1 27.56C54.16 27.72 54.22 27.88 54.27 28.04C54.49 28.69 54.71 29.35 54.93 30.03C55.26 31.04 55.59 32.11 55.91 33.21C56.02 33.57 56.12 33.95 56.23 34.33C56.28 34.51 56.33 34.7 56.39 34.89C56.65 35.84 56.92 36.82 57.18 37.84C57.23 38.04 57.28 38.25 57.33 38.45C58.87 44.59 60.25 51.82 61.24 60.22C61.31 60.83 61.34 61.42 61.34 62.01C61.33 63.2 61.17 64.34 60.87 65.41C60.83 65.56 60.78 65.71 60.74 65.85C60.7 65.97 60.66 66.09 60.61 66.2C60.57 66.34 60.52 66.48 60.46 66.62C60.36 66.87 60.26 67.12 60.14 67.36C60.03 67.6 59.91 67.85 59.78 68.08C59.68 68.27 59.56 68.46 59.46 68.64C59.4 68.73 59.34 68.83 59.27 68.92C59.08 69.23 58.86 69.55 58.63 69.84C58.55 69.95 58.47 70.06 58.38 70.15C58.28 70.28 58.17 70.41 58.06 70.54C57.99 70.63 57.91 70.71 57.84 70.8C58.17 70.42 58.49 70.03 58.79 69.64C52.02 75.19 41.37 77.94 30.73 77.94C20.03 77.94 9.35 75.17 2.62 69.64C2.59 69.6 2.56 69.56 2.53 69.52C2.5 69.48 2.47 69.43 2.44 69.39C2.3 69.19 2.16 68.99 2.03 68.78C1.96 68.67 1.9 68.56 1.84 68.46C1.79 68.38 1.75 68.3 1.71 68.24C1.64 68.11 1.56 67.98 1.49 67.85C1.41 67.69 1.33 67.52 1.26 67.36C1.14 67.12 1.04 66.87 0.94 66.62C0.88 66.48 0.83 66.34 0.78 66.2C0.76 66.15 0.75 66.1 0.73 66.05C0.69 65.92 0.64 65.79 0.6 65.65C0.55 65.46 0.49 65.27 0.44 65.07C0.37 64.8 0.32 64.54 0.27 64.26C0.14 63.54 0.07 62.78 0.06 62.01C0.06 61.42 0.09 60.83 0.16 60.22C0.59 56.58 1.09 53.16 1.64 49.95C1.69 49.7 1.74 49.46 1.77 49.21C1.9 48.48 2.04 47.76 2.18 47.05C2.22 46.82 2.27 46.58 2.31 46.34C2.86 43.54 3.45 40.91 4.07 38.45C4.12 38.25 4.17 38.04 4.22 37.84C4.39 37.17 4.56 36.53 4.74 35.9C4.83 35.55 4.92 35.23 5.01 34.89C5.06 34.7 5.12 34.51 5.17 34.33C5.28 33.95 5.38 33.57 5.49 33.21C5.81 32.11 6.14 31.04 6.47 30.03C6.58 29.69 6.69 29.35 6.8 29.03C6.87 28.81 6.94 28.62 7.01 28.41C7.1 28.13 7.2 27.85 7.3 27.56C7.4 27.25 7.52 26.94 7.62 26.63C7.84 26.01 8.06 25.42 8.28 24.83C8.44 24.4 8.61 23.97 8.77 23.56C8.83 23.41 8.89 23.28 8.94 23.14C9.05 22.87 9.15 22.6 9.27 22.34C9.37 22.07 9.48 21.82 9.59 21.56C9.69 21.31 9.8 21.05 9.91 20.8C10.01 20.56 10.12 20.32 10.23 20.07C10.28 19.96 10.33 19.84 10.38 19.72C10.49 19.49 10.59 19.26 10.69 19.03C10.9 18.57 11.1 18.14 11.31 17.72C11.41 17.51 11.51 17.3 11.61 17.1C11.95 16.39 12.28 15.74 12.6 15.13C12.69 14.96 12.79 14.79 12.88 14.62C13.01 14.38 13.14 14.13 13.27 13.9C13.44 13.6 13.6 13.3 13.76 13.03C14.4 11.92 14.95 11.06 15.37 10.42C15.5 10.22 15.63 10.04 15.72 9.89C15.75 9.86 15.77 9.83 15.79 9.8C15.83 9.75 15.87 9.69 15.9 9.64C15.92 9.61 15.94 9.59 15.95 9.56C16.12 9.33 16.23 9.17 16.27 9.1C20.59 3.26 25.65 0.62 30.59 0.62C30.6 0.62 30.63 0.62 30.7 0.62C37.67 2.69 42.48 5.52 45.13 9.1ZM57.15 71.52C57.17 71.5 57.2 71.46 57.23 71.44C57.22 71.45 57.21 71.46 57.2 71.46C57.19 71.48 57.16 71.5 57.15 71.52ZM56.89 71.76C56.93 71.73 56.97 71.7 57 71.66C57.05 71.62 57.1 71.56 57.15 71.52C57.07 71.6 56.98 71.69 56.89 71.76ZM56.43 72.19C56.59 72.05 56.74 71.91 56.89 71.76C56.82 71.83 56.76 71.89 56.69 71.95C56.6 72.04 56.52 72.11 56.43 72.19ZM55.58 72.9C55.63 72.87 55.66 72.83 55.71 72.79C55.81 72.71 55.9 72.64 56 72.55C56.14 72.44 56.29 72.32 56.43 72.19C56.15 72.43 55.87 72.67 55.58 72.9ZM54.42 73.75C54.49 73.7 54.56 73.65 54.63 73.6C54.66 73.58 54.69 73.56 54.71 73.54C54.62 73.61 54.52 73.68 54.42 73.75ZM54.29 73.83C54.33 73.8 54.38 73.77 54.42 73.75C54.41 73.76 54.4 73.76 54.39 73.77C54.36 73.79 54.32 73.82 54.29 73.83ZM53.75 74.19C53.83 74.14 53.91 74.09 53.98 74.04C54.08 73.97 54.19 73.9 54.29 73.83C54.11 73.95 53.94 74.08 53.75 74.19ZM51.1 75.67C51.12 75.65 51.13 75.65 51.15 75.64C51.29 75.57 51.44 75.49 51.58 75.42C51.66 75.38 51.74 75.34 51.82 75.29C51.94 75.23 52.06 75.17 52.18 75.1C52.31 75.04 52.43 74.97 52.56 74.9C52.92 74.69 53.27 74.49 53.62 74.27C53.62 74.27 53.63 74.27 53.63 74.27C52.83 74.76 51.99 75.23 51.1 75.67ZM49.98 76.18C49.92 76.2 49.88 76.22 49.82 76.25C50.11 76.12 50.37 76 50.65 75.88C50.62 75.89 50.59 75.9 50.57 75.91C50.37 76 50.17 76.09 49.98 76.18ZM48.86 76.65C49.06 76.57 49.26 76.48 49.46 76.4C49.58 76.35 49.7 76.3 49.82 76.25C49.5 76.38 49.18 76.52 48.86 76.65ZM48.16 76.92C48.39 76.83 48.63 76.74 48.86 76.65C48.83 76.66 48.79 76.67 48.76 76.69C48.56 76.76 48.35 76.84 48.16 76.92ZM46.92 77.35C47.01 77.33 47.09 77.3 47.17 77.27C47.5 77.15 47.83 77.04 48.16 76.92C47.75 77.07 47.33 77.21 46.92 77.35ZM46.57 77.47C46.69 77.43 46.81 77.39 46.92 77.35C46.9 77.36 46.87 77.37 46.85 77.37C46.76 77.4 46.66 77.43 46.57 77.47ZM44.74 78.01C44.78 78 44.82 77.99 44.86 77.98C45 77.94 45.13 77.9 45.27 77.86C45.71 77.74 46.15 77.6 46.57 77.47C45.98 77.66 45.36 77.85 44.74 78.01ZM44.44 78.1C44.54 78.07 44.64 78.04 44.74 78.01C44.67 78.04 44.59 78.05 44.52 78.07C44.49 78.08 44.46 78.09 44.44 78.1ZM43.78 78.26C43.84 78.25 43.9 78.23 43.95 78.22C43.92 78.23 43.88 78.24 43.84 78.25C43.82 78.26 43.8 78.26 43.78 78.26ZM42.96 78.46C43.07 78.43 43.18 78.41 43.29 78.38C43.24 78.39 43.2 78.4 43.15 78.42C43.08 78.43 43.02 78.45 42.96 78.46ZM42 78.67C42.15 78.64 42.3 78.61 42.45 78.57C42.62 78.54 42.79 78.5 42.96 78.46C42.64 78.53 42.32 78.61 42 78.67ZM41.52 78.77C41.68 78.74 41.84 78.71 42 78.67C41.91 78.69 41.83 78.71 41.74 78.72C41.68 78.74 41.6 78.75 41.52 78.77ZM40.99 78.87C41.04 78.86 41.08 78.85 41.13 78.84C41.1 78.85 41.07 78.86 41.04 78.86C41.02 78.87 41.01 78.87 40.99 78.87ZM39.61 79.11C39.73 79.09 39.85 79.07 39.96 79.05C40.18 79.01 40.4 78.97 40.63 78.93C40.75 78.91 40.88 78.89 40.99 78.87C40.53 78.96 40.08 79.03 39.61 79.11ZM39.54 79.12C39.57 79.12 39.59 79.11 39.61 79.11C39.6 79.11 39.6 79.11 39.6 79.11C39.58 79.11 39.56 79.12 39.54 79.12ZM37.94 79.35C38.01 79.34 38.08 79.33 38.15 79.32C38.62 79.25 39.08 79.19 39.54 79.12C39.01 79.2 38.48 79.28 37.94 79.35ZM37.52 79.4C37.66 79.38 37.8 79.36 37.94 79.35C37.88 79.35 37.84 79.36 37.79 79.37C37.69 79.38 37.6 79.39 37.52 79.4ZM31.69 79.79C31.86 79.79 32.04 79.78 32.2 79.78C32.58 79.76 32.95 79.76 33.33 79.73C33.83 79.72 34.33 79.69 34.82 79.65C34.94 79.64 35.07 79.64 35.2 79.63C35.44 79.6 35.69 79.58 35.93 79.56C36.06 79.55 36.19 79.54 36.31 79.53C36.71 79.49 37.11 79.45 37.52 79.4C35.6 79.63 33.65 79.76 31.69 79.79ZM30.7 79.8C30.41 79.8 30.1 79.8 29.8 79.79C28.65 79.77 27.49 79.72 26.33 79.64C26.42 79.64 26.5 79.65 26.58 79.65C27.07 79.69 27.57 79.72 28.07 79.73C28.65 79.76 29.23 79.78 29.8 79.79C29.8 79.79 29.8 79.79 29.8 79.79C29.86 79.8 29.9 79.8 29.95 79.8C30.2 79.8 30.45 79.8 30.7 79.8C30.95 79.8 31.2 79.8 31.45 79.8C31.53 79.8 31.61 79.79 31.69 79.79C31.36 79.8 31.03 79.8 30.7 79.8ZM23.94 79.41C24.32 79.45 24.71 79.49 25.09 79.53C25.27 79.54 25.46 79.56 25.64 79.58C25.07 79.53 24.5 79.47 23.94 79.41ZM23.44 79.35C23.38 79.34 23.32 79.33 23.26 79.32C23.32 79.33 23.38 79.34 23.44 79.35C23.44 79.35 23.44 79.35 23.44 79.35C23.61 79.36 23.77 79.38 23.94 79.41C23.83 79.39 23.73 79.38 23.61 79.37C23.56 79.36 23.5 79.35 23.44 79.35ZM23.23 79.32C23.23 79.32 23.25 79.32 23.26 79.32C23.26 79.32 23.26 79.32 23.25 79.32C23.24 79.32 23.23 79.32 23.23 79.32ZM21.73 79.09C21.82 79.11 21.92 79.13 22.01 79.14C21.96 79.13 21.9 79.13 21.85 79.12C21.81 79.11 21.77 79.1 21.73 79.09ZM21.17 79C21.27 79.03 21.37 79.04 21.46 79.06C21.44 79.05 21.41 79.05 21.38 79.04C21.31 79.03 21.25 79.02 21.17 79ZM20.36 78.86C20.28 78.84 20.2 78.83 20.13 78.81C20.42 78.87 20.73 78.93 21.03 78.98C20.93 78.97 20.83 78.94 20.72 78.93C20.6 78.9 20.48 78.88 20.36 78.86ZM19.3 78.65C19.28 78.65 19.26 78.64 19.24 78.64C19.49 78.69 19.75 78.74 20 78.79C19.88 78.77 19.77 78.74 19.65 78.72C19.53 78.7 19.42 78.68 19.3 78.65ZM16.04 77.84C16.1 77.85 16.15 77.87 16.2 77.88C16.45 77.95 16.7 78.02 16.95 78.09C17.13 78.14 17.31 78.18 17.49 78.23C17.77 78.3 18.04 78.36 18.31 78.43C18.5 78.47 18.69 78.52 18.88 78.56C19.01 78.58 19.12 78.61 19.24 78.64C18.15 78.4 17.09 78.14 16.04 77.84ZM14.36 77.31C14.92 77.5 15.47 77.68 16.04 77.84C15.54 77.69 15.04 77.54 14.55 77.37C14.49 77.36 14.43 77.34 14.36 77.31ZM13.76 77.11C13.92 77.16 14.07 77.21 14.22 77.27C14.27 77.28 14.32 77.3 14.36 77.31C14.16 77.24 13.97 77.18 13.76 77.11ZM12.22 76.52C12.72 76.73 13.23 76.92 13.76 77.11C13.39 76.97 13.01 76.83 12.64 76.69C12.5 76.64 12.36 76.57 12.22 76.52ZM11.9 76.38C11.94 76.41 11.99 76.42 12.03 76.44C12.09 76.47 12.15 76.49 12.22 76.52C12.12 76.48 12.01 76.43 11.9 76.38ZM11.13 76.05C11 76 10.87 75.93 10.75 75.88C11.02 76 11.29 76.12 11.55 76.24C11.51 76.22 11.47 76.2 11.42 76.18C11.32 76.14 11.22 76.09 11.13 76.05ZM9.73 75.38C9.87 75.45 10.01 75.52 10.15 75.59C10.35 75.69 10.55 75.78 10.75 75.88C10.41 75.71 10.07 75.55 9.73 75.38ZM8.89 74.92C9.16 75.08 9.44 75.23 9.73 75.38C9.52 75.27 9.32 75.17 9.12 75.05C9.04 75.01 8.96 74.97 8.89 74.92ZM8.24 74.56C8.44 74.67 8.64 74.78 8.84 74.9C8.86 74.91 8.87 74.91 8.89 74.92C8.67 74.81 8.45 74.68 8.24 74.56ZM7.68 74.21C7.87 74.33 8.06 74.44 8.24 74.56C8.09 74.46 7.93 74.37 7.77 74.27C7.74 74.25 7.71 74.23 7.68 74.21ZM7.45 74.06C7.48 74.08 7.5 74.09 7.52 74.11C7.58 74.14 7.63 74.18 7.68 74.21C7.61 74.16 7.53 74.11 7.45 74.06ZM5.78 72.87C6.1 73.12 6.43 73.36 6.77 73.6C6.88 73.68 7 73.76 7.11 73.84C7.18 73.88 7.24 73.92 7.3 73.96C6.77 73.61 6.26 73.25 5.78 72.87ZM4.5 71.76C4.39 71.66 4.28 71.55 4.17 71.44C4.68 71.94 5.21 72.41 5.78 72.87C5.41 72.57 5.05 72.26 4.71 71.95C4.64 71.89 4.57 71.82 4.5 71.76ZM3.78 71.03C3.88 71.14 3.99 71.25 4.1 71.37C4.12 71.39 4.15 71.42 4.17 71.44C4.04 71.3 3.91 71.17 3.78 71.03ZM3.61 70.85C3.66 70.91 3.72 70.97 3.78 71.03C3.75 71 3.72 70.97 3.69 70.94C3.66 70.91 3.63 70.88 3.61 70.85ZM2.61 69.64C2.61 69.64 2.62 69.64 2.62 69.64C2.81 69.9 3.02 70.17 3.24 70.43C3.3 70.51 3.37 70.57 3.43 70.65C3.5 70.72 3.55 70.78 3.61 70.85C3.25 70.46 2.92 70.06 2.61 69.64ZM40.42 26.82C40.42 26.82 40.43 26.82 40.44 26.81C40.47 26.8 40.51 26.79 40.57 26.77C40.59 26.77 40.6 26.76 40.62 26.76C40.75 26.71 40.95 26.65 41.19 26.57C41.24 26.56 41.3 26.54 41.35 26.53C41.28 26.54 41.22 26.57 41.16 26.59C41.16 26.59 41.16 26.59 41.17 26.59C41.47 26.59 46.48 25.2 46.58 25.13C43.83 15.71 43.73 15.87 42.22 12.36C39.27 6.63 35.43 3.39 31.5 3.39C31.36 3.39 31.22 3.39 31.08 3.4C30.95 3.39 30.83 3.39 30.7 3.38C30.69 3.38 30.55 3.38 30.53 3.38C29.52 3.4 28.5 3.62 27.5 4.07C27.32 4.16 27.15 4.24 26.96 4.33C26.79 4.43 26.61 4.53 26.44 4.64C26.38 4.67 26.32 4.71 26.26 4.75C25.85 5.02 25.44 5.31 25.04 5.66C24.98 5.71 24.92 5.76 24.86 5.81C23.19 7.28 21.57 9.44 20.07 12.36C19.84 12.88 19.65 13.32 19.47 13.72C19.43 13.8 19.4 13.89 19.36 13.97C19.33 14.05 19.29 14.13 19.26 14.22C19.21 14.32 19.17 14.41 19.13 14.51C19.08 14.63 19.03 14.74 18.98 14.86C18.97 14.88 18.89 15.07 18.88 15.09C18.87 15.14 18.85 15.18 18.84 15.21C18.82 15.27 18.79 15.34 18.76 15.4C18.75 15.43 18.73 15.47 18.72 15.52C18.68 15.62 18.63 15.72 18.6 15.83C18.58 15.88 18.57 15.92 18.55 15.97C18.52 16.03 18.5 16.1 18.47 16.17C18.44 16.26 18.41 16.36 18.37 16.45C17.8 18.03 17.1 20.35 15.69 25.13C15.69 25.13 15.71 25.14 15.73 25.14C15.76 25.15 15.82 25.17 15.88 25.19C15.89 25.2 15.92 25.2 15.93 25.2C16 25.23 16.09 25.26 16.19 25.29C16.27 25.32 16.35 25.34 16.43 25.37C17.17 25.61 18.32 25.97 19.28 26.28C19.32 26.29 19.36 26.3 19.4 26.32C19.84 26.46 20.25 26.58 20.54 26.67C20.56 26.68 20.58 26.69 20.61 26.7C20.65 26.71 20.69 26.73 20.73 26.73C20.8 26.77 20.86 26.78 20.9 26.8C20.93 26.8 20.94 26.8 20.96 26.81C20.96 26.81 20.97 26.82 20.98 26.82C23.52 22.51 27.05 20.57 30.54 20.57C34.31 20.58 38.05 22.85 40.42 26.82ZM44.3 25.59C44.35 25.58 44.39 25.56 44.44 25.55C44.39 25.56 44.35 25.58 44.3 25.59ZM44.14 25.65C44.17 25.64 44.2 25.62 44.24 25.62C44.27 25.61 44.28 25.6 44.3 25.59C44.25 25.61 44.19 25.63 44.14 25.65ZM43.55 25.84C43.47 25.86 43.39 25.88 43.31 25.91C43.23 25.94 43.15 25.96 43.07 25.99C43.02 26 42.99 26.01 42.95 26.03C42.86 26.05 42.78 26.07 42.7 26.1C42.54 26.15 42.38 26.2 42.23 26.25C42.14 26.28 42.06 26.3 41.97 26.33C42.65 26.12 43.45 25.87 44.14 25.65C44.06 25.67 43.98 25.7 43.9 25.72C43.79 25.76 43.67 25.8 43.55 25.84ZM41.62 26.44C41.64 26.44 41.65 26.43 41.68 26.42C41.77 26.39 41.87 26.36 41.97 26.33C41.85 26.37 41.73 26.41 41.62 26.44ZM41.55 26.46C41.58 26.45 41.6 26.45 41.62 26.44C41.6 26.45 41.58 26.45 41.57 26.45C41.57 26.46 41.56 26.46 41.55 26.46ZM41.35 26.53C41.4 26.51 41.46 26.49 41.52 26.48C41.47 26.49 41.42 26.51 41.37 26.52C41.36 26.52 41.36 26.52 41.35 26.53ZM41.52 26.48C41.53 26.47 41.54 26.47 41.55 26.46C41.54 26.47 41.53 26.47 41.52 26.48ZM41.78 13.39C41.79 13.42 41.8 13.43 41.81 13.45C41.8 13.43 41.79 13.41 41.78 13.39C41.78 13.39 41.78 13.39 41.78 13.39ZM41.82 13.48C41.82 13.47 41.81 13.46 41.81 13.45C41.81 13.46 41.82 13.47 41.82 13.48ZM41.69 13.19C41.69 13.17 41.68 13.16 41.68 13.14C41.68 13.17 41.69 13.18 41.7 13.2C41.7 13.19 41.7 13.2 41.69 13.19ZM41.7 13.2C41.7 13.2 41.71 13.21 41.71 13.21C41.71 13.21 41.7 13.2 41.7 13.2ZM41.54 12.83C41.53 12.81 41.52 12.81 41.52 12.79C41.53 12.81 41.53 12.82 41.54 12.84C41.54 12.84 41.54 12.83 41.54 12.83ZM38.41 7.83C38.39 7.8 38.36 7.77 38.34 7.74C38.36 7.77 38.39 7.8 38.41 7.83ZM39.06 8.66C39.16 8.8 39.26 8.94 39.36 9.08C39.15 8.77 38.93 8.48 38.71 8.19C38.77 8.28 38.84 8.38 38.91 8.47C38.97 8.53 39.01 8.6 39.06 8.66ZM38.41 7.83C38.51 7.95 38.61 8.07 38.71 8.19C38.61 8.07 38.51 7.95 38.41 7.83ZM57.84 70.8C57.64 71.02 57.43 71.24 57.23 71.44C57.43 71.23 57.64 71.02 57.84 70.8ZM54.71 73.54C55.01 73.33 55.3 73.12 55.58 72.9C55.3 73.12 55.01 73.33 54.71 73.54ZM53.63 74.27C53.67 74.24 53.71 74.21 53.75 74.19C53.71 74.21 53.67 74.24 53.63 74.27ZM50.77 75.82C50.88 75.77 50.99 75.71 51.1 75.67C50.99 75.71 50.88 75.77 50.77 75.82ZM50.77 75.82C50.73 75.84 50.68 75.86 50.65 75.88C50.68 75.86 50.73 75.84 50.77 75.82ZM44.44 78.1C44.28 78.14 44.12 78.18 43.95 78.22C44.12 78.18 44.28 78.14 44.44 78.1ZM43.78 78.26C43.62 78.3 43.45 78.34 43.29 78.38C43.45 78.34 43.62 78.3 43.78 78.26ZM41.52 78.77C41.39 78.79 41.26 78.82 41.13 78.84C41.26 78.82 41.39 78.79 41.52 78.77ZM25.64 79.58C25.87 79.6 26.1 79.62 26.33 79.64C26.1 79.62 25.87 79.6 25.64 79.58ZM23.23 79.32C22.82 79.26 22.42 79.21 22.01 79.14C22.42 79.21 22.82 79.26 23.23 79.32ZM21.73 79.09C21.64 79.09 21.55 79.07 21.46 79.06C21.55 79.07 21.64 79.09 21.73 79.09ZM21.17 79C21.12 79 21.08 78.99 21.03 78.98C21.08 78.99 21.12 79 21.17 79ZM20.13 78.81C20.08 78.81 20.04 78.8 20 78.79C20.04 78.8 20.08 78.81 20.13 78.81ZM11.65 76.28C11.73 76.32 11.82 76.35 11.9 76.38C11.82 76.35 11.73 76.32 11.65 76.28ZM11.65 76.28C11.62 76.27 11.59 76.25 11.55 76.24C11.59 76.25 11.62 76.27 11.65 76.28ZM7.3 73.96C7.36 74 7.4 74.03 7.45 74.06C7.4 74.03 7.36 74 7.3 73.96ZM59.37 55.92C58.96 52.45 58.41 50.62 58.05 50.62C57.71 50.62 57.53 52.24 57.8 55.66C58.38 63.07 54.62 72.18 42.86 75.55C42.86 75.55 56.11 73.94 59.29 64.32C59.94 62.35 59.75 59.2 59.37 55.92ZM41.36 12.41C41.35 12.4 41.34 12.37 41.33 12.36C41.34 12.37 41.35 12.4 41.36 12.41ZM41.33 12.34C41.33 12.34 41.33 12.34 41.33 12.34C41.33 12.34 41.33 12.34 41.33 12.34ZM41.32 12.33C41.32 12.33 41.32 12.32 41.31 12.32C41.32 12.32 41.32 12.33 41.32 12.33ZM41.31 12.31C41.31 12.31 41.31 12.3 41.3 12.3C41.31 12.3 41.31 12.31 41.31 12.31ZM41.3 12.3C41.3 12.3 41.3 12.29 41.3 12.29C41.3 12.29 41.3 12.3 41.3 12.3ZM41.3 12.28C41.3 12.28 41.29 12.27 41.29 12.27C41.29 12.28 41.29 12.28 41.3 12.28ZM41.29 12.27C41.29 12.27 41.28 12.26 41.28 12.26C41.28 12.26 41.29 12.27 41.29 12.27ZM41.28 12.25L41.27 12.24L41.28 12.25ZM41.27 12.23C41.27 12.23 41.27 12.23 41.27 12.22C41.27 12.22 41.27 12.23 41.27 12.23ZM41.26 12.21C41.26 12.21 41.26 12.21 41.26 12.21C41.26 12.21 41.26 12.21 41.26 12.21ZM41.25 12.2L41.25 12.19L41.25 12.2ZM41.24 12.18L41.24 12.18L41.24 12.18ZM41.23 12.18C41.23 12.17 41.23 12.17 41.23 12.16C41.23 12.17 41.23 12.17 41.23 12.18ZM41.23 12.16C41.22 12.14 41.2 12.11 41.2 12.09C41.2 12.11 41.22 12.14 41.23 12.16ZM41.2 12.09C41.19 12.08 41.19 12.08 41.19 12.08C41.19 12.08 41.19 12.08 41.2 12.09ZM41.19 12.08C40.62 10.99 40.02 10 39.38 9.11C40.02 10 40.62 10.99 41.19 12.08ZM39.38 9.11C39.38 9.11 39.38 9.11 39.38 9.11C39.38 9.11 39.38 9.11 39.38 9.11ZM39.38 9.1C39.38 9.1 39.38 9.09 39.37 9.09C39.38 9.09 39.38 9.1 39.38 9.1ZM39.37 9.08C39.37 9.08 39.36 9.08 39.36 9.08C39.36 9.08 39.37 9.08 39.37 9.08ZM38.34 7.74C38.33 7.74 38.33 7.74 38.33 7.74C38.33 7.74 38.33 7.74 38.34 7.74ZM38.33 7.73C38.33 7.73 38.33 7.72 38.33 7.72C38.33 7.72 38.33 7.73 38.33 7.73ZM45.7 25.13C45.7 25.12 45.7 25.12 45.7 25.11C45.7 25.12 45.7 25.12 45.7 25.13ZM43.27 17.13C43.26 17.12 43.26 17.12 43.26 17.11C43.26 17.12 43.26 17.12 43.27 17.13Z" id="f4nihIztL"></path><path d="M30.73 77.95C20.03 77.95 9.35 75.17 2.62 69.64C7.6 76.41 19.15 79.8 30.7 79.8C42.25 79.8 53.8 76.41 58.79 69.64C52.02 75.19 41.37 77.95 30.73 77.95Z" id="e2sdm6RfKg"></path><path d="M57.8 55.66C58.38 63.07 54.62 72.18 42.86 75.55C42.86 75.55 56.11 73.94 59.29 64.32C59.94 62.35 59.75 59.2 59.37 55.92C58.96 52.45 58.41 50.62 58.05 50.62C57.71 50.62 57.53 52.24 57.8 55.66Z" id="b3AIb44ZWY"></path><path d="M44.44 25.55C45.14 25.33 45.67 25.15 45.7 25.13C45.67 25.15 45.2 25.3 44.56 25.51C44.52 25.52 44.48 25.54 44.44 25.55ZM43.32 17.29C43.31 17.25 43.29 17.2 43.28 17.16C43.27 17.15 43.27 17.14 43.27 17.13C43.28 17.19 43.31 17.24 43.32 17.29ZM43.85 18.92C44.3 20.38 44.88 22.33 45.7 25.11C44.88 22.33 44.3 20.38 43.85 18.92C43.85 18.92 43.85 18.92 43.85 18.92ZM43.41 17.56C43.54 17.96 43.69 18.41 43.85 18.92C43.82 18.85 43.8 18.77 43.78 18.7C43.65 18.28 43.53 17.9 43.41 17.56ZM43.32 17.29C43.33 17.31 43.33 17.32 43.33 17.32C43.36 17.4 43.38 17.48 43.41 17.56C43.38 17.47 43.35 17.38 43.32 17.29ZM42.25 14.48C42.13 14.16 41.98 13.84 41.82 13.48C41.97 13.83 42.11 14.14 42.25 14.45C42.25 14.46 42.25 14.47 42.25 14.48ZM43.26 17.11C43.25 17.09 43.25 17.08 43.24 17.06C43.25 17.08 43.25 17.09 43.26 17.11ZM43.21 16.97C43.22 17 43.23 17.03 43.24 17.06C43.24 17.04 43.23 17.02 43.21 16.99C43.21 16.98 43.21 16.98 43.21 16.97ZM43.08 16.58C43.08 16.61 43.1 16.65 43.11 16.68C43.15 16.77 43.18 16.87 43.21 16.97C43.17 16.84 43.12 16.71 43.08 16.58ZM43 16.37C43 16.38 43 16.38 43 16.38C43.01 16.4 43.02 16.42 43.02 16.44C43.02 16.42 43.01 16.39 43 16.37ZM42.9 16.1C42.93 16.19 42.97 16.28 43 16.37C42.99 16.33 42.97 16.28 42.96 16.24C42.94 16.2 42.92 16.15 42.9 16.1ZM42.89 16.07C42.89 16.08 42.9 16.09 42.9 16.1C42.9 16.1 42.9 16.1 42.9 16.1C42.9 16.1 42.89 16.08 42.89 16.07ZM42.66 15.46C42.66 15.45 42.65 15.44 42.65 15.43C42.73 15.64 42.81 15.85 42.89 16.07C42.85 15.94 42.8 15.82 42.76 15.71C42.72 15.62 42.69 15.54 42.66 15.46ZM42.61 15.33C42.61 15.33 42.61 15.34 42.61 15.34C42.62 15.37 42.64 15.4 42.65 15.43C42.64 15.4 42.62 15.37 42.61 15.33ZM42.45 14.94C42.45 14.95 42.46 14.96 42.47 14.98C42.51 15.08 42.54 15.18 42.58 15.27C42.59 15.28 42.59 15.28 42.59 15.29C42.54 15.18 42.5 15.05 42.45 14.94ZM42.43 14.89C42.44 14.91 42.45 14.92 42.45 14.94C42.45 14.93 42.45 14.92 42.44 14.92C42.44 14.91 42.44 14.9 42.43 14.89ZM42.25 14.48C42.31 14.6 42.36 14.72 42.41 14.84C42.36 14.73 42.32 14.62 42.27 14.51C42.26 14.5 42.26 14.49 42.25 14.48ZM42.41 14.84C42.41 14.86 42.42 14.88 42.43 14.89C42.42 14.88 42.41 14.86 42.41 14.84ZM42.61 15.33C42.61 15.31 42.6 15.3 42.59 15.29C42.6 15.3 42.61 15.31 42.61 15.33ZM43.08 16.58C43.06 16.53 43.04 16.49 43.02 16.44C43.04 16.49 43.06 16.53 43.08 16.58ZM41.54 12.84C41.55 12.85 41.55 12.85 41.55 12.86C41.55 12.85 41.55 12.85 41.54 12.84ZM41.64 13.06C41.65 13.09 41.66 13.11 41.68 13.14C41.66 13.12 41.65 13.09 41.64 13.06ZM41.63 13.04C41.63 13.04 41.63 13.04 41.63 13.05C41.64 13.05 41.64 13.06 41.64 13.06C41.64 13.05 41.63 13.05 41.63 13.04ZM41.55 12.86C41.58 12.92 41.61 12.98 41.63 13.04C41.61 13 41.59 12.95 41.57 12.91C41.56 12.89 41.56 12.88 41.55 12.86ZM41.48 12.69C41.43 12.59 41.39 12.5 41.36 12.41C41.39 12.5 41.43 12.59 41.47 12.68C41.47 12.68 41.47 12.69 41.48 12.69ZM41.48 12.69C41.49 12.72 41.51 12.75 41.52 12.79C41.51 12.75 41.49 12.72 41.48 12.69ZM31.08 3.4C31.08 3.4 31.08 3.4 31.08 3.4C31.14 3.4 31.21 3.4 31.27 3.41C31.21 3.4 31.14 3.4 31.08 3.4ZM38.14 7.51C38.1 7.45 38.04 7.39 37.99 7.34C37.88 7.22 37.79 7.1 37.68 6.99C37.63 6.94 37.57 6.88 37.52 6.82C37.34 6.64 37.17 6.47 36.99 6.3C37.44 6.73 37.89 7.2 38.33 7.72C38.26 7.65 38.2 7.58 38.14 7.51ZM36.8 6.11C36.82 6.14 36.85 6.17 36.88 6.19C36.92 6.23 36.96 6.27 36.99 6.3C36.92 6.24 36.86 6.17 36.8 6.11ZM36.35 5.72C36.5 5.85 36.64 5.98 36.8 6.11C36.76 6.09 36.74 6.07 36.71 6.05C36.59 5.93 36.47 5.82 36.35 5.72ZM36.19 5.59C36.2 5.6 36.21 5.61 36.22 5.62C36.26 5.65 36.31 5.69 36.35 5.72C36.29 5.68 36.24 5.63 36.19 5.59ZM33.4 3.93C34.35 4.29 35.28 4.86 36.19 5.59C36.03 5.47 35.88 5.34 35.73 5.23C34.97 4.67 34.19 4.23 33.4 3.93ZM32.77 3.71C32.84 3.73 32.92 3.75 33 3.78C33.13 3.82 33.26 3.88 33.4 3.93C33.19 3.84 32.98 3.77 32.77 3.71ZM32.64 3.67C32.68 3.68 32.72 3.69 32.77 3.71C32.72 3.69 32.68 3.68 32.64 3.67C32.64 3.67 32.64 3.67 32.64 3.67ZM31.59 3.45C31.48 3.43 31.38 3.43 31.27 3.41C31.5 3.43 31.72 3.46 31.94 3.51C31.88 3.49 31.82 3.49 31.76 3.47C31.71 3.46 31.65 3.46 31.59 3.45ZM31.94 3.51C32.17 3.55 32.41 3.6 32.64 3.67C32.41 3.6 32.18 3.55 31.94 3.51ZM41.78 13.39C41.78 13.37 41.77 13.35 41.75 13.33C41.74 13.29 41.72 13.25 41.71 13.21C41.73 13.27 41.76 13.33 41.78 13.39ZM41.33 12.36C41.33 12.35 41.33 12.35 41.33 12.34C41.33 12.35 41.33 12.35 41.33 12.36ZM41.33 12.34C41.32 12.34 41.32 12.34 41.32 12.33C41.32 12.34 41.32 12.34 41.33 12.34ZM41.31 12.32L41.31 12.31L41.31 12.32ZM41.3 12.3C41.3 12.3 41.3 12.3 41.3 12.3C41.3 12.3 41.3 12.3 41.3 12.3ZM41.3 12.29C41.3 12.29 41.3 12.28 41.3 12.28C41.3 12.28 41.3 12.29 41.3 12.29ZM41.29 12.27C41.29 12.27 41.29 12.27 41.29 12.27C41.29 12.27 41.29 12.27 41.29 12.27ZM41.28 12.26C41.28 12.26 41.28 12.26 41.28 12.25C41.28 12.26 41.28 12.26 41.28 12.26ZM41.27 12.24C41.27 12.24 41.27 12.23 41.27 12.23C41.27 12.23 41.27 12.24 41.27 12.24ZM41.27 12.22C41.27 12.22 41.26 12.22 41.26 12.21C41.26 12.22 41.26 12.22 41.27 12.22ZM41.26 12.21C41.25 12.21 41.25 12.21 41.25 12.21C41.25 12.21 41.26 12.21 41.26 12.21ZM41.25 12.19C41.24 12.19 41.24 12.19 41.24 12.18C41.24 12.19 41.24 12.19 41.25 12.19ZM41.24 12.18C41.23 12.18 41.23 12.18 41.23 12.18C41.24 12.18 41.23 12.18 41.24 12.18ZM41.23 12.16C41.23 12.16 41.23 12.16 41.23 12.16C41.23 12.16 41.23 12.16 41.23 12.16ZM41.19 12.08L41.19 12.08L41.19 12.08ZM39.38 9.11C39.38 9.11 39.38 9.11 39.38 9.11C39.38 9.11 39.38 9.11 39.38 9.11ZM39.38 9.11C39.38 9.11 39.38 9.1 39.38 9.1C39.38 9.1 39.38 9.1 39.38 9.11ZM39.37 9.09C39.37 9.09 39.37 9.09 39.37 9.08C39.37 9.09 39.37 9.09 39.37 9.09ZM39.36 9.08C39.36 9.08 39.36 9.08 39.36 9.08C39.36 9.08 39.36 9.08 39.36 9.08C39.36 9.08 39.36 9.08 39.36 9.08ZM38.34 7.74C38.34 7.74 38.34 7.74 38.34 7.74C38.34 7.74 38.34 7.74 38.34 7.74ZM38.33 7.74C38.33 7.74 38.33 7.73 38.33 7.73C38.33 7.73 38.33 7.73 38.33 7.74Z" id="bk2rIUwTo"></path><path d="M31.08 3.4C31.25 3.41 31.42 3.43 31.59 3.45C31.65 3.46 31.71 3.46 31.76 3.48C32.06 3.52 32.36 3.59 32.64 3.67C32.76 3.7 32.87 3.74 33 3.78C33.92 4.09 34.84 4.58 35.73 5.23C35.89 5.36 36.06 5.49 36.22 5.62C36.39 5.76 36.55 5.89 36.71 6.05C36.76 6.09 36.83 6.14 36.88 6.19C37.09 6.4 37.31 6.6 37.52 6.82C37.57 6.88 37.63 6.94 37.68 6.99C37.79 7.1 37.88 7.22 37.99 7.34C38.04 7.4 38.1 7.45 38.15 7.51C38.2 7.58 38.26 7.65 38.33 7.72C38.33 7.73 38.33 7.73 38.33 7.73C38.33 7.73 38.33 7.73 38.33 7.74C38.33 7.74 38.33 7.74 38.34 7.74C38.34 7.74 38.34 7.74 38.34 7.74C38.69 8.16 39.03 8.6 39.36 9.08C39.36 9.08 39.36 9.08 39.36 9.08C39.36 9.08 39.36 9.08 39.36 9.08C39.37 9.08 39.37 9.08 39.37 9.08C39.37 9.09 39.37 9.09 39.37 9.09C39.38 9.09 39.38 9.1 39.38 9.1C39.38 9.1 39.38 9.11 39.38 9.11C39.38 9.11 39.38 9.11 39.38 9.11C39.38 9.11 39.39 9.11 39.39 9.11C40.02 10 40.62 10.99 41.19 12.08C41.19 12.08 41.19 12.08 41.19 12.08C41.19 12.08 41.19 12.09 41.2 12.09C41.2 12.11 41.22 12.14 41.23 12.16C41.23 12.16 41.23 12.16 41.23 12.16C41.23 12.17 41.23 12.17 41.23 12.18C41.23 12.18 41.24 12.18 41.24 12.18C41.24 12.18 41.24 12.18 41.24 12.18C41.24 12.19 41.25 12.19 41.25 12.19C41.25 12.2 41.25 12.2 41.25 12.21C41.25 12.21 41.26 12.21 41.26 12.21C41.26 12.21 41.26 12.21 41.26 12.21C41.26 12.22 41.27 12.22 41.27 12.22C41.27 12.22 41.27 12.23 41.27 12.23C41.27 12.24 41.27 12.24 41.27 12.24C41.27 12.24 41.27 12.24 41.28 12.25C41.28 12.26 41.28 12.26 41.28 12.26C41.28 12.26 41.29 12.27 41.29 12.27C41.29 12.27 41.29 12.27 41.29 12.27C41.3 12.28 41.3 12.28 41.3 12.28C41.3 12.29 41.3 12.29 41.3 12.29C41.3 12.3 41.3 12.3 41.3 12.3C41.3 12.3 41.3 12.3 41.3 12.3C41.31 12.3 41.31 12.31 41.31 12.31C41.31 12.31 41.31 12.32 41.31 12.32C41.32 12.33 41.32 12.33 41.32 12.33C41.32 12.34 41.32 12.34 41.33 12.34C41.33 12.34 41.33 12.34 41.33 12.34C41.33 12.35 41.33 12.35 41.33 12.36C41.34 12.37 41.35 12.4 41.36 12.41C41.39 12.5 41.43 12.59 41.47 12.68C41.49 12.72 41.51 12.75 41.52 12.79C41.53 12.81 41.54 12.82 41.54 12.84C41.55 12.86 41.56 12.88 41.57 12.91C41.59 12.95 41.62 13 41.63 13.05C41.65 13.08 41.66 13.11 41.68 13.14C41.68 13.17 41.7 13.19 41.71 13.21C41.72 13.25 41.74 13.29 41.75 13.33C41.77 13.35 41.78 13.37 41.78 13.39C41.8 13.42 41.81 13.45 41.82 13.48C41.97 13.83 42.11 14.14 42.25 14.45C42.25 14.47 42.26 14.49 42.27 14.51C42.33 14.65 42.38 14.78 42.44 14.92C42.45 14.94 42.46 14.95 42.47 14.98C42.51 15.08 42.54 15.18 42.58 15.27C42.59 15.29 42.61 15.31 42.61 15.34C42.63 15.37 42.64 15.41 42.66 15.46C42.69 15.54 42.72 15.62 42.76 15.71C42.8 15.84 42.85 15.97 42.9 16.1C42.92 16.15 42.93 16.2 42.96 16.24C42.97 16.29 42.99 16.33 43 16.38C43.04 16.48 43.07 16.58 43.11 16.68C43.15 16.77 43.18 16.88 43.21 16.99C43.23 17.03 43.24 17.07 43.26 17.11C43.26 17.12 43.26 17.12 43.27 17.13C43.27 17.14 43.27 17.15 43.28 17.16C43.29 17.21 43.31 17.27 43.33 17.32C43.47 17.73 43.61 18.18 43.78 18.7C43.8 18.77 43.82 18.85 43.85 18.92C44.3 20.38 44.88 22.33 45.7 25.11C45.7 25.12 45.7 25.12 45.7 25.13C45.67 25.15 45.2 25.3 44.56 25.51C44.52 25.52 44.48 25.54 44.44 25.55C43.41 25.88 42 26.32 41.16 26.58C41.16 26.59 41.17 26.59 41.17 26.59C41.47 26.59 46.49 25.2 46.59 25.13C43.83 15.71 43.73 15.87 42.22 12.36C39.27 6.64 35.43 3.39 31.5 3.39C31.36 3.39 31.22 3.39 31.08 3.4Z" id="ai1GasUZ8"></path><path d="M23.34 40.86C23.99 39.81 24.78 39.03 25.68 38.5C26.59 37.97 27.63 37.72 28.78 37.72C31.05 37.72 32.84 38.77 34.13 40.86C34.85 39.81 35.65 39.03 36.54 38.5C37.43 37.97 38.43 37.72 39.52 37.72C40.96 37.72 42.15 38.07 43.09 38.76C44.04 39.46 44.64 40.32 44.9 41.33C45.17 42.35 45.31 43.99 45.31 46.27C45.31 47.58 45.31 54.17 45.31 66.04L37.08 66.04C37.08 55.16 37.08 49.11 37.08 47.9C37.08 45.53 37.01 44.05 36.85 43.49C36.69 42.92 36.32 42.64 35.72 42.64C35.13 42.64 34.74 42.92 34.56 43.48C34.39 44.04 34.3 45.51 34.3 47.9C34.3 49.11 34.3 55.16 34.3 66.04L26.08 66.04C26.08 55.43 26.08 49.54 26.08 48.36C26.08 45.64 26.01 44.01 25.88 43.46C25.75 42.91 25.38 42.64 24.78 42.64C24.41 42.64 24.09 42.78 23.82 43.07C23.55 43.36 23.41 43.71 23.38 44.12C23.35 44.53 23.34 45.41 23.34 46.75C23.34 48.03 23.34 54.46 23.34 66.04L15.12 66.04L15.12 38.22L23.48 38.22C23.4 39.8 23.35 40.68 23.34 40.86ZM-99.42 49.23L-103.82 70.74L-110.67 70.74L-105.77 48.18L-112.59 48.18L-112.59 43.24L-99.42 43.24L-99.42 49.23ZM-83.22 56.88C-82.71 57.68 -82.45 59.55 -82.45 62.49C-82.45 64.68 -82.71 66.38 -83.21 67.59C-83.71 68.79 -84.57 69.71 -85.8 70.34C-87.03 70.97 -88.6 71.28 -90.53 71.28C-92.7 71.28 -94.42 70.92 -95.67 70.19C-96.91 69.45 -97.73 68.56 -98.13 67.5C-98.51 66.45 -98.71 64.6 -98.71 61.99C-98.71 61.85 -98.71 61.12 -98.71 59.82L-91.82 59.82C-91.82 62.5 -91.82 63.99 -91.82 64.28C-91.82 65.47 -91.75 66.23 -91.61 66.55C-91.46 66.87 -91.15 67.03 -90.66 67.03C-90.12 67.03 -89.77 66.83 -89.6 66.42C-89.43 66.01 -89.35 64.95 -89.35 63.23C-89.35 63.04 -89.35 61.52 -89.35 61.33C-89.35 60.28 -89.47 59.51 -89.7 59.02C-89.95 58.53 -90.3 58.21 -90.76 58.05C-91.23 57.91 -92.13 57.82 -93.47 57.8C-93.47 57.4 -93.47 54.2 -93.47 53.81C-91.84 53.81 -90.82 53.74 -90.43 53.62C-90.05 53.49 -89.77 53.22 -89.6 52.8C-89.43 52.38 -89.35 51.73 -89.35 50.83C-89.35 50.68 -89.35 49.46 -89.35 49.31C-89.35 48.35 -89.44 47.71 -89.64 47.4C-89.84 47.1 -90.15 46.94 -90.57 46.94C-91.05 46.94 -91.38 47.1 -91.55 47.42C-91.73 47.75 -91.82 48.44 -91.82 49.49C-91.82 49.64 -91.82 50.39 -91.82 51.75L-98.71 51.75C-98.71 50.34 -98.71 49.56 -98.71 49.4C-98.71 46.78 -98.11 45 -96.9 44.08C-95.7 43.16 -93.78 42.7 -91.16 42.7C-87.87 42.7 -85.64 43.34 -84.47 44.61C-83.3 45.89 -82.71 47.67 -82.71 49.95C-82.71 51.48 -82.92 52.6 -83.34 53.28C-83.76 53.97 -84.5 54.59 -85.56 55.15C-84.52 55.5 -83.73 56.08 -83.22 56.88ZM-64.78 61.72C-64.78 63.8 -64.89 65.32 -65.11 66.27C-65.34 67.22 -65.82 68.11 -66.53 68.94C-67.25 69.77 -68.12 70.36 -69.13 70.73C-70.14 71.08 -71.27 71.27 -72.52 71.27C-74.17 71.27 -75.54 71.08 -76.63 70.7C-77.73 70.31 -78.59 69.73 -79.24 68.92C-79.89 68.11 -80.34 67.27 -80.62 66.38C-80.89 65.49 -81.03 64.08 -81.03 62.14C-81.03 61.18 -81.03 53.51 -81.03 52.55C-81.03 50.02 -80.81 48.13 -80.38 46.88C-79.93 45.62 -79.07 44.61 -77.76 43.85C-76.46 43.09 -74.88 42.71 -73.03 42.71C-71.52 42.71 -70.16 42.98 -68.98 43.5C-67.78 44.03 -66.89 44.68 -66.3 45.43C-65.7 46.19 -65.31 47.04 -65.09 48C-64.88 48.95 -64.78 50.46 -64.78 52.55C-64.78 54.38 -64.78 60.8 -64.78 61.72ZM-71.88 47.49C-72.02 47.13 -72.36 46.94 -72.87 46.94C-73.39 46.94 -73.73 47.14 -73.89 47.53C-74.05 47.92 -74.14 48.82 -74.14 50.24C-74.14 51.58 -74.14 62.31 -74.14 63.65C-74.14 65.25 -74.06 66.22 -73.91 66.55C-73.76 66.87 -73.42 67.03 -72.91 67.03C-72.4 67.03 -72.07 66.84 -71.91 66.45C-71.75 66.07 -71.66 65.21 -71.66 63.86C-71.66 62.95 -71.66 58.41 -71.66 50.24C-71.71 48.65 -71.79 47.74 -71.88 47.49Z" id="a1hnLuWYcm"></path><path d="M271.3 31.14L261.63 78.6L246.57 78.6L257.34 28.82L242.37 28.82L242.37 17.92L271.3 17.92L271.3 31.14ZM306.89 48.02C308.02 49.78 308.58 53.91 308.58 60.41C308.58 65.24 308.03 68.98 306.93 71.64C305.83 74.31 303.93 76.33 301.24 77.72C298.53 79.1 295.08 79.8 290.85 79.8C286.05 79.8 282.29 79 279.55 77.38C276.82 75.77 275.02 73.79 274.16 71.46C273.29 69.12 272.86 65.07 272.86 59.3C272.86 58.98 272.86 57.38 272.86 54.5L288 54.5C288 60.41 288 63.7 288 64.35C288 66.98 288.16 68.65 288.47 69.36C288.79 70.07 289.48 70.43 290.55 70.43C291.73 70.43 292.5 69.98 292.88 69.08C293.25 68.18 293.44 65.83 293.44 62.03C293.44 61.61 293.44 58.25 293.44 57.83C293.44 55.51 293.17 53.81 292.66 52.74C292.13 51.66 291.35 50.96 290.32 50.62C289.3 50.28 287.32 50.09 284.37 50.04C284.37 49.16 284.37 42.11 284.37 41.23C287.96 41.23 290.19 41.1 291.04 40.81C291.89 40.54 292.5 39.95 292.88 39.02C293.25 38.1 293.44 36.65 293.44 34.67C293.44 34.33 293.44 31.63 293.44 31.3C293.44 29.17 293.22 27.78 292.78 27.1C292.34 26.42 291.67 26.09 290.74 26.09C289.69 26.09 288.97 26.45 288.59 27.15C288.2 27.87 288 29.38 288 31.71C288 32.04 288 33.7 288 36.7L272.86 36.7C272.86 33.59 272.86 31.87 272.86 31.52C272.86 25.72 274.19 21.81 276.83 19.77C279.48 17.73 283.69 16.71 289.46 16.71C296.68 16.71 301.59 18.13 304.16 20.95C306.73 23.77 308.02 27.69 308.02 32.71C308.02 36.11 307.56 38.56 306.63 40.07C305.71 41.58 304.08 42.96 301.76 44.21C304.05 44.99 305.77 46.25 306.89 48.02ZM347.43 58.69C347.43 63.29 347.18 66.64 346.68 68.74C346.18 70.84 345.14 72.8 343.57 74.62C342 76.45 340.1 77.76 337.87 78.56C335.65 79.36 333.17 79.76 330.42 79.76C326.79 79.76 323.78 79.34 321.39 78.5C318.99 77.67 317.08 76.36 315.64 74.59C314.22 72.81 313.22 70.95 312.61 68.98C312.01 67.03 311.72 63.9 311.72 59.63C311.72 57.51 311.72 40.57 311.72 38.45C311.72 32.89 312.19 28.71 313.15 25.94C314.11 23.16 316.03 20.94 318.89 19.26C321.75 17.59 325.22 16.75 329.29 16.75C332.61 16.75 335.59 17.34 338.21 18.5C340.83 19.66 342.8 21.08 344.09 22.75C345.4 24.43 346.28 26.32 346.74 28.41C347.2 30.51 347.43 33.86 347.43 38.45C347.43 42.5 347.43 56.67 347.43 58.69ZM331.82 27.31C331.51 26.5 330.78 26.09 329.63 26.09C328.51 26.09 327.76 26.52 327.4 27.38C327.04 28.24 326.85 30.24 326.85 33.36C326.85 36.32 326.85 60.01 326.85 62.97C326.85 66.49 327.02 68.62 327.36 69.34C327.7 70.06 328.43 70.43 329.56 70.43C330.68 70.43 331.41 70 331.77 69.16C332.12 68.3 332.29 66.39 332.29 63.42C332.29 61.41 332.29 51.39 332.29 33.36C332.18 29.87 332.03 27.85 331.82 27.31Z" id="b71dEnmep"></path><path d="M118.24 78.94L104.17 78.94L104.15 37.78L98.55 78.94L88.57 78.94L82.66 38.72L82.64 78.94L68.57 78.94L68.57 17.97C81.07 17.97 88.01 17.97 89.4 17.97C90.02 21.64 90.66 25.96 91.31 30.93C91.46 31.96 92.22 37.14 93.59 46.44L97.3 17.97L118.24 17.97L118.24 78.94ZM160.95 78.94L144.5 78.94L143.63 67.98L137.88 67.98L136.91 78.94L120.27 78.94L128.48 17.97L151.74 17.97L160.95 78.94ZM140.76 31.57C139.12 43.24 138.09 51.78 137.67 57.18C138.04 57.18 139.89 57.18 143.21 57.18C142.12 46.88 141.3 38.35 140.76 31.57ZM174.29 17.97C181.89 17.97 187.03 18.26 189.72 18.84C192.41 19.42 194.6 20.89 196.3 23.26C197.99 25.64 198.83 29.42 198.83 34.62C198.83 39.36 198.24 42.55 197.04 44.18C195.84 45.82 193.49 46.79 189.97 47.12C193.15 47.9 195.29 48.94 196.39 50.25C197.48 51.55 198.17 52.75 198.44 53.84C198.7 54.93 198.83 57.94 198.83 62.86C198.83 63.93 198.83 69.29 198.83 78.94L183.88 78.94C183.88 66.78 183.88 60.03 183.88 58.68C183.88 55.42 183.63 53.39 183.1 52.62C182.58 51.84 181.21 51.45 179 51.45C179 53.29 179 62.45 179 78.94L162.9 78.94L162.9 17.97C169.73 17.97 173.53 17.97 174.29 17.97ZM179 41.96C180.8 41.96 182.07 41.71 182.8 41.23C183.53 40.74 183.88 39.15 183.88 36.47C183.88 36.13 183.88 33.44 183.88 33.11C183.88 31.18 183.53 29.91 182.83 29.31C182.13 28.71 180.85 28.4 179 28.4C179 31.11 179 40.61 179 41.96ZM236.71 30.18L227.14 30.18L227.14 78.94L211.05 78.94L211.05 30.18L201.54 30.18L201.54 17.97L236.71 17.97L236.71 30.18Z" id="c47L0RRK7"></path></defs><g><g><g><use xlink:href="#f4nihIztL" opacity="1" fill="#0155ae" fill-opacity="1"></use><g><use xlink:href="#f4nihIztL" opacity="1" fill-opacity="0" stroke="#000000" stroke-width="1" stroke-opacity="0"></use></g></g><g><use xlink:href="#e2sdm6RfKg" opacity="1" fill="#ff2e17" fill-opacity="1"></use><g><use xlink:href="#e2sdm6RfKg" opacity="1" fill-opacity="0" stroke="#000000" stroke-width="1" stroke-opacity="0"></use></g></g><g><use xlink:href="#b3AIb44ZWY" opacity="1" fill="#024b98" fill-opacity="1"></use><g><use xlink:href="#b3AIb44ZWY" opacity="1" fill-opacity="0" stroke="#024b98" stroke-width="0.4" stroke-opacity="1"></use></g></g><g><use xlink:href="#bk2rIUwTo" opacity="1" fill="#c2edf4" fill-opacity="1"></use><g><use xlink:href="#bk2rIUwTo" opacity="1" fill-opacity="0" stroke="#000000" stroke-width="1" stroke-opacity="0"></use></g></g><g><use xlink:href="#ai1GasUZ8" opacity="1" fill="#ff2e17" fill-opacity="1"></use><g><use xlink:href="#ai1GasUZ8" opacity="1" fill-opacity="0" stroke="#000000" stroke-width="1" stroke-opacity="0"></use></g></g><g><use xlink:href="#a1hnLuWYcm" opacity="1" fill="#ffffff" fill-opacity="1"></use><g><use xlink:href="#a1hnLuWYcm" opacity="1" fill-opacity="0" stroke="#000000" stroke-width="1" stroke-opacity="0"></use></g></g><g><use xlink:href="#b71dEnmep" opacity="1" fill="#ffffff" fill-opacity="1"></use><g><use xlink:href="#b71dEnmep" opacity="1" fill-opacity="0" stroke="#000000" stroke-width="1" stroke-opacity="0"></use></g></g><g><use xlink:href="#c47L0RRK7" opacity="1" fill="#0155ae" fill-opacity="1"></use><g><use xlink:href="#c47L0RRK7" opacity="1" fill-opacity="0" stroke="#000000" stroke-width="1" stroke-opacity="0"></use></g></g></g></g></svg>