<?xml version="1.0" encoding="utf-8"?>
<!-- Generator: Adobe Illustrator 24.0.1, SVG Export Plug-In . SVG Version: 6.00 Build 0)  -->
<svg version="1.1" id="Layer_1" xmlns="http://www.w3.org/2000/svg" xmlns:xlink="http://www.w3.org/1999/xlink" x="0px" y="0px"
	 width="142px" height="102px" viewBox="0 0 142 102" style="enable-background:new 0 0 142 102;" xml:space="preserve">
<style type="text/css">
	.st0{fill:#FFFFFF;}
	.st1{fill:none;stroke:#004ea2;stroke-width:5.7023;stroke-linecap:round;stroke-linejoin:round;stroke-miterlimit:10;}
	.st2{fill:none;stroke:#F6A2A2;stroke-width:5.8183;stroke-linecap:round;stroke-linejoin:round;stroke-miterlimit:10;}
	.st3{fill:#004ea2;}
	.st4{fill:none;stroke:#004ea2;stroke-width:5.8183;stroke-linecap:round;stroke-linejoin:round;stroke-miterlimit:10;}
</style>
<g>
	<g>
		<g>
			<path class="st0" d="M6.6,91.5c-0.1,0.5-0.3,1.1-0.5,1.6h3.4c0.4,0,0.7,0.2,0.9,0.5c0.2,0.2,0.2,0.5,0.2,0.8v5.5
				c0,0.4-0.1,0.6-0.3,0.8c-0.3,0.3-0.6,0.4-1,0.4H1.8c-0.4,0-0.7-0.2-0.9-0.5c-0.2-0.2-0.3-0.5-0.3-0.8v-5.7c0-0.3,0.2-0.5,0.4-0.7
				c0.3-0.2,0.6-0.4,1-0.4h2c0.2-0.5,0.4-1,0.5-1.6H0.1v-1.2h10.9v1.2H6.6z M8.7,94.5c0-0.2-0.1-0.3-0.3-0.3H2.9
				c-0.1,0-0.3,0.2-0.3,0.3v1.8h6.1V94.5z M8.7,97.5H2.6v2.1c0,0.2,0.1,0.3,0.3,0.3h5.4c0.2,0,0.3-0.2,0.3-0.3V97.5z"/>
			<path class="st0" d="M18.3,94.5h0.5v6.7H17v-6.3h-0.9c0.8-1.5,1.3-3.1,1.6-4.8l1.9,0C19.3,91.7,18.9,93.2,18.3,94.5z M21.1,100.8
				h-1.9c0.3-0.7,0.8-2.1,0.9-3.1h1.7C21.7,98.9,21.4,100.1,21.1,100.8z M24.3,97v4.3h-1.9V97h-3.1v-1.1h3.1v-1.1h-1.5
				c-0.2,0-0.5-0.1-0.7-0.2c-0.2-0.2-0.4-0.4-0.4-0.6v-2.6c0-0.3,0.1-0.5,0.3-0.7c0.2-0.2,0.4-0.3,0.7-0.3H26c0.3,0,0.5,0.1,0.7,0.3
				c0.2,0.2,0.3,0.5,0.3,0.8v2.4c0,0.3-0.1,0.5-0.3,0.7c-0.2,0.2-0.5,0.3-0.9,0.3h-1.5v1.1h3.1V97H24.3z M25.1,91.7
				c0-0.1-0.1-0.2-0.2-0.2h-3c-0.1,0-0.2,0.1-0.2,0.2v1.8c0,0.1,0.1,0.2,0.2,0.2h3c0.1,0,0.2-0.1,0.2-0.2V91.7z M25.8,100.8
				c-0.4-0.8-0.8-2-0.9-3.1h1.7c0.1,0.8,0.6,2.3,1,3.1H25.8z"/>
			<path class="st0" d="M34.4,94.5h0.4v6.7h-1.7v-6.3h-0.6c0.5-1.5,1-3.1,1.2-4.7h1.7C35.2,91.7,34.9,93.1,34.4,94.5z M43.5,101.2
				H40c-0.5,0-1-0.1-1.5-0.3c-0.5-0.2-0.9-0.4-1.2-0.7c-0.1,0.3-0.3,0.6-0.5,1h-1.6c0.4-0.7,0.7-1.4,0.9-2.2c-0.5-0.8-0.8-1.6-1-2.5
				h1.1c0,0.3,0.2,0.6,0.3,0.9c0.1-0.5,0.2-1.1,0.2-1.6h-0.5c-0.3,0-0.5-0.1-0.6-0.3c-0.1-0.2-0.1-0.4,0-0.7c0.4-1,0.7-2.1,1-3.1h-1
				v-1.1h1.9c0.3,0,0.6,0.2,0.7,0.4c0.1,0.2,0.1,0.5,0,0.7c-0.3,1-0.6,2-0.9,2.9h0.2c0.3,0,0.5,0.1,0.6,0.2c0.1,0.1,0.2,0.3,0.2,0.6
				c-0.1,1.3-0.3,2.4-0.7,3.7c0.3,0.3,0.7,0.5,1.2,0.7c0.5,0.2,1,0.2,1.5,0.2h3.7L43.5,101.2z M43.4,93.7v0.8c0,0.2-0.1,0.5-0.3,0.6
				c-0.1,0.1-0.3,0.2-0.5,0.2h-1v0.7h1.9v1h-1.9v0.6h2.2v1.1h-2.2v0.9l-1.6,0v-0.9h-1.7v-1.1h1.7v-0.6h-1.4v-1h1.4v-0.7h-1.4v-1h1.4
				v-0.7h-1.8v-1h1.8V92h-1.5v-1h1.5v-0.9h1.6V91h0.9c0.3,0,0.5,0.1,0.7,0.3c0.1,0.1,0.2,0.3,0.2,0.5v0.9h0.5v1H43.4z M42.1,92.2
				c0-0.1-0.1-0.2-0.2-0.2h-0.3v0.7h0.5V92.2z M42.1,93.7h-0.5v0.7h0.3c0.1,0,0.2-0.1,0.2-0.2V93.7z"/>
			<path class="st0" d="M56.7,101.2c-0.6-0.4-1.5-1-2.1-1.5c-0.5,0.6-1.2,1.1-1.9,1.5h-3.9c1.6-0.4,3.4-1.2,4.3-2.6h-4v-1.1h4.5
				c0-0.2,0.1-0.5,0.1-0.7h1.9c0,0.2,0,0.5,0,0.7h4.6l0,1.1h-4.8c0,0.1-0.1,0.3-0.2,0.4h1.5c1.1,0.9,2.5,1.6,3.8,2.2H56.7z
				 M49.1,96.4v-1.1h4.6v-0.7H50v-1.1h3.6V93h-4.2v-1.1h6.1c0.3-0.4,0.9-1.2,1.1-1.7h2.1c-0.3,0.6-0.7,1.1-1.1,1.7h2.2V93h-4.3v0.6
				h3.7v1.1h-3.7v0.7h4.6v1.1H49.1z M51.6,91.5c-0.4-0.4-0.8-0.9-1.1-1.4h2.1c0.3,0.4,0.7,0.9,1.1,1.4H51.6z"/>
			<path class="st0" d="M67.4,100.9h-2.2c0.7-0.9,1.5-2.1,2-3.2h2.1C68.8,98.9,68.2,99.9,67.4,100.9z M74.4,97.2
				c-0.2-0.2-0.6-0.6-0.9-0.9l-0.3,0.8h-1.3v3.2c0,0.3-0.1,0.5-0.3,0.7c-0.2,0.2-0.5,0.3-0.8,0.3h-1.9l-0.4-1.1h1.2
				c0.1,0,0.2-0.1,0.2-0.2v-2.9h-3.7c-0.3,0-0.5-0.2-0.6-0.4c-0.1-0.3,0-0.6,0.3-0.7l2.8-1.4h-2.3c-0.3,0-0.5-0.2-0.6-0.5
				c-0.1-0.3,0-0.6,0.3-0.7l2.8-1.7c-1,0.1-2.5,0.1-3.3,0.1v-1.1c3.5,0,7.1-0.2,10.6-0.6v1.1c-1.3,0.1-2.9,0.3-4.1,0.4l-3.1,2h1.9
				l1.9-1.1h3L69.8,96h3.4c-0.3-0.4-0.6-0.8-0.9-1.1h2.1c0.6,0.8,1.3,1.6,2.1,2.3H74.4z M74.4,100.9c-0.7-1-1.3-2.1-1.8-3.2h2.1
				c0.6,1.1,1.2,2.2,1.9,3.2H74.4z"/>
			<path class="st0" d="M83.5,96.6h0.9c0-0.3-0.1-0.7-0.1-1h1.1c0.1,0.7,0.2,1.5,0.4,2.2h-1.2c-0.1-0.3-0.1-0.6-0.2-0.9l-0.4,0.8
				h-1.7c-0.3,0-0.5-0.2-0.6-0.4c-0.1-0.2-0.1-0.5,0.1-0.8l1.2-2.1h-0.8c-0.3,0-0.6-0.2-0.7-0.4c-0.1-0.2-0.1-0.5,0-0.7l1.7-3.2h1.6
				l-1.7,3.2h0.5l0.5-0.9h1.6L83.5,96.6z M82.8,101.2h-1.2c0.2-1,0.3-2,0.4-3h1.1C83,99.3,83,100.2,82.8,101.2z M83.4,101.2
				c-0.1-1-0.1-2-0.1-3h0.9c0,1,0.1,2,0.2,3H83.4z M84.8,101.2c-0.1-1-0.2-2-0.3-3.1h0.9c0,1,0.1,2.1,0.3,3.1H84.8z M92.3,101
				c-0.2,0.2-0.5,0.3-0.7,0.3h-1.8l-0.4-1.1H91c0.1,0,0.2-0.1,0.2-0.3v-8.2c0-0.1-0.2-0.2-0.3-0.2h-3.1c-0.2,0-0.3,0.1-0.3,0.3v9.5
				H86v-9.8c0-0.3,0.1-0.5,0.3-0.7c0.2-0.2,0.5-0.4,0.8-0.4h4.6c0.3,0,0.6,0.1,0.8,0.4c0.2,0.2,0.3,0.4,0.3,0.7v8.8
				C92.7,100.6,92.6,100.8,92.3,101z M90.4,93.7h0.5v1h-3.1v-1h1.4c0-0.1,0.1-0.3,0.1-0.4h-1.2c-0.2-0.5-0.3-1-0.4-1.4H89
				c0.1,0.4,0.2,0.9,0.4,1.3c0.1-0.4,0.2-0.8,0.3-1.2h1.2C90.8,92.5,90.6,93.1,90.4,93.7z M89.7,97v1.3c0,0.1,0.2,0.3,0.3,0.3h1
				l-0.3,1.1h-1.4c-0.3,0-0.6-0.1-0.8-0.3c-0.2-0.2-0.3-0.4-0.3-0.7V97h-0.4v-1h0.8c-0.1-0.3-0.1-0.7-0.2-0.9H90
				c0,0.2,0.2,0.7,0.2,0.9h0.7v1H89.7z"/>
			<path class="st0" d="M99.5,101.2h-1.6c0.3-0.8,0.5-1.6,0.6-2.5h1.5C99.9,99.6,99.7,100.4,99.5,101.2z M101.8,98
				c-0.2,0.2-0.4,0.2-0.7,0.2h-2c-0.3,0-0.5-0.1-0.7-0.2c-0.2-0.2-0.3-0.4-0.3-0.7v-6.1c0-0.3,0.1-0.5,0.2-0.6
				c0.1-0.2,0.4-0.3,0.6-0.3h2.1c0.3,0,0.5,0.1,0.7,0.3c0.1,0.2,0.2,0.4,0.2,0.7v6.1C102,97.6,101.9,97.8,101.8,98z M100.4,91.6
				c0-0.1,0-0.1-0.2-0.1h-0.3c-0.1,0-0.1,0.1-0.1,0.1v1h0.6V91.6z M100.4,93.6h-0.6v1.2h0.6V93.6z M100.4,95.9h-0.6v1.1
				c0,0.1,0.1,0.1,0.1,0.1h0.3c0.1,0,0.2-0.1,0.2-0.1V95.9z M100.7,101.2c-0.3-0.8-0.4-1.7-0.5-2.5h1.5c0.1,0.9,0.2,1.7,0.5,2.5
				H100.7z M108.7,99.5v0.5c0,0.4-0.1,0.7-0.2,0.9c-0.2,0.2-0.5,0.4-0.9,0.4H106l-0.3-1h1.3c0.1,0,0.2-0.1,0.2-0.2v-0.5h-3v1.7h-1.5
				v-1.7h-0.5v-1h0.5v-2c0-0.4,0.1-0.6,0.3-0.8c0.2-0.1,0.5-0.2,0.8-0.2h1.1V95h-2.6v-1h1.1v-0.6h-0.9v-1h0.9v-0.6h-1v-1h1v-0.8h1.7
				v0.8h1.2v-0.8h1.7v0.8h1.2v1h-1.2v0.6h0.9v1h-0.9V94h1.3v1h-2.6v0.5h1.1c0.3,0,0.5,0.1,0.7,0.3c0.2,0.2,0.3,0.4,0.3,0.8v2h0.6v1
				H108.7z M104.9,96.5h-0.5c-0.1,0-0.2,0.1-0.2,0.2V97h0.7V96.5z M104.9,97.9h-0.7v0.6h0.7V97.9z M106.2,91.9H105v0.6h1.2V91.9z
				 M106.2,93.4H105V94h1.2V93.4z M107.2,96.7c0-0.1-0.1-0.2-0.2-0.2h-0.4V97h0.6V96.7z M107.2,97.9h-0.6v0.6h0.6V97.9z"/>
			<path class="st0" d="M120.9,97.5v3.8H119v-3.8h-4.5v-1.2h4.5v-4.9h-4.2v-1.2h10.3v1.2h-4.2v4.9h4.5v1.2H120.9z M116.2,95.7
				c-0.5-1.2-0.9-2.4-1.2-3.6h2c0.4,1.2,0.8,2.5,1.4,3.6H116.2z M123.5,95.7h-2.1c0.6-1.2,1.1-2.4,1.4-3.6h1.9
				C124.5,93.3,124.1,94.5,123.5,95.7z"/>
			<path class="st0" d="M139.7,95.2c-0.2-0.2-0.4-0.6-0.6-0.8l-0.4,0.8h-6.9c-0.4,0-0.6-0.2-0.7-0.5c-0.1-0.3-0.1-0.5,0.1-0.8
				l3.3-3.9h2.4l-3.4,4h5.4c-0.5-0.7-0.9-1.4-1.2-2.2h2.1c0.5,1,1.2,2.3,2.1,3.3H139.7z M140.9,100.8c-0.2,0.2-0.5,0.4-0.8,0.4h-7.5
				c-0.4,0-0.7-0.2-0.9-0.4c-0.2-0.2-0.3-0.5-0.3-0.9v-2.4c0-0.3,0.1-0.5,0.3-0.7c0.2-0.3,0.6-0.4,0.9-0.4h7.4
				c0.3,0,0.6,0.1,0.9,0.3c0.2,0.2,0.4,0.5,0.4,0.8v2.7C141.2,100.3,141.1,100.6,140.9,100.8z M139.3,97.7c0-0.1-0.2-0.3-0.3-0.3
				h-5.5c-0.1,0-0.3,0.1-0.3,0.3v2c0,0.1,0.2,0.3,0.3,0.3h5.5c0.1,0,0.3-0.1,0.3-0.2V97.7z"/>
		</g>
	</g>
	<g>
		<path class="st1" d="M120.6,3.4h-14.8H101c-1.9,0-3.4,1.5-3.4,3.4v12.7c0,1.9,1.5,3.4,3.4,3.4h4.8h14.8c5.4,0,9.8-4.4,9.8-9.8
			C130.4,7.8,126,3.4,120.6,3.4z"/>
		<g>
			<path class="st2" d="M100.1,69.8c4.1,2.3,8.8,3.6,13.8,3.6c5,0,9.7-1.3,13.8-3.6"/>
		</g>
		<g>
			<g>
				<path class="st3" d="M100.6,52.8c0,2.1-1.7,3.8-3.8,3.8c-2.1,0-3.8-1.7-3.8-3.8c0-2.1,1.7-3.8,3.8-3.8
					C98.9,49,100.6,50.7,100.6,52.8z"/>
				<path class="st3" d="M134.9,52.8c0,2.1-1.7,3.8-3.8,3.8c-2.1,0-3.8-1.7-3.8-3.8c0-2.1,1.7-3.8,3.8-3.8
					C133.2,49,134.9,50.7,134.9,52.8z"/>
			</g>
		</g>
		<g>
			<line class="st4" x1="3.2" y1="35" x2="3.2" y2="68.3"/>
			<path class="st4" d="M43.7,20.8H27.5H14.1H7.7c-2.5,0-4.5,2-4.5,4.5V42c0,2.5,2,4.5,4.5,4.5h6.3h13.4h16.2
				c7.1,0,12.9-5.8,12.9-12.9C56.6,26.5,50.9,20.8,43.7,20.8z"/>
			<path class="st4" d="M43.7,46.6H27.5H14.1H7.7c-2.5,0-4.5,2-4.5,4.5v16.7c0,2.5,2,4.5,4.5,4.5h6.3h13.4h16.2
				c7.1,0,12.9-5.8,12.9-12.9C56.6,52.4,50.9,46.6,43.7,46.6z"/>
		</g>
		<g>
			<line class="st4" x1="4.8" y1="3.4" x2="55" y2="3.4"/>
			<line class="st4" x1="32.9" y1="4.5" x2="27.8" y2="11.5"/>
		</g>
		<line class="st4" x1="114" y1="32" x2="114" y2="60.5"/>
		<path class="st4" d="M78.7,5.7c0,0,0.2,9.7-1.2,15.2c-1.8,6.8-7.3,8.3-7.3,8.3"/>
		<line class="st4" x1="78.7" y1="68.3" x2="78.7" y2="34.9"/>
		<g>
			<path class="st4" d="M139.1,40.3c-7.4-3.3-16-5.2-25.1-5.2c-9.1,0-17.7,1.9-25.1,5.2"/>
		</g>
	</g>
</g>
</svg>
