<?xml version="1.0" encoding="utf-8"?>
<!-- Generator: Adobe Illustrator 24.0.1, SVG Export Plug-In . SVG Version: 6.00 Build 0)  -->
<svg version="1.1" id="Isolation_Mode" xmlns="http://www.w3.org/2000/svg" xmlns:xlink="http://www.w3.org/1999/xlink" x="0px"
	 y="0px" width="136px" height="74px" viewBox="0 0 136 74" style="enable-background:new 0 0 136 74;" xml:space="preserve">
<style type="text/css">
	.st0{fill:none;stroke:#004ea2;stroke-width:5.1277;stroke-linecap:round;stroke-linejoin:round;stroke-miterlimit:10;}
	.st1{fill:none;stroke:#F6A2A2;stroke-width:5.232;stroke-linecap:round;stroke-linejoin:round;stroke-miterlimit:10;}
	.st2{fill:#004ea2;}
	.st3{fill:none;stroke:#004ea2;stroke-width:5.232;stroke-linecap:round;stroke-linejoin:round;stroke-miterlimit:10;}
</style>
<g>
	<path class="st0" d="M115.3,3.6h-14.1h-4.6c-1.8,0-3.3,1.5-3.3,3.3V19c0,1.8,1.5,3.3,3.3,3.3h4.6h14.1c5.2,0,9.4-4.2,9.4-9.4
		C124.7,7.7,120.5,3.6,115.3,3.6z"/>
	<g>
		<path class="st1" d="M95.7,67c3.9,2.2,8.4,3.4,13.2,3.4c4.8,0,9.3-1.2,13.2-3.4"/>
	</g>
	<g>
		<g>
			<path class="st2" d="M96.2,50.8c0,2-1.6,3.6-3.6,3.6c-2,0-3.6-1.6-3.6-3.6c0-2,1.6-3.6,3.6-3.6C94.6,47.2,96.2,48.8,96.2,50.8z"
				/>
			<path class="st2" d="M129,50.8c0,2-1.6,3.6-3.6,3.6c-2,0-3.6-1.6-3.6-3.6c0-2,1.6-3.6,3.6-3.6C127.4,47.2,129,48.8,129,50.8z"/>
		</g>
	</g>
	<g>
		<line class="st3" x1="3" y1="33.8" x2="3" y2="65.6"/>
		<path class="st3" d="M41.8,20.2H26.2H13.4H7.3c-2.4,0-4.3,1.9-4.3,4.3v16c0,2.4,1.9,4.3,4.3,4.3h6.1h12.8h15.5
			c6.8,0,12.4-5.5,12.4-12.4C54.1,25.7,48.6,20.2,41.8,20.2z"/>
		<path class="st3" d="M41.8,44.9H26.2H13.4H7.3c-2.4,0-4.3,1.9-4.3,4.3v16c0,2.4,1.9,4.3,4.3,4.3h6.1h12.8h15.5
			c6.8,0,12.4-5.5,12.4-12.3C54.1,50.4,48.6,44.9,41.8,44.9z"/>
	</g>
	<g>
		<line class="st3" x1="4.6" y1="3.6" x2="52.6" y2="3.6"/>
		<line class="st3" x1="31.4" y1="4.6" x2="26.6" y2="11.4"/>
	</g>
	<line class="st3" x1="109" y1="30.9" x2="109" y2="58.2"/>
	<path class="st3" d="M75.3,5.7c0,0,0.2,9.3-1.2,14.6c-1.7,6.5-6.9,7.9-6.9,7.9"/>
	<line class="st3" x1="75.3" y1="65.6" x2="75.3" y2="33.7"/>
	<g>
		<path class="st3" d="M133,38.8c-7.1-3.1-15.3-4.9-24-4.9c-8.7,0-16.9,1.8-24,4.9"/>
	</g>
</g>
</svg>
