<?xml version="1.0" encoding="utf-8"?>
<!-- Generator: Adobe Illustrator 25.3.1, SVG Export Plug-In . SVG Version: 6.00 Build 0)  -->
<svg version="1.1" id="Layer_1" xmlns="http://www.w3.org/2000/svg" xmlns:xlink="http://www.w3.org/1999/xlink" x="0px" y="0px"
	 viewBox="0 0 604 70" style="enable-background:new 0 0 604 70;" xml:space="preserve">
<style type="text/css">
	.st0{fill:#231F20;}
	.st1{fill:#AB0A3D;}
</style>
<g>
	<path class="st0" d="M25.6,19.4l0,11.1h-1c0,0-0.3-6.1-5.4-8.7c-5.1-2.6-10.9-1.2-12.6,2.1c-1.1,2.1-1.2,5.3,1.9,8
		c1.2,1.1,3,1.9,5.3,2.9c4.2,1.9,7.6,2.9,9.8,4.8c2,1.8,3.8,4.4,3.6,8.1c-0.4,7.5-7.7,10.6-13.6,10.6c-1.3,0-2.5-0.2-2.9-0.2l0.2-1
		c0,0,1.7,0.3,2.8,0.2c2-0.1,6.8-1,8.1-5.1c1.3-4.1-2.3-6.9-3-7.4c-1.1-0.8-2.9-1.6-7.9-3.6s-9.1-4.8-9.5-10c0,0-0.2-3.4,1.9-6.5
		c2.7-4,6.1-5.3,10.3-5.3c5.8,0,6.7,2.2,9.1,1.9c1.2-0.1,2.1-1,2.5-1.9H25.6z"/>
	<circle class="st1" cx="4.9" cy="50.8" r="4.6"/>
	<path class="st0" d="M56.9,21.5c-1-0.5-2.5-1-4.3-0.9c-5.1,0.4-8.3,6.2-9.5,10.9c-1.1,4.6-1.4,9.4-0.1,14.4
		c1.7,6.4,5.5,11.3,9.8,11.2c3.9,0,6.9-1.7,8.9-3.4l0.6,0.8c-3.3,3-8,3.8-9.5,3.8c-1.4,0-6.8,0.4-12.2-4.7
		c-5.2-4.8-6.1-11.6-6.1-14.6c0-2.7,0.3-7.5,4.2-12.9s9.7-6.7,12.1-6.8c2.5-0.1,5.4,0,9.2,2.2c3,1.8,4.7,4.1,5.3,4.8
		c0.5,0.7,0.8,1.7,0.8,2.6c0,2.2-1.8,4.5-4.6,4.5c-2.3,0-4.5-1.9-4.5-4.5c0-1.7,0.9-2.8,1.2-3.1c0.5-0.5,1-1.3,0.7-2.4
		C58.7,22.3,57.3,21.7,56.9,21.5z"/>
	<path class="st0" d="M115.6,57.9c1.8,0,3.6-1.4,3.6-3.7c0-4.3,0-29.5,0-30.7c0-1.8-1.4-3.6-3.6-3.6v-0.4l11,0v6.1
		c0,0,2.4-4.6,9.2-5.8c6.5-1.2,11.4,1.5,13.7,3.8c2.2,2.3,2.8,4.5,2.8,6.1c0,6.3,0,23.5,0,24.7c0,1.5,1.2,3.5,3.6,3.5v0.4h-14.6
		v-0.4c1.9,0,3.6-1.6,3.6-3.6c0-4,0-23.3,0-24.7c0-1-0.4-4.1-3.7-6.4c-3.3-2.4-7.6-2.1-10.7-0.1c-3,1.9-3.8,5.3-3.8,6.1
		c0,1.1,0,23.5,0,25.1c0,1.6,1.4,3.5,3.6,3.5v0.4h-14.6V57.9z"/>
	<path class="st0" d="M195.8,54.4c0-1.6,0-54.3,0-54.3h-11v0.4c2.2,0,3.6,1.8,3.6,3.6c0,0.7,0,19,0,19s-3.4-3-8.3-3.5
		c-4.7-0.5-8.6,1.3-10.5,2.5c-6.3,3.9-10.8,13.3-7.9,22.9c2.5,8.2,9.2,13.4,16.5,13.4c6.2,0,10.1-3.6,10.1-3.6v3.6h11v-0.4
		C197.2,57.9,195.8,56,195.8,54.4z M188.3,49.9c0,0-0.8,2.2-3,4.6c-3.9,4.3-10.6,3.8-14.3-4.2c-4.7-10.1-1.3-21.5,1.7-25.3
		c2.6-3.4,5.8-5,9.4-3.7c3.8,1.3,6.2,6.8,6.2,6.8V49.9z"/>
	<path class="st0" d="M251.1,54.3c0-1.2,0-49.2,0-50.3c0-1.8-1.4-3.6-3.6-3.6V0h10.9c0,0,0,53.7,0,54.4c0,1.7,1.5,3.5,3.6,3.5v0.4
		h-14.5v-0.4C249.5,57.9,251.1,56.2,251.1,54.3z"/>
	<path class="st0" d="M303.6,38.6c0,0,0.1-6.4-3.8-11.9c-3.6-4.9-8.7-7.3-13.3-7.3c-5.4,0-9.4,2-13.1,6.2
		c-3.8,4.3-4.7,10.3-4.6,12.2c0,1.9-0.4,9.7,6.3,16c6.2,5.8,13.3,5,17.8,3l-0.4-0.9c0,0-6.5,3.5-10.6-0.9
		c-4.2-4.4-5.2-12.3-5.2-16.5H303.6z M278.5,28.1c1.5-4.2,4.8-7.7,8-7.6c3,0.1,5.5,2.3,7.4,6.4c2.3,4.9,2.3,10.7,2.3,10.7h-19.5
		C276.7,35.6,276.9,32.4,278.5,28.1z"/>
	<path class="st0" d="M108.3,57.9c-1.2,0-3.6-0.8-3.6-3.9c0-3.2,0.2-21.6,0.2-22.9s0.5-5.4-4.5-8.8c-4.9-3.4-10.8-3.2-15-2.2
		c-5.2,1.3-9.1,5.7-9.1,9c0,2.5,2,4.6,4.6,4.6c2.5,0,4.5-2,4.6-4.5c0,0,0.1-1.8-1.2-3.2c-1.5-1.5-0.8-2.6-0.2-3.2
		c0.6-0.6,2.5-2.4,5.9-2.3c3.4,0.1,5.5,2.6,6.2,3.7c0.7,1.2,1.4,2.8,1.4,4.8c0,2,0,11.1,0,11.1s-3.6-3.6-9.8-3.6
		c-7.2,0-10.6,3.1-12.4,6c-2,3.2-2.2,8,1.7,11.9c2.9,2.9,7.7,4.4,12.4,3.8c5.5-0.7,8.2-3.6,8.2-3.6l-0.1,3.8h10.9V57.9z M97.5,51.3
		c-0.5,1.3-2,3-3.7,4c-2.2,1.3-6.8,2-10.1-1.2c-3.5-3.4-3.4-7.8-2.2-10.5c1.4-3.1,5.6-6.7,10.7-4.9c4,1.4,5.3,4.6,5.3,4.6V51.3z"/>
	<path class="st0" d="M240.9,57.9c-1.2,0-3.6-0.8-3.6-3.9c0-3.2,0.2-21.6,0.2-22.9s0.5-5.4-4.5-8.8c-4.9-3.4-10.8-3.2-15-2.2
		c-5.2,1.3-9.1,5.7-9.1,9c0,2.5,2,4.6,4.6,4.6c2.5,0,4.5-2,4.6-4.5c0,0,0.1-1.8-1.2-3.2c-1.5-1.5-0.8-2.6-0.2-3.2
		c0.6-0.6,2.5-2.4,5.9-2.3c3.4,0.1,5.5,2.6,6.2,3.7c0.7,1.2,1.4,2.8,1.4,4.8c0,2,0,11.1,0,11.1s-3.6-3.6-9.8-3.6
		c-7.2,0-10.6,3.1-12.4,6c-2,3.2-2.2,8,1.7,11.9c2.9,2.9,7.7,4.4,12.4,3.8c5.5-0.7,8.2-3.6,8.2-3.6l-0.1,3.8h10.9V57.9z M230,51.3
		c-0.5,1.3-2,3-3.7,4c-2.2,1.3-6.8,2-10.1-1.2c-3.5-3.4-3.4-7.8-2.2-10.5c1.4-3.1,5.6-6.7,10.7-4.9c4,1.4,5.3,4.6,5.3,4.6V51.3z"/>
	<g>
		<path class="st0" d="M298.7,58.5H298v-4.6h-1.7v-0.7h4.1v0.7h-1.7V58.5z"/>
		<path class="st0" d="M303.9,57.3L303.9,57.3l1.6-4.1h1.2v5.3h-0.7v-4.4h0l-1.8,4.4h-0.5l-1.8-4.4h0v4.4h-0.7v-5.3h1.2L303.9,57.3z
			"/>
	</g>
	<g>
		<path class="st0" d="M354,45.1c0,0.2,0,0.5,0,0.8c0,0.3,0,0.6-0.1,0.9h-19.8c0,1.2,0.3,2.3,0.7,3.4c0.4,1.1,1.1,2,1.8,2.8
			c0.8,0.8,1.7,1.4,2.8,1.9c1.1,0.5,2.2,0.7,3.4,0.7c1.8,0,3.4-0.4,4.7-1.2c1.3-0.8,2.3-1.8,3-2.9l2.6,2c-1.4,1.8-3,3.1-4.7,3.9
			c-1.7,0.8-3.6,1.2-5.5,1.2c-1.8,0-3.4-0.3-4.9-0.9c-1.5-0.6-2.8-1.5-3.9-2.6c-1.1-1.1-1.9-2.4-2.6-4s-0.9-3.2-0.9-5
			c0-1.8,0.3-3.5,0.9-5c0.6-1.5,1.5-2.9,2.5-4c1.1-1.1,2.4-2,3.8-2.6c1.5-0.6,3-0.9,4.7-0.9c1.9,0,3.5,0.3,4.9,0.9
			c1.4,0.6,2.6,1.5,3.6,2.5c1,1.1,1.7,2.3,2.2,3.7C353.7,42,354,43.5,354,45.1z M350.5,44c-0.1-2.2-0.8-4.1-2.2-5.6
			c-1.3-1.5-3.3-2.2-5.7-2.2c-1.2,0-2.2,0.2-3.2,0.6c-1,0.4-1.9,1-2.6,1.7c-0.7,0.7-1.3,1.6-1.8,2.5c-0.4,0.9-0.7,1.9-0.8,2.9H350.5
			z M343.5,29h-3l5.1-7.3h4.6L343.5,29z"/>
		<path class="st0" d="M378.6,39.4c-0.6-0.9-1.4-1.7-2.5-2.3c-1.1-0.6-2.3-0.9-3.6-0.9c-1.4,0-2.6,0.2-3.8,0.7
			c-1.1,0.5-2.1,1.2-2.9,2c-0.8,0.9-1.4,1.9-1.8,3.1c-0.4,1.2-0.6,2.4-0.6,3.8c0,1.4,0.2,2.6,0.6,3.8c0.4,1.2,1,2.2,1.8,3
			c0.8,0.9,1.7,1.5,2.9,2c1.1,0.5,2.4,0.7,3.8,0.7c1.5,0,2.8-0.3,3.9-0.9c1.1-0.6,1.9-1.3,2.6-2.2l2.6,1.9c-1,1.3-2.3,2.3-3.7,3
			c-1.5,0.7-3.3,1.1-5.3,1.1c-1.9,0-3.7-0.3-5.2-0.9c-1.6-0.6-2.9-1.5-4-2.6c-1.1-1.1-2-2.4-2.6-4c-0.6-1.5-0.9-3.2-0.9-5
			c0-1.8,0.3-3.5,0.9-5c0.6-1.5,1.5-2.9,2.6-4c1.1-1.1,2.4-2,4-2.6c1.6-0.6,3.3-0.9,5.2-0.9c1.6,0,3.2,0.3,4.9,1
			c1.6,0.7,3,1.7,4,3.1L378.6,39.4z"/>
		<path class="st0" d="M410.6,45.8c0,1.8-0.3,3.5-0.9,5c-0.6,1.5-1.5,2.9-2.6,4c-1.1,1.1-2.5,2-4,2.6c-1.6,0.6-3.3,0.9-5.1,0.9
			c-1.8,0-3.5-0.3-5.1-0.9c-1.6-0.6-2.9-1.5-4-2.6c-1.1-1.1-2-2.4-2.6-4s-0.9-3.2-0.9-5c0-1.8,0.3-3.5,0.9-5c0.6-1.5,1.5-2.9,2.6-4
			c1.1-1.1,2.5-2,4-2.6c1.6-0.6,3.3-0.9,5.1-0.9c1.9,0,3.6,0.3,5.1,0.9c1.6,0.6,2.9,1.5,4,2.6c1.1,1.1,2,2.4,2.6,4
			C410.3,42.4,410.6,44,410.6,45.8z M406.9,45.8c0-1.3-0.2-2.6-0.6-3.7c-0.4-1.2-1-2.2-1.8-3.1c-0.8-0.9-1.7-1.6-2.9-2.1
			c-1.1-0.5-2.4-0.8-3.8-0.8s-2.6,0.3-3.7,0.8c-1.1,0.5-2,1.2-2.8,2.1c-0.8,0.9-1.4,1.9-1.8,3.1c-0.4,1.2-0.6,2.4-0.6,3.7
			c0,1.3,0.2,2.6,0.6,3.7c0.4,1.2,1,2.2,1.8,3.1c0.8,0.9,1.7,1.5,2.8,2c1.1,0.5,2.4,0.7,3.7,0.7s2.7-0.2,3.8-0.7
			c1.1-0.5,2.1-1.2,2.9-2c0.8-0.9,1.4-1.9,1.8-3.1C406.7,48.4,406.9,47.2,406.9,45.8z"/>
		<path class="st0" d="M427.3,46.9h-11.4V44h11.4V46.9z"/>
		<path class="st0" d="M437.9,57.8h-3.5V19.2h3.5V57.8z"/>
		<path class="st0" d="M451.4,24.8c0,0.7-0.3,1.3-0.8,1.8c-0.5,0.5-1.1,0.7-1.7,0.7c-0.6,0-1.2-0.2-1.7-0.7c-0.5-0.5-0.8-1-0.8-1.8
			c0-0.7,0.3-1.3,0.8-1.8c0.5-0.5,1.1-0.7,1.7-0.7c0.6,0,1.2,0.2,1.7,0.7C451.2,23.5,451.4,24,451.4,24.8z M450.7,57.8h-3.5V33.9
			h3.5V57.8z"/>
		<path class="st0" d="M463,33.9c0.1,0.6,0.1,1.4,0.2,2.1c0,0.8,0.1,1.4,0.1,1.9h0.1c0.7-1.4,1.8-2.5,3.3-3.4
			c1.5-0.9,3.1-1.3,4.8-1.3c3,0,5.3,0.9,6.8,2.7c1.5,1.8,2.3,4.2,2.3,7.1v14.6h-3.5V44.6c0-1.3-0.1-2.4-0.3-3.4
			c-0.2-1-0.6-1.9-1-2.6c-0.5-0.7-1.2-1.3-2-1.7c-0.8-0.4-1.9-0.6-3.1-0.6c-0.9,0-1.8,0.2-2.7,0.6c-0.9,0.4-1.6,0.9-2.3,1.7
			c-0.7,0.8-1.2,1.7-1.6,2.9s-0.6,2.6-0.6,4.2v12.2h-3.5V39.2c0-0.6,0-1.5-0.1-2.5c0-1-0.1-1.9-0.2-2.8H463z"/>
		<path class="st0" d="M490.8,62.6c1,1.2,2.2,2.3,3.9,3.1c1.6,0.8,3.4,1.3,5.2,1.3c1.7,0,3.1-0.2,4.3-0.7c1.2-0.5,2.1-1.2,2.9-2
			c0.7-0.8,1.3-1.8,1.6-3c0.3-1.1,0.5-2.4,0.5-3.6v-4.5h-0.1c-0.9,1.5-2.2,2.6-3.9,3.5c-1.7,0.8-3.4,1.2-5.1,1.2
			c-1.9,0-3.6-0.3-5.1-0.9c-1.5-0.6-2.8-1.5-3.9-2.5c-1.1-1.1-1.9-2.4-2.5-3.8c-0.6-1.5-0.9-3.1-0.9-4.8c0-1.7,0.3-3.3,0.9-4.8
			c0.6-1.5,1.4-2.8,2.5-3.9c1.1-1.1,2.4-2,3.9-2.6c1.5-0.6,3.2-1,5.1-1c1.7,0,3.4,0.4,5.1,1.2c1.7,0.8,3,2,3.9,3.5h0.1v-4.1h3.5
			v23.6c0,1.3-0.2,2.7-0.5,4.1c-0.4,1.5-1,2.8-2,4c-1,1.2-2.3,2.2-3.9,3.1c-1.7,0.8-3.8,1.2-6.5,1.2c-2.2,0-4.3-0.4-6.3-1.3
			c-2-0.8-3.7-2-5.1-3.5L490.8,62.6z M491.5,45.5c0,1.3,0.2,2.4,0.6,3.6c0.4,1.1,1,2.1,1.8,3c0.8,0.8,1.7,1.5,2.8,2
			c1.1,0.5,2.4,0.7,3.8,0.7c1.3,0,2.5-0.2,3.7-0.7c1.1-0.4,2.1-1.1,2.9-1.9c0.8-0.8,1.5-1.8,1.9-2.9c0.5-1.1,0.7-2.4,0.7-3.8
			c0-1.3-0.2-2.4-0.7-3.6c-0.5-1.1-1.1-2.1-1.9-3c-0.8-0.8-1.8-1.5-2.9-2c-1.1-0.5-2.3-0.8-3.7-0.8c-1.4,0-2.7,0.3-3.8,0.8
			c-1.1,0.5-2.1,1.2-2.8,2c-0.8,0.8-1.4,1.8-1.8,3C491.7,43.1,491.5,44.3,491.5,45.5z"/>
		<path class="st0" d="M543.4,45.1c0,0.2,0,0.5,0,0.8c0,0.3,0,0.6-0.1,0.9h-19.8c0,1.2,0.3,2.3,0.7,3.4c0.4,1.1,1.1,2,1.8,2.8
			c0.8,0.8,1.7,1.4,2.8,1.9c1.1,0.5,2.2,0.7,3.4,0.7c1.8,0,3.4-0.4,4.7-1.2c1.3-0.8,2.3-1.8,3-2.9l2.6,2c-1.4,1.8-3,3.1-4.7,3.9
			c-1.7,0.8-3.6,1.2-5.5,1.2c-1.8,0-3.4-0.3-4.9-0.9c-1.5-0.6-2.8-1.5-3.9-2.6c-1.1-1.1-1.9-2.4-2.6-4c-0.6-1.5-0.9-3.2-0.9-5
			c0-1.8,0.3-3.5,0.9-5c0.6-1.5,1.5-2.9,2.5-4c1.1-1.1,2.4-2,3.8-2.6c1.5-0.6,3-0.9,4.7-0.9c1.9,0,3.5,0.3,4.9,0.9
			c1.4,0.6,2.6,1.5,3.6,2.5c1,1.1,1.7,2.3,2.2,3.7S543.4,43.5,543.4,45.1z M539.9,44c-0.1-2.2-0.8-4.1-2.2-5.6
			c-1.3-1.5-3.3-2.2-5.7-2.2c-1.2,0-2.2,0.2-3.2,0.6c-1,0.4-1.9,1-2.6,1.7c-0.7,0.7-1.3,1.6-1.8,2.5c-0.4,0.9-0.7,1.9-0.8,2.9H539.9
			z"/>
		<path class="st0" d="M550.8,36.7c0-1-0.1-1.9-0.2-2.8h3.3c0.1,0.6,0.1,1.4,0.2,2.1c0,0.8,0.1,1.4,0.1,1.9h0.1
			c0.7-1.4,1.7-2.5,3.1-3.4c1.4-0.9,2.9-1.3,4.6-1.3c0.4,0,0.8,0,1.2,0.1c0.4,0,0.7,0.1,1.1,0.2l-0.5,3.3c-0.2-0.1-0.5-0.1-1-0.2
			c-0.5-0.1-1-0.1-1.4-0.1c-0.9,0-1.8,0.2-2.7,0.5c-0.8,0.3-1.6,0.9-2.2,1.6c-0.6,0.7-1.1,1.7-1.5,2.8c-0.4,1.1-0.6,2.5-0.6,4.1
			v12.2h-3.5V39.2C550.9,38.5,550.9,37.7,550.8,36.7z"/>
		<path class="st0" d="M573.4,24.8c0,0.7-0.3,1.3-0.8,1.8s-1.1,0.7-1.7,0.7c-0.6,0-1.2-0.2-1.7-0.7c-0.5-0.5-0.8-1-0.8-1.8
			c0-0.7,0.3-1.3,0.8-1.8c0.5-0.5,1.1-0.7,1.7-0.7c0.6,0,1.2,0.2,1.7,0.7C573.2,23.5,573.4,24,573.4,24.8z M572.7,57.8h-3.5V33.9
			h3.5V57.8z"/>
		<path class="st0" d="M603.7,45.1c0,0.2,0,0.5,0,0.8c0,0.3,0,0.6-0.1,0.9h-19.8c0,1.2,0.3,2.3,0.7,3.4c0.4,1.1,1.1,2,1.8,2.8
			c0.8,0.8,1.7,1.4,2.8,1.9c1.1,0.5,2.2,0.7,3.4,0.7c1.8,0,3.4-0.4,4.7-1.2c1.3-0.8,2.3-1.8,3-2.9l2.6,2c-1.4,1.8-3,3.1-4.7,3.9
			c-1.7,0.8-3.6,1.2-5.5,1.2c-1.8,0-3.4-0.3-4.9-0.9c-1.5-0.6-2.8-1.5-3.9-2.6c-1.1-1.1-1.9-2.4-2.6-4c-0.6-1.5-0.9-3.2-0.9-5
			c0-1.8,0.3-3.5,0.9-5c0.6-1.5,1.5-2.9,2.5-4c1.1-1.1,2.4-2,3.8-2.6c1.5-0.6,3-0.9,4.7-0.9c1.9,0,3.5,0.3,4.9,0.9
			c1.4,0.6,2.6,1.5,3.6,2.5c1,1.1,1.7,2.3,2.2,3.7S603.7,43.5,603.7,45.1z M600.1,44c-0.1-2.2-0.8-4.1-2.2-5.6
			c-1.3-1.5-3.3-2.2-5.7-2.2c-1.2,0-2.2,0.2-3.2,0.6c-1,0.4-1.9,1-2.6,1.7c-0.7,0.7-1.3,1.6-1.8,2.5c-0.4,0.9-0.7,1.9-0.8,2.9H600.1
			z"/>
	</g>
</g>
</svg>
