<?xml version="1.0" encoding="utf-8"?>
<!-- Generator: Adobe Illustrator 25.2.3, SVG Export Plug-In . SVG Version: 6.00 Build 0)  -->
<svg version="1.1" id="Layer_1" xmlns="http://www.w3.org/2000/svg" xmlns:xlink="http://www.w3.org/1999/xlink" x="0px" y="0px"
	 viewBox="0 0 100 100" style="enable-background:new 0 0 100 100;" xml:space="preserve">
<g>
	<path d="M21.01,85.04c-1.43,1.43-3.76,1.43-5.2,0l-0.84-0.84c-1.43-1.43-1.43-3.76,0-5.2l28.86-29.11L14.94,21
		c-1.43-1.43-1.43-3.76,0-5.2l0.84-0.84c1.43-1.43,3.76-1.43,5.2,0L50,43.98l29.02-29.02c1.43-1.43,3.76-1.43,5.2,0l0.84,0.84
		c1.43,1.43,1.43,3.76,0,5.2L56.04,50.02L85.02,79c1.43,1.43,1.43,3.76,0,5.2l-0.84,0.84c-1.43,1.43-3.76,1.43-5.2,0L50,56.05
		L21.01,85.04z" fill="#C50A0A"/>
</g>
</svg>
