<?xml version="1.0" encoding="UTF-8"?>
<svg width="19px" height="19px" viewBox="0 0 19 19" version="1.1" xmlns="http://www.w3.org/2000/svg" xmlns:xlink="http://www.w3.org/1999/xlink">
    <!-- Generator: Sketch 52.6 (67491) - http://www.bohemiancoding.com/sketch -->
    <title>Fill 2</title>
    <desc>Created with Sketch.</desc>
    <g id="Symbols" stroke="none" stroke-width="1" fill="none" fill-rule="evenodd">
        <g id="header" transform="translate(-298.000000, -23.000000)" fill="#000000" stroke="#FFFFFF" stroke-width="0.2">
            <g id="Fill-2" transform="translate(299.000000, 24.000000)">
                <path d="M16.7412165,15.5451347 L12.9192025,11.718641 C13.3836867,11.1340342 13.755268,10.449788 14.0339566,9.66588456 C14.3126476,8.88198114 14.4519906,8.06487395 14.4519906,7.21453492 C14.4519906,6.21804929 14.259565,5.28136413 13.874706,4.40445392 C13.5031196,3.52754371 12.9888803,2.76358143 12.3319679,2.11254157 C11.6750554,1.46150426 10.9086702,0.943338162 10.0327869,0.558030523 C9.15690357,0.186005923 8.2213153,0 7.22599659,0 C6.23067533,0 5.29508706,0.186005923 4.41920375,0.558030523 C3.54332043,0.943338162 2.77693527,1.46150426 2.12002329,2.11254157 C1.46311157,2.76358143 0.948870025,3.52754371 0.577283372,4.40445392 C0.192425871,5.28136413 0,6.21804929 0,7.21453492 C0,8.22431124 0.192425871,9.1676392 0.577283372,10.0445494 C0.948870025,10.9214571 1.46311157,11.6854193 2.12002329,12.3364592 C2.77693527,12.9874991 3.54332043,13.5056652 4.41920375,13.8909728 C5.29508706,14.2629949 6.23067533,14.4490033 7.22599659,14.4490033 C8.07533474,14.4490033 8.87821759,14.309497 9.63466042,14.0304817 C10.3911033,13.7514639 11.0878182,13.3794469 11.7248231,12.9144207 L15.5468371,16.7409144 C15.639735,16.83392 15.7425829,16.9003515 15.8553858,16.940211 C15.9681887,16.9800705 16.0644015,17 16.1440294,17 C16.2236547,17 16.3198675,16.9800705 16.4326704,16.940211 C16.5454733,16.9003515 16.6483212,16.83392 16.7412165,16.7409144 C16.9137397,16.5681897 17,16.3688952 17,16.1430246 C17,15.917154 16.9137397,15.7178594 16.7412165,15.5451347 Z M1.7,7.21504313 C1.7,6.4584641 1.83961966,5.74171507 2.11886282,5.06477311 C2.41140337,4.40110868 2.80699267,3.81708897 3.30564016,3.31270124 C3.80429019,2.80831607 4.3926857,2.41675922 5.07084965,2.13801797 C5.73571212,1.84600429 6.45375755,1.7 7.22500128,1.7 C7.99624245,1.7 8.71428788,1.84600429 9.3791529,2.13801797 C10.0573143,2.41675922 10.6457098,2.80831607 11.1443598,3.31270124 C11.6430073,3.81708897 12.0385976,4.40110868 12.3311385,5.06477311 C12.6103803,5.74171507 12.75,6.4584641 12.75,7.21504313 C12.75,7.98489714 12.6103803,8.70164872 12.3311385,9.36531316 C12.051894,10.0289801 11.6529822,10.6196361 11.1343876,11.1372962 C11.1343876,11.1372962 11.1343876,11.1372962 11.1343876,11.1372962 C11.1343876,11.1372962 11.1343876,11.1372962 11.1343876,11.1372962 C10.6290893,11.6416839 10.0440154,12.0365589 9.3791529,12.3219363 C8.71428788,12.6073113 7.99624245,12.75 7.22500128,12.75 C6.45375755,12.75 5.73571212,12.6039932 5.07084965,12.3119795 C4.3926857,12.0199684 3.80429019,11.6250909 3.30564016,11.1273419 C2.80699267,10.6295904 2.41140337,10.0422551 2.11886282,9.36531316 C1.83961966,8.70164872 1.7,7.98489714 1.7,7.21504313 Z" id="Fill-1"></path>
            </g>
        </g>
    </g>
</svg>