<?xml version="1.0" encoding="UTF-8"?>
<svg width="17px" height="22px" viewBox="0 0 17 22" version="1.1" xmlns="http://www.w3.org/2000/svg" xmlns:xlink="http://www.w3.org/1999/xlink">
    <!-- Generator: Sketch 52.6 (67491) - http://www.bohemiancoding.com/sketch -->
    <title>Fill 3</title>
    <desc>Created with Sketch.</desc>
    <g id="Symbols" stroke="none" stroke-width="1" fill="none" fill-rule="evenodd">
        <g id="header" transform="translate(-338.000000, -20.000000)" fill="#000000">
            <g id="Fill-3" transform="translate(338.000000, 20.000000)">
                <path d="M12.8928571,5.5 L12.8928571,3.4375 C12.8928571,2.492182 12.5606421,1.682945 11.896204,1.009767 C11.2317686,0.33658625 10.4330411,0 9.5,0 L6.78571429,0 C5.85267314,0 5.05394571,0.33658625 4.38951029,1.009767 C3.72507214,1.682945 3.39285714,2.492182 3.39285714,3.4375 L3.39285714,5.5 L-2.48689958e-14,5.5 L-2.48689958e-14,22 L16.2857143,22 L16.2857143,5.5 L12.8928571,5.5 Z M4.75,3.4375 C4.75,2.8645815 4.94791486,2.377606 5.34375,1.9765625 C5.73958514,1.575519 6.22023629,1.375 6.78571429,1.375 L9.5,1.375 C10.065478,1.375 10.5461291,1.575519 10.9419643,1.9765625 C11.3377994,2.377606 11.5357143,2.8645815 11.5357143,3.4375 L11.5357143,5.5 L4.75,5.5 L4.75,3.4375 Z M14.9285714,20.625 L1.35714286,20.625 L1.35714286,6.875 L14.9285714,6.875 L14.9285714,20.625 Z" id="Fill-1"></path>
            </g>
        </g>
    </g>
</svg>