<?xml version="1.0" encoding="UTF-8"?>
<svg width="32px" height="21px" viewBox="0 0 32 21" version="1.1" xmlns="http://www.w3.org/2000/svg" xmlns:xlink="http://www.w3.org/1999/xlink">
    <!-- Generator: Sketch 53 (72520) - https://sketchapp.com -->
    <title>Shape</title>
    <desc>Created with Sketch.</desc>
    <g id="SP" stroke="none" stroke-width="1" fill="none" fill-rule="evenodd">
        <g id="favorite_item" transform="translate(-28.000000, -2733.000000)" fill="#000000" fill-rule="nonzero">
            <path d="M56.9770667,2739.57016 L56.5496889,2739.57016 C56.4152889,2739.57016 56.2837333,2739.58196 56.1539556,2739.59912 L56.1539556,2737.97356 C56.1539556,2735.23117 53.9349333,2733 51.2074667,2733 L36.7925333,2733 C34.0650667,2733 31.8460444,2735.23117 31.8460444,2737.97356 L31.8460444,2739.59912 C31.7162667,2739.58196 31.5847111,2739.57016 31.4503111,2739.57016 L31.0229333,2739.57016 C29.3560889,2739.57016 28,2740.93332 28,2742.60964 L28,2746.87821 C28,2748.22134 28.8721778,2749.36213 30.0764444,2749.76289 L30.0764444,2749.91769 L30.1653333,2749.91769 C30.112,2750.07785 30.0764444,2750.24623 30.0764444,2750.42427 C30.0764444,2751.31302 30.7953778,2752.03624 31.6796444,2752.03624 L33.3742222,2752.03624 L33.3742222,2753.4473 C33.3742222,2753.75261 33.6202667,2754 33.9239111,2754 C34.2275556,2754 34.4736,2753.75261 34.4736,2753.4473 L34.4736,2752.03624 L53.6188444,2752.03624 L53.6188444,2753.4473 C53.6188444,2753.75261 53.8648889,2754 54.1685333,2754 C54.4721778,2754 54.7182222,2753.75261 54.7182222,2753.4473 L54.7182222,2752.03624 L56.3214222,2752.03624 C57.2053333,2752.03624 57.9246222,2751.31338 57.9246222,2750.42427 C57.9246222,2750.24623 57.8887111,2750.07785 57.8357333,2749.91769 L57.9246222,2749.91769 L57.9246222,2749.76289 C59.1278222,2749.36213 60,2748.22134 60,2746.87821 L60,2742.60964 C60,2740.93332 58.6439111,2739.57016 56.9770667,2739.57016 Z M55.0545778,2737.97356 L55.0545778,2739.97128 C54.1596444,2740.48608 53.5512889,2741.44562 53.5296,2742.54922 L48.5646222,2742.54922 L48.5646222,2734.10504 L51.2074667,2734.10504 C53.3287111,2734.10504 55.0545778,2735.84071 55.0545778,2737.97356 Z M34.4732444,2746.87821 L34.4732444,2743.65462 L53.5267556,2743.65462 L53.5267556,2746.87821 C53.5267556,2747.61252 53.7870222,2748.28641 54.2197333,2748.81229 L33.7802667,2748.81229 C34.2129778,2748.28641 34.4732444,2747.61252 34.4732444,2746.87821 Z M40.1681778,2742.54922 L40.1681778,2734.10504 L47.8318222,2734.10504 L47.8318222,2742.54922 L40.1681778,2742.54922 Z M32.9454222,2737.97356 C32.9454222,2735.84071 34.6712889,2734.10504 36.7928889,2734.10504 L39.4357333,2734.10504 L39.4357333,2742.54922 L34.4700444,2742.54922 C34.4483556,2741.44562 33.84,2740.48573 32.9450667,2739.97128 L32.9450667,2737.97356 L32.9454222,2737.97356 Z M29.0993778,2746.87821 L29.0993778,2742.60964 C29.0993778,2741.54322 29.9623111,2740.67556 31.0229333,2740.67556 L31.4503111,2740.67556 C32.5109333,2740.67556 33.3738667,2741.54322 33.3738667,2742.60964 L33.3738667,2746.87821 C33.3738667,2747.94464 32.5109333,2748.81229 31.4503111,2748.81229 L31.0229333,2748.81229 C29.9623111,2748.81229 29.0993778,2747.94464 29.0993778,2746.87821 Z M56.3207111,2750.93085 L31.6792889,2750.93085 C31.4016,2750.93085 31.1754667,2750.70348 31.1754667,2750.42427 C31.1754667,2750.14506 31.4016,2749.91769 31.6792889,2749.91769 L56.3207111,2749.91769 C56.5984,2749.91769 56.8245333,2750.14506 56.8245333,2750.42427 C56.8245333,2750.70348 56.5984,2750.93085 56.3207111,2750.93085 Z M58.9006222,2746.87821 C58.9006222,2747.94464 58.0376889,2748.81229 56.9770667,2748.81229 L56.5496889,2748.81229 C55.4890667,2748.81229 54.6261333,2747.94464 54.6261333,2746.87821 L54.6261333,2742.60964 C54.6261333,2741.54322 55.4890667,2740.67556 56.5496889,2740.67556 L56.9770667,2740.67556 C58.0376889,2740.67556 58.9006222,2741.54322 58.9006222,2742.60964 L58.9006222,2746.87821 Z" id="Shape"></path>
        </g>
    </g>
</svg>