<?xml version="1.0" encoding="utf-8"?>
<!-- Generator: Adobe Illustrator 25.4.1, SVG Export Plug-In . SVG Version: 6.00 Build 0)  -->
<svg version="1.1" id="Layer_1" xmlns="http://www.w3.org/2000/svg" xmlns:xlink="http://www.w3.org/1999/xlink" x="0px" y="0px"
	 viewBox="0 0 80 80" style="enable-background:new 0 0 80 80;" xml:space="preserve">
<style type="text/css">
	.st0{fill:#231F20;}
</style>
<g>
	<path class="st0" d="M56.6,30.8c-2.4-7.1-9-12-16.6-12c-7.6,0-14.3,4.9-16.6,12C15.1,30.9,8.3,37.7,8.3,46
		c0,8.4,6.8,15.2,15.2,15.2h32.9c8.4,0,15.2-6.8,15.2-15.2C71.7,37.7,64.9,30.9,56.6,30.8z M56.4,58.6H23.6C16.6,58.6,11,52.9,11,46
		c0-6.9,5.6-12.6,12.6-12.6c0.2,0,0.3,0,0.5,0l0.2,0c0.6,0,1.2-0.4,1.4-1C27.4,26,33.3,21.4,40,21.4S52.6,26,54.3,32.5
		c0.2,0.6,0.7,1,1.4,1l0.2,0c0.2,0,0.3,0,0.5,0C63.4,33.4,69,39.1,69,46C69,52.9,63.4,58.6,56.4,58.6z"/>
	<path class="st0" d="M30,49.5c-0.6,0.3-1.3,0.5-2.1,0.5c-0.8,0-1.5-0.1-2.1-0.4c-0.6-0.3-1.1-0.6-1.6-1.1c-0.4-0.5-0.8-1.1-1-1.7
		c-0.2-0.7-0.4-1.4-0.4-2.2c0-0.8,0.1-1.5,0.4-2.1c0.2-0.7,0.6-1.2,1-1.7c0.5-0.5,1-0.9,1.6-1.2c0.6-0.3,1.3-0.4,2.1-0.4
		c0.6,0,1.2,0.1,1.8,0.4c0.6,0.2,1.1,0.6,1.5,1.2l2-1.6c-0.3-0.4-0.6-0.7-1.1-1c-0.4-0.3-0.9-0.5-1.3-0.7c-0.5-0.2-1-0.3-1.5-0.4
		c-0.5-0.1-1-0.1-1.5-0.1c-1.1,0-2.2,0.2-3.2,0.5c-1,0.4-1.8,0.9-2.5,1.5c-0.7,0.7-1.3,1.5-1.7,2.4c-0.4,1-0.6,2-0.6,3.2
		c0,1.2,0.2,2.2,0.6,3.2c0.4,1,0.9,1.8,1.6,2.5c0.7,0.7,1.5,1.2,2.5,1.6c1,0.4,2,0.6,3.2,0.6c1.3,0,2.4-0.2,3.3-0.7
		c0.9-0.5,1.8-1.1,2.4-1.9l-2.1-1.5C31.1,48.7,30.6,49.1,30,49.5z"/>
	<path class="st0" d="M48,38.8c-0.7-0.7-1.6-1.2-2.5-1.5c-1-0.4-2-0.5-3.2-0.5c-1.1,0-2.2,0.2-3.2,0.5c-1,0.4-1.8,0.9-2.5,1.5
		c-0.7,0.7-1.3,1.5-1.7,2.4c-0.4,1-0.6,2-0.6,3.2c0,1.2,0.2,2.2,0.6,3.2c0.4,1,0.9,1.8,1.7,2.5c0.7,0.7,1.5,1.2,2.5,1.6
		c1,0.4,2,0.6,3.2,0.6c1.2,0,2.2-0.2,3.2-0.6c1-0.4,1.8-0.9,2.5-1.6c0.7-0.7,1.3-1.5,1.7-2.5c0.4-1,0.6-2,0.6-3.2
		c0-1.2-0.2-2.3-0.6-3.2C49.2,40.3,48.7,39.5,48,38.8z M47,46.7c-0.2,0.7-0.6,1.2-1,1.7c-0.5,0.5-1,0.9-1.6,1.1
		c-0.6,0.3-1.3,0.4-2.1,0.4s-1.4-0.1-2.1-0.4c-0.6-0.3-1.2-0.7-1.6-1.1c-0.5-0.5-0.8-1.1-1-1.7c-0.2-0.7-0.4-1.4-0.4-2.2
		c0-0.8,0.1-1.5,0.4-2.1c0.2-0.7,0.6-1.2,1-1.7c0.4-0.5,1-0.9,1.6-1.2c0.6-0.3,1.3-0.4,2.1-0.4c0.8,0,1.5,0.1,2.1,0.4
		c0.6,0.3,1.2,0.7,1.6,1.2c0.4,0.5,0.8,1.1,1,1.7c0.2,0.7,0.4,1.4,0.4,2.1C47.4,45.3,47.2,46,47,46.7z"/>
	<path class="st0" d="M57.9,47.4c0.2-0.2,0.5-0.4,0.7-0.7c0.2-0.2,0.4-0.5,0.5-0.7c0.2-0.3,0.3-0.5,0.4-0.8c0.1-0.3,0.1-0.6,0.1-0.9
		c0-0.5-0.1-1-0.3-1.3c-0.2-0.4-0.5-0.7-0.8-1c-0.3-0.3-0.7-0.5-1.1-0.6c-0.4-0.1-0.9-0.2-1.3-0.2c-0.5,0-0.9,0.1-1.4,0.2
		c-0.4,0.2-0.8,0.4-1.1,0.6c-0.3,0.3-0.6,0.6-0.8,1c-0.2,0.4-0.3,0.8-0.4,1.2l1.7,0.3c0.1-0.5,0.3-0.9,0.6-1.3
		c0.3-0.3,0.7-0.5,1.2-0.5c0.5,0,0.9,0.1,1.2,0.4c0.3,0.3,0.5,0.7,0.5,1.2c0,0.4-0.1,0.8-0.3,1.1c-0.2,0.3-0.5,0.6-0.8,1l-4.1,4v1.6
		h7v-1.6h-4.8L57.9,47.4z"/>
</g>
</svg>
