<?xml version="1.0" encoding="utf-8"?>
<!-- Generator: Adobe Illustrator 25.4.1, SVG Export Plug-In . SVG Version: 6.00 Build 0)  -->
<svg version="1.1" id="Layer_1" xmlns="http://www.w3.org/2000/svg" xmlns:xlink="http://www.w3.org/1999/xlink" x="0px" y="0px"
	 viewBox="0 0 80 80" style="enable-background:new 0 0 80 80;" xml:space="preserve">
<style type="text/css">
	.st0{fill:#231F20;}
</style>
<g>
	<path d="M56.6,18.8c-2.4-6.5-9-11-16.6-11c-7.5,0-14.2,4.5-16.6,11c-8.3,0.1-15.1,6.4-15.1,14.1c0,6.1,4.2,11.5,10.5,13.4
		c0.7,0.2,1.4-0.2,1.7-0.9c0.2-0.7-0.2-1.4-0.9-1.7c-5.1-1.6-8.6-5.9-8.6-10.8c0-6.3,5.6-11.4,12.6-11.4c0.2,0,0.3,0,0.5,0l0.2,0
		c0.6,0,1.2-0.4,1.4-1c1.7-5.9,7.6-10.1,14.3-10.1s12.6,4.2,14.3,10.1c0.2,0.6,0.7,1,1.4,1l0.2,0c0.2,0,0.3,0,0.5,0
		c6.9,0,12.6,5.1,12.6,11.4c0,5.1-3.6,9.4-8.9,10.9c-0.7,0.2-1.1,0.9-0.9,1.6c0.2,0.6,0.7,1,1.3,1c0.1,0,0.2,0,0.4,0
		c6.4-1.8,10.8-7.3,10.8-13.5C71.7,25.2,64.9,18.9,56.6,18.8z"/>
	<path d="M56.5,40.3c-0.7-0.1-5.3-0.8-9.1,0.2c0.4-1.7,0.3-3.5-0.3-5.1c-1-2.9-3.3-5.2-6.5-6.7c-0.3-0.2-0.7-0.2-1.1,0
		c-3.2,1.4-5.5,3.8-6.5,6.7c-0.6,1.6-0.7,3.4-0.3,5.1c-3.8-1-8.5-0.3-9.1-0.2c-0.4,0.1-0.7,0.3-0.9,0.5c-0.2,0.3-0.3,0.6-0.2,1
		c0.8,4.6,2.6,7.9,5.5,9.9c3.1,2.1,6.4,2,7.7,1.9v14.8c0,2.1,1.7,3.8,3.8,3.8h1.1c2.1,0,3.8-1.7,3.8-3.8V53.6
		c1.3,0.1,4.6,0.2,7.7-1.9c2.9-2,4.7-5.3,5.5-9.9c0.1-0.4,0-0.7-0.2-1C57.2,40.5,56.9,40.4,56.5,40.3z M50.6,49.5
		c-2.7,1.9-5.7,1.5-6.2,1.4c-0.5-0.2-1.2-0.2-1.8,0.2c-0.3,0.2-0.8,0.7-0.8,1.7v15.5c0,0.7-0.5,1.2-1.2,1.2h-1.1
		c-0.6,0-1.2-0.5-1.2-1.2V52.8c0-1.1-0.6-1.6-0.9-1.8c-0.3-0.2-0.7-0.3-1-0.3c-0.3,0-0.6,0.1-0.8,0.1C35,51,32,51.3,29.4,49.5
		c-2-1.4-3.3-3.6-4.1-6.7c2.6-0.2,6.8-0.2,8.8,1.3c0.5,0.4,1.2,0.4,1.7,0c0.5-0.4,0.6-1.1,0.3-1.6c-1.1-2.1-1.3-4.2-0.7-6.1
		c0.7-2,2.3-3.7,4.6-4.8c2.3,1.1,3.9,2.8,4.6,4.8c0.7,1.9,0.4,4-0.7,6.1c-0.3,0.6-0.2,1.2,0.3,1.6c0.5,0.4,1.2,0.4,1.7,0
		c2-1.5,6.3-1.5,8.8-1.3C53.9,45.9,52.6,48.1,50.6,49.5z"/>
</g>
</svg>
