<?xml version="1.0" encoding="utf-8"?>
<!-- Generator: Adobe Illustrator 25.4.1, SVG Export Plug-In . SVG Version: 6.00 Build 0)  -->
<svg version="1.1" id="Layer_1" xmlns="http://www.w3.org/2000/svg" xmlns:xlink="http://www.w3.org/1999/xlink" x="0px" y="0px"
	 viewBox="0 0 80 80" style="enable-background:new 0 0 80 80;" xml:space="preserve">
<style type="text/css">
	.st0{fill:#231F20;}
</style>
<g>
	<path d="M60,26.5c-0.7-0.1-1.4,0.4-1.5,1.1l-6.7,39.9c-0.2,1.3-1.3,2.2-2.6,2.2H31.6c-1.3,0-2.4-0.9-2.6-2.2l-7.5-39.9
		c-0.1-0.7-0.8-1.2-1.6-1.1c-0.7,0.1-1.2,0.8-1.1,1.6L26.4,68c0.5,2.5,2.7,4.3,5.2,4.3h17.6c2.6,0,4.8-1.9,5.3-4.4L61.1,28
		C61.3,27.3,60.8,26.6,60,26.5z"/>
	<path d="M56.9,16.6h-8.3v-3.3c0-3.1-2.6-5.6-5.9-5.6h-5.3c-3.2,0-5.9,2.5-5.9,5.6v3.3h-8.5c-3.3,0-8.7,1.3-8.7,10
		c0,0.7,0.6,1.3,1.3,1.3c0.7,0,1.3-0.6,1.3-1.3c0-6.6,3.5-7.4,6.1-7.4h33.8c4.2,0,6.1,2.3,6.1,7.4c0,0.7,0.6,1.3,1.3,1.3
		c0.7,0,1.3-0.6,1.3-1.3C65.6,18.4,60.9,16.6,56.9,16.6z M34.3,13.3c0-1.6,1.4-3,3.2-3h5.3c1.8,0,3.2,1.3,3.2,3v3.3H34.3V13.3z"/>
	<path d="M39,54.3c2.8,0,5.7-1.1,8.4-3.8c5-5,5.2-18,5.2-18.6c0-0.4-0.1-0.7-0.4-1c-0.3-0.3-0.6-0.4-1-0.4c-0.5,0-13.3,0.2-18.5,5.4
		c-5.5,5.5-4.6,11.5-1.2,15.1c-0.4,1.1-0.7,2.2-0.7,3.4c-0.1,3,1.1,5.6,3.7,7.9c0.3,0.2,0.6,0.3,0.9,0.3c0.4,0,0.7-0.2,1-0.5
		c0.5-0.6,0.4-1.4-0.1-1.9c-2-1.7-2.9-3.6-2.8-5.7c0-0.6,0.1-1.2,0.3-1.7C35.3,53.8,37.1,54.3,39,54.3z M34.7,37.8
		c3.5-3.5,11.9-4.3,15.2-4.5c-0.2,4.2-1.3,12.2-4.4,15.3c-3.8,3.8-7.9,3.6-10.7,1.8c2.7-5.1,8.8-9.5,8.8-9.5
		c0.6-0.4,0.7-1.3,0.3-1.9c-0.4-0.6-1.3-0.7-1.9-0.3c-0.3,0.2-6.1,4.4-9.3,9.8C31.1,45.8,30.6,41.9,34.7,37.8z"/>
</g>
</svg>
