<?xml version="1.0" encoding="utf-8"?>
<!-- Generator: Adobe Illustrator 25.4.1, SVG Export Plug-In . SVG Version: 6.00 Build 0)  -->
<svg version="1.1" id="Layer_1" xmlns="http://www.w3.org/2000/svg" xmlns:xlink="http://www.w3.org/1999/xlink" x="0px" y="0px"
	 viewBox="0 0 80 80" style="enable-background:new 0 0 80 80;" xml:space="preserve">
<style type="text/css">
	.st0{fill:#231F20;}
</style>
<g>
	<path d="M59.8,43.5c-3.2-6.5-3.7-14.8-3.7-14.9c0-0.5-0.3-0.9-0.7-1.1c-0.4-0.2-0.9-0.2-1.3,0c-3,1.5-5.5,3.2-7.5,5l-6.2-12.3
		c-2.3-4.7-7.8-15.6-17.2-10.9c-4.1,2-5.9,5.6-5.2,10.4c0.5,3.7,2.4,7.5,3.6,10l6.1,12.4c-2.7,0.6-5.8,1.7-9.1,3.3
		c-0.4,0.2-0.7,0.7-0.7,1.1c0,0.5,0.2,0.9,0.7,1.2c0.1,0,6.4,3.8,10.2,11.5c2.2,4.4,5.5,7.4,9.5,8.8c1.6,0.5,3.2,0.8,4.9,0.8
		c1.1,0,2.1-0.1,3.2-0.3l0.8,1.6c0.4,0.8,1,1.4,1.6,1.8c0.5,0.3,1,0.4,1.5,0.4c0.4,0,0.7-0.1,1.1-0.2l4.7-2.3
		c1.4-0.7,1.8-2.7,0.9-4.5l-0.7-1.4C64.1,57.3,62.7,49.4,59.8,43.5z M25.8,31.8L24,28.3c-1.2-2.3-2.9-5.8-3.4-9.1
		c-0.5-3.7,0.7-6.1,3.8-7.6c6.5-3.2,10.4,3.3,13.7,9.8l6.6,13.1c-1.9,2.3-3.1,4.7-3.6,7.4c-2-0.6-5.7-1.2-10.6-0.5L25.8,31.8z
		 M39.2,65.2c-3.4-1.1-6.2-3.7-8-7.4c-2.8-5.7-6.9-9.4-9.3-11.2c9.9-4.3,16.8-2.8,19-2.1c0.1,3.7,1.6,6.7,2.3,8.1l6,12
		C45.7,66,42.3,66.3,39.2,65.2z M54.6,66.1c0.2,0.5,0.2,0.9,0.2,1l-4.5,2.2c-0.1-0.1-0.4-0.3-0.7-0.7L49,67.5
		c0.9-0.3,1.7-0.7,2.6-1.1c0.9-0.4,1.7-0.9,2.4-1.4L54.6,66.1z M51.6,63.4l-6-12c-0.7-1.5-2.2-4.3-2-7.8c0,0,0,0,0,0
		c0-0.4,0-0.7,0.1-1.1c0.6-4.5,3.9-8.4,9.9-11.8c0.3,3,1.3,8.9,3.8,13.9C61.4,52.7,59.4,59,51.6,63.4z"/>
	<path d="M28.7,20.7C28.7,20.7,28.7,20.7,28.7,20.7c-0.6-1.2-2.1-1.7-3.3-1.1c-0.6,0.3-1,0.8-1.2,1.4c-0.2,0.6-0.2,1.3,0.1,1.9
		c0.3,0.6,0.8,1,1.4,1.2c0.3,0.1,0.5,0.1,0.8,0.1c0.4,0,0.7-0.1,1.1-0.3C28.9,23.4,29.3,22,28.7,20.7z M26.5,21.6
		C26.5,21.6,26.5,21.6,26.5,21.6c0.1,0,0.1,0,0.2,0c0.1,0,0.1,0.1,0.1,0.1l-0.4,0.2C26.3,21.8,26.3,21.7,26.5,21.6z M26.6,22
		c-0.1,0.1-0.2,0-0.3-0.1l0.4-0.2c0,0.1,0,0.1,0,0.2C26.7,22,26.7,22,26.6,22z"/>
	<path d="M31.7,28.2c0.2-0.6,0.2-1.3-0.1-1.9c0,0,0,0,0,0c-0.6-1.2-2.1-1.7-3.3-1.1c-0.6,0.3-1,0.8-1.2,1.4
		c-0.2,0.6-0.2,1.3,0.1,1.9c0.3,0.6,0.8,1,1.4,1.2c0.3,0.1,0.5,0.1,0.8,0.1c0.4,0,0.7-0.1,1.1-0.3C31,29.3,31.4,28.8,31.7,28.2z
		 M29.1,27.3c0-0.1,0.1-0.1,0.1-0.1c0,0,0.1,0,0.1,0c0,0,0,0,0.1,0c0.1,0,0.1,0.1,0.1,0.1l-0.4,0.2C29.1,27.4,29.1,27.4,29.1,27.3z
		 M29.4,27.6c-0.1,0.1-0.2,0-0.3-0.1l0.4-0.2c0,0.1,0,0.1,0,0.2C29.5,27.5,29.5,27.6,29.4,27.6z"/>
	<path d="M31.1,21.5c0.3,0.1,0.5,0.1,0.8,0.1c0.4,0,0.7-0.1,1.1-0.3c0.6-0.3,1-0.8,1.2-1.4c0.2-0.6,0.2-1.3-0.1-1.9
		c-0.3-0.6-0.8-1-1.4-1.2c-0.6-0.2-1.3-0.2-1.9,0.1c-0.6,0.3-1,0.8-1.2,1.4s-0.2,1.3,0.1,1.9C30,20.9,30.5,21.3,31.1,21.5z M31.8,19
		C31.8,19,31.8,19,31.8,19c0.1,0,0.1,0,0.2,0C32,19,32,19,32,19.1c0,0.1,0,0.1,0,0.2c0,0.1-0.1,0.1-0.1,0.1c-0.1,0-0.1,0-0.2,0
		c-0.1,0-0.1-0.1-0.1-0.1c0-0.1,0-0.1,0-0.2C31.7,19.1,31.7,19,31.8,19z"/>
	<path d="M37,25.5c0.2-0.6,0.2-1.3-0.1-1.9c-0.3-0.6-0.8-1-1.4-1.2c-0.6-0.2-1.3-0.2-1.9,0.1c-0.6,0.3-1,0.8-1.2,1.4
		s-0.2,1.3,0.1,1.9c0.3,0.6,0.8,1,1.4,1.2c0.3,0.1,0.5,0.1,0.8,0.1c0.4,0,0.7-0.1,1.1-0.3C36.3,26.6,36.7,26.1,37,25.5z M34.7,24.9
		c-0.1,0-0.1,0-0.2,0c-0.1,0-0.1-0.1-0.1-0.1c0-0.1,0-0.1,0-0.2c0-0.1,0.1-0.1,0.1-0.1c0,0,0.1,0,0.1,0c0,0,0,0,0.1,0
		c0.1,0,0.1,0.1,0.1,0.1c0,0.1,0,0.1,0,0.2C34.8,24.9,34.8,24.9,34.7,24.9z"/>
	<path d="M34.3,31.8c-0.6-1.2-2.1-1.7-3.3-1.1c-0.6,0.3-1,0.8-1.2,1.4c-0.2,0.6-0.2,1.3,0.1,1.9c0.3,0.6,0.8,1,1.4,1.2
		c0.3,0.1,0.5,0.1,0.8,0.1c0.4,0,0.7-0.1,1.1-0.3C34.4,34.5,34.9,33.1,34.3,31.8C34.3,31.9,34.3,31.9,34.3,31.8z M32,32.8
		C32,32.7,32.1,32.7,32,32.8c0.1,0,0.1,0,0.2,0c0.1,0,0.1,0.1,0.1,0.1L31.9,33C31.9,32.9,31.9,32.8,32,32.8z M32.2,33.1
		c-0.1,0.1-0.2,0-0.3-0.1l0.4-0.2c0,0.1,0,0.1,0,0.2C32.3,33.1,32.3,33.1,32.2,33.1z"/>
</g>
</svg>
