<?xml version="1.0" encoding="UTF-8"?>
<svg width="21px" height="27px" viewBox="0 0 21 27" version="1.1" xmlns="http://www.w3.org/2000/svg" xmlns:xlink="http://www.w3.org/1999/xlink">
    <!-- Generator: Sketch 52.6 (67491) - http://www.bohemiancoding.com/sketch -->
    <title>Group</title>
    <desc>Created with Sketch.</desc>
    <g id="type_C" stroke="none" stroke-width="1" fill="none" fill-rule="evenodd">
        <g id="top_e-copy" transform="translate(-31.000000, -5887.000000)" fill="#000000" fill-rule="nonzero">
            <g id="Group" transform="translate(31.000000, 5887.000000)">
                <path d="M7.54772727,2.82272727 C7.48636364,2.51590909 7.425,1.10454545 7.36363636,0.613636364 C7.36363636,0.245454545 7.05681818,-2.72509288e-16 6.68863636,0.0613636364 C6.32045455,0.0613636364 6.075,0.368181818 6.13636364,0.736363636 C6.13636364,0.920454545 6.25909091,2.63863636 6.32045455,3.06818182 L6.75,6.13636364 C6.75,6.19772727 6.75,6.25909091 6.75,6.32045455 C6.75,6.81136364 6.56590909,7.24090909 6.19772727,7.54772727 C6.01363636,7.73181818 5.76818182,7.91590909 5.46136364,7.97727273 C5.27727273,8.03863636 5.09318182,8.16136364 4.90909091,8.22272727 L4.90909091,0.613636364 C4.90909091,0.245454545 4.66363636,0 4.29545455,0 C3.92727273,0 3.68181818,0.306818182 3.68181818,0.613636364 L3.68181818,8.28409091 C3.49772727,8.16136364 3.31363636,8.1 3.12954545,8.03863636 C2.82272727,7.97727273 2.57727273,7.79318182 2.39318182,7.60909091 C1.96363636,7.24090909 1.77954545,6.68863636 1.84090909,6.13636364 L2.27045455,2.94545455 C2.33181818,2.57727273 2.45454545,0.859090909 2.45454545,0.675 C2.45454545,0.306818182 2.20909091,0 1.90227273,0 C1.53409091,0 1.22727273,0.245454545 1.22727273,0.552272727 C1.16590909,1.10454545 1.10454545,2.51590909 1.04318182,2.82272727 L0.613636364,5.95227273 C0.490909091,6.87272727 0.859090909,7.79318182 1.53409091,8.46818182 C1.90227273,8.775 2.27045455,9.02045455 2.76136364,9.20454545 C3.31363636,9.38863636 3.68181818,9.87954545 3.68181818,10.4318182 L3.68181818,14.5431818 L3.06818182,15.1568182 C2.7,15.525 2.45454545,16.0159091 2.45454545,16.5068182 L2.45454545,25.1590909 C2.45454545,26.2022727 3.25227273,27 4.29545455,27 C5.33863636,27 6.13636364,26.2022727 6.13636364,25.1590909 L6.13636364,16.5681818 C6.13636364,16.0772727 5.95227273,15.5863636 5.58409091,15.2795455 L4.90909091,14.5431818 L4.90909091,10.4318182 C4.90909091,9.87954545 5.27727273,9.38863636 5.82954545,9.20454545 C6.25909091,9.08181818 6.68863636,8.83636364 7.05681818,8.46818182 C7.67045455,7.91590909 7.97727273,7.11818182 7.97727273,6.32045455 C7.97727273,6.19772727 7.97727273,6.075 7.97727273,5.95227273 L7.54772727,2.82272727 Z M4.90909091,25.1590909 C4.90909091,25.5272727 4.66363636,25.7727273 4.29545455,25.7727273 C3.92727273,25.7727273 3.68181818,25.5272727 3.68181818,25.1590909 L3.68181818,16.5068182 C3.68181818,16.3227273 3.74318182,16.2 3.86590909,16.0772727 L4.29545455,15.6477273 L4.725,16.0772727 C4.84772727,16.2613636 4.90909091,16.3840909 4.90909091,16.5681818 L4.90909091,25.1590909 Z" id="Shape"></path>
                <path d="M20.3045455,3.375 C19.875,1.28863636 19.0772727,0 16.5,0 C13.9227273,0 13.125,1.28863636 12.6954545,3.375 C12.45,4.41818182 12.2045455,7.425 12.2045455,7.60909091 C12.2045455,9.32727273 13.4318182,10.6159091 15.3954545,10.9840909 C15.7022727,11.0454545 15.8863636,11.2909091 15.8863636,11.5977273 L15.8863636,14.6045455 L15.2727273,15.2181818 C14.9045455,15.5863636 14.6590909,16.0772727 14.6590909,16.5681818 L14.6590909,25.1590909 C14.6590909,26.2022727 15.4568182,27 16.5,27 C17.5431818,27 18.3409091,26.2022727 18.3409091,25.1590909 L18.3409091,16.5681818 C18.3409091,16.0772727 18.1568182,15.5863636 17.7886364,15.2795455 L17.1136364,14.5431818 L17.1136364,11.5363636 C17.1136364,11.2295455 17.2977273,10.9840909 17.6045455,10.9227273 C19.5681818,10.5545455 20.7954545,9.26590909 20.7954545,7.54772727 C20.7954545,7.54772727 20.7954545,7.54772727 20.7954545,7.48636364 C20.7954545,7.425 20.55,4.35681818 20.3045455,3.375 Z M17.1136364,25.1590909 C17.1136364,25.5272727 16.8681818,25.7727273 16.5,25.7727273 C16.1318182,25.7727273 15.8863636,25.5272727 15.8863636,25.1590909 L15.8863636,16.5068182 C15.8863636,16.3227273 15.9477273,16.2 16.0704545,16.0772727 L16.5,15.7090909 L16.9295455,16.1386364 C17.0522727,16.2613636 17.1136364,16.3840909 17.1136364,16.5681818 L17.1136364,25.1590909 Z M17.3590909,9.75681818 C16.9909091,9.81818182 16.7454545,9.94090909 16.5,10.1863636 C16.2545455,9.94090909 15.9477273,9.81818182 15.6409091,9.75681818 C14.2909091,9.51136364 13.4318182,8.71363636 13.4318182,7.60909091 C13.4318182,7.60909091 13.6772727,4.54090909 13.8613636,3.62045455 C14.2909091,1.71818182 14.8431818,1.22727273 16.5,1.22727273 C18.1568182,1.22727273 18.7090909,1.71818182 19.1386364,3.62045455 C19.3227273,4.54090909 19.5681818,7.30227273 19.5681818,7.60909091 C19.5681818,8.71363636 18.7704545,9.51136364 17.3590909,9.75681818 Z" id="Shape"></path>
            </g>
        </g>
    </g>
</svg>