<svg width="12" height="12" viewBox="0 0 12 12" fill="none" xmlns="http://www.w3.org/2000/svg">
<path d="M11.8804 0.779578C11.8326 0.555891 11.7005 0.364397 11.5085 0.240065L11.3508 0.137935C11.1588 0.0136028 10.9301 -0.0285813 10.7064 0.0191533C10.4827 0.066888 10.2912 0.198991 10.1669 0.39104L4.24614 9.52668L1.694 6.97454C1.35986 6.6404 0.817018 6.64095 0.482875 6.97454L0.350216 7.1072C0.0160737 7.44078 0.0160737 7.98418 0.350216 8.31833L3.78156 11.7497C3.94863 11.9167 4.16788 12 4.38713 12C4.60637 12 4.82562 11.9167 4.99269 11.7497C5.00379 11.7386 5.01433 11.7264 5.02322 11.713L5.89854 10.4714C5.90076 10.4686 5.90242 10.4653 5.90464 10.4625L11.7616 1.424C11.8859 1.23195 11.9281 1.00326 11.8804 0.779578Z" fill="black"/>
</svg>
