<svg width="80" height="80" viewBox="0 0 80 80" fill="none" xmlns="http://www.w3.org/2000/svg">
<path d="M60.9106 18.4321L60.2906 18.0321C59.2406 17.3521 57.8405 17.6521 57.1705 18.7021L33.3405 55.4721L32.2405 54.3721L22.4305 44.5621C21.5505 43.6821 20.1205 43.6821 19.2405 44.5621L18.7205 45.0821C17.8405 45.9621 17.8405 47.3921 18.7205 48.2721L32.1105 61.6621C32.9905 62.5421 34.4205 62.5421 35.3005 61.6621L38.7105 56.8121L61.5705 21.5421C62.2605 20.5121 61.9606 19.1121 60.9106 18.4321Z" fill="#5E941A"/>
<path d="M40.0006 0.390625C18.1606 0.390625 0.390625 18.1606 0.390625 40.0006C0.390625 61.8406 18.1606 79.6106 40.0006 79.6106C61.8406 79.6106 79.6106 61.8406 79.6106 40.0006C79.6106 18.1606 61.8406 0.390625 40.0006 0.390625ZM40.0006 76.1006C20.0906 76.1006 3.90062 59.9106 3.90062 40.0006C3.90062 20.0906 20.0906 3.90062 40.0006 3.90062C59.9106 3.90062 76.1006 20.0906 76.1006 40.0006C76.1006 59.9106 59.9106 76.1006 40.0006 76.1006Z" fill="#5E941A"/>
</svg>
