<?xml version="1.0" encoding="utf-8"?>
<!-- Generator: Adobe Illustrator 25.4.1, SVG Export Plug-In . SVG Version: 6.00 Build 0)  -->
<svg version="1.1" id="Layer_1" xmlns="http://www.w3.org/2000/svg" xmlns:xlink="http://www.w3.org/1999/xlink" x="0px" y="0px"
	 viewBox="0 0 100 100" style="enable-background:new 0 0 100 100;" xml:space="preserve">
<style type="text/css">
	.st0{fill:#1D1E1C;}
	.st1{fill:#010000;}
</style>
<g>
	<path class="st1" d="M91.9,24.3c-0.6-0.2-1.2,0.2-1.4,0.8l-2.6,9.2c-3-1.9-10.4-6-17.3-6c-4.4,0-7.4,1.7-10.3,3.4
		c-3,1.7-5.8,3.3-10.3,3.3c-4.4,0-7.1-1.6-9.9-3.2c-2.9-1.7-5.9-3.4-10.7-3.4c-7.3,0-14.4,4.1-17.3,5.9l-2.6-9.2
		c-0.2-0.6-0.8-1-1.4-0.8c-0.6,0.2-1,0.8-0.8,1.4l13.8,49c0.1,0.5,0.6,0.8,1.1,0.8l55.7,0.2c0,0,0,0,0,0c0.5,0,1-0.3,1.1-0.8
		l13.8-49.2C92.9,25.1,92.5,24.5,91.9,24.3z M77,73.4l-53.9-0.2L12.8,36.6c2.1-1.5,9.4-6,16.6-6c4.2,0,6.8,1.5,9.5,3.1
		c3,1.7,6,3.5,11.1,3.5c5.1,0,8.3-1.8,11.5-3.6c2.8-1.6,5.4-3,9.2-3c6.7,0,14.3,4.5,16.6,6L77,73.4z"/>
	<path class="st1" d="M42.9,55.7L42.9,55.7c1.3-0.4,2.3-1,3-2c0.8-1,1.1-2.1,1.1-3.3c0-1-0.2-2-0.6-2.7c-0.4-0.8-0.9-1.4-1.6-2
		c-0.7-0.5-1.5-0.9-2.4-1.2c-0.9-0.3-1.9-0.4-2.9-0.4c-0.9,0-1.8,0.1-2.6,0.4c-0.8,0.3-1.6,0.6-2.2,1.1c-0.7,0.5-1.2,1-1.7,1.7
		c-0.5,0.6-0.8,1.4-1,2.1l3.7,0.9c0.2-0.9,0.7-1.6,1.3-2.2c0.6-0.5,1.4-0.8,2.4-0.8c0.5,0,0.9,0.1,1.4,0.2c0.4,0.2,0.8,0.4,1.2,0.7
		c0.3,0.3,0.6,0.6,0.8,1c0.2,0.4,0.3,0.9,0.3,1.4c0,0.7-0.1,1.3-0.4,1.7c-0.3,0.4-0.7,0.8-1.2,1.1c-0.5,0.3-1,0.4-1.6,0.5
		c-0.6,0.1-1.2,0.1-1.7,0.1h-1v3.1h1c0.6,0,1.2,0.1,1.9,0.2c0.7,0.1,1.3,0.3,1.8,0.6c0.5,0.3,1,0.7,1.4,1.2c0.4,0.5,0.5,1.1,0.5,1.9
		c0,0.7-0.1,1.3-0.4,1.8c-0.3,0.5-0.6,0.9-1,1.2c-0.4,0.3-0.9,0.5-1.4,0.7C40.5,65,40,65,39.5,65c-1.2,0-2.3-0.3-3-0.9
		c-0.8-0.6-1.3-1.4-1.6-2.3l-3.7,1.1c0.3,1,0.7,1.8,1.3,2.5c0.6,0.7,1.2,1.3,1.9,1.7c0.7,0.4,1.5,0.8,2.4,1c0.9,0.2,1.8,0.3,2.8,0.3
		s1.9-0.1,2.9-0.4c1-0.3,1.8-0.7,2.6-1.3c0.8-0.6,1.4-1.3,1.9-2.2c0.5-0.9,0.7-1.9,0.7-3.1c0-1.4-0.4-2.7-1.3-3.6
		C45.5,56.6,44.4,56,42.9,55.7z"/>
	<path class="st1" d="M66.2,47.3c-0.7-1-1.5-1.9-2.5-2.4c-1-0.6-2.2-0.8-3.5-0.8c-1.3,0-2.5,0.3-3.5,0.8c-1,0.6-1.9,1.4-2.6,2.4
		c-0.7,1-1.2,2.3-1.6,3.8c-0.4,1.5-0.5,3.2-0.5,5.1c0,1.9,0.2,3.6,0.5,5.1s0.9,2.8,1.6,3.8c0.7,1,1.6,1.9,2.6,2.4
		c1,0.6,2.2,0.8,3.5,0.8c1.3,0,2.5-0.3,3.5-0.8c1-0.6,1.9-1.4,2.5-2.4c0.7-1,1.2-2.3,1.6-3.8s0.5-3.2,0.5-5.1c0-1.9-0.2-3.6-0.5-5.1
		C67.4,49.6,66.9,48.4,66.2,47.3z M64.1,59c-0.1,1-0.3,2-0.6,2.9c-0.3,0.9-0.7,1.7-1.3,2.3C61.7,64.7,61,65,60.2,65
		c-0.9,0-1.6-0.3-2.2-0.9c-0.5-0.6-1-1.4-1.3-2.3c-0.3-0.9-0.5-1.9-0.6-2.9C56,57.9,56,57,56,56.2c0-0.8,0.1-1.7,0.2-2.7
		c0.1-1,0.3-2,0.6-2.9c0.3-0.9,0.7-1.7,1.3-2.3c0.5-0.6,1.3-0.9,2.2-0.9c0.9,0,1.6,0.3,2.1,0.9c0.5,0.6,1,1.4,1.3,2.3
		c0.3,0.9,0.5,1.9,0.6,2.9c0.1,1,0.1,1.9,0.1,2.7C64.3,57,64.2,57.9,64.1,59z"/>
</g>
</svg>
